<?xml version="1.0" encoding="utf-8"?>
<!-- Generator: Adobe Illustrator 23.0.4, SVG Export Plug-In . SVG Version: 6.00 Build 0)  -->
<svg version="1.1" id="Capa_1" xmlns="http://www.w3.org/2000/svg" xmlns:xlink="http://www.w3.org/1999/xlink" x="0px" y="0px"
	 viewBox="0 0 59.3 67.4" style="enable-background:new 0 0 59.3 67.4;" xml:space="preserve">
<style type="text/css">
	.st0{fill:#706F6F;}
</style>
<g>
	<path class="st0" d="M59.2,0.5C59,0.2,58.6,0,58.2,0H36.5c-0.4,0-0.8,0.2-1,0.6l-5.8,10.8L23.8,0.6c-0.2-0.4-0.6-0.6-1-0.6H1.1
		C0.7,0,0.3,0.2,0.2,0.5C0,0.9-0.1,1.3,0.1,1.6L16.2,31c-0.5,0.9-0.9,2-1.2,3.1c-3.1,0.7-5.4,2.4-6.5,4.8c-1.1,2.5-0.7,5.4,1,8.4
		c-1.7,2.9-2.1,5.9-1.1,8.4c1,2.4,3.3,4.1,6.5,4.8c0.7,3.1,2.4,5.4,4.8,6.5c2.5,1.1,5.4,0.7,8.4-1c1.8,1.1,3.7,1.7,5.4,1.7
		c1,0,2-0.2,2.9-0.6c2.4-1,4.1-3.3,4.8-6.5c3.1-0.7,5.4-2.4,6.5-4.8c1.1-2.5,0.7-5.4-1-8.4c1.7-2.9,2.1-5.9,1-8.4
		c-1-2.4-3.3-4-6.3-4.7L59.2,1.6C59.4,1.3,59.4,0.9,59.2,0.5z M22.2,2.2l6.2,11.5l-7.3,13.5c-0.5,0.1-0.9,0.2-1.3,0.4
		c-0.8,0.3-1.5,0.8-2.1,1.4L2.9,2.2H22.2z M45.7,39.7c0.8,1.9,0.4,4.4-1.2,6.9c-0.2,0.4-0.2,0.8,0,1.2c1.6,2.5,2.1,4.9,1.2,6.9
		c-0.8,1.9-2.8,3.2-5.6,3.6c-0.5,0.1-0.8,0.4-0.9,0.9c-0.5,2.8-1.8,4.8-3.6,5.6c-1.9,0.8-4.4,0.4-6.9-1.2c-0.2-0.1-0.4-0.2-0.6-0.2
		c-0.2,0-0.4,0.1-0.6,0.2c-2.5,1.6-4.9,2.1-6.9,1.2C18.8,64,17.5,62,17,59.2c-0.1-0.5-0.4-0.8-0.9-0.9c-2.8-0.5-4.8-1.8-5.6-3.6
		c-0.8-1.9-0.4-4.4,1.2-6.9c0.2-0.4,0.2-0.8,0-1.2c-1.6-2.5-2.1-4.9-1.2-6.9c0.8-1.9,2.8-3.2,5.6-3.6c0.5-0.1,0.8-0.4,0.9-0.9
		c0.5-2.8,1.8-4.8,3.6-5.6c1.9-0.8,4.4-0.4,6.9,1.2c0.4,0.2,0.8,0.2,1.2,0c2.5-1.6,4.9-2.1,6.9-1.2c1.9,0.8,3.2,2.8,3.6,5.6
		c0.1,0.5,0.4,0.8,0.9,0.9C42.9,36.6,44.9,37.9,45.7,39.7z M40.3,31.5c-0.9-1.8-2.2-3.1-3.9-3.9c-2.5-1.1-5.4-0.7-8.4,1
		c-1.5-0.9-3-1.4-4.5-1.6l7-12.9c0,0,0-0.1,0-0.1l6.5-11.9h19.3L40.3,31.5z"/>
	<path class="st0" d="M39.2,42.9l-6.7-1.4l-3.4-5.9c-0.2-0.3-0.6-0.5-0.9-0.5c-0.4,0-0.7,0.2-0.9,0.5l-3.4,5.9l-6.7,1.4
		c-0.4,0.1-0.7,0.4-0.8,0.7c-0.1,0.4,0,0.8,0.2,1.1l4.6,5.1l-0.7,6.8c0,0.4,0.1,0.8,0.4,1c0.3,0.2,0.7,0.3,1.1,0.1l6.3-2.8l6.3,2.8
		c0.1,0.1,0.3,0.1,0.4,0.1c0.2,0,0.5-0.1,0.6-0.2c0.3-0.2,0.5-0.6,0.4-1l-0.7-6.8l4.6-5.1c0.3-0.3,0.3-0.7,0.2-1.1
		C39.9,43.3,39.6,43,39.2,42.9z M33.3,48.7C33.1,49,33,49.3,33,49.6l0.6,5.4l-5-2.2c-0.1-0.1-0.3-0.1-0.4-0.1c-0.2,0-0.3,0-0.4,0.1
		l-5,2.2l0.6-5.4c0-0.3-0.1-0.6-0.3-0.8l-3.6-4l5.3-1.1c0.3-0.1,0.6-0.3,0.7-0.5l2.7-4.7l2.7,4.7c0.2,0.3,0.4,0.5,0.7,0.5l5.3,1.1
		L33.3,48.7z"/>
</g>
</svg>
