<?xml version="1.0" encoding="utf-8"?>
<!-- Generator: Adobe Illustrator 23.0.4, SVG Export Plug-In . SVG Version: 6.00 Build 0)  -->
<svg version="1.1" id="Capa_1" xmlns="http://www.w3.org/2000/svg" xmlns:xlink="http://www.w3.org/1999/xlink" x="0px" y="0px"
	 viewBox="0 0 61.8 63.7" style="enable-background:new 0 0 61.8 63.7;" xml:space="preserve">
<style type="text/css">
	.st0{fill:#706F6F;}
</style>
<g>
	<path class="st0" d="M61.1,4.9c-0.1-0.5-0.5-0.8-1-0.8H49c0-1.8-0.1-3-0.1-3.2c0-0.5-0.5-0.9-1-0.9H13.9c-0.5,0-1,0.4-1,0.9
		c0,0.2-0.1,1.4-0.1,3.2H1.7c-0.5,0-0.9,0.3-1,0.8C0.6,5.4-2.1,16.8,3.9,24.3c3.2,4,8.2,6.1,14.9,6.2c0.4,0.6,0.9,1.2,1.4,1.8
		c1.6,1.8,3.4,3,5.4,3.9v7.5c-1.9,0.8-4.4,2.9-4.8,6.8h-3.7c-0.6,0-1,0.4-1,1v4.6H7.4c-0.6,0-1,0.4-1,1v5.6c0,0.6,0.4,1,1,1h47
		c0.6,0,1-0.4,1-1v-5.6c0-0.6-0.4-1-1-1h-8.5v-4.6c0-0.6-0.4-1-1-1h-3.7c-0.4-3.9-3-6-4.8-6.8v-7.5c2-0.8,3.8-2.1,5.4-3.9
		c0.5-0.6,0.9-1.1,1.4-1.8c6.7-0.1,11.7-2.2,14.9-6.2C63.8,16.8,61.2,5.4,61.1,4.9z M5.5,23.1c-4.5-5.7-3.4-14.3-3-17h10.3
		c0.1,5.8,0.8,15.3,4.7,22.3C12.1,28.2,8,26.4,5.5,23.1z M53.4,61.7h-45v-3.6h8.5h27.9h8.5V61.7z M43.8,56.1H17.9v-3.6h25.9V56.1z
		 M39.1,50.5H22.7c0.5-3.7,3.4-4.9,4-5.1h8.5C35.7,45.6,38.7,46.7,39.1,50.5z M34.3,43.3h-6.8v-6.5c1.1,0.3,2.2,0.5,3.5,0.5
		c1.2,0,2.3-0.2,3.4-0.5V43.3z M40.2,31c-2.5,2.8-5.6,4.3-9.3,4.4c-3.7-0.1-6.9-1.6-9.3-4.4c-7.2-8.1-6.9-24.9-6.7-29h32
		C47.1,6.1,47.4,22.9,40.2,31z M56.3,23.1c-2.6,3.3-6.6,5.1-12,5.4c3.8-7,4.6-16.5,4.7-22.3h10.3C59.7,8.8,60.8,17.4,56.3,23.1z"/>
	<path class="st0" d="M38.6,13.3h-5.2l-1.6-4.9c-0.1-0.4-0.5-0.7-1-0.7s-0.8,0.3-1,0.7l-1.6,4.9h-5.2c-0.4,0-0.8,0.3-1,0.7
		c-0.1,0.4,0,0.9,0.4,1.1l4.2,3L25.2,23c-0.1,0.4,0,0.9,0.4,1.1c0.2,0.1,0.4,0.2,0.6,0.2c0.2,0,0.4-0.1,0.6-0.2l4.2-3l4.2,3
		c0.4,0.3,0.8,0.3,1.2,0c0.4-0.3,0.5-0.7,0.4-1.1L35,18.1l4.2-3c0.4-0.3,0.5-0.7,0.4-1.1C39.4,13.5,39,13.3,38.6,13.3z M33.2,16.9
		c-0.4,0.3-0.5,0.7-0.4,1.1l0.9,2.7l-2.3-1.7c-0.2-0.1-0.4-0.2-0.6-0.2c-0.2,0-0.4,0.1-0.6,0.2L28,20.7l0.9-2.7
		c0.1-0.4,0-0.9-0.4-1.1l-2.3-1.7h2.8c0.4,0,0.8-0.3,1-0.7l0.9-2.7l0.9,2.7c0.1,0.4,0.5,0.7,1,0.7h2.8L33.2,16.9z"/>
</g>
</svg>
