<?xml version="1.0" encoding="utf-8"?>
<!-- Generator: Adobe Illustrator 23.0.4, SVG Export Plug-In . SVG Version: 6.00 Build 0)  -->
<svg version="1.1" id="Capa_1" xmlns="http://www.w3.org/2000/svg" xmlns:xlink="http://www.w3.org/1999/xlink" x="0px" y="0px"
	 viewBox="0 0 327 218" style="enable-background:new 0 0 327 218;" xml:space="preserve">
<style type="text/css">
	.st0{fill:#FFFFFF;}
</style>
<g>
	<path class="st0" d="M22.5,36.7l-8.1,8.5v15.3H0.5V-0.1h13.9v28.3L41.2-0.1h15.6l-25.1,27l26.5,33.5H41.9L22.5,36.7z"/>
	<path class="st0" d="M106.9,41H71.7c1.3,5.8,6.2,9.3,13.3,9.3c4.9,0,8.5-1.5,11.7-4.5l7.2,7.8c-4.3,4.9-10.8,7.5-19.2,7.5
		c-16.1,0-26.5-10.1-26.5-23.9c0-13.9,10.6-23.9,24.8-23.9c13.7,0,24.2,9.2,24.2,24.1C107.1,38.4,106.9,39.9,106.9,41z M71.5,33.1
		h22.9c-1-5.9-5.4-9.7-11.4-9.7C76.9,23.5,72.5,27.2,71.5,33.1z"/>
	<path class="st0" d="M161.4,41h-35.2c1.3,5.8,6.2,9.3,13.3,9.3c4.9,0,8.5-1.5,11.7-4.5l7.2,7.8c-4.3,4.9-10.8,7.5-19.2,7.5
		c-16.1,0-26.5-10.1-26.5-23.9c0-13.9,10.6-23.9,24.8-23.9c13.7,0,24.2,9.2,24.2,24.1C161.7,38.4,161.5,39.9,161.4,41z M126,33.1
		h22.9c-1-5.9-5.4-9.7-11.4-9.7C131.4,23.5,127,27.2,126,33.1z"/>
	<path class="st0" d="M221.3,37.2c0,14.6-10.1,23.9-23.2,23.9c-5.8,0-10.5-1.8-14-5.6v21.7h-13.5V13.9h12.9v5.4
		c3.4-4.1,8.4-6,14.6-6C211.2,13.3,221.3,22.6,221.3,37.2z M207.6,37.2c0-8-5.1-12.9-11.8-12.9S184,29.2,184,37.2
		s5.1,12.9,11.8,12.9S207.6,45.2,207.6,37.2z"/>
</g>
<g>
	<path class="st0" d="M1.1,107.2c0-14.1,11.1-24.1,26.3-24.1s26.2,10,26.2,24.1s-11,24.1-26.2,24.1S1.1,121.2,1.1,107.2z
		 M39.5,107.2c0-8.1-5.2-12.9-12.2-12.9s-12.3,4.9-12.3,12.9s5.3,12.9,12.3,12.9S39.5,115.2,39.5,107.2z"/>
	<path class="st0" d="M111.6,103.8v26.8H97.8v-24.7c0-7.6-3.6-11-9.7-11c-6.7,0-11.5,4-11.5,12.6v23.1H62.8V83.8H76v5.5
		c3.7-4,9.3-6.2,15.8-6.2C103.1,83.1,111.6,89.5,111.6,103.8z"/>
</g>
<g>
	<path class="st0" d="M118,73.9c0-3.8,2.7-6.3,6.4-6.3c3.7,0,6.5,2.6,6.5,6.3c0,1.7-0.3,2.9-1.8,6.6l-3.9,9.4h-6.6l2.9-10.4
		C119.4,78.6,118,76.6,118,73.9z"/>
</g>
<g>
	<path class="st0" d="M83.6,171.5v28H69.4v-25.9c0-7.9-3.5-11.6-9.3-11.6c-6.4,0-10.8,4.1-10.8,12.8v24.6H35v-25.9
		c0-7.9-3.4-11.6-9.3-11.6c-6.3,0-10.7,4.1-10.7,12.8v24.6H0.8v-49h13.6v5.6c3.6-4.2,9.1-6.4,15.4-6.4c6.8,0,12.7,2.6,16.1,8
		c3.9-5,10.3-8,17.7-8C75.2,149.8,83.6,156.6,83.6,171.5z"/>
	<path class="st0" d="M88.3,175.1c0-14.7,11.4-25.2,26.9-25.2c15.6,0,26.9,10.5,26.9,25.2c0,14.7-11.3,25.2-26.9,25.2
		C99.7,200.3,88.3,189.8,88.3,175.1z M127.7,175.1c0-8.5-5.4-13.6-12.5-13.6c-7.1,0-12.6,5.1-12.6,13.6c0,8.5,5.5,13.6,12.6,13.6
		C122.3,188.6,127.7,183.5,127.7,175.1z"/>
	<path class="st0" d="M193.9,150.6l-20.7,49h-14.7l-20.6-49h14.7l13.6,33.3l14-33.3H193.9z"/>
	<path class="st0" d="M193.1,135.8c0-4.5,3.6-7.9,8.8-7.9c5.3,0,8.8,3.3,8.8,7.6c0,4.7-3.6,8.2-8.8,8.2
		C196.6,143.7,193.1,140.3,193.1,135.8z M194.8,150.6H209v49h-14.2V150.6z"/>
	<path class="st0" d="M267.4,171.5v28h-14.2v-25.9c0-7.9-3.6-11.6-9.9-11.6c-6.8,0-11.7,4.2-11.7,13.2v24.2h-14.2v-49h13.6v5.7
		c3.8-4.2,9.6-6.5,16.2-6.5C258.6,149.8,267.4,156.6,267.4,171.5z"/>
	<path class="st0" d="M326.4,150.6v40.8c0,18.2-9.8,26.6-27.5,26.6c-9.3,0-18.3-2.3-24-6.7l5.6-10.2c4.2,3.4,11,5.6,17.3,5.6
		c10,0,14.4-4.6,14.4-13.4v-2.1c-3.7,4.1-9.1,6.1-15.5,6.1c-13.6,0-24.5-9.4-24.5-23.7c0-14.3,10.9-23.7,24.5-23.7
		c6.8,0,12.5,2.3,16.2,7v-6.3H326.4z M312.3,173.5c0-7.2-5.4-12-12.8-12s-12.9,4.8-12.9,12c0,7.2,5.5,12,12.9,12
		S312.3,180.7,312.3,173.5z"/>
</g>
</svg>
