<?xml version="1.0" encoding="utf-8"?>
<!-- Generator: Adobe Illustrator 23.0.4, SVG Export Plug-In . SVG Version: 6.00 Build 0)  -->
<svg version="1.1" id="Capa_1" xmlns="http://www.w3.org/2000/svg" xmlns:xlink="http://www.w3.org/1999/xlink" x="0px" y="0px"
	 viewBox="0 0 40 40" style="enable-background:new 0 0 40 40;" xml:space="preserve">
<style type="text/css">
	.st0{fill:#FFFFFF;}
</style>
<g>
	<path class="st0" d="M20,16.7c-1.8,0-3.3,1.5-3.3,3.3s1.5,3.3,3.3,3.3s3.3-1.5,3.3-3.3C23.3,18.1,21.8,16.7,20,16.7"/>
	<path class="st0" d="M23.8,10.6h-7.7c-2.9,0-5.4,2.4-5.4,5.4v8.2c0,2.9,2.4,5.4,5.4,5.4h7.7c2.9,0,5.4-2.4,5.4-5.4V16
		C29.2,13,26.8,10.6,23.8,10.6 M20,25.1c-2.8,0-5.1-2.3-5.1-5.1s2.3-5.1,5.1-5.1s5.1,2.3,5.1,5.1S22.8,25.1,20,25.1 M25.2,16
		c-0.7,0-1.2-0.5-1.2-1.2s0.5-1.2,1.2-1.2s1.2,0.5,1.2,1.2C26.4,15.5,25.8,16,25.2,16"/>
</g>
<g>
	<path class="st0" d="M20,40C9,40,0,31,0,20S9,0,20,0s20,9,20,20S31,40,20,40z M20,1C9.5,1,1,9.5,1,20s8.5,19,19,19s19-8.5,19-19
		S30.4,1,20,1z"/>
</g>
</svg>
