<?xml version="1.0" encoding="utf-8"?>
<!-- Generator: Adobe Illustrator 23.0.4, SVG Export Plug-In . SVG Version: 6.00 Build 0)  -->
<svg version="1.1" id="Capa_1" xmlns="http://www.w3.org/2000/svg" xmlns:xlink="http://www.w3.org/1999/xlink" x="0px" y="0px"
	 viewBox="0 0 40 40" style="enable-background:new 0 0 40 40;" xml:space="preserve">
<style type="text/css">
	.st0{fill:#EC671B;}
</style>
<g>
	<path class="st0" d="M20,40C9,40,0,31,0,20C0,9,9,0,20,0c11,0,20,9,20,20C40,31,31,40,20,40z M20,1C9.5,1,1,9.5,1,20s8.5,19,19,19
		c10.5,0,19-8.5,19-19S30.4,1,20,1z"/>
</g>
<path class="st0" d="M17.2,32.3c0-0.1,0-0.1,0-0.2c0-3.4,0-6.8,0-10.2c0,0,0-0.1,0-0.1c-0.1,0,0,0-0.1,0c-1.1,0-2.2,0-3.3,0
	c-0.2,0-0.2,0-0.2-0.1c0-1.3,0-2.5,0-3.8c0-0.1,0-0.1,0.1-0.1c1.1,0,2.2,0,3.3,0c0,0,0.1,0,0.2,0c0,0,0-0.1,0-0.1c0-1.1,0-2.1,0-3.2
	c0-0.9,0.2-1.7,0.6-2.4c0.5-1,1.3-1.8,2.4-2.2c0.7-0.3,1.5-0.4,2.3-0.4c0.9,0,1.8,0.1,2.7,0.1c0.2,0,0.3,0,0.5,0
	c0.1,0,0.1,0,0.1,0.1c0,0.5,0,1.1,0,1.6c0,0.6,0,1.2,0,1.9c0,0.1,0,0.1-0.1,0.1c-0.7,0-1.3,0-2,0c-0.3,0-0.6,0-0.9,0.1
	c-0.6,0.1-0.9,0.5-1,1.1c0,0.2-0.1,0.5-0.1,0.7c0,0.9,0,1.7,0,2.6c0,0,0,0.1,0,0.1c0.1,0,0.1,0,0.1,0c1.2,0,2.5,0,3.7,0
	c0.2,0,0.2,0,0.1,0.2c-0.1,0.7-0.2,1.4-0.3,2c-0.1,0.6-0.1,1.1-0.2,1.7c0,0.2,0,0.2-0.2,0.2c-1.1,0-2.1,0-3.2,0c0,0-0.1,0-0.1,0
	c0,0.1,0,0.1,0,0.2c0,3.4,0,6.7,0,10.1c0,0.1,0,0.2,0,0.2L17.2,32.3z"/>
</svg>
