<?xml version="1.0" encoding="utf-8"?>
<!-- Generator: Adobe Illustrator 23.0.4, SVG Export Plug-In . SVG Version: 6.00 Build 0)  -->
<svg version="1.1" id="Capa_1" xmlns="http://www.w3.org/2000/svg" xmlns:xlink="http://www.w3.org/1999/xlink" x="0px" y="0px"
	 viewBox="0 0 40 40" style="enable-background:new 0 0 40 40;" xml:space="preserve">
<style type="text/css">
	.st0{fill:#FFFFFF;}
</style>
<g>
	<path class="st0" d="M20,40C9,40,0,31,0,20S9,0,20,0s20,9,20,20S31,40,20,40z M20,1C9.5,1,1,9.5,1,20s8.5,19,19,19s19-8.5,19-19
		S30.4,1,20,1z"/>
</g>
<g>
	<path id="Behance" class="st0" d="M28.9,15h-5.6v-1.4h5.6V15L28.9,15z M19.7,20.7c0.4,0.6,0.5,1.2,0.5,2s-0.2,1.6-0.6,2.2
		c-0.3,0.4-0.6,0.8-1,1.1c-0.4,0.3-1,0.6-1.6,0.7s-1.2,0.2-1.9,0.2H8.9V13.1h6.7c1.7,0,2.9,0.5,3.6,1.5c0.4,0.6,0.6,1.3,0.6,2.1
		c0,0.8-0.2,1.5-0.6,2c-0.2,0.3-0.6,0.5-1.1,0.8C18.8,19.7,19.3,20.1,19.7,20.7z M12.1,18.5H15c0.6,0,1.1-0.1,1.5-0.3
		c0.4-0.2,0.6-0.6,0.6-1.2s-0.2-1.1-0.7-1.3c-0.4-0.1-1-0.2-1.6-0.2h-2.6L12.1,18.5L12.1,18.5z M17.3,22.5c0-0.7-0.3-1.2-0.9-1.5
		c-0.3-0.2-0.8-0.2-1.4-0.2h-3v3.7h3c0.6,0,1.1-0.1,1.4-0.2C17,23.9,17.3,23.4,17.3,22.5z M31,20.3c0.1,0.5,0.1,1.1,0.1,2h-7.2
		c0,1,0.4,1.7,1,2.1c0.4,0.2,0.9,0.4,1.4,0.4c0.6,0,1.1-0.1,1.4-0.5c0.2-0.2,0.4-0.4,0.5-0.7h2.6c-0.1,0.6-0.4,1.2-1,1.8
		c-0.9,1-2.1,1.4-3.7,1.4c-1.3,0-2.5-0.4-3.5-1.2c-1-0.8-1.5-2.1-1.5-4c0-1.7,0.5-3,1.4-3.9s2.1-1.4,3.5-1.4c0.9,0,1.6,0.2,2.3,0.5
		c0.7,0.3,1.3,0.8,1.7,1.5C30.6,18.8,30.9,19.5,31,20.3z M28.4,20.5c0-0.7-0.3-1.2-0.7-1.6c-0.4-0.4-0.9-0.5-1.5-0.5
		c-0.7,0-1.2,0.2-1.5,0.6c-0.4,0.4-0.6,0.9-0.7,1.5H28.4L28.4,20.5z"/>
</g>
</svg>
