<?xml version="1.0" encoding="utf-8"?>
<!-- Generator: Adobe Illustrator 23.0.4, SVG Export Plug-In . SVG Version: 6.00 Build 0)  -->
<svg version="1.1" id="Capa_1" xmlns="http://www.w3.org/2000/svg" xmlns:xlink="http://www.w3.org/1999/xlink" x="0px" y="0px"
	 viewBox="0 0 40 40" style="enable-background:new 0 0 40 40;" xml:space="preserve">
<style type="text/css">
	.st0{fill:#FFFFFF;}
	.st1{fill-rule:evenodd;clip-rule:evenodd;fill:#FFFFFF;}
</style>
<g>
	<path class="st0" d="M20,40C9,40,0,31,0,20S9,0,20,0s20,9,20,20S31,40,20,40z M20,1C9.5,1,1,9.5,1,20s8.5,19,19,19s19-8.5,19-19
		S30.4,1,20,1z"/>
</g>
<path class="st1" d="M15,28.7h-3.9V16.9H15V28.7z M13,15.3L13,15.3c-1.3,0-2.2-0.9-2.2-2c0-1.2,0.9-2,2.2-2s2.2,0.9,2.2,2
	S14.4,15.3,13,15.3 M29.1,28.7h-3.9v-6.3c0-1.6-0.6-2.7-2-2.7c-1.1,0-1.7,0.7-2,1.4c-0.1,0.3-0.1,0.6-0.1,1v6.6h-3.9
	c0,0,0.1-10.7,0-11.8h3.9v1.7c0.5-0.8,1.5-2,3.5-2c2.6,0,4.5,1.7,4.5,5.3V28.7z"/>
</svg>
