<?xml version="1.0" encoding="utf-8"?>
<!-- Generator: Adobe Illustrator 23.0.4, SVG Export Plug-In . SVG Version: 6.00 Build 0)  -->
<svg version="1.1" id="Layer_1" xmlns="http://www.w3.org/2000/svg" xmlns:xlink="http://www.w3.org/1999/xlink" x="0px" y="0px"
	 viewBox="0 0 175.7 103.6" style="enable-background:new 0 0 175.7 103.6;" xml:space="preserve">
<style type="text/css">
	.st0{fill:#FF6600;}
</style>
<g>
	<path class="st0" d="M41.4,77.4h-5.6c0.4,2.7,2.9,4.2,6.9,3.7c4.6,0.2,6.9-1.2,7.3-4c0-1.5-1-2.5-2.9-3.1l-4.6-1.2
		c-0.6,0-1-0.2-1-0.6c0-0.4,0.4-0.6,1.5-0.6c0.8,0,1.2,0.2,1.2,1h5.2c-0.2-2.7-2.3-4-6.4-3.7c-4.4,0-6.7,1.2-6.9,3.7
		c0,1.7,1,2.7,3.1,3.3l4.4,0.8l0.8,0.8c0,0.6-0.6,0.8-1.5,1l-1-0.4L41.4,77.4z"/>
	<path class="st0" d="M68.2,73c0-2.3-1.7-3.5-5.2-4h-8.7v11.9h6v-3.7h1.9C66.3,77,68.2,75.7,68.2,73z M60.3,72h0.4
		c1.2,0,1.9,0.4,1.9,1c0,0.8-0.6,1.2-1.9,1.2h-0.4V72z"/>
	<path class="st0" d="M72,75.1c0,4,2.5,6,7.7,6.2c5.2-0.2,7.7-2.3,7.7-6.2c0-4-2.5-6-7.7-6.2C74.5,69.1,72,71.1,72,75.1z M81.3,75.1
		c-0.2,2.5-0.8,3.5-1.7,3.1c-0.8,0.4-1.5-0.6-1.5-3.1c0-2.5,0.4-3.5,1.5-3.1C80.7,71.5,81.3,72.6,81.3,75.1z"/>
	<path class="st0" d="M106.3,80.9l-1-4.4c-0.2-0.8-1-1.5-2.3-1.5c2.1-0.6,2.9-1.5,2.9-2.7c-0.2-2.3-1.9-3.3-5.2-3.3h-8.7v11.9h5.8
		v-4h0.6c1-0.2,1.5,0,1.5,0.6l0.6,3.3H106.3z M97.8,72h0.4c1.2-0.2,1.9,0.2,1.9,1c0,0.8-0.6,1-1.9,1h-0.4V72z"/>
	<path class="st0" d="M109.6,72.4h3.7v8.7h5.6v-8.7h3.7v-3.1h-13.1V72.4z"/>
	<path class="st0" d="M131.7,72.2c0-0.4,0.4-0.6,1.5-0.6c0.8,0,1.2,0.2,1.5,1h5.2c-0.4-2.7-2.5-4-6.7-3.7c-4.4,0-6.7,1.2-6.7,3.7
		c0,1.7,1,2.7,3.1,3.3l4.2,0.8l1,0.8c0,0.6-0.6,0.8-1.7,1l-1-0.4l-0.4-0.8h-5.4c0.4,2.7,2.7,4.2,6.9,3.7c4.4,0.2,6.9-1.2,7.1-4
		c0-1.5-0.8-2.5-2.9-3.1l-4.4-1.2C132.1,72.8,131.9,72.6,131.7,72.2z"/>
	<path class="st0" d="M49.7,33.9h15l-0.8-12.1H37.2v44.5h12.5V51.8H62V39.7H49.7V33.9z"/>
	<path class="st0" d="M126.9,43.1l12.1-21.2h-13.3l-5.6,9.8l-5.4-9.8h-13.7l12.3,21.2L100,66.1h13.5l6.2-11.4l6.4,11.4h13.9
		L126.9,43.1z"/>
	<path class="st0" d="M85.5,22.5c-12.9,1.2-20,8.5-21.2,21.6c1.2,13.1,8.3,20.2,21.2,21.4c12.7-1.2,19.8-8.3,21-21.4
		C105.2,31,98.2,23.7,85.5,22.5z M85.5,31.4c2.1,0.2,3.5,1.5,3.7,3.7v17.7c-0.2,2.1-1.5,3.3-3.7,3.7c-2.1-0.4-3.3-1.7-3.5-3.7V35.1
		C82.2,32.9,83.4,31.6,85.5,31.4z"/>
	<path class="st0" d="M149.3,89c16-9.4,25-21,26.4-34.9h-14.1c-1.5,12.3-8.7,22.7-22.3,30.8c-13.3,8.3-30,12.7-49.9,13.1v5.6
		C113.4,103,133.1,98.2,149.3,89z"/>
	<path class="st0" d="M26.4,89c16,9.2,36,13.9,59.9,14.6V98c-19.8-0.4-36.4-4.8-49.7-13.1c-13.3-8.1-20.8-18.5-22-30.8H0
		C1.7,68,10.4,79.7,26.4,89z"/>
	<path class="st0" d="M86.3,6.2V0C62.2,0.6,41.8,5.6,25.8,15.2C9.6,24.8,1,36.8,0,51h14.6c1.2-12.7,8.3-23.1,21.6-31.2
		C49.7,11.2,66.3,6.9,86.3,6.2z"/>
	<path class="st0" d="M89.4,0v6.2c20.2,0.4,36.8,5,50.3,13.3c13.3,8.3,20.6,18.7,21.8,31.4h14.1c-0.8-14.1-9.6-26.2-25.6-35.8
		C133.9,5.6,113.8,0.6,89.4,0z"/>
	<path class="st0" d="M156,89.4h1.7v-1h-4.2v1h1.5v4.2h1V89.4z"/>
	<path class="st0" d="M159.9,88.4h-1.7v5.2h1v-4.2l1,4.2h1l0.8-4.2v4.2h1v-5.2h-1.5l-1,4.2L159.9,88.4z"/>
</g>
</svg>
