<?xml version="1.0" encoding="utf-8"?>
<!-- Generator: Adobe Illustrator 23.0.4, SVG Export Plug-In . SVG Version: 6.00 Build 0)  -->
<svg version="1.1" id="svg2" xmlns="http://www.w3.org/2000/svg" xmlns:xlink="http://www.w3.org/1999/xlink" x="0px" y="0px"
	 viewBox="0 0 92 35" style="enable-background:new 0 0 92 35;" xml:space="preserve">
<style type="text/css">
	.st0{fill:#FF6600;}
</style>
<g id="g6" transform="matrix(0.01179363,0,0,-0.01168032,0.53329615,27.901113)">
	<path id="path24" class="st0" d="M6874.8,1371.6c-111.2-25-251.2-93.8-320-157.5c-155-142.5-211.2-428.8-123.7-623.8
		c65-145,177.5-218.8,480-312.5c200-62.5,248.7-86.3,292.5-137.5c62.5-75,32.5-185-62.5-231.3c-86.2-42.5-220-32.5-405,31.3
		c-170,56.3-226.2,60-286.2,16.3c-60-45-81.2-87.5-86.2-171.3c-5-80-5-80,48.7-138.8c65-70,111.2-95,257.5-138.8
		c146.2-42.5,378.7-53.8,516.2-25c200,42.5,365,155,436.2,297.5c51.2,101.3,67.5,192.5,61.2,333.8c-7.5,160-40,243.8-130,332.5
		c-82.5,83.8-186.2,135-433.7,212.5c-101.2,32.5-202.5,71.3-223.7,86.3c-75,50-66.2,156.3,17.5,207.5c61.2,37.5,203.7,35,331.2-6.3
		c170-53.8,260-33.8,313.7,68.8c73.7,145-10,271.3-226.2,340C7227.3,1389.1,6986.1,1396.6,6874.8,1371.6z"/>
	<path id="path26" class="st0" d="M2648.7,1337.9c-41.2-21.3-63.7-43.8-85-85l-27.5-56.3l2.5-790c3.8-775,3.8-790,30-823.8
		c51.2-68.8,87.5-86.3,180-86.3c97.5,0,137.5,21.3,181.2,95c22.5,38.8,25,71.3,31.2,381.3l6.2,340l345-385
		c266.2-295,358.7-390,401.2-411.3c177.5-85,372.5,66.3,305,240c-13.7,37.5-111.2,150-332.5,388.8c-172.5,185-312.5,340-312.5,343.8
		s112.5,120,251.2,257.5c275,273.8,323.7,335,323.7,408.8c0,161.3-203.7,265-332.5,168.8c-21.2-15-175-176.3-343.7-356.3l-305-330
		l-6.2,292.5c-6.2,262.5-8.7,295-31.2,335c-30,52.5-117.5,100-181.2,100C2723.7,1365.4,2678.7,1352.9,2648.7,1337.9z"/>
	<path id="path28" class="st0" d="M4894.9,1335.4c-26.2-10-58.7-27.5-73.7-41.3c-61.2-55-60-38.8-60-870v-780l28.7-42.5
		c15-23.8,52.5-55,83.7-71.3c56.2-28.8,60-28.8,406.2-23.8c313.7,5,360,7.5,441.2,32.5c246.2,72.5,416.2,220,528.7,457.5
		c60,128.8,86.2,257.5,86.2,431.3c0,167.5-25,300-81.2,421.3c-130,281.3-352.5,446.3-662.5,491.3
		C5457.4,1359.1,4952.4,1355.4,4894.9,1335.4z M5604.9,926.6c53.7-20,95-47.5,146.2-98.8c96.2-96.3,128.7-196.3,128.7-393.8
		c0-281.3-97.5-443.8-307.5-515c-51.2-17.5-105-22.5-230-22.5h-162.5l-3.8,518.8c-1.2,285,0,526.3,3.8,536.3
		C5191.1,981.6,5509.9,962.8,5604.9,926.6z"/>
	<path id="path30" class="st0" d="M4329.9,890.3c-60-13.8-102.5-47.5-131.2-106.3c-25-52.5-26.2-67.5-22.5-610
		c3.8-540,5-557.5,30-591.3c43.7-60,87.5-83.8,157.5-88.8c85-6.3,152.5,31.3,190,102.5c25,47.5,26.2,71.3,30,543.8
		c2.5,271.3,0,522.5-3.8,558.8C4563.7,834.1,4452.4,919.1,4329.9,890.3z"/>
</g>
<g id="layer1" transform="matrix(0.41281723,0,0,0.34935752,-3.7271395,-172.34946)">
	<g id="g5615" transform="translate(-178.81813,334.48054)">
		<g id="g5486" transform="translate(182.73956,86.253071)">
		</g>
		<g id="g5490" transform="matrix(1,0,0,1.0000153,327.13956,186.45307)">
			<g id="g5492">
				<path id="path5494" class="st0" d="M-49.4-24v22.7h-2.7c-4.9-7-8.5-12.5-10.8-16.3v16.3H-66V-24h2.8c4.8,6.9,8.4,12.3,10.8,16.2
					l0.1-16.2H-49.4z M-52.5-7.8L-52.5-7.8L-52.5-7.8z"/>
				<path id="path5496" class="st0" d="M-41.4-10.2h5.1l-2.5-9.2C-39.2-17.7-40.1-14.6-41.4-10.2z M-38.8-19.5L-38.8-19.5
					L-38.8-19.5z M-36.8-24l7.1,22.7H-34l-1.8-6.2h-6.7l-1.9,6.2h-3.3L-40-24H-36.8z"/>
				<path id="path5498" class="st0" d="M-16.2-20.9H-22v19.7h-3.8v-19.7h-5.8V-24h15.4V-20.9z"/>
				<path id="path5500" class="st0" d="M6.3-11.6v9.4C4-1.3,1.9-0.9,0-0.9c-3.2,0-5.8-1.1-7.8-3.4c-1.9-2.2-2.9-5-2.9-8.4
					c0-3.2,1-5.9,2.9-8.1c2-2.3,4.7-3.5,7.9-3.5c2.1,0,3.9,0.6,5.4,1.7l-1.3,2.7c-1.3-0.8-2.6-1.2-4.1-1.2c-2,0-3.7,0.8-4.9,2.3
					c-1.3,1.5-1.9,3.6-1.9,6.1c0,2.6,0.7,4.7,2,6.3c1.3,1.5,2.7,2.2,4.4,2.2l2.7-0.5v-7L6.3-11.6z"/>
				<path id="path5502" class="st0" d="M20.4-20.7h-6.3v6.2h6.2v3.1h-6.2v7.3h7.5V-1H10.2v-22.7h10.1L20.4-20.7z"/>
				<path id="path5504" class="st0" d="M41.9-12.7c0,3.5-0.8,6.3-2.5,8.6c-1.8,2.3-4,3.5-6.9,3.5c-2.9,0-5.2-1.2-6.9-3.5
					c-1.7-2.2-2.5-5.1-2.5-8.6c0-3.2,0.9-5.9,2.6-8.1c1.8-2.2,4-3.3,6.8-3.3c2.7,0,4.9,1.1,6.7,3.3S41.9-15.9,41.9-12.7z M27.2-12.7
					c0,2.5,0.4,4.5,1.2,6.1c1,1.8,2.4,2.7,4.2,2.7c1.8,0,3.2-0.9,4.1-2.7c0.8-1.6,1.2-3.6,1.2-6.1c0-2.3-0.4-4.2-1.3-5.6
					c-1-1.7-2.3-2.6-4.1-2.6c-1.8,0-3.2,0.9-4.1,2.6C27.6-16.9,27.2-15,27.2-12.7z"/>
			</g>
		</g>
	</g>
</g>
<path id="path5488-7" class="st0" d="M21.8,31.1V3.9H4.2v27.2H21.8z M25.4,0.4v34.1H0.7V0.4H25.4z"/>
<path id="path3268" class="st0" d="M55,13.2c0,1.5-1.3,2.8-2.8,2.8s-2.8-1.3-2.8-2.8l0,0c0-1.5,1.3-2.8,2.8-2.8S55,11.6,55,13.2z"/>
</svg>
