<?xml version="1.0" encoding="utf-8"?>
<!-- Generator: Adobe Illustrator 23.0.4, SVG Export Plug-In . SVG Version: 6.00 Build 0)  -->
<svg version="1.1" id="Layer_1" xmlns="http://www.w3.org/2000/svg" xmlns:xlink="http://www.w3.org/1999/xlink" x="0px" y="0px"
	 viewBox="0 0 2425.3 1230" style="enable-background:new 0 0 2425.3 1230;" xml:space="preserve">
<style type="text/css">
	.st0{fill:#FF6600;}
</style>
<g>
	<path class="st0" d="M791.4,601.5l173.7-254.2c6.7-10-1.3-21.3-15.3-21.3l-134.1-1c-10,0-29.9,12.6-38.6,23.6l-60.5,78.9
		l-84.2,110.1l0.7-190.3c0-13-13.6-21.3-22-21.3H457.3c-10.6,0-20.3,4-20.6,23.6c-0.3,19.3,23.6,23.3,23.6,28.6V887
		c0,9.6,13.3,24.3,22.6,24.3l131.7-0.7c9.3-0.3,17.3-13.6,17.3-22.6l0.3-211.9l84.2,104.1L805.6,890c7.3,8.7,21.6,20.6,36.6,20.6
		l143.1-1c13.6,0,12.3-16.6,9-21C926.3,793.2,858.7,697.5,791.4,601.5z M1285.1,326h-152c-18,0-22,10.6-25,22
		c3.3,20.6,25,26.3,25,26.6V888c0,13.6,8.3,22.6,20,22.6l54.6-0.3l81.2-0.7c15,0,18.9-9,18.9-21.6V347.3
		C1307.7,334.4,1296.8,326,1285.1,326z"/>
	<path class="st0" d="M1747.9,63.9C1586.2,23,1404.2,0,1211.9,0c-1.3,0-2.7,0.3-4.3,0.3c-174.3,0-340.7,19.3-491.1,53.6
		C294.3,150.4-1.1,366-1.1,615.2s295.5,464.8,717.7,561.3c150.4,34.3,316.7,53.6,491.1,53.6h4.3c192.3,0,374.3-22.6,536-63.5
		c400.9-100.5,677.4-310.1,677.4-551.3C2425.3,374,2148.9,164.3,1747.9,63.9L1747.9,63.9z M1747.9,1032.4
		c-159.4,36.9-342,57.9-536,57.9c-1.3,0-2.7-0.3-4.3-0.3c-175.7,0-342.4-17.6-491.1-48.6C344.2,963.9,87.3,801.8,87.3,615.2
		S344.2,266.5,716.5,189c148.7-30.9,315.4-48.6,491.1-48.9h4.3c194,0,376.6,21,536,57.9c350.3,80.5,588.9,237.6,588.9,417.2
		S2098.3,951.9,1747.9,1032.4L1747.9,1032.4z"/>
	<path class="st0" d="M1852.7,348c-5-11.3-13.6-22-25-22h-205.6c-7.3,0-17.3,6-17.3,16c-0.3,29.3,30.3,28.3,28.6,32.6L1460.1,886
		c-3,8.7,4.7,24.6,15.3,24.6l120.8-1c10.6,0,25.6-9,29.9-22l57.2-171.7c19.3-57.2,38.6-114.5,57.6-171.7c1-2.3,4-3.7,7-3.7
		c4.7,0,9.6,1.7,10.6,5l112.1,344c2.3,7.7,18,20,26.3,20l125.8,1c7.3,0,16-14.6,13.7-21.3L1852.7,348L1852.7,348z"/>
</g>
</svg>
