<?xml version="1.0" encoding="utf-8"?>
<!-- Generator: Adobe Illustrator 23.0.4, SVG Export Plug-In . SVG Version: 6.00 Build 0)  -->
<svg version="1.1" id="Capa_1" xmlns="http://www.w3.org/2000/svg" xmlns:xlink="http://www.w3.org/1999/xlink" x="0px" y="0px"
	 viewBox="0 0 823.4 352" style="enable-background:new 0 0 823.4 352;" xml:space="preserve">
<style type="text/css">
	.st0{fill:#ff6600;stroke:#010101;stroke-miterlimit:10;}
	.st1{opacity:0.1;fill:#ff6600;stroke:#010101;stroke-miterlimit:10;}
</style>
<g>
	<g>
		<g>
			<path class="st0" d="M598.8,188.8h-2.4v-2.4h2.4V188.8z M594,188.8h-2.4v-2.4h2.4V188.8z M601.2,188.8l0-2.4c0.8,0,1.5,0,2.3-0.1
				l0.2,2.4C602.8,188.8,602,188.8,601.2,188.8z M606.1,188.4l-0.4-2.3c0.7-0.1,1.5-0.3,2.2-0.4l0.5,2.3
				C607.7,188.2,606.9,188.3,606.1,188.4z M610.9,187.3l-0.7-2.3c0.7-0.2,1.4-0.5,2.2-0.8l0.9,2.2
				C612.4,186.8,611.6,187.1,610.9,187.3z M615.4,185.5l-1-2.1c0.7-0.3,1.4-0.7,2-1.1l1.2,2.1C616.9,184.8,616.2,185.2,615.4,185.5z
				 M619.7,183.1l-1.3-2c0.6-0.4,1.3-0.9,1.8-1.4l1.5,1.9C621,182.1,620.4,182.6,619.7,183.1z M623.5,180l-1.6-1.8
				c0.6-0.5,1.1-1,1.6-1.6l1.7,1.6C624.7,178.9,624.1,179.5,623.5,180z M626.9,176.5l-1.8-1.5c0.5-0.6,0.9-1.2,1.4-1.8l1.9,1.4
				C627.9,175.2,627.4,175.8,626.9,176.5z M629.7,172.4l-2-1.2c0.4-0.7,0.8-1.3,1.1-2l2.1,1.1C630.6,171,630.2,171.7,629.7,172.4z
				 M631.9,168.1l-2.2-0.9c0.3-0.7,0.6-1.4,0.8-2.1l2.3,0.7C632.6,166.5,632.3,167.3,631.9,168.1z M633.5,163.4l-2.3-0.6
				c0.2-0.7,0.3-1.5,0.5-2.2l2.3,0.4C633.9,161.8,633.7,162.6,633.5,163.4z M634.3,158.5l-2.4-0.2c0.1-0.7,0.1-1.5,0.1-2.3l2.4,0.1
				C634.5,156.9,634.4,157.7,634.3,158.5z M632.1,153.7c0-0.8-0.1-1.5-0.2-2.3l2.4-0.3c0.1,0.8,0.2,1.6,0.2,2.4L632.1,153.7z
				 M631.6,149.2c-0.1-0.7-0.3-1.5-0.5-2.2l2.3-0.6c0.2,0.8,0.4,1.6,0.6,2.4L631.6,149.2z M630.4,144.8c-0.2-0.7-0.5-1.4-0.8-2.1
				l2.2-0.9c0.3,0.8,0.6,1.5,0.9,2.3L630.4,144.8z M628.5,140.6c-0.4-0.7-0.7-1.3-1.1-2l2-1.3c0.4,0.7,0.8,1.4,1.2,2.1L628.5,140.6z
				 M626.1,136.8c-0.4-0.6-0.9-1.2-1.4-1.8l1.8-1.5c0.5,0.6,1,1.3,1.5,1.9L626.1,136.8z M623.1,133.3c-0.5-0.5-1.1-1.1-1.7-1.6
				l1.6-1.8c0.6,0.5,1.2,1.1,1.8,1.7L623.1,133.3z M619.7,130.3c-0.6-0.5-1.2-0.9-1.9-1.3l1.3-2c0.7,0.4,1.4,0.9,2,1.4L619.7,130.3z
				 M615.9,127.8c-0.4-0.2-0.9-0.5-1.3-0.7l-0.7-0.3l0-0.8c0-0.3,0-0.5,0-0.8l1.6,0l0.1-0.2c0.2,0.1,0.3,0.2,0.5,0.2l0.2,0
				c0,0,0,0.1,0,0.1c0.3,0.1,0.5,0.3,0.7,0.4L615.9,127.8z M613.8,122.9c-0.1-0.8-0.2-1.5-0.3-2.2l2.3-0.4c0.1,0.8,0.3,1.6,0.3,2.5
				L613.8,122.9z M613,118.5c-0.2-0.7-0.4-1.5-0.7-2.2l2.2-0.8c0.3,0.8,0.5,1.6,0.8,2.4L613,118.5z M611.4,114.2
				c-0.3-0.7-0.7-1.4-1.1-2l2-1.2c0.4,0.7,0.8,1.4,1.2,2.2L611.4,114.2z M609.1,110.3c-0.4-0.6-0.9-1.2-1.4-1.8l1.8-1.5
				c0.5,0.6,1,1.3,1.5,1.9L609.1,110.3z M606.2,106.9c-0.5-0.5-1.1-1-1.7-1.5l1.5-1.8c0.6,0.5,1.3,1.1,1.8,1.7L606.2,106.9z
				 M602.7,104c-0.6-0.4-1.3-0.8-1.9-1.2l1.2-2.1c0.7,0.4,1.4,0.8,2.1,1.3L602.7,104z M598.7,101.8c-0.7-0.3-1.4-0.6-2.1-0.8
				l0.8-2.2c0.8,0.3,1.6,0.6,2.3,0.9L598.7,101.8z M595.7,97.6c0-0.8-0.1-1.5-0.2-2.3l2.4-0.3c0.1,0.8,0.2,1.6,0.2,2.4L595.7,97.6z
				 M595.2,93.1c-0.1-0.8-0.3-1.5-0.5-2.3l2.3-0.5c0.2,0.8,0.3,1.6,0.5,2.4L595.2,93.1z M594.1,88.6c-0.2-0.7-0.5-1.5-0.7-2.2
				l2.2-0.8c0.3,0.8,0.5,1.5,0.8,2.3L594.1,88.6z M516.9,86.2l-0.2-2.4c0.7-0.1,1.5-0.1,2.2-0.1l0.3,0l0,2.4l-0.2,0
				C518.3,86.1,517.6,86.1,516.9,86.2z M592.5,84.3c-0.3-0.7-0.6-1.4-1-2.1l2.1-1.1c0.4,0.7,0.7,1.5,1,2.2L592.5,84.3z M521.3,83.2
				l-2.1-1c0.3-0.7,0.7-1.5,1.1-2.2l2.1,1.1C521.9,81.9,521.6,82.5,521.3,83.2z M590.5,80.2c-0.4-0.7-0.8-1.3-1.2-2l2-1.3
				c0.4,0.7,0.9,1.4,1.3,2.1L590.5,80.2z M523.4,79.2l-2-1.2c0.4-0.7,0.9-1.4,1.3-2l1.9,1.4C524.3,77.9,523.8,78.5,523.4,79.2z
				 M587.9,76.3c-0.5-0.6-0.9-1.2-1.4-1.8l1.8-1.5c0.5,0.6,1,1.3,1.5,1.9L587.9,76.3z M526.1,75.4l-1.9-1.5c0.5-0.6,1-1.3,1.6-1.9
				l1.8,1.6C527.1,74.2,526.6,74.8,526.1,75.4z M585,72.8c-0.5-0.6-1.1-1.1-1.6-1.6l1.6-1.7c0.6,0.6,1.2,1.1,1.7,1.7L585,72.8z
				 M529.2,72l-1.7-1.7c0.6-0.6,1.2-1.1,1.8-1.7l1.6,1.8C530.3,70.9,529.7,71.5,529.2,72z M581.6,69.7c-0.6-0.5-1.2-1-1.8-1.4
				l1.4-1.9c0.7,0.5,1.3,1,1.9,1.5L581.6,69.7z M532.6,69l-1.5-1.9c0.6-0.5,1.3-1,2-1.4l1.3,2C533.8,68,533.2,68.5,532.6,69z
				 M577.9,67c-0.6-0.4-1.3-0.8-2-1.2l1.2-2.1c0.7,0.4,1.4,0.8,2.1,1.3L577.9,67z M536.4,66.4l-1.2-2c0.7-0.4,1.4-0.8,2.1-1.2
				l1.1,2.1C537.7,65.6,537.1,66,536.4,66.4z M573.9,64.7c-0.7-0.3-1.4-0.7-2.1-1l0.9-2.2c0.8,0.3,1.5,0.7,2.2,1L573.9,64.7z
				 M540.5,64.2l-1-2.2c0.7-0.3,1.5-0.7,2.2-0.9l0.9,2.2C541.9,63.6,541.2,63.9,540.5,64.2z M569.6,62.9c-0.7-0.3-1.5-0.5-2.2-0.7
				l0.7-2.3c0.8,0.2,1.6,0.5,2.3,0.7L569.6,62.9z M544.8,62.5l-0.7-2.3c0.8-0.2,1.6-0.5,2.3-0.7l0.6,2.3
				C546.2,62.1,545.5,62.3,544.8,62.5z M565.2,61.6c-0.7-0.2-1.5-0.3-2.3-0.4l0.4-2.3c0.8,0.1,1.6,0.3,2.4,0.5L565.2,61.6z
				 M549.2,61.4l-0.5-2.3c0.8-0.2,1.6-0.3,2.4-0.4l0.3,2.4C550.7,61.1,550,61.2,549.2,61.4z M560.7,60.9c-0.8-0.1-1.5-0.1-2.3-0.2
				l0.1-2.4c0.8,0,1.6,0.1,2.4,0.2L560.7,60.9z M553.8,60.8l-0.2-2.4c0.8-0.1,1.6-0.1,2.4-0.1l0,2.4
				C555.3,60.7,554.5,60.7,553.8,60.8z"/>
		</g>
		<g>
			<path class="st0" d="M622.6,154.2c0-0.7-0.1-1.5-0.2-2.2l2.3-0.3c0.1,0.8,0.2,1.7,0.2,2.5L622.6,154.2z M622,149.7
				c-0.2-0.7-0.4-1.5-0.7-2.1l2.2-0.8c0.3,0.8,0.5,1.6,0.7,2.4L622,149.7z M620.4,145.5c-0.3-0.7-0.7-1.3-1.1-2l2-1.3
				c0.4,0.7,0.9,1.4,1.2,2.2L620.4,145.5z M618,141.7c-0.5-0.6-1-1.2-1.5-1.7l1.7-1.7c0.6,0.6,1.1,1.2,1.6,1.9L618,141.7z
				 M614.9,138.5c-0.6-0.5-1.2-0.9-1.8-1.4l1.3-2c0.7,0.5,1.4,1,2,1.5L614.9,138.5z M611.1,136c-0.2-0.1-0.5-0.3-0.8-0.4l-1.3-0.6
				l1-2.1l1.3,0.6c0.3,0.1,0.6,0.3,0.8,0.4L611.1,136z M606.9,133.9l-2.7-1.3l0-0.8l1.2,0l0.5-1l2.1,1L606.9,133.9z M606.7,129.4
				l-2.4-0.1l0.1-2.4l2.4,0.1L606.7,129.4z M604.4,124.7c0-0.7-0.1-1.5-0.2-2.2l2.3-0.4c0.1,0.8,0.2,1.7,0.2,2.5L604.4,124.7z
				 M603.7,120.4c-0.2-0.7-0.5-1.4-0.8-2.1l2.1-1c0.4,0.8,0.7,1.6,0.9,2.4L603.7,120.4z M601.8,116.4c-0.4-0.6-0.8-1.2-1.3-1.8
				l1.8-1.6c0.6,0.6,1.1,1.3,1.5,2L601.8,116.4z M598.9,113.1c-0.6-0.5-1.1-0.9-1.8-1.3l1.3-2c0.7,0.5,1.4,1,2,1.5L598.9,113.1z
				 M595.2,110.7c-0.5-0.3-1.1-0.5-1.7-0.7l-0.4-0.1l0.8-2.2l0.4,0.1c0.7,0.2,1.3,0.5,1.9,0.8L595.2,110.7z M590.9,109.1l-2.2-0.8
				l0.8-2.2l2.2,0.8L590.9,109.1z M588.6,105.9h-2.4v-2.4h2.4V105.9z M588.6,101.2h-2.4v-1.4c0-0.3,0-0.6,0-0.9l2.4-0.1
				c0,0.3,0,0.6,0,1V101.2z M586.1,96.6c-0.1-0.8-0.2-1.5-0.3-2.3l2.3-0.4c0.1,0.8,0.3,1.6,0.4,2.4L586.1,96.6z M585.3,92.1
				c-0.2-0.7-0.4-1.5-0.7-2.2l2.2-0.8c0.3,0.8,0.5,1.6,0.7,2.4L585.3,92.1z M583.8,87.8c-0.3-0.7-0.6-1.4-1-2l2.1-1.1
				c0.4,0.7,0.8,1.5,1.1,2.2L583.8,87.8z M581.6,83.8c-0.4-0.6-0.8-1.3-1.3-1.9l1.9-1.4c0.5,0.7,1,1.3,1.4,2L581.6,83.8z
				 M578.8,80.2c-0.5-0.6-1-1.1-1.6-1.6l1.7-1.7c0.6,0.6,1.2,1.2,1.7,1.8L578.8,80.2z M575.6,77c-0.6-0.5-1.2-1-1.8-1.4l1.4-1.9
				c0.7,0.5,1.3,1,2,1.5L575.6,77z M571.9,74.4c-0.6-0.4-1.3-0.8-2-1.1l1.1-2.1c0.7,0.4,1.5,0.8,2.2,1.2L571.9,74.4z M567.8,72.3
				c-0.7-0.3-1.4-0.5-2.1-0.8l0.7-2.3c0.8,0.3,1.6,0.5,2.3,0.8L567.8,72.3z M563.4,70.9c-0.7-0.2-1.5-0.3-2.2-0.4l0.4-2.3
				c0.8,0.1,1.6,0.3,2.4,0.5L563.4,70.9z M558.9,70.2c-0.8-0.1-1.5-0.1-2.3-0.1v-2.4c0.8,0,1.6,0,2.5,0.1L558.9,70.2z"/>
		</g>
	</g>
	<g>
		<path class="st0" d="M564.4,99.4c-3.6,0-6.5-2.9-6.5-6.5c0-3.6,2.9-6.5,6.5-6.5s6.5,2.9,6.5,6.5C570.9,96.5,568,99.4,564.4,99.4z
			 M564.4,88.7c-2.3,0-4.2,1.9-4.2,4.2c0,2.3,1.9,4.2,4.2,4.2s4.2-1.9,4.2-4.2C568.5,90.6,566.7,88.7,564.4,88.7z"/>
	</g>
</g>
<g>
	<g>
		<path class="st0" d="M369.7,209.6c-2.9,2.4-6.4,4.2-10.2,5.1c-8.8,2.2-18.1-0.5-24.4-7.1c-6.3-6.6-8.6-16-6-24.7
			c0.6-2,1.4-3.9,2.4-5.6l11,6.4c-0.5,0.9-0.9,1.8-1.2,2.8c-1.3,4.4-0.1,9.1,3,12.3c3.1,3.3,7.8,4.6,12.2,3.6
			c1.9-0.5,3.6-1.3,5.1-2.6L369.7,209.6z"/>
		<path class="st0" d="M353.5,216.6c-7.2,0-14.2-2.9-19.2-8.2c-6.5-6.8-9-16.7-6.3-25.8c0.6-2,1.4-4,2.5-5.9l0.6-1l13,7.5l-0.6,1
			c-0.5,0.8-0.8,1.7-1.1,2.5c-1.1,3.9-0.1,8.2,2.7,11.2c2.8,3,7.1,4.2,11.1,3.2c1.7-0.4,3.3-1.2,4.6-2.3l0.9-0.8l9.6,11.6l-0.9,0.8
			c-3.1,2.5-6.8,4.4-10.6,5.3C357.7,216.3,355.6,216.6,353.5,216.6z M331.9,178.9c-0.7,1.4-1.3,2.8-1.7,4.3
			c-2.4,8.3-0.2,17.3,5.8,23.5c6,6.2,14.9,8.8,23.2,6.8c3.2-0.8,6.2-2.2,8.8-4.1l-6.6-8c-1.4,1-3,1.7-4.6,2.1
			c-4.8,1.2-9.9-0.3-13.3-3.9c-3.4-3.6-4.7-8.7-3.3-13.5c0.2-0.7,0.5-1.4,0.8-2L331.9,178.9z"/>
	</g>
	<g>
		<path class="st0" d="M320.8,171c5.1-8.7,13.6-15.2,23.7-17.7c0.1,0,0.1,0,0.2,0l7.1,29.9c0,0,0,0,0,0c-1.9,0.5-3.5,1.7-4.4,3.3
			L320.8,171z"/>
		<path class="st0" d="M347.8,188.1l-28.6-16.7l0.6-1c5.3-9.1,14.2-15.7,24.4-18.2l1.2-0.3l0.5,1.1l7.4,31.1l-1.2,0.2
			c-1.5,0.4-2.9,1.4-3.7,2.8L347.8,188.1z M322.5,170.5l24.5,14.3c0.9-1.1,2.1-2,3.4-2.5l-6.6-27.6
			C335,157.1,327.3,162.8,322.5,170.5z"/>
	</g>
	<path class="st0" d="M327.6,169.4c3.6-4.5,8.3-8,13.7-10.2l5,21.1L327.6,169.4z"/>
	<g>
		<path class="st0" d="M378.8,187.5c0.3,3.2,0,6.5-0.9,9.6c-1.5,5-4.4,9.4-8.3,12.6l-8-9.8c2-1.6,3.4-3.8,4.2-6.3
			c0.5-1.6,0.6-3.2,0.4-4.8L378.8,187.5z"/>
		<path class="st0" d="M369.4,211.3l-9.5-11.7l0.9-0.8c1.8-1.5,3.1-3.5,3.8-5.7c0.4-1.4,0.6-2.9,0.4-4.4l-0.1-1.2l15-1.5l0.1,1.2
			c0.3,3.4,0,6.8-0.9,10.1c-1.5,5.2-4.5,9.7-8.7,13.2L369.4,211.3z M363.2,200l6.5,8c3.3-3,5.8-6.9,7-11.2c0.8-2.6,1.1-5.3,0.9-8
			l-10.3,1c0,1.4-0.2,2.7-0.6,4.1C366.1,196.2,364.9,198.3,363.2,200z"/>
	</g>
	<g>
		<path class="st0" d="M347.4,165.3c8.8-2.2,18.1,0.5,24.4,7.1c4,4.2,6.4,9.6,6.9,15.2l-12.6,1.2c-0.3-2.8-1.5-5.5-3.5-7.6
			c-3.1-3.3-7.8-4.6-12.2-3.6L347.4,165.3z"/>
		<g>
			<path class="st0" d="M365.1,190.1l-0.1-1.2c-0.2-2.6-1.4-5-3.1-6.9c-2.8-3-7.1-4.2-11.1-3.2l-1.2,0.3l-3.6-14.6l1.2-0.3
				c9.2-2.3,19,0.6,25.5,7.4c4.1,4.3,6.7,9.9,7.3,15.9l0.1,1.2L365.1,190.1z M353.5,176.1c3.7,0,7.4,1.5,10,4.3
				c1.9,2,3.1,4.5,3.6,7.1l10.3-1c-0.7-5-3-9.6-6.5-13.3c-5.7-5.9-14.1-8.6-22.1-7l2.5,10.1C352,176.2,352.8,176.1,353.5,176.1z"/>
		</g>
	</g>
</g>
<g>
	<g>
		<g>
			<path class="st0" d="M579.8,137.3v54.9c10.6-4.1,15.6-14.8,15.6-27.5C595.4,152.1,590.4,141.4,579.8,137.3z"/>
			<path class="st0" d="M578.6,194v-58.4l1.6,0.6c10.4,4,16.4,14.4,16.4,28.6c0,14.2-6,24.6-16.4,28.6L578.6,194z M581,139.1v51.3
				c8.4-4,13.2-13.3,13.2-25.7C594.2,152.4,589.4,143.2,581,139.1z"/>
		</g>
		<g>
			<polygon class="st0" points="521.3,240.8 513.5,240.8 505.7,240.8 497.9,199.9 497.9,127.8 505.7,127.8 513.5,127.8 513.5,199.9 
							"/>
			<path class="st0" d="M522.8,242h-18l-8-42.1v-73.3h18v73.2L522.8,242z M506.7,239.6h13.2l-7.5-39.7v-70.9h-13.2v70.8L506.7,239.6
				z"/>
		</g>
		<g>
			
				<rect x="505.6" y="200.7" transform="matrix(0.9823 -0.1871 0.1871 0.9823 -31.91 98.6723)" class="st0" width="2.4" height="35.4"/>
		</g>
		<g>
			<path class="st0" d="M526.7,191.9h-27.5c-10.4,0-18.8-8.4-18.8-18.8v-18.8c0-10.4,8.4-18.8,18.8-18.8h27.5V191.9z"/>
			<path class="st0" d="M527.9,193.1h-25.2c-12.9,0-23.5-10.5-23.5-23.5v-11.8c0-12.9,10.5-23.5,23.5-23.5h25.2V193.1z M502.7,136.7
				c-11.6,0-21.1,9.5-21.1,21.1v11.8c0,11.6,9.5,21.1,21.1,21.1h22.8v-54H502.7z"/>
		</g>
		<g>
			<polygon class="st0" points="579.8,209.6 526.6,191.9 526.6,135.6 579.8,120 			"/>
			<path class="st0" d="M581,211.3l-55.6-18.5v-58.1l55.6-16.3V211.3z M527.8,191.1l50.8,16.9v-86.4l-50.8,14.9V191.1z"/>
		</g>
		<g>
			<g>
				
					<rect x="532.4" y="185.8" transform="matrix(0.2871 -0.9579 0.9579 0.2871 201.8515 644.0156)" class="st0" width="2.4" height="1.2"/>
			</g>
			<g>
				<path class="st0" d="M569.3,198.4l-2.4-0.7l0.7-2.3l2.4,0.7L569.3,198.4z M565.8,197.3l-2.4-0.7l0.7-2.3l2.4,0.7L565.8,197.3z
					 M562.2,196.2l-2.4-0.7l0.7-2.3l2.4,0.7L562.2,196.2z M558.7,195.2l-2.4-0.7l0.7-2.3l2.4,0.7L558.7,195.2z M555.1,194.1
					l-2.4-0.7l0.7-2.3l2.4,0.7L555.1,194.1z M551.6,193l-2.4-0.7l0.7-2.3l2.4,0.7L551.6,193z M548,192l-2.4-0.7l0.7-2.3l2.4,0.7
					L548,192z M544.5,190.9l-2.4-0.7l0.7-2.3l2.4,0.7L544.5,190.9z M540.9,189.8l-2.4-0.7l0.7-2.3l2.4,0.7L540.9,189.8z
					 M537.4,188.8l-2.4-0.7l0.7-2.3l2.4,0.7L537.4,188.8z"/>
			</g>
			<g>
				
					<rect x="570.2" y="197.2" transform="matrix(0.2879 -0.9577 0.9577 0.2879 217.5338 688.0572)" class="st0" width="2.4" height="1.2"/>
			</g>
		</g>
		<g>
			<g>
				
					<rect x="533" y="142" transform="matrix(0.9579 -0.2871 0.2871 0.9579 -18.6445 159.1962)" class="st0" width="1.2" height="2.4"/>
			</g>
			<g>
				<path class="st0" d="M535.7,143.8l-0.7-2.3l2.4-0.7l0.7,2.3L535.7,143.8z M539.2,142.7l-0.7-2.3l2.4-0.7l0.7,2.3L539.2,142.7z
					 M542.8,141.7l-0.7-2.3l2.4-0.7l0.7,2.3L542.8,141.7z M546.3,140.6l-0.7-2.3l2.4-0.7l0.7,2.3L546.3,140.6z M549.9,139.5
					l-0.7-2.3l2.4-0.7l0.7,2.3L549.9,139.5z M553.4,138.5l-0.7-2.3l2.4-0.7l0.7,2.3L553.4,138.5z M557,137.4l-0.7-2.3l2.4-0.7
					l0.7,2.3L557,137.4z M560.5,136.3l-0.7-2.3l2.4-0.7l0.7,2.3L560.5,136.3z M564.1,135.3l-0.7-2.3l2.4-0.7l0.7,2.3L564.1,135.3z
					 M567.6,134.2l-0.7-2.3l2.4-0.7l0.7,2.3L567.6,134.2z"/>
			</g>
			<g>
				
					<rect x="570.8" y="130.6" transform="matrix(0.9579 -0.2871 0.2871 0.9579 -13.7892 169.6325)" class="st0" width="1.2" height="2.4"/>
			</g>
		</g>
	</g>
	<g>
		<g>
			<line class="st0" x1="471.2" y1="124.6" x2="487" y2="124.6"/>
			<path class="st0" d="M487,125.8h-15.8c-0.7,0-1.2-0.5-1.2-1.2c0-0.7,0.5-1.2,1.2-1.2H487c0.7,0,1.2,0.5,1.2,1.2
				C488.2,125.3,487.6,125.8,487,125.8z"/>
		</g>
		<g>
			<line class="st0" x1="471.2" y1="129.1" x2="482.8" y2="129.1"/>
			<path class="st0" d="M482.8,130.3h-11.6c-0.7,0-1.2-0.5-1.2-1.2c0-0.7,0.5-1.2,1.2-1.2h11.6c0.7,0,1.2,0.5,1.2,1.2
				C484,129.8,483.4,130.3,482.8,130.3z"/>
		</g>
	</g>
	<g>
		<g>
			<line class="st0" x1="553.9" y1="225" x2="569.7" y2="225"/>
			<path class="st0" d="M569.7,226.2h-15.8c-0.7,0-1.2-0.5-1.2-1.2c0-0.7,0.5-1.2,1.2-1.2h15.8c0.7,0,1.2,0.5,1.2,1.2
				C570.9,225.7,570.4,226.2,569.7,226.2z"/>
		</g>
		<g>
			<line class="st0" x1="553.9" y1="229.6" x2="565.6" y2="229.6"/>
			<path class="st0" d="M565.6,230.8h-11.6c-0.7,0-1.2-0.5-1.2-1.2s0.5-1.2,1.2-1.2h11.6c0.7,0,1.2,0.5,1.2,1.2
				S566.2,230.8,565.6,230.8z"/>
		</g>
	</g>
</g>
<g>
	<g>
		<g>
			<polygon class="st0" points="238.9,139 272.9,163.1 205,163.1 			"/>
			<path class="st0" d="M272.9,164.3H205c-0.5,0-1-0.3-1.1-0.8c-0.2-0.5,0-1,0.4-1.3l34-24.1c0.4-0.3,1-0.3,1.4,0l34,24.1
				c0.4,0.3,0.6,0.8,0.4,1.3C273.9,164,273.4,164.3,272.9,164.3z M208.7,161.9h60.5l-30.2-21.5L208.7,161.9z"/>
		</g>
		<g>
			<polygon class="st0" points="238.9,189 272.9,163.1 205,163.1 			"/>
			<path class="st0" d="M238.9,190.2c-0.3,0-0.5-0.1-0.7-0.2l-34-25.9c-0.4-0.3-0.6-0.8-0.4-1.3c0.2-0.5,0.6-0.8,1.1-0.8h67.9
				c0.5,0,1,0.3,1.1,0.8c0.2,0.5,0,1-0.4,1.3l-34,25.9C239.4,190.2,239.2,190.2,238.9,190.2z M208.5,164.3l30.5,23.3l30.5-23.3
				H208.5z"/>
		</g>
		<g>
			<rect x="219.5" y="127.8" class="st0" width="38.8" height="72.7"/>
			<path class="st0" d="M258.3,201.7h-38.8c-0.7,0-1.2-0.5-1.2-1.2v-72.7c0-0.7,0.5-1.2,1.2-1.2h38.8c0.7,0,1.2,0.5,1.2,1.2v72.7
				C259.5,201.1,259,201.7,258.3,201.7z M220.7,199.3h36.4V129h-36.4V199.3z"/>
		</g>
		<g>
			<polygon class="st0" points="238.9,189 205,163.1 205,184.2 205,205.3 238.9,205.3 272.9,205.3 272.9,184.2 272.9,163.1 			"/>
			<path class="st0" d="M272.9,206.5H205c-0.7,0-1.2-0.5-1.2-1.2v-42.2c0-0.5,0.3-0.9,0.7-1.1c0.4-0.2,0.9-0.2,1.2,0.1l33.2,25.4
				l33.2-25.4c0.4-0.3,0.8-0.3,1.2-0.1c0.4,0.2,0.7,0.6,0.7,1.1v42.2C274.1,206,273.5,206.5,272.9,206.5z M206.1,204.2h65.6v-38.6
				L239.6,190c-0.4,0.3-1,0.3-1.4,0l-32.1-24.5V204.2z"/>
		</g>
		<g>
			<polygon class="st0" points="238.9,179.4 272.9,205.3 205,205.3 			"/>
			<path class="st0" d="M272.9,206.5H205c-0.5,0-1-0.3-1.1-0.8c-0.2-0.5,0-1,0.4-1.3l34-25.9c0.4-0.3,1-0.3,1.4,0l34,25.9
				c0.4,0.3,0.6,0.8,0.4,1.3C273.8,206.2,273.4,206.5,272.9,206.5z M208.5,204.2h60.9l-30.5-23.3L208.5,204.2z"/>
		</g>
	</g>
	<g>
		<rect x="229.4" y="150.6" class="st0" width="19" height="2.4"/>
	</g>
	<g>
		<rect x="229.4" y="158" class="st0" width="19" height="2.4"/>
	</g>
</g>
<g>
	<g>
		<g>
			<g>
				<path class="st0" d="M473.9,319.6c0,4-3.3,7.3-7.3,7.3h-65.7c-4,0-7.3-3.3-7.3-7.3V199.1c0-4,3.3-7.3,7.3-7.3h65.7
					c4,0,7.3,3.3,7.3,7.3V319.6z"/>
				<path class="st0" d="M466.6,328.1h-65.7c-4.7,0-8.5-3.8-8.5-8.5V199.1c0-4.7,3.8-8.5,8.5-8.5h65.7c4.7,0,8.5,3.8,8.5,8.5v120.5
					C475.1,324.3,471.3,328.1,466.6,328.1z M400.9,193c-3.4,0-6.1,2.7-6.1,6.1v120.5c0,3.4,2.7,6.1,6.1,6.1h65.7
					c3.4,0,6.1-2.7,6.1-6.1V199.1c0-3.4-2.7-6.1-6.1-6.1H400.9z"/>
			</g>
			<rect x="400.9" y="207.9" class="st0" width="65.7" height="100.4"/>
			<g>
				<path class="st0" d="M466.7,202.8h-10.4v-2.4h10.4V202.8z M453.9,202.8h-4.7v-2.4h4.7V202.8z M442,202.8h-13v-2.4h13V202.8z
					 M426.6,202.8h-4.7v-2.4h4.7V202.8z M414.8,202.8h-13v-2.4h13V202.8z"/>
			</g>
		</g>
	</g>
	<g>
		<g>
			<path class="st0" d="M421.2,117.8l0.3,4.8H444l0.6-0.1c6.4-11.8,6.7-13.4,5.4-23l0.2-6.4l-20.3,0.1v-2.5V64.6
				c0-2-1.6-3.5-3.5-3.5c-2,0-3.5,1.6-3.5,3.5c0-1-0.8,36.7-0.8,36.7s-22.3-1.2-22,1.4c-0.2,0.6-0.2,1.2-0.2,1.8
				c0,0.8,0.6,1.5,1.4,1.6l17.8,8.3C420.2,115,421.1,116.3,421.2,117.8z"/>
			<path class="st0" d="M444,123.8h-23.6l-0.4-5.9c-0.1-1-0.7-2-1.7-2.4l-17.6-8.3c-1.3-0.3-2.2-1.4-2.2-2.8c0-0.7,0.1-1.3,0.2-2
				c0-0.4,0.2-0.7,0.5-1c2-2.1,14.9-1.7,21.6-1.4l0.7-29.8c0.1-3,0.1-4.7,0.2-5.7h-0.1c0-2.6,2.1-4.7,4.7-4.7s4.7,2.1,4.7,4.7v27.5
				l20.3-0.1l-0.2,7.5c1.3,9.8,0.9,11.6-5.6,23.6l-0.3,0.5L444,123.8z M422.7,121.4h21.2c6-11.1,6.3-12.4,5-21.7l0-0.1l0.1-5.3
				l-20.2,0.1V64.6c0-1.3-1.1-2.4-2.4-2.4c-1.3,0-2.4,1.1-2.4,2.4h-0.8l0.8,0c0,0.6-0.5,24.3-0.8,36.7l0,1.2l-1.2-0.1
				c-8.8-0.5-19-0.4-20.8,0.6c-0.1,0.5-0.2,0.9-0.2,1.4c0,0.2,0.2,0.4,0.4,0.5l0.3,0.1l17.8,8.3c1.7,0.8,2.9,2.5,3,4.4L422.7,121.4z
				"/>
		</g>
		<g>
			<path class="st0" d="M437,80.9v10.8c0,2-1.6,3.5-3.5,3.5l0,0c-2,0-3.5-1.6-3.5-3.5V80.9c0-2,1.6-3.5,3.5-3.5l0,0
				C435.4,77.3,437,78.9,437,80.9z"/>
			<path class="st0" d="M433.4,96.4c-2.6,0-4.7-2.1-4.7-4.7V80.9c0-2.6,2.1-4.7,4.7-4.7s4.7,2.1,4.7,4.7v10.8
				C438.2,94.3,436.1,96.4,433.4,96.4z M433.4,78.5c-1.3,0-2.4,1.1-2.4,2.4v10.8c0,1.3,1.1,2.4,2.4,2.4c1.3,0,2.4-1.1,2.4-2.4V80.9
				C435.8,79.6,434.7,78.5,433.4,78.5z"/>
		</g>
		<g>
			<path class="st0" d="M444.1,81.8v10.8c0,2-1.6,3.5-3.5,3.5l0,0c-2,0-3.5-1.6-3.5-3.5V81.8c0-2,1.6-3.5,3.5-3.5l0,0
				C442.5,78.3,444.1,79.9,444.1,81.8z"/>
			<path class="st0" d="M440.5,97.3c-2.6,0-4.7-2.1-4.7-4.7V81.8c0-2.6,2.1-4.7,4.7-4.7c2.6,0,4.7,2.1,4.7,4.7v10.8
				C445.3,95.2,443.2,97.3,440.5,97.3z M440.5,79.5c-1.3,0-2.4,1.1-2.4,2.4v10.8c0,1.3,1.1,2.4,2.4,2.4c1.3,0,2.4-1.1,2.4-2.4V81.8
				C442.9,80.5,441.8,79.5,440.5,79.5z"/>
		</g>
		<g>
			<path class="st0" d="M451.2,82.8v10.8c0,2-1.6,3.5-3.5,3.5l0,0c-2,0-3.5-1.6-3.5-3.5V82.8c0-2,1.6-3.5,3.5-3.5l0,0
				C449.6,79.2,451.2,80.8,451.2,82.8z"/>
			<path class="st0" d="M447.6,98.3c-2.6,0-4.7-2.1-4.7-4.7V82.8c0-2.6,2.1-4.7,4.7-4.7c2.6,0,4.7,2.1,4.7,4.7v10.8
				C452.4,96.1,450.3,98.3,447.6,98.3z M447.6,80.4c-1.3,0-2.4,1.1-2.4,2.4v10.8c0,1.3,1.1,2.4,2.4,2.4c1.3,0,2.4-1.1,2.4-2.4V82.8
				C450,81.4,448.9,80.4,447.6,80.4z"/>
		</g>
		<g>
			<polygon class="st0" points="420,180.2 417.6,180.2 417.6,121.4 450.7,121.4 450.7,160.1 448.4,160.1 448.4,123.8 420,123.8 			
				"/>
		</g>
	</g>
	<g>
		<g>
			<rect x="410.6" y="244.2" class="st0" width="46.7" height="28"/>
			<path class="st0" d="M458.5,273.5h-49.1V243h49.1V273.5z M411.7,271.1h44.3v-25.7h-44.3V271.1z"/>
		</g>
		<g>
			<polygon class="st0" points="429,264 438.9,258.2 429,252.5 			"/>
			<path class="st0" d="M427.8,266v-15.6l13.5,7.8L427.8,266z M430.1,254.6v7.3l6.4-3.7L430.1,254.6z"/>
		</g>
	</g>
</g>
<g>
	<rect x="60.2" y="325.7" class="st0" width="705.4" height="2.4"/>
</g>
<g>
	<circle class="st0" cx="60.2" cy="326.9" r="5.9"/>
	<path class="st0" d="M60.2,334c-3.9,0-7.1-3.2-7.1-7.1c0-3.9,3.2-7.1,7.1-7.1s7.1,3.2,7.1,7.1C67.3,330.8,64.1,334,60.2,334z
		 M60.2,322.1c-2.6,0-4.7,2.1-4.7,4.7c0,2.6,2.1,4.7,4.7,4.7c2.6,0,4.7-2.1,4.7-4.7C64.9,324.3,62.8,322.1,60.2,322.1z"/>
</g>
<g>
	<circle class="st0" cx="765.6" cy="326.9" r="5.9"/>
	<path class="st0" d="M765.6,334c-3.9,0-7.1-3.2-7.1-7.1c0-3.9,3.2-7.1,7.1-7.1s7.1,3.2,7.1,7.1C772.7,330.8,769.5,334,765.6,334z
		 M765.6,322.1c-2.6,0-4.7,2.1-4.7,4.7c0,2.6,2.1,4.7,4.7,4.7c2.6,0,4.7-2.1,4.7-4.7C770.3,324.3,768.2,322.1,765.6,322.1z"/>
</g>
<g>
	<g>
		<polygon class="st0" points="592.6,268.3 615.6,250.7 569.6,250.7 		"/>
		<path class="st0" d="M592.6,269.7c-0.3,0-0.6-0.1-0.9-0.3l-23-17.6c-0.5-0.4-0.7-1-0.5-1.6c0.2-0.6,0.8-1,1.4-1h46
			c0.6,0,1.2,0.4,1.4,1c0.2,0.6,0,1.2-0.5,1.6l-23,17.6C593.2,269.6,592.9,269.7,592.6,269.7z M573.9,252.1l18.7,14.3l18.7-14.3
			H573.9z"/>
	</g>
	<g>
		<polygon class="st0" points="592.6,268.3 569.6,250.7 569.6,265 569.6,279.3 592.6,279.3 615.6,279.3 615.6,265 615.6,250.7 		"/>
		<path class="st0" d="M615.6,280.8h-46c-0.8,0-1.5-0.7-1.5-1.5v-28.6c0-0.6,0.3-1.1,0.8-1.3c0.5-0.2,1.1-0.2,1.5,0.1l22.1,16.9
			l22.1-16.9c0.4-0.3,1-0.4,1.5-0.1c0.5,0.2,0.8,0.8,0.8,1.3v28.6C617.1,280.1,616.5,280.8,615.6,280.8z M571.1,277.8h43.1v-24.2
			l-20.7,15.8c-0.5,0.4-1.2,0.4-1.8,0l-20.7-15.8V277.8z"/>
	</g>
	<g>
		<polygon class="st0" points="592.6,261.7 615.6,279.3 569.6,279.3 		"/>
		<path class="st0" d="M615.6,280.8h-46c-0.6,0-1.2-0.4-1.4-1c-0.2-0.6,0-1.2,0.5-1.6l23-17.6c0.5-0.4,1.2-0.4,1.8,0l23,17.6
			c0.5,0.4,0.7,1,0.5,1.6C616.8,280.4,616.3,280.8,615.6,280.8z M573.9,277.8h37.4l-18.7-14.3L573.9,277.8z"/>
	</g>
</g>
<g>
	<path class="st0" d="M505.9,116.3l-7-7l7-7l7,7L505.9,116.3z M502.2,109.3l3.7,3.7l3.7-3.7l-3.7-3.7L502.2,109.3z"/>
</g>
<g>
	<g>
		<path class="st0" d="M326.9,126.2c0-1.8-0.3-3.5-0.9-5.1l-4.6-0.2l1.9-4.4c-1.1-1.3-2.4-2.3-3.8-3.2l-3.9,3l-1.5-4.9
			c-0.6-0.1-1.3-0.1-2-0.1c-1,0-1.9,0.1-2.9,0.3l-1.1,5l-4.3-2.8c-1.4,0.9-2.5,2-3.5,3.3l2.3,4.5l-4.8,0.6c-0.3,1.2-0.5,2.5-0.5,3.9
			c0,0.4,0,0.7,0,1.1l4.3,1.8l-3,3.3c0.7,1.6,1.8,3.1,3,4.3l4-1.3l-0.2,4c1.6,0.8,3.3,1.3,5.2,1.5l2.1-3.3l2.3,3.1
			c1.8-0.4,3.6-1.1,5.1-2.1l-0.5-3.8l3.9,0.9c1.1-1.4,2.1-3,2.6-4.7l-3.1-2.8L326.9,126.2C326.9,126.2,326.9,126.2,326.9,126.2z"/>
		<path class="st0" d="M311.2,142.2l-0.7-0.1c-2-0.2-3.9-0.7-5.6-1.6l-0.7-0.3l0.2-3.1l-3.1,1l-0.5-0.5c-1.3-1.4-2.4-2.9-3.2-4.7
			l-0.3-0.7l2.4-2.6l-3.4-1.4l-0.1-0.7c0-0.4,0-0.8,0-1.2c0-1.4,0.2-2.8,0.6-4.2l0.2-0.8l3.9-0.5l-1.9-3.6l0.5-0.6
			c1.1-1.4,2.4-2.6,3.8-3.6l0.6-0.4l3.5,2.3l0.9-4.1l0.8-0.1c1.7-0.3,3.4-0.4,5.2-0.2l0.8,0.1l1.2,4l3.2-2.5l0.7,0.4
			c1.6,0.9,3,2.1,4.1,3.4l0.5,0.6l-1.5,3.5l3.6,0.2l0.3,0.7c0.6,1.8,1,3.6,1,5.5l0,0.8l-0.6,0.3l-2.3,1.2l2.4,2.2l-0.3,0.7
			c-0.6,1.9-1.6,3.6-2.9,5.1l-0.5,0.6l-2.9-0.7l0.4,2.9l-0.6,0.4c-1.7,1.1-3.5,1.8-5.5,2.2l-0.7,0.1l-1.8-2.3L311.2,142.2z
			 M306.6,138.7c1.1,0.5,2.2,0.8,3.4,1l2.6-4.1l2.9,3.8c1.2-0.3,2.3-0.8,3.3-1.3l-0.6-4.8l4.8,1.1c0.7-0.9,1.3-2,1.7-3l-3.7-3.4
			l4.7-2.4c-0.1-1.1-0.2-2.2-0.6-3.2l-5.4-0.2l2.2-5.3c-0.7-0.7-1.5-1.4-2.4-2l-4.6,3.6l-1.8-5.8c-1-0.1-2,0-2.9,0.1l-1.3,5.9
			l-5.1-3.3c-0.8,0.6-1.5,1.3-2.2,2l2.8,5.3l-5.7,0.7c-0.2,0.9-0.3,1.9-0.3,2.8c0,0.1,0,0.2,0,0.3l5.2,2.1l-3.6,3.9
			c0.5,1,1.2,1.9,1.9,2.8l4.9-1.6L306.6,138.7z"/>
	</g>
	<g>
		<circle class="st0" cx="312.1" cy="126.1" r="4.1"/>
		<path class="st0" d="M312.1,131.4c-2.9,0-5.3-2.4-5.3-5.3c0-2.9,2.4-5.3,5.3-5.3c2.9,0,5.3,2.4,5.3,5.3
			C317.4,129,315,131.4,312.1,131.4z M312.1,123.2c-1.6,0-2.9,1.3-2.9,2.9c0,1.6,1.3,2.9,2.9,2.9s2.9-1.3,2.9-2.9
			C315,124.5,313.7,123.2,312.1,123.2z"/>
	</g>
</g>
<g>
	<path class="st0" d="M394,169.6c-3.6,0-6.5-2.9-6.5-6.5c0-3.6,2.9-6.5,6.5-6.5s6.5,2.9,6.5,6.5C400.5,166.7,397.6,169.6,394,169.6z
		 M394,159c-2.3,0-4.2,1.9-4.2,4.2c0,2.3,1.9,4.2,4.2,4.2s4.2-1.9,4.2-4.2C398.1,160.8,396.3,159,394,159z"/>
</g>
<g>
	<path class="st0" d="M523.1,266.6c-2.6,0-4.7-2.1-4.7-4.7c0-2.6,2.1-4.7,4.7-4.7c2.6,0,4.7,2.1,4.7,4.7
		C527.8,264.5,525.7,266.6,523.1,266.6z M523.1,259.5c-1.3,0-2.4,1.1-2.4,2.4c0,1.3,1.1,2.4,2.4,2.4c1.3,0,2.4-1.1,2.4-2.4
		C525.5,260.6,524.4,259.5,523.1,259.5z"/>
</g>
<g>
	<path class="st0" d="M297.8,164.4c-2.6,0-4.7-2.1-4.7-4.7c0-2.6,2.1-4.7,4.7-4.7s4.7,2.1,4.7,4.7
		C302.5,162.3,300.4,164.4,297.8,164.4z M297.8,157.3c-1.3,0-2.4,1.1-2.4,2.4c0,1.3,1.1,2.4,2.4,2.4c1.3,0,2.4-1.1,2.4-2.4
		C300.1,158.4,299.1,157.3,297.8,157.3z"/>
</g>
<g>
	<path class="st0" d="M743.6,117.5c-2.6,0-4.7-2.1-4.7-4.7c0-2.6,2.1-4.7,4.7-4.7c2.6,0,4.7,2.1,4.7,4.7
		C748.4,115.3,746.3,117.5,743.6,117.5z M743.6,110.4c-1.3,0-2.4,1.1-2.4,2.4c0,1.3,1.1,2.4,2.4,2.4c1.3,0,2.4-1.1,2.4-2.4
		C746,111.4,745,110.4,743.6,110.4z"/>
</g>
<g>
	<path class="st0" d="M684.6,207.7c-2.6,0-4.7-2.1-4.7-4.7c0-2.6,2.1-4.7,4.7-4.7c2.6,0,4.7,2.1,4.7,4.7
		C689.3,205.5,687.2,207.7,684.6,207.7z M684.6,200.5c-1.3,0-2.4,1.1-2.4,2.4c0,1.3,1.1,2.4,2.4,2.4c1.3,0,2.4-1.1,2.4-2.4
		C686.9,201.6,685.9,200.5,684.6,200.5z"/>
</g>
<g>
	<path class="st1" d="M496.1,333c12.6-12.3,12.9-32.5,0.5-45.1c-12.3-12.6-32.5-12.9-45.1-0.5c-12.6,12.3-12.9,32.5-0.6,45.1
		C463.3,345,483.5,345.3,496.1,333z"/>
	<g>
		<g>
			<path class="st0" d="M473.6,348.3c-21.1-0.2-38.1-17.4-37.9-38.5c0.2-21.1,17.4-38,38.5-37.9c19.3,0.2,35.2,14.7,37.6,33.4
				l31.3,0.2l-0.1,8.6l-31.1-0.2C509.9,333.4,493.4,348.5,473.6,348.3z M495.3,332.2c5.7-5.5,9.3-13.3,9.4-21.9
				c0.1-17-13.6-30.9-30.5-31.1c-17-0.1-30.9,13.6-31.1,30.5c-0.1,17,13.6,30.9,30.6,31.1C482,341,489.7,337.7,495.3,332.2
				L495.3,332.2z"/>
		</g>
		<g>
			<g>
				<path class="st0" d="M473.9,349.5c-0.1,0-0.2,0-0.3,0c-10.5-0.1-20.4-4.3-27.7-11.8c-7.4-7.5-11.4-17.4-11.3-27.9
					c0.2-21.7,18-39.2,39.7-39.1c19.3,0.2,35.7,14.5,38.6,33.4l31.5,0.2l-0.1,11l-31.3-0.3C510.4,334.9,493.8,349.5,473.9,349.5z
					 M473.9,273.1c-20.3,0-36.8,16.4-37,36.7c-0.1,9.9,3.7,19.2,10.6,26.2c6.9,7.1,16.2,11,26.1,11.1l0,0c0.1,0,0.2,0,0.3,0
					c19.1,0,34.9-14.2,36.8-33.3l0.1-1.1l31,0.2l0.1-6.3l-31.2-0.2l-0.1-1c-2.3-18.3-17.9-32.2-36.4-32.4
					C474.1,273.1,474,273.1,473.9,273.1z M473.9,342.1c-0.1,0-0.2,0-0.3,0c-17.6-0.1-31.9-14.6-31.7-32.3
					c0.1-17.5,14.5-31.7,32-31.7c0.1,0,0.2,0,0.3,0c17.6,0.2,31.8,14.6,31.7,32.3c-0.1,8.6-3.5,16.7-9.7,22.7l0,0
					C490.1,338.9,482.2,342.1,473.9,342.1z M473.9,280.5c-16.2,0-29.5,13.1-29.6,29.4c-0.1,16.3,13.1,29.7,29.4,29.9
					c7.8,0.1,15.2-2.9,20.8-8.4c5.7-5.6,8.9-13,9-21c0.1-16.3-13.1-29.7-29.4-29.9C474,280.5,474,280.5,473.9,280.5z"/>
			</g>
		</g>
	</g>
	<g>
		<polygon class="st0" points="615.1,321 535.3,321 535.3,326.3 525.5,326.3 525.5,293.9 535.3,293.9 535.3,299.3 615.1,299.3 		"/>
		<path class="st0" d="M536.5,327.5h-12.1v-34.8h12.1v5.4h79.8v24.1h-79.8V327.5z M526.7,325.2h7.4v-5.4H614v-19.3h-79.8v-5.4h-7.4
			V325.2z"/>
	</g>
	<g>
		<g>
			<rect x="610.3" y="293.9" class="st0" width="9.8" height="32.4"/>
			<path class="st0" d="M621.2,327.5h-12.1v-34.8h12.1V327.5z M611.4,325.2h7.4v-30.1h-7.4V325.2z"/>
		</g>
	</g>
	<g>
		<g>
			<rect x="569.6" y="303" class="st0" width="1.5" height="14.2"/>
		</g>
		<g>
			<rect x="573.2" y="303" class="st0" width="1.5" height="14.2"/>
		</g>
		<g>
			<rect x="576.8" y="303" class="st0" width="1.5" height="14.2"/>
		</g>
	</g>
</g>
<g>
	<g>
		<g>
			<g>
				<path class="st0" d="M179.3,168.3c0,3.1-2.5,5.6-5.6,5.6h-50.2c-3.1,0-5.6-2.5-5.6-5.6V76.3c0-3.1,2.5-5.6,5.6-5.6h50.2
					c3.1,0,5.6,2.5,5.6,5.6V168.3z"/>
				<path class="st0" d="M173.8,175.1h-50.2c-3.7,0-6.8-3-6.8-6.8V76.3c0-3.7,3-6.8,6.8-6.8h50.2c3.7,0,6.8,3,6.8,6.8v92.1
					C180.5,172.1,177.5,175.1,173.8,175.1z M123.5,71.9c-2.4,0-4.4,2-4.4,4.4v92.1c0,2.4,2,4.4,4.4,4.4h50.2c2.4,0,4.4-2,4.4-4.4
					V76.3c0-2.4-2-4.4-4.4-4.4H123.5z"/>
			</g>
			<rect x="123.5" y="83" class="st0" width="50.2" height="76.7"/>
		</g>
		<g>
			<path class="st0" d="M167.6,133.5c0,3.6-2.9,6.5-6.5,6.5h-24.7c-3.6,0-6.5-2.9-6.5-6.5v-0.6c0-3.6,2.9-6.5,6.5-6.5h24.7
				c3.6,0,6.5,2.9,6.5,6.5V133.5z"/>
			<g>
				<path class="st0" d="M142.7,130.6h1.5c1.1,0,1.8,0.4,1.8,1.3c0,0.5-0.3,1-0.9,1.1v0c0.8,0.1,1.2,0.5,1.2,1.2c0,1-0.8,1.5-2,1.5
					h-1.7V130.6z M144.2,132.8c0.9,0,1.3-0.3,1.3-0.9c0-0.6-0.4-0.8-1.2-0.8h-0.8v1.7H144.2z M144.3,135.3c0.9,0,1.4-0.3,1.4-1
					c0-0.6-0.5-0.9-1.4-0.9h-0.9v2H144.3z"/>
				<path class="st0" d="M147.4,130.6h0.7v3.1c0,1.3,0.5,1.7,1.2,1.7c0.7,0,1.2-0.4,1.2-1.7v-3.1h0.6v3.1c0,1.7-0.8,2.2-1.9,2.2
					c-1.1,0-1.9-0.6-1.9-2.2V130.6z"/>
				<path class="st0" d="M153.3,133.8l-1.6-3.2h0.7l0.7,1.5c0.2,0.4,0.3,0.7,0.5,1.1h0c0.2-0.4,0.4-0.8,0.5-1.1l0.7-1.5h0.7
					l-1.6,3.2v2h-0.7V133.8z"/>
			</g>
		</g>
		<g>
			<path class="st0" d="M155.6,92.2h-2.4l-0.7,2.8h-11v0c0,0-0.1,0-0.1,0c-0.1,0.1-0.2,0.2-0.2,0.4l2,5.7h8.2l2.2-8.3h1.9
				c0.2,0,0.3-0.1,0.3-0.3C155.9,92.4,155.8,92.2,155.6,92.2z M152.1,96.5h-1.2l0.2-1h1.3L152.1,96.5z M151.7,97.9h-1l0.2-1.1h1.2
				L151.7,97.9z M151.4,99.3h-0.9l0.2-1.1h1L151.4,99.3z M147.4,100.6l-0.2-1h1.5l0.1,1H147.4z M145.5,100.6l-0.2-1h1.7l0.2,1H145.5
				z M144,95.6l0.2,1h-1.9l-0.3-1H144z M145.9,95.6l0.2,1h-1.7l-0.2-1H145.9z M146.8,97.9l-0.3-1.1h1.8l0.2,1.1H146.8z M148.5,98.2
				l0.2,1.1h-1.5l-0.3-1.1H148.5z M146.5,97.9h-1.7l-0.3-1.1h1.7L146.5,97.9z M148.6,96.8h2l-0.2,1.1h-1.7L148.6,96.8z M148.5,96.5
				l-0.1-1h2.4l-0.2,1H148.5z M148.2,96.5h-1.8l-0.2-1h1.9L148.2,96.5z M144.3,96.8l0.3,1.1h-1.8l-0.4-1.1H144.3z M142.8,98.2h1.8
				l0.3,1.1h-1.7L142.8,98.2z M144.9,98.2h1.7l0.3,1.1h-1.7L144.9,98.2z M149,99.6h1.2l-0.2,1c0,0,0,0,0,0h-0.9L149,99.6z
				 M148.9,99.3l-0.2-1.1h1.6l-0.2,1.1H148.9z M143.3,99.6h1.6l0.2,1h-1.5L143.3,99.6z M150.3,100.6l0.2-1h0.9l-0.3,1H150.3z"/>
			<path class="st0" d="M150,101.4c-0.6,0-1.1,0.4-1.2,1h-2.8c-0.1-0.6-0.6-1-1.2-1c-0.7,0-1.3,0.6-1.3,1.3c0,0.7,0.6,1.3,1.3,1.3
				c0.7,0,1.3-0.6,1.3-1.3h2.8c0,0.7,0.6,1.3,1.3,1.3c0.7,0,1.3-0.6,1.3-1.3C151.3,102,150.7,101.4,150,101.4z M144.7,103.4
				c-0.4,0-0.7-0.3-0.7-0.7c0-0.4,0.3-0.7,0.7-0.7c0.4,0,0.7,0.3,0.7,0.7C145.4,103,145.1,103.4,144.7,103.4z M150,103.4
				c-0.4,0-0.7-0.3-0.7-0.7c0-0.4,0.3-0.7,0.7-0.7c0.4,0,0.7,0.3,0.7,0.7C150.7,103,150.4,103.4,150,103.4z"/>
		</g>
	</g>
	<path class="st0" d="M191.8,150.7l-13.2-26.3c-2.4-4.1-7.7-5.4-11.8-3c-4.1,2.4-5.4,7.7-3,11.8l7.9,15.8c-4.8,3.3-8.2,9.3-8.2,16.2
		c0,10.4-1.3,18.9,7.1,18.9c8.3,0,19.1-8.5,19.1-18.9c0-1.2,0-2.3-0.1-3.4C193.1,159.3,194.1,154.5,191.8,150.7z"/>
	<g>
		<path class="st0" d="M191.8,150.7l-13.2-26.3c-1.2-1.9-2.9-3.2-4.9-3.8L151,110.4c-4.4-1.8-7.6-0.9-9.4,3.4
			c-1.8,4.4,0.3,9.4,4.6,11.2l18.6,10.1l7,13.9c-4.8,3.3-8.2,9.3-8.2,16.2c0,3.5-0.1,6.7,0,9.5h-29.9l11.3,28.1h42.7l5-45.7
			C193.3,155.1,193.1,152.8,191.8,150.7z"/>
		<path class="st0" d="M188.8,204.1h-44.6L132,173.7h30.4c0-1.5,0-3,0-4.7c0-1.2,0-2.4,0-3.6c0-6.5,3-12.8,7.9-16.6l-6.4-12.7
			l-18.2-9.9c-2.4-1-4.2-2.9-5.2-5.3c-1-2.4-1-5.1,0-7.5c1-2.5,2.5-4.1,4.4-4.7c1.8-0.6,4-0.4,6.5,0.6l22.7,10.2
			c2.3,0.7,4.3,2.2,5.5,4.3l13.2,26.3c1.3,2.2,1.7,4.8,1.1,7.3L188.8,204.1z M145.8,201.7h40.9l4.9-44.8c0.5-1.9,0.2-3.9-0.8-5.6
			l0-0.1L177.6,125c-0.9-1.5-2.4-2.7-4.2-3.2l-0.2-0.1l-22.8-10.2c-1.9-0.8-3.5-1-4.8-0.6c-1.3,0.4-2.3,1.5-3,3.4
			c-0.8,1.8-0.8,3.8,0,5.7c0.8,1.8,2.2,3.3,4,4l0.1,0.1l19,10.3l7.6,15.2l-0.8,0.6c-4.7,3.3-7.7,9.1-7.7,15.3c0,1.3,0,2.5,0,3.7
			c0,2.1-0.1,4,0,5.8l0.1,1.2h-29.4L145.8,201.7z"/>
	</g>
	<g>
		<path class="st0" d="M131.7,152.6c0,3.9-3.2,7.1-7.1,7.1h-7.9c-3.9,0-7.1-3.2-7.1-7.1l0,0c0-3.9,3.2-7.1,7.1-7.1h7.9
			C128.5,145.4,131.7,148.6,131.7,152.6L131.7,152.6z"/>
		<path class="st0" d="M124.6,160.8h-7.9c-4.6,0-8.3-3.7-8.3-8.3c0-4.6,3.7-8.3,8.3-8.3h7.9c4.6,0,8.3,3.7,8.3,8.3
			C132.8,157.1,129.1,160.8,124.6,160.8z M116.6,146.6c-3.3,0-5.9,2.7-5.9,5.9c0,3.3,2.7,5.9,5.9,5.9h7.9c3.3,0,5.9-2.7,5.9-5.9
			c0-3.3-2.7-5.9-5.9-5.9H116.6z"/>
	</g>
	<g>
		<path class="st0" d="M136.3,136.8c0,3.9-3.2,7.1-7.1,7.1h-12.6c-3.9,0-7.1-3.2-7.1-7.1l0,0c0-3.9,3.2-7.1,7.1-7.1h12.6
			C133.1,129.7,136.3,132.8,136.3,136.8L136.3,136.8z"/>
		<path class="st0" d="M129.2,145.1h-12.6c-4.6,0-8.3-3.7-8.3-8.3c0-4.6,3.7-8.3,8.3-8.3h12.6c4.6,0,8.3,3.7,8.3,8.3
			C137.5,141.4,133.8,145.1,129.2,145.1z M116.6,130.9c-3.3,0-5.9,2.7-5.9,5.9c0,3.3,2.7,5.9,5.9,5.9h12.6c3.3,0,5.9-2.7,5.9-5.9
			c0-3.3-2.7-5.9-5.9-5.9H116.6z"/>
	</g>
	<g>
		<path class="st0" d="M139.8,121c0,3.9-3.2,7.1-7.1,7.1h-16.1c-3.9,0-7.1-3.2-7.1-7.1l0,0c0-3.9,3.2-7.1,7.1-7.1h16.1
			C136.7,113.9,139.8,117.1,139.8,121L139.8,121z"/>
		<path class="st0" d="M132.7,129.3h-16.1c-4.6,0-8.3-3.7-8.3-8.3c0-4.6,3.7-8.3,8.3-8.3h16.1c4.6,0,8.3,3.7,8.3,8.3
			C141,125.6,137.3,129.3,132.7,129.3z M116.6,115.1c-3.3,0-5.9,2.7-5.9,5.9c0,3.3,2.7,5.9,5.9,5.9h16.1c3.3,0,5.9-2.7,5.9-5.9
			c0-3.3-2.7-5.9-5.9-5.9H116.6z"/>
	</g>
	<g>
		<path class="st0" d="M135.2,105.2c0,3.9-3.2,7.1-7.1,7.1h-11.5c-3.9,0-7.1-3.2-7.1-7.1l0,0c0-3.9,3.2-7.1,7.1-7.1h11.5
			C132,98.1,135.2,101.3,135.2,105.2L135.2,105.2z"/>
		<path class="st0" d="M128.1,113.5h-11.5c-4.6,0-8.3-3.7-8.3-8.3c0-4.6,3.7-8.3,8.3-8.3h11.5c4.6,0,8.3,3.7,8.3,8.3
			C136.4,109.8,132.7,113.5,128.1,113.5z M116.6,99.3c-3.3,0-5.9,2.7-5.9,5.9s2.7,5.9,5.9,5.9h11.5c3.3,0,5.9-2.7,5.9-5.9
			s-2.7-5.9-5.9-5.9H116.6z"/>
	</g>
	<g>
		<path class="st0" d="M130.7,106c0,1.8-1.4,3.2-3.2,3.2l0,0c-1.8,0-3.2-1.4-3.2-3.2v-2c0-1.8,1.4-3.2,3.2-3.2l0,0
			c1.8,0,3.2,1.4,3.2,3.2V106z"/>
		<path class="st0" d="M127.5,110.4c-2.4,0-4.4-2-4.4-4.4v-2c0-2.4,2-4.4,4.4-4.4c2.4,0,4.4,2,4.4,4.4v2
			C131.9,108.5,129.9,110.4,127.5,110.4z M127.5,102c-1.1,0-2,0.9-2,2v2c0,1.1,0.9,2,2,2c1.1,0,2-0.9,2-2v-2
			C129.6,102.9,128.6,102,127.5,102z"/>
	</g>
	<g>
		<path class="st0" d="M136.1,121.4c0,1.8-1.4,3.2-3.2,3.2l0,0c-1.8,0-3.2-1.4-3.2-3.2v-2c0-1.8,1.4-3.2,3.2-3.2l0,0
			c1.8,0,3.2,1.4,3.2,3.2V121.4z"/>
		<path class="st0" d="M132.8,125.9c-2.4,0-4.4-2-4.4-4.4v-2c0-2.4,2-4.4,4.4-4.4c2.4,0,4.4,2,4.4,4.4v2
			C137.3,123.9,135.3,125.9,132.8,125.9z M132.8,117.4c-1.1,0-2,0.9-2,2v2c0,1.1,0.9,2,2,2c1.1,0,2-0.9,2-2v-2
			C134.9,118.4,134,117.4,132.8,117.4z"/>
	</g>
	<g>
		<path class="st0" d="M132.6,137.4c0,1.8-1.4,3.2-3.2,3.2l0,0c-1.8,0-3.2-1.4-3.2-3.2v-2c0-1.8,1.4-3.2,3.2-3.2l0,0
			c1.8,0,3.2,1.4,3.2,3.2V137.4z"/>
		<path class="st0" d="M129.4,141.8c-2.4,0-4.4-2-4.4-4.4v-2c0-2.4,2-4.4,4.4-4.4c2.4,0,4.4,2,4.4,4.4v2
			C133.8,139.8,131.8,141.8,129.4,141.8z M129.4,133.3c-1.1,0-2,0.9-2,2v2c0,1.1,0.9,2,2,2c1.1,0,2-0.9,2-2v-2
			C131.4,134.3,130.5,133.3,129.4,133.3z"/>
	</g>
	<g>
		<path class="st0" d="M128.1,153.7c0,1.8-1.4,3.2-3.2,3.2l0,0c-1.8,0-3.2-1.4-3.2-3.2v-2c0-1.8,1.4-3.2,3.2-3.2l0,0
			c1.8,0,3.2,1.4,3.2,3.2V153.7z"/>
		<path class="st0" d="M124.8,158.1c-2.4,0-4.4-2-4.4-4.4v-2c0-2.4,2-4.4,4.4-4.4c2.4,0,4.4,2,4.4,4.4v2
			C129.3,156.1,127.3,158.1,124.8,158.1z M124.8,149.7c-1.1,0-2,0.9-2,2v2c0,1.1,0.9,2,2,2c1.1,0,2-0.9,2-2v-2
			C126.9,150.6,126,149.7,124.8,149.7z"/>
	</g>
	<g>
		<path class="st0" d="M154.2,117.3c-1.1,2.3-3.7,3.2-6,2.2l-3-1.4c-2.3-1.1-3.2-3.7-2.2-6l0,0c1.1-2.3,3.7-3.2,6-2.2l3,1.4
			C154.3,112.4,155.3,115.1,154.2,117.3L154.2,117.3z"/>
		<path class="st0" d="M150.2,121.1c-0.8,0-1.6-0.2-2.4-0.5l-3-1.4c-1.4-0.6-2.4-1.8-2.9-3.2c-0.5-1.4-0.4-3,0.2-4.3
			c0.6-1.4,1.8-2.4,3.2-2.9c1.4-0.5,3-0.4,4.3,0.2l3,1.4c2.8,1.3,4.1,4.7,2.7,7.6l0,0C154.4,119.9,152.3,121.1,150.2,121.1z
			 M147.1,110.7c-0.4,0-0.8,0.1-1.1,0.2c-0.8,0.3-1.5,0.9-1.9,1.7c-0.4,0.8-0.4,1.7-0.1,2.5c0.3,0.8,0.9,1.5,1.7,1.9l3,1.4
			c1.7,0.8,3.6,0.1,4.4-1.6c0.8-1.7,0.1-3.6-1.6-4.4l-3-1.4C148.1,110.8,147.6,110.7,147.1,110.7z"/>
	</g>
	<g>
		<rect x="144.5" y="202.9" class="st0" width="45.5" height="10.7"/>
		<g>
			<path class="st0" d="M191.2,214.8h-47.9v-13.1h47.9V214.8z M145.7,212.4h43.2v-8.4h-43.2V212.4z"/>
		</g>
	</g>
	<g>
		<rect x="144.5" y="213.6" class="st0" width="45.5" height="113.3"/>
		<path class="st0" d="M191.2,328.1h-47.9V212.4h47.9V328.1z M145.7,325.7h43.2V214.8h-43.2V325.7z"/>
	</g>
	<rect x="180.1" y="206.1" class="st0" width="5.1" height="4.1"/>
</g>
<g>
	<g>
		<polygon class="st0" points="205,186.4 205,326.9 311.2,326.9 311.2,192.8 299,186.4 		"/>
		<g>
			<path class="st0" d="M311.2,328.1H205c-0.7,0-1.2-0.5-1.2-1.2V186.4c0-0.7,0.5-1.2,1.2-1.2h94c0.2,0,0.4,0,0.6,0.1l12.3,6.5
				c0.4,0.2,0.6,0.6,0.6,1v134.1C312.4,327.5,311.9,328.1,311.2,328.1z M206.1,325.7H310V193.5l-11.4-6h-92.5V325.7z"/>
		</g>
	</g>
	<g>
		<polygon class="st0" points="299,186.4 311.2,192.8 301,195.9 		"/>
		<g>
			<path class="st0" d="M301,197.1c-0.2,0-0.4-0.1-0.6-0.2c-0.3-0.2-0.5-0.4-0.6-0.8l-2.1-9.5c-0.1-0.5,0.1-0.9,0.4-1.2
				c0.4-0.3,0.9-0.3,1.3-0.1l12.3,6.5c0.4,0.2,0.7,0.7,0.6,1.2c0,0.5-0.4,0.9-0.8,1l-10.2,3.1C301.3,197.1,301.1,197.1,301,197.1z
				 M300.7,188.6l1.3,5.8l6.2-1.9L300.7,188.6z"/>
		</g>
	</g>
	<g>
		<g>
			<rect x="218" y="237.7" class="st0" width="5" height="10"/>
			<path class="st0" d="M224.2,248.8h-7.4v-12.3h7.4V248.8z M219.2,246.4h2.6v-7.6h-2.6V246.4z"/>
		</g>
		<g>
			<rect x="230.5" y="230.2" class="st0" width="5" height="17.4"/>
			<path class="st0" d="M236.6,248.8h-7.4V229h7.4V248.8z M231.6,246.4h2.6v-15.1h-2.6V246.4z"/>
		</g>
		<g>
			<rect x="242.9" y="220.2" class="st0" width="5" height="27.4"/>
			<path class="st0" d="M249.1,248.8h-7.4V219h7.4V248.8z M244.1,246.4h2.6v-25h-2.6V246.4z"/>
		</g>
		<g>
			<rect x="255.4" y="215.2" class="st0" width="5" height="32.4"/>
			<path class="st0" d="M261.5,248.8h-7.4v-34.7h7.4V248.8z M256.5,246.4h2.6v-30h-2.6V246.4z"/>
		</g>
		<g>
			<rect x="267.8" y="207.8" class="st0" width="5" height="39.8"/>
			<path class="st0" d="M274,248.8h-7.4v-42.2h7.4V248.8z M269,246.4h2.6V209H269V246.4z"/>
		</g>
		<g>
			<rect x="280.2" y="211.4" class="st0" width="5" height="36.2"/>
			<path class="st0" d="M286.4,248.8h-7.4v-38.5h7.4V248.8z M281.4,246.4h2.6v-33.8h-2.6V246.4z"/>
		</g>
		<g>
			<rect x="292.7" y="204" class="st0" width="5" height="43.6"/>
			<path class="st0" d="M298.9,248.8h-7.4v-46h7.4V248.8z M293.9,246.4h2.6v-41.3h-2.6V246.4z"/>
		</g>
	</g>
	<g>
		<line class="st0" x1="299.8" y1="255.2" x2="215.9" y2="255.2"/>
		<rect x="215.9" y="254" class="st0" width="83.8" height="2.4"/>
	</g>
	<g>
		<polygon class="st0" points="253,284.5 262.6,267.9 272.2,284.5 		"/>
		<polygon class="st0" points="245.5,284.5 255.1,261.5 264.7,284.5 		"/>
		<polygon class="st0" points="232.1,284.5 241.7,267.9 251.2,284.5 		"/>
		<polygon class="st0" points="224.5,284.5 234.1,261.5 243.7,284.5 		"/>
		<polygon class="st0" points="272,284.5 281.6,263.1 291.1,284.5 		"/>
		<polygon class="st0" points="264.4,284.5 274,267.9 283.6,284.5 		"/>
	</g>
	<g>
		<g>
			<path class="st0" d="M297.8,298.5h-2.4v-2.4h2.4V298.5z M293,298.5h-27.3v-2.4H293V298.5z M263.4,298.5H261v-2.4h2.4V298.5z
				 M233.7,298.5h-2.4v-2.4h2.4V298.5z M229,298.5h-11v-2.4h11V298.5z"/>
		</g>
		<g>
			<path class="st0" d="M297.8,307.7h-2.4v-2.4h2.4V307.7z M293,307.7h-27.3v-2.4H293V307.7z M263.4,307.7H261v-2.4h2.4V307.7z
				 M233.7,307.7h-2.4v-2.4h2.4V307.7z M229,307.7h-11v-2.4h11V307.7z"/>
		</g>
		<g>
			<path class="st0" d="M297.8,317h-2.4v-2.4h2.4V317z M293,317h-27.3v-2.4H293V317z M263.4,317H261v-2.4h2.4V317z M233.7,317h-2.4
				v-2.4h2.4V317z M229,317h-11v-2.4h11V317z"/>
		</g>
		<g>
			<rect x="217.9" y="297.1" class="st0" width="21.8" height="19"/>
			<path class="st0" d="M239.8,317.3h-21.8c-0.7,0-1.2-0.5-1.2-1.2v-19c0-0.7,0.5-1.2,1.2-1.2h21.8c0.7,0,1.2,0.5,1.2,1.2v19
				C241,316.7,240.4,317.3,239.8,317.3z M219.1,314.9h19.5v-16.6h-19.5V314.9z"/>
		</g>
	</g>
</g>
<g>
	<g>
		<g>
			<path class="st0" d="M362,125.8c0-7.2,7.9-13,17.7-13c9.8,0,17.7,5.8,17.7,13c0,4.8-3.5,8.9-8.8,11.2c1.4,4.3,4.1,7.1,4.1,7.1
				c-6.6,0.3-11.6-2.3-15.3-5.4C368.8,137.9,362,132.4,362,125.8z"/>
			<path class="st0" d="M391.8,145.2c-5.4,0-10.4-1.8-14.7-5.4c-9.3-1-16.2-7-16.2-14c0-7.8,8.5-14.2,18.9-14.2
				c10.4,0,18.9,6.4,18.9,14.2c0,4.7-3.2,9.2-8.5,11.8c1.3,3.4,3.4,5.6,3.5,5.6l1.8,1.9l-2.6,0.1
				C392.5,145.2,392.2,145.2,391.8,145.2z M379.8,114c-9.1,0-16.6,5.3-16.6,11.8c0,5.9,6.2,10.9,14.4,11.7l0.4,0l0.3,0.2
				c3.6,3.1,7.6,4.8,12,5.1c-0.9-1.3-2-3.2-2.7-5.5l-0.3-1l1-0.4c5-2.1,8-6,8-10.1C396.3,119.3,388.9,114,379.8,114z"/>
		</g>
		<g>
			<path class="st0" d="M384.5,125.4c0,1.2,1,2.2,2.2,2.2c1.2,0,2.2-1,2.2-2.2c0-1.2-1-2.2-2.2-2.2
				C385.5,123.3,384.5,124.3,384.5,125.4z"/>
			<path class="st0" d="M378,125.4c0,1.2,1,2.2,2.2,2.2c1.2,0,2.2-1,2.2-2.2c0-1.2-1-2.2-2.2-2.2C379,123.3,378,124.3,378,125.4z"/>
			<path class="st0" d="M371.6,125.4c0,1.2,1,2.2,2.2,2.2s2.2-1,2.2-2.2c0-1.2-1-2.2-2.2-2.2S371.6,124.3,371.6,125.4z"/>
		</g>
	</g>
	<g>
		<g>
			<path class="st0" d="M382,113.1c0-8-8.9-14.5-19.8-14.5s-19.8,6.5-19.8,14.5c0,5.3,3.9,10,9.8,12.5c-1.5,4.8-4.6,7.9-4.6,7.9
				c7.3,0.3,13-2.5,17.1-6C374.4,126.6,382,120.5,382,113.1z"/>
			<path class="st0" d="M348.8,134.7c-0.4,0-0.8,0-1.2,0l-2.6-0.1l1.8-1.9c0,0,2.4-2.6,3.9-6.4c-5.9-2.9-9.5-7.8-9.5-13.1
				c0-8.6,9.4-15.7,21-15.7c11.6,0,21,7,21,15.7c0,7.8-7.7,14.4-18,15.5C360.3,132.6,354.8,134.7,348.8,134.7z M362.2,99.8
				c-10.3,0-18.6,6-18.6,13.3c0,4.6,3.5,9,9.1,11.4l1,0.4l-0.3,1c-0.9,2.7-2.2,4.9-3.2,6.3c5.1-0.3,9.7-2.2,13.8-5.7l0.3-0.2l0.4,0
				c9.3-0.8,16.2-6.5,16.2-13.2C380.8,105.8,372.5,99.8,362.2,99.8z"/>
		</g>
		<g>
			<path class="st0" d="M356.9,112.7c0,1.3-1.1,2.4-2.4,2.4c-1.3,0-2.4-1.1-2.4-2.4c0-1.3,1.1-2.4,2.4-2.4
				C355.8,110.3,356.9,111.4,356.9,112.7z"/>
			<path class="st0" d="M364.1,112.7c0,1.3-1.1,2.4-2.4,2.4s-2.4-1.1-2.4-2.4c0-1.3,1.1-2.4,2.4-2.4S364.1,111.4,364.1,112.7z"/>
			<path class="st0" d="M371.4,112.7c0,1.3-1.1,2.4-2.4,2.4c-1.3,0-2.4-1.1-2.4-2.4c0-1.3,1.1-2.4,2.4-2.4
				C370.3,110.3,371.4,111.4,371.4,112.7z"/>
		</g>
	</g>
</g>
<g>
	<g>
		<g>
			<path class="st0" d="M706,222.8v20.7v7.9c0,7.7,4.8,14.6,12,17.2c0.2,0.1,0.4,0.1,0.6,0.2v6.5c-0.2,0.1-0.4,0.1-0.6,0.2
				c-7.2,2.7-12,9.5-12,17.2v7.9v20.7h36.1v-20.7v-7.9c0-7.7-4.8-14.6-12-17.2c-0.2-0.1-0.3-0.1-0.5-0.2v-6.6
				c0.2-0.1,0.3-0.1,0.5-0.2c7.2-2.7,12-9.5,12-17.2v-7.9v-20.7H706z"/>
			<path class="st0" d="M743.3,322.5h-38.5v-29.8c0-8.1,5.1-15.4,12.6-18.3v-4.8c-7.6-2.9-12.6-10.2-12.6-18.3v-29.8h38.5v29.8
				c0,8.1-5,15.4-12.5,18.3v4.9c7.5,2.9,12.5,10.2,12.5,18.3V322.5z M707.2,320.2h33.7v-27.4c0-7.2-4.5-13.6-11.2-16.1
				c-0.1,0-0.2-0.1-0.3-0.1l-1-0.3v-8.3l1.1-0.4c0.1,0,0.2,0,0.2-0.1c6.7-2.5,11.2-9,11.2-16.1V224h-33.7v27.4
				c0,7.2,4.5,13.6,11.2,16.1c0.1,0,0.2,0.1,0.3,0.1l1.1,0.3v8.2l-1.1,0.3c-0.1,0-0.2,0.1-0.3,0.1c-6.7,2.5-11.2,9-11.2,16.1V320.2z
				"/>
		</g>
		<g>
			<rect x="701.5" y="217.3" class="st0" width="45.2" height="5.5"/>
			<path class="st0" d="M747.8,224h-47.5v-7.9h47.5V224z M702.7,221.6h42.8v-3.2h-42.8V221.6z"/>
		</g>
		<g>
			<rect x="701.5" y="321.4" class="st0" width="45.2" height="5.5"/>
			<path class="st0" d="M747.8,328.1h-47.5v-7.9h47.5V328.1z M702.7,325.7h42.8v-3.2h-42.8V325.7z"/>
		</g>
		<g>
			<g>
				<path class="st0" d="M718.6,250c0,1-0.8,1.8-1.8,1.8c-1,0-1.8-0.8-1.8-1.8c0-1,0.8-1.8,1.8-1.8C717.8,248.2,718.6,249,718.6,250
					z"/>
				<path class="st0" d="M725.3,250c0,1-0.8,1.8-1.8,1.8c-1,0-1.8-0.8-1.8-1.8c0-1,0.8-1.8,1.8-1.8C724.5,248.2,725.3,249,725.3,250
					z"/>
				<path class="st0" d="M731.9,250c0,1-0.8,1.8-1.8,1.8c-1,0-1.8-0.8-1.8-1.8c0-1,0.8-1.8,1.8-1.8C731.1,248.2,731.9,249,731.9,250
					z"/>
			</g>
			<g>
				<path class="st0" d="M725.3,261.9c0,1-0.8,1.8-1.8,1.8c-1,0-1.8-0.8-1.8-1.8c0-1,0.8-1.8,1.8-1.8
					C724.5,260.1,725.3,260.9,725.3,261.9z"/>
			</g>
			<g>
				<path class="st0" d="M734.6,244.1c0,1-0.8,1.8-1.8,1.8c-1,0-1.8-0.8-1.8-1.8c0-1,0.8-1.8,1.8-1.8
					C733.8,242.3,734.6,243.1,734.6,244.1z"/>
				<path class="st0" d="M715.9,244.1c0,1-0.8,1.8-1.8,1.8c-1,0-1.8-0.8-1.8-1.8c0-1,0.8-1.8,1.8-1.8
					C715.1,242.3,715.9,243.1,715.9,244.1z"/>
				<path class="st0" d="M722.2,244.1c0,1-0.8,1.8-1.8,1.8c-1,0-1.8-0.8-1.8-1.8c0-1,0.8-1.8,1.8-1.8
					C721.4,242.3,722.2,243.1,722.2,244.1z"/>
				<path class="st0" d="M728.4,244.1c0,1-0.8,1.8-1.8,1.8c-1,0-1.8-0.8-1.8-1.8c0-1,0.8-1.8,1.8-1.8
					C727.6,242.3,728.4,243.1,728.4,244.1z"/>
			</g>
			<g>
				<path class="st0" d="M734.6,255.9c0,1-0.8,1.8-1.8,1.8c-1,0-1.8-0.8-1.8-1.8c0-1,0.8-1.8,1.8-1.8
					C733.8,254.2,734.6,255,734.6,255.9z"/>
				<path class="st0" d="M715.9,255.9c0,1-0.8,1.8-1.8,1.8c-1,0-1.8-0.8-1.8-1.8c0-1,0.8-1.8,1.8-1.8
					C715.1,254.2,715.9,255,715.9,255.9z"/>
				<path class="st0" d="M722.2,255.9c0,1-0.8,1.8-1.8,1.8c-1,0-1.8-0.8-1.8-1.8c0-1,0.8-1.8,1.8-1.8
					C721.4,254.2,722.2,255,722.2,255.9z"/>
				<path class="st0" d="M728.4,255.9c0,1-0.8,1.8-1.8,1.8c-1,0-1.8-0.8-1.8-1.8c0-1,0.8-1.8,1.8-1.8
					C727.6,254.2,728.4,255,728.4,255.9z"/>
			</g>
		</g>
		<g>
			<g>
				<path class="st0" d="M718.6,310.4c0-1-0.8-1.8-1.8-1.8c-1,0-1.8,0.8-1.8,1.8c0,1,0.8,1.8,1.8,1.8
					C717.8,312.2,718.6,311.4,718.6,310.4z"/>
				<path class="st0" d="M725.3,310.4c0-1-0.8-1.8-1.8-1.8c-1,0-1.8,0.8-1.8,1.8c0,1,0.8,1.8,1.8,1.8
					C724.5,312.2,725.3,311.4,725.3,310.4z"/>
				<path class="st0" d="M731.9,310.4c0-1-0.8-1.8-1.8-1.8c-1,0-1.8,0.8-1.8,1.8c0,1,0.8,1.8,1.8,1.8
					C731.1,312.2,731.9,311.4,731.9,310.4z"/>
			</g>
			<g>
				<path class="st0" d="M725.3,298.5c0-1-0.8-1.8-1.8-1.8c-1,0-1.8,0.8-1.8,1.8c0,1,0.8,1.8,1.8,1.8
					C724.5,300.3,725.3,299.5,725.3,298.5z"/>
			</g>
			<g>
				<path class="st0" d="M734.6,316.4c0-1-0.8-1.8-1.8-1.8c-1,0-1.8,0.8-1.8,1.8c0,1,0.8,1.8,1.8,1.8
					C733.8,318.1,734.6,317.3,734.6,316.4z"/>
				<path class="st0" d="M715.9,316.4c0-1-0.8-1.8-1.8-1.8c-1,0-1.8,0.8-1.8,1.8c0,1,0.8,1.8,1.8,1.8
					C715.1,318.1,715.9,317.3,715.9,316.4z"/>
				<path class="st0" d="M722.2,316.4c0-1-0.8-1.8-1.8-1.8c-1,0-1.8,0.8-1.8,1.8c0,1,0.8,1.8,1.8,1.8
					C721.4,318.1,722.2,317.3,722.2,316.4z"/>
				<path class="st0" d="M728.4,316.4c0-1-0.8-1.8-1.8-1.8c-1,0-1.8,0.8-1.8,1.8c0,1,0.8,1.8,1.8,1.8
					C727.6,318.1,728.4,317.3,728.4,316.4z"/>
			</g>
			<g>
				<path class="st0" d="M734.6,304.5c0-1-0.8-1.8-1.8-1.8c-1,0-1.8,0.8-1.8,1.8c0,1,0.8,1.8,1.8,1.8
					C733.8,306.2,734.6,305.4,734.6,304.5z"/>
				<path class="st0" d="M715.9,304.5c0-1-0.8-1.8-1.8-1.8c-1,0-1.8,0.8-1.8,1.8c0,1,0.8,1.8,1.8,1.8
					C715.1,306.2,715.9,305.4,715.9,304.5z"/>
				<path class="st0" d="M722.2,304.5c0-1-0.8-1.8-1.8-1.8c-1,0-1.8,0.8-1.8,1.8c0,1,0.8,1.8,1.8,1.8
					C721.4,306.2,722.2,305.4,722.2,304.5z"/>
				<path class="st0" d="M728.4,304.5c0-1-0.8-1.8-1.8-1.8c-1,0-1.8,0.8-1.8,1.8c0,1,0.8,1.8,1.8,1.8
					C727.6,306.2,728.4,305.4,728.4,304.5z"/>
			</g>
		</g>
	</g>
</g>
<g>
	<g>
		<g>
			<path class="st0" d="M240.1,81.6l-5.3-5.3l5.3-5.3l5.3,5.3L240.1,81.6z M238.2,76.3l1.9,1.9l1.9-1.9l-1.9-1.9L238.2,76.3z"/>
		</g>
		<g>
			<path class="st0" d="M240.1,99.1l-5.3-5.3l5.3-5.3l5.3,5.3L240.1,99.1z M238.2,93.8l1.9,1.9l1.9-1.9l-1.9-1.9L238.2,93.8z"/>
		</g>
		<g>
			<path class="st0" d="M240.1,116.6l-5.3-5.3l5.3-5.3l5.3,5.3L240.1,116.6z M238.2,111.3l1.9,1.9l1.9-1.9l-1.9-1.9L238.2,111.3z"/>
		</g>
	</g>
	<g>
		<g>
			<path class="st0" d="M255,44.9c0,8.2-6.7,14.9-14.9,14.9c-8.2,0-14.9-6.7-14.9-14.9c0-8.2,6.7-14.9,14.9-14.9
				C248.4,30,255,36.7,255,44.9z"/>
			<g>
				<path class="st0" d="M240.1,61c-8.9,0-16.1-7.2-16.1-16.1c0-8.9,7.2-16.1,16.1-16.1c8.9,0,16.1,7.2,16.1,16.1
					C256.2,53.8,249,61,240.1,61z M240.1,31.2c-7.6,0-13.7,6.2-13.7,13.7c0,7.6,6.2,13.7,13.7,13.7c7.6,0,13.7-6.2,13.7-13.7
					C253.9,37.4,247.7,31.2,240.1,31.2z"/>
			</g>
		</g>
		<g>
			<path class="st0" d="M236.6,42.5v2.5h2.5v1.3h-2.5V49h-1.3v-2.6h-2.5v-1.3h2.5v-2.5H236.6z"/>
			<path class="st0" d="M246.2,41.6h-3.6c-0.1,0.5-0.2,1.5-0.2,1.9c0.3-0.3,0.9-0.5,1.6-0.5c1.7,0,2.7,1.2,2.7,2.9
				c0,2-1.1,3.2-3.2,3.2c-1.6,0-2.9-0.8-3-2.5h1.8c0.1,0.7,0.6,1.1,1.3,1.1c0.9,0,1.3-0.5,1.3-1.7c0-1.1-0.5-1.6-1.4-1.6
				c-0.8,0-1.2,0.4-1.4,0.9l-1.5-0.2c0.2-1.3,0.5-3.9,0.6-5h5.2L246.2,41.6z"/>
		</g>
	</g>
</g>
<g>
	<polygon class="st0" points="655.6,222.3 653.3,222.3 653.3,122.4 732.4,122.4 732.4,190.4 730.1,190.4 730.1,124.8 655.6,124.8 	
		"/>
</g>
<g>
	
		<rect x="682.4" y="95.7" transform="matrix(6.123234e-17 -1 1 6.123234e-17 558.7939 826.892)" class="st0" width="20.9" height="76.8"/>
	<path class="st0" d="M731.2,145.7h-76.8c-0.7,0-1.2-0.5-1.2-1.2v-20.9c0-0.7,0.5-1.2,1.2-1.2h76.8c0.7,0,1.2,0.5,1.2,1.2v20.9
		C732.4,145.2,731.9,145.7,731.2,145.7z M655.6,143.3h74.4v-18.6h-74.4V143.3z"/>
</g>
<g>
	<path class="st0" d="M700.6,111.2v22.4c0,2.2-1.8,3.9-3.9,3.9h-14.7v-26.3c0-2.2,1.8-3.9,3.9-3.9h10.8
		C698.8,107.3,700.6,109.1,700.6,111.2z"/>
	<path class="st0" d="M695.9,138.7h-14c-0.7,0-1.2-0.5-1.2-1.2v-25.6c0-3.2,2.6-5.8,5.8-5.8h9.3c3.2,0,5.8,2.6,5.8,5.8v20.9
		C701.7,136.1,699.1,138.7,695.9,138.7z M683.1,136.4h12.8c1.9,0,3.5-1.6,3.5-3.5v-20.9c0-1.9-1.6-3.5-3.5-3.5h-9.3
		c-1.9,0-3.5,1.6-3.5,3.5V136.4z"/>
</g>
<g>
	<path class="st0" d="M665.1,220.3h-2.4v-2.4h2.4V220.3z M665.1,216.7h-2.4v-2.4h2.4V216.7z M665.1,213.1h-2.4v-2.4h2.4V213.1z
		 M665.1,209.6h-2.4v-2.4h2.4V209.6z M665.1,206h-2.4v-2.4h2.4V206z M665.1,202.4h-2.4V200h2.4V202.4z M665.1,198.9h-2.4v-2.4h2.4
		V198.9z M665.1,195.3h-2.4v-2.4h2.4V195.3z M665.1,191.7h-2.4v-2.4h2.4V191.7z M665.1,188.1h-2.4v-2.4h2.4V188.1z M665.1,184.6
		h-2.4v-2.4h2.4V184.6z M665.1,181h-2.4v-2.4h2.4V181z M665.1,177.4h-2.4v-2.4h2.4V177.4z M665.1,173.9h-2.4v-2.4h2.4V173.9z
		 M665.1,170.3h-2.4v-2.4h2.4V170.3z M665.1,166.7h-2.4v-2.4h2.4V166.7z M665.1,163.2h-2.4v-2.4h2.4V163.2z M665.1,159.6h-2.4v-2.4
		h2.4V159.6z M665.1,156h-2.4v-2.4h2.4V156z"/>
</g>
<g>
	<path class="st0" d="M723.6,191h-2.4v-1.6h2.4V191z M723.6,188.1h-2.4v-2.4h2.4V188.1z M723.6,184.6h-2.4v-2.4h2.4V184.6z
		 M723.6,181h-2.4v-2.4h2.4V181z M723.6,177.4h-2.4v-2.4h2.4V177.4z M723.6,173.9h-2.4v-2.4h2.4V173.9z M723.6,170.3h-2.4v-2.4h2.4
		V170.3z M723.6,166.7h-2.4v-2.4h2.4V166.7z M723.6,163.2h-2.4v-2.4h2.4V163.2z M723.6,159.6h-2.4v-2.4h2.4V159.6z M723.6,156h-2.4
		v-2.4h2.4V156z"/>
</g>
<g>
	<g>
		<path class="st0" d="M640.8,326.4v-84.8c0-6.8-15.3-12.2-22-12.3v0l60,0v0c6.8,0.1,11.1,5.6,11.1,12.4v84.8H640.8z"/>
		<path class="st0" d="M691,327.6h-51.4v-86c0-5.7-14.2-11.1-20.9-11.1l-1.2,0v-2.4l1.2,0l61.2,0v0.1c6.5,0.7,11.1,6.2,11.1,13.5
			V327.6z M642,325.2h46.6v-83.6c0-6.5-4.1-11.1-9.9-11.2l-0.3,0l-49,0c6.3,2.3,12.5,6.3,12.5,11.2V325.2z"/>
	</g>
	<g>
		<path class="st0" d="M607.5,311.3v-69.7c0-6.8,5.5-12.3,12.2-12.4v0h58.8v0c-6.8,0.1-10.1,5.6-10.1,12.4v69.7
			c0,8.6-7,15.6-15.6,15.6c-18.3,0-56.8,0-56.8,0v-0.6C602.6,324.5,607.5,318.5,607.5,311.3z"/>
		<g>
			<path class="st0" d="M596,328.1c-0.3,0-0.6-0.1-0.8-0.3c-0.2-0.2-0.3-0.5-0.3-0.8v-0.6c0-0.5,0.4-1,0.9-1.1
				c6.2-1.7,10.6-7.4,10.6-13.9v-69.7c0-7.4,6-13.4,13.3-13.6c0,0,0.1,0,0.1,0h58.8c0.7,0,1.2,0.5,1.2,1.2c0,0.6-0.5,1.2-1.2,1.2
				c-6.6,0.1-8.9,5.8-8.9,11.2v69.7c0,9.3-7.5,16.8-16.8,16.8L596,328.1z M619.8,230.4C619.8,230.4,619.7,230.4,619.8,230.4
				c-6.2,0.1-11.1,5.1-11.1,11.2v69.7c0,6-3.2,11.5-8.2,14.4l52.3,0c8,0,14.4-6.5,14.4-14.4v-69.7c0-5,1.6-8.9,4.4-11.2H619.8z"/>
		</g>
	</g>
	<g>
		<path class="st0" d="M642.6,313.1v1.4c0,6.8,4.3,12.3,11.1,12.4v0h-59.8v0c-6.8-0.1-12.2-5.6-12.2-12.4v-1.4H642.6z"/>
		<g>
			<path class="st0" d="M653.7,328.1h-59.8c0,0-0.1,0-0.1,0c-7.3-0.1-13.3-6.2-13.3-13.6v-1.4c0-0.7,0.5-1.2,1.2-1.2h60.9
				c0.7,0,1.2,0.5,1.2,1.2v1.4c0,6.5,4.1,11.1,9.9,11.2c0.6,0,1.2,0.5,1.2,1.2C654.9,327.5,654.4,328.1,653.7,328.1z M594,325.7
				h52.5c-3.2-2.4-5.1-6.4-5.1-11.2v-0.3h-58.5v0.3C582.9,320.6,587.9,325.6,594,325.7C594,325.7,594,325.7,594,325.7z"/>
		</g>
	</g>
	<g>
		<g>
			<path class="st0" d="M624.3,245.3c4.5-4.8,11.2-6.9,17.6-5.5c3.2,0.7,6.1,2.3,8.5,4.5l-12.5,13.5L624.3,245.3z"/>
			<g>
				<path class="st0" d="M637.9,259c-0.3,0-0.6-0.1-0.8-0.3l-13.5-12.5c-0.5-0.4-0.5-1.2-0.1-1.7c4.8-5.1,11.9-7.4,18.8-5.8
					c3.4,0.8,6.5,2.4,9,4.7c0.5,0.4,0.5,1.2,0.1,1.7l-12.5,13.5C638.5,258.9,638.2,259,637.9,259C637.9,259,637.9,259,637.9,259z
					 M626.1,245.3l11.8,10.9l10.9-11.8c-2-1.6-4.4-2.8-7-3.4C636.1,239.7,630.2,241.4,626.1,245.3z"/>
			</g>
		</g>
		<g>
			<path class="st0" d="M650.4,244.3c2.3,2.2,4.1,4.9,5.1,8.1c1.3,4.2,1,8.7-0.6,12.6l-17-7.2L650.4,244.3z"/>
			<path class="st0" d="M655.5,266.5l-19.7-8.3l14.5-15.7l0.9,0.8c2.5,2.3,4.4,5.3,5.4,8.6c1.4,4.4,1.1,9.2-0.7,13.4L655.5,266.5z
				 M639.9,257.4l14.3,6c1.2-3.4,1.2-7.2,0.2-10.7c-0.8-2.5-2.1-4.8-3.9-6.7L639.9,257.4z"/>
		</g>
		<g>
			<path class="st0" d="M654.9,265c-0.8,2-2,3.8-3.5,5.4c-4.5,4.8-11.2,6.9-17.6,5.5c-6.4-1.5-11.6-6.2-13.5-12.5
				c-2-6.3-0.4-13.2,4.1-18l13.5,12.5L654.9,265z"/>
			<path class="st0" d="M637.9,277.5c-1.4,0-2.9-0.2-4.3-0.5c-6.8-1.5-12.3-6.7-14.4-13.3c-2.1-6.7-0.4-14,4.4-19.2l0.8-0.9
				l14.3,13.2l17.9,7.5l-0.5,1.1c-0.9,2.1-2.1,4-3.7,5.7C648.5,275.2,643.3,277.5,637.9,277.5z M624.4,247
				c-3.6,4.4-4.8,10.4-3.1,15.9c1.8,5.9,6.7,10.4,12.7,11.7c6,1.4,12.3-0.6,16.5-5.1c1.1-1.2,2-2.5,2.8-4l-16.1-6.8L624.4,247z"/>
		</g>
	</g>
	<g>
		<g>
			<path class="st0" d="M658.7,290.7h-2.4v-2.4h2.4V290.7z M654,290.7h-11.9v-2.4H654V290.7z M639.7,290.7h-2.4v-2.4h2.4V290.7z
				 M625.5,290.7h-2.4v-2.4h2.4V290.7z M620.8,290.7h-4.4v-2.4h4.4V290.7z"/>
		</g>
		<g>
			<path class="st0" d="M658.7,297.5h-2.4v-2.4h2.4V297.5z M654,297.5h-11.9v-2.4H654V297.5z M639.7,297.5h-2.4v-2.4h2.4V297.5z
				 M625.5,297.5h-2.4v-2.4h2.4V297.5z M620.8,297.5h-4.4v-2.4h4.4V297.5z"/>
		</g>
		<g>
			<path class="st0" d="M658.7,304.4h-2.4V302h2.4V304.4z M654,304.4h-11.9V302H654V304.4z M639.7,304.4h-2.4V302h2.4V304.4z
				 M625.5,304.4h-2.4V302h2.4V304.4z M620.8,304.4h-4.4V302h4.4V304.4z"/>
		</g>
		<g>
			<rect x="616.7" y="289.4" class="st0" width="13.5" height="14"/>
			<path class="st0" d="M630.2,304.6h-13.5c-0.7,0-1.2-0.5-1.2-1.2v-14c0-0.7,0.5-1.2,1.2-1.2h13.5c0.7,0,1.2,0.5,1.2,1.2v14
				C631.3,304.1,630.8,304.6,630.2,304.6z M617.9,302.2H629v-11.7h-11.1V302.2z"/>
		</g>
	</g>
</g>
<g>
	<g>
		<circle class="st0" cx="653" cy="124.8" r="15.1"/>
		<path class="st0" d="M653,141c-9,0-16.2-7.3-16.2-16.2c0-9,7.3-16.2,16.2-16.2c9,0,16.2,7.3,16.2,16.2
			C669.2,133.7,661.9,141,653,141z M653,110.9c-7.6,0-13.9,6.2-13.9,13.9c0,7.6,6.2,13.9,13.9,13.9c7.6,0,13.9-6.2,13.9-13.9
			C666.8,117.1,660.6,110.9,653,110.9z"/>
	</g>
	<g>
		<path class="st0" d="M652.5,131.8c-0.4,0-0.8-0.1-1.1-0.4l-5.5-4.5c-0.8-0.6-0.9-1.7-0.3-2.5c0.6-0.8,1.7-0.9,2.5-0.3l4,3.3
			l5.4-8.7c0.5-0.8,1.6-1.1,2.4-0.6c0.8,0.5,1.1,1.6,0.6,2.4L654,131c-0.3,0.4-0.7,0.7-1.2,0.8C652.7,131.8,652.6,131.8,652.5,131.8
			z"/>
	</g>
</g>
<g>
	<path class="st0" d="M431.8,244.2h-2.4v-1h2.4V244.2z M431.8,240.9h-2.4v-2.4h2.4V240.9z M431.8,236.1h-2.4v-2.4h2.4V236.1z
		 M431.8,231.4h-2.4V229h2.4V231.4z M431.8,226.6h-2.4v-2.4h2.4V226.6z M431.8,221.9h-2.4v-2.4h2.4V221.9z M431.8,217.1h-2.4v-2.4
		h2.4V217.1z M431.8,212.4h-2.4V210h2.4V212.4z M431.8,207.6h-2.4v-2.4h2.4V207.6z M431.8,202.9h-2.4v-2.4h2.4V202.9z M431.8,198.2
		h-2.4v-2.4h2.4V198.2z M431.8,193.4h-2.4V191h2.4V193.4z M431.8,188.7h-2.4v-2.4h2.4V188.7z M431.8,183.9h-2.4v-2.4h2.4V183.9z
		 M431.8,179.2h-2.4v-2.4h2.4V179.2z M431.8,174.4h-2.4v-2.4h2.4V174.4z M480.4,170.8H478v-2.4h2.4V170.8z M475.6,170.8h-2.4v-2.4
		h2.4V170.8z M470.9,170.8h-2.4v-2.4h2.4V170.8z M466.2,170.8h-2.4v-2.4h2.4V170.8z M461.4,170.8H459v-2.4h2.4V170.8z M456.7,170.8
		h-2.4v-2.4h2.4V170.8z M451.9,170.8h-2.4v-2.4h2.4V170.8z M447.2,170.8h-2.4v-2.4h2.4V170.8z M442.4,170.8h-2.4v-2.4h2.4V170.8z
		 M437.7,170.8h-2.4v-2.4h2.4V170.8z M432.9,170.8h-2.3v-1.2l-1.2,0v-1.2l1.2-0.1h2.3V170.8z"/>
</g>
<g>
	<g>
		<g>
			<path class="st0" d="M377.1,326.9H266.7c-3.1,0-5.7-2.5-5.7-5.7v-73.8h121.8v73.8C382.8,324.3,380.3,326.9,377.1,326.9z"/>
			<path class="st0" d="M376.1,328.1H267.8c-4.4,0-7.9-3.6-7.9-7.9v-73.9H384v73.9C384,324.5,380.5,328.1,376.1,328.1z M262.2,248.6
				v71.6c0,3.1,2.5,5.6,5.6,5.6h108.3c3.1,0,5.6-2.5,5.6-5.6v-71.6H262.2z"/>
		</g>
		<g>
			<path class="st0" d="M321.9,294.7c-20.6,0-41.2-2.4-61.2-7.2l0.6-2.3c39.7,9.5,81.6,9.5,121.2,0l0.6,2.3
				C363.1,292.3,342.5,294.7,321.9,294.7z"/>
		</g>
		<rect x="311.3" y="282.4" class="st0" width="20" height="9.2"/>
		<path class="st0" d="M311.3,295.3v9.2c0,3.2,20,3.2,20,0v-9.2H311.3z M319.8,303.7l1.1-2.7c-0.5-0.2-0.8-0.6-0.8-1.2
			c0-0.7,0.6-1.2,1.2-1.2c0.7,0,1.2,0.6,1.2,1.2c0,0.5-0.3,1-0.8,1.2l1.1,2.7H319.8z"/>
		<g>
			<rect x="311.3" y="281.2" class="st0" width="20" height="2.4"/>
		</g>
		<g>
			<line class="st0" x1="311.3" y1="279.5" x2="311.3" y2="251"/>
			<rect x="310.1" y="251" class="st0" width="2.4" height="28.5"/>
		</g>
		<g>
			<line class="st0" x1="331.3" y1="279.5" x2="331.3" y2="251"/>
			<rect x="330.1" y="251" class="st0" width="2.4" height="28.5"/>
		</g>
		<g>
			<path class="st0" d="M375.7,318.3h-2.4V316h2.4V318.3z M370.9,318.3h-2.4V316h2.4V318.3z M366.2,318.3h-2.4V316h2.4V318.3z
				 M361.4,318.3H359V316h2.4V318.3z M356.7,318.3h-2.4V316h2.4V318.3z M351.9,318.3h-2.4V316h2.4V318.3z M347.2,318.3h-2.4V316h2.4
				V318.3z M342.4,318.3h-2.4V316h2.4V318.3z M337.7,318.3h-2.4V316h2.4V318.3z M333,318.3h-2.4V316h2.4V318.3z M328.2,318.3h-2.4
				V316h2.4V318.3z M323.5,318.3h-2.4V316h2.4V318.3z M318.7,318.3h-2.4V316h2.4V318.3z M314,318.3h-2.4V316h2.4V318.3z
				 M309.2,318.3h-2.4V316h2.4V318.3z M304.5,318.3h-2.4V316h2.4V318.3z M299.7,318.3h-2.4V316h2.4V318.3z M295,318.3h-2.4V316h2.4
				V318.3z M290.3,318.3h-2.4V316h2.4V318.3z M285.5,318.3h-2.4V316h2.4V318.3z M280.8,318.3h-2.4V316h2.4V318.3z M276,318.3h-2.4
				V316h2.4V318.3z"/>
		</g>
	</g>
	<g>
		<g>
			<rect x="306.7" y="226.9" class="st0" width="30.2" height="10.3"/>
			<path class="st0" d="M338.1,238.3h-32.6v-12.7h32.6V238.3z M307.9,236h27.8V228h-27.8V236z"/>
		</g>
		<g>
			<path class="st0" d="M347.3,248.5l-50.7-0.5v-17.5h11.3v5.4h27.8v-5.4h11.6V248.5z M299,245.7l45.9,0.5v-13.2h-6.8v5.4h-32.6
				v-5.4H299V245.7z"/>
		</g>
	</g>
	<g>
		<g>
			<polygon class="st0" points="291.1,275.6 271.7,275.6 271.7,257.4 274.1,257.4 274.1,273.2 288.7,273.2 288.7,257.4 291.1,257.4 
							"/>
		</g>
		<g>
			<polygon class="st0" points="372.2,275.6 352.8,275.6 352.8,257.4 355.2,257.4 355.2,273.2 369.8,273.2 369.8,257.4 372.2,257.4 
							"/>
		</g>
	</g>
</g>
<g>
	<g>
		<rect x="97.8" y="254.3" class="st0" width="71.9" height="43.8"/>
		<g>
			<path class="st0" d="M170.9,299.3H96.6v-46.2h74.3V299.3z M98.9,297h69.6v-41.4H98.9V297z"/>
		</g>
	</g>
	<g>
		<rect x="97.8" y="254.3" class="st0" width="11.9" height="11.9"/>
		<path class="st0" d="M110.8,267.4H96.6v-14.3h14.3V267.4z M98.9,265h9.5v-9.5h-9.5V265z"/>
	</g>
	<g>
		<rect x="117.9" y="261.8" class="st0" width="37.4" height="2.4"/>
	</g>
	<g>
		<rect x="117.9" y="268.3" class="st0" width="37.4" height="2.4"/>
	</g>
	<g>
		<rect x="117.9" y="274.8" class="st0" width="37.4" height="2.4"/>
	</g>
	<g>
		<rect x="117.9" y="281.3" class="st0" width="37.4" height="2.4"/>
	</g>
	<g>
		<rect x="117.9" y="287.9" class="st0" width="37.4" height="2.4"/>
	</g>
</g>
<g>
	<g>
		<g>
			<rect x="639.4" y="10.2" class="st0" width="1.8" height="92.3"/>
		</g>
		<g>
			<path class="st0" d="M640.2,4.9c0.9,2.5,2.5,5.7,4.2,7.6l-4.2-1.5l-4.2,1.5C637.7,10.5,639.3,7.4,640.2,4.9z"/>
		</g>
	</g>
	<g>
		<g>
			<rect x="654.3" y="10.2" class="st0" width="1.8" height="92.3"/>
		</g>
		<g>
			<path class="st0" d="M655.2,4.9c0.9,2.5,2.5,5.7,4.2,7.6l-4.2-1.5l-4.2,1.5C652.7,10.5,654.3,7.4,655.2,4.9z"/>
		</g>
	</g>
	<g>
		<g>
			<rect x="669.3" y="10.2" class="st0" width="1.8" height="92.3"/>
		</g>
		<g>
			<path class="st0" d="M670.2,4.9c0.9,2.5,2.5,5.7,4.2,7.6l-4.2-1.5l-4.2,1.5C667.7,10.5,669.3,7.4,670.2,4.9z"/>
		</g>
	</g>
</g>
<g>
	<g>
		<g>
			<path class="st0" d="M716.6,91.8c-6.5,0-11.9-5.3-11.9-11.9c0-6.5,5.3-11.9,11.9-11.9c6.5,0,11.9,5.3,11.9,11.9
				C728.4,86.5,723.1,91.8,716.6,91.8z"/>
			<path class="st0" d="M716.6,93c-7.2,0-13-5.9-13-13c0-7.2,5.9-13,13-13c7.2,0,13,5.9,13,13C729.6,87.1,723.8,93,716.6,93z
				 M716.6,69.2c-5.9,0-10.7,4.8-10.7,10.7s4.8,10.7,10.7,10.7s10.7-4.8,10.7-10.7S722.5,69.2,716.6,69.2z"/>
		</g>
	</g>
	<g>
		<path class="st0" d="M718.3,77.2c-0.5-0.5-0.9-0.7-1.6-0.7c-0.7,0-1.2,0.4-1.2,1.1c0,1.6,3.7,1.3,3.7,4.1c0,1.3-0.8,2.3-2.1,2.5
			v1.4H716v-1.4c-0.8-0.1-1.8-0.5-2.4-1l0.7-1.1c0.6,0.5,1.3,0.9,2,0.9c0.9,0,1.3-0.4,1.3-1.2c0-1.8-3.7-1.6-3.7-4.1
			c0-1.3,0.8-2.2,2-2.4v-1.4h1.1v1.4c0.9,0.1,1.5,0.5,2,1.1L718.3,77.2z"/>
	</g>
</g>
<g>
	<g>
		<g>
			<path class="st0" d="M479.9,89.2c-6.5,0-11.9-5.3-11.9-11.9c0-6.5,5.3-11.9,11.9-11.9c6.5,0,11.9,5.3,11.9,11.9
				C491.7,83.9,486.4,89.2,479.9,89.2z"/>
			<path class="st0" d="M479.9,90.4c-7.2,0-13-5.9-13-13c0-7.2,5.9-13,13-13c7.2,0,13,5.9,13,13C492.9,84.5,487.1,90.4,479.9,90.4z
				 M479.9,66.7c-5.9,0-10.7,4.8-10.7,10.7S474,88,479.9,88s10.7-4.8,10.7-10.7S485.8,66.7,479.9,66.7z"/>
		</g>
	</g>
	<g>
		<path class="st0" d="M481.6,74.6c-0.5-0.5-0.9-0.7-1.6-0.7c-0.7,0-1.2,0.4-1.2,1.1c0,1.6,3.7,1.3,3.7,4.1c0,1.3-0.8,2.3-2.1,2.5
			V83h-1.1v-1.4c-0.8-0.1-1.8-0.5-2.4-1l0.7-1.1c0.6,0.5,1.3,0.9,2,0.9c0.9,0,1.3-0.4,1.3-1.2c0-1.8-3.7-1.6-3.7-4.1
			c0-1.3,0.8-2.2,2-2.4v-1.4h1.1v1.4c0.9,0.1,1.5,0.5,2,1.1L481.6,74.6z"/>
	</g>
</g>
<g>
	<g>
		<g>
			<path class="st0" d="M385.5,85.7c-6.5,0-11.9-5.3-11.9-11.9c0-6.5,5.3-11.9,11.9-11.9c6.5,0,11.9,5.3,11.9,11.9
				C397.3,80.3,392,85.7,385.5,85.7z"/>
			<path class="st0" d="M385.5,86.8c-7.2,0-13-5.9-13-13c0-7.2,5.9-13,13-13s13,5.9,13,13C398.5,81,392.7,86.8,385.5,86.8z
				 M385.5,63.1c-5.9,0-10.7,4.8-10.7,10.7s4.8,10.7,10.7,10.7s10.7-4.8,10.7-10.7S391.3,63.1,385.5,63.1z"/>
		</g>
	</g>
	<g>
		<path class="st0" d="M387.2,71c-0.5-0.5-0.9-0.7-1.6-0.7c-0.7,0-1.2,0.4-1.2,1.1c0,1.6,3.7,1.3,3.7,4.1c0,1.3-0.8,2.3-2.1,2.5v1.4
			h-1.1V78c-0.8-0.1-1.8-0.5-2.4-1l0.7-1.1c0.6,0.5,1.3,0.9,2,0.9c0.9,0,1.3-0.4,1.3-1.2c0-1.8-3.7-1.6-3.7-4.1c0-1.3,0.8-2.2,2-2.4
			v-1.4h1.1V69c0.9,0.1,1.5,0.5,2,1.1L387.2,71z"/>
	</g>
</g>
<g>
	<g>
		<g>
			<circle class="st0" cx="113.6" cy="216.6" r="11.9"/>
			<path class="st0" d="M113.6,229.6c-7.2,0-13-5.9-13-13c0-7.2,5.9-13,13-13c7.2,0,13,5.9,13,13
				C126.7,223.8,120.8,229.6,113.6,229.6z M113.6,205.9c-5.9,0-10.7,4.8-10.7,10.7c0,5.9,4.8,10.7,10.7,10.7
				c5.9,0,10.7-4.8,10.7-10.7C124.3,210.7,119.5,205.9,113.6,205.9z"/>
		</g>
	</g>
	<g>
		<path class="st0" d="M115.4,213.8c-0.5-0.5-0.9-0.7-1.6-0.7c-0.7,0-1.2,0.4-1.2,1.1c0,1.6,3.7,1.3,3.7,4.1c0,1.3-0.8,2.3-2.1,2.5
			v1.4h-1.1v-1.4c-0.8-0.1-1.8-0.5-2.4-1l0.7-1.1c0.6,0.5,1.3,0.9,2,0.9c0.9,0,1.3-0.4,1.3-1.2c0-1.8-3.7-1.6-3.7-4.1
			c0-1.3,0.8-2.2,2-2.4v-1.4h1.1v1.4c0.9,0.1,1.5,0.5,2,1.1L115.4,213.8z"/>
	</g>
</g>
<g>
	<g>
		<g>
			<path class="st0" d="M652.7,91c-0.6,0-1.2,0-1.8-0.1l0.2-1.8c0.6,0,1.1,0.1,1.7,0.1L652.7,91z M654.5,90.9l-0.1-1.8
				c0.6,0,1.1-0.1,1.7-0.2l0.2,1.8C655.8,90.8,655.2,90.9,654.5,90.9z M649,90.6c-0.6-0.1-1.2-0.2-1.8-0.4l0.4-1.7
				c0.6,0.1,1.1,0.2,1.7,0.3L649,90.6z M658.2,90.4l-0.4-1.7c0.6-0.1,1.1-0.3,1.7-0.4L660,90C659.4,90.1,658.8,90.3,658.2,90.4z
				 M645.4,89.8c-0.6-0.2-1.2-0.4-1.7-0.6l0.7-1.7c0.5,0.2,1.1,0.4,1.6,0.6L645.4,89.8z M661.7,89.4l-0.6-1.7
				c0.5-0.2,1.1-0.4,1.6-0.7l0.7,1.6C662.9,88.9,662.3,89.2,661.7,89.4z M642,88.4c-0.6-0.3-1.1-0.6-1.6-0.9l0.9-1.5
				c0.5,0.3,1,0.6,1.5,0.8L642,88.4z M665.1,87.8l-0.9-1.6c0.5-0.3,1-0.6,1.5-0.9l1,1.5C666.1,87.2,665.6,87.5,665.1,87.8z
				 M638.8,86.6c-0.5-0.3-1-0.7-1.5-1.1l1.1-1.4c0.4,0.4,0.9,0.7,1.4,1L638.8,86.6z M668.2,85.8l-1.1-1.4c0.5-0.3,0.9-0.7,1.3-1.1
				l1.2,1.3C669.1,85,668.6,85.4,668.2,85.8z M635.9,84.3c-0.5-0.4-0.9-0.9-1.3-1.3l1.3-1.2c0.4,0.4,0.8,0.8,1.2,1.2L635.9,84.3z
				 M670.9,83.4l-1.3-1.2c0.4-0.4,0.8-0.8,1.1-1.3l1.4,1.1C671.8,82.5,671.3,82.9,670.9,83.4z M633.4,81.6c-0.4-0.5-0.7-1-1.1-1.5
				l1.5-1c0.3,0.5,0.7,0.9,1,1.4L633.4,81.6z M673.3,80.5l-1.4-1c0.3-0.5,0.6-0.9,0.9-1.4l1.5,0.9C674,79.5,673.6,80,673.3,80.5z
				 M631.3,78.5c-0.3-0.5-0.6-1.1-0.9-1.6l1.6-0.8c0.3,0.5,0.5,1,0.8,1.5L631.3,78.5z M675.2,77.4l-1.6-0.8c0.3-0.5,0.5-1,0.7-1.6
				l1.6,0.7C675.8,76.3,675.5,76.8,675.2,77.4z M629.7,75.2c-0.2-0.6-0.4-1.2-0.6-1.7l1.7-0.5c0.2,0.5,0.4,1.1,0.6,1.6L629.7,75.2z
				 M676.7,74l-1.7-0.6c0.2-0.5,0.3-1.1,0.5-1.6l1.7,0.4C677,72.8,676.8,73.4,676.7,74z M628.6,71.7c-0.1-0.6-0.3-1.2-0.4-1.8
				l1.8-0.3c0.1,0.6,0.2,1.1,0.3,1.7L628.6,71.7z M677.6,70.4l-1.8-0.3c0.1-0.6,0.2-1.1,0.2-1.7l1.8,0.2
				C677.8,69.2,677.7,69.8,677.6,70.4z M628.1,68c0-0.6-0.1-1.2-0.1-1.8l1.8,0c0,0.6,0,1.1,0.1,1.7L628.1,68z M678,66.8l-1.8-0.1
				c0-0.2,0-0.5,0-0.7c0-0.3,0-0.6,0-1l1.8-0.1c0,0.3,0,0.7,0,1C678,66.2,678,66.5,678,66.8z M629.7,66H628c0-0.6,0-1.2,0.1-1.8
				l1.8,0.1C629.8,64.8,629.7,65.4,629.7,66z M676,63.3c-0.1-0.6-0.2-1.1-0.3-1.7l1.7-0.3c0.1,0.6,0.2,1.2,0.3,1.8L676,63.3z
				 M630,62.5l-1.8-0.3c0.1-0.6,0.2-1.2,0.3-1.8l1.7,0.4C630.2,61.4,630.1,62,630,62.5z M675.4,59.9c-0.1-0.6-0.3-1.1-0.5-1.6
				l1.7-0.6c0.2,0.6,0.4,1.2,0.5,1.8L675.4,59.9z M630.7,59.2l-1.7-0.5c0.2-0.6,0.4-1.2,0.6-1.7l1.7,0.6
				C631.1,58.1,630.9,58.6,630.7,59.2z M674.3,56.7c-0.2-0.5-0.5-1-0.7-1.5l1.6-0.8c0.3,0.5,0.6,1.1,0.8,1.7L674.3,56.7z M632,56
				l-1.6-0.8c0.3-0.6,0.6-1.1,0.9-1.6l1.5,0.9C632.5,55,632.2,55.5,632,56z M672.7,53.7c-0.3-0.5-0.6-1-1-1.4l1.4-1.1
				c0.4,0.5,0.7,1,1,1.5L672.7,53.7z M633.7,53l-1.5-1c0.3-0.5,0.7-1,1.1-1.5l1.4,1.1C634.3,52.1,634,52.5,633.7,53z M670.6,50.9
				c-0.4-0.4-0.8-0.9-1.2-1.3l1.3-1.3c0.4,0.4,0.9,0.9,1.2,1.4L670.6,50.9z M635.8,50.3l-1.3-1.2c0.4-0.5,0.8-0.9,1.3-1.3l1.2,1.3
				C636.6,49.5,636.2,49.9,635.8,50.3z M668.2,48.5c-0.4-0.4-0.9-0.7-1.3-1.1L668,46c0.5,0.4,1,0.8,1.4,1.2L668.2,48.5z M638.3,48
				l-1.1-1.4c0.5-0.4,1-0.8,1.5-1.1l1,1.5C639.2,47.3,638.7,47.6,638.3,48z M665.5,46.4c-0.5-0.3-1-0.6-1.5-0.9l0.8-1.6
				c0.5,0.3,1.1,0.6,1.6,0.9L665.5,46.4z M641.1,46l-0.9-1.5c0.5-0.3,1.1-0.6,1.6-0.9l0.8,1.6C642.1,45.4,641.6,45.7,641.1,46z
				 M662.5,44.8c-0.5-0.2-1.1-0.4-1.6-0.6l0.6-1.7c0.6,0.2,1.2,0.4,1.7,0.7L662.5,44.8z M644.1,44.5l-0.7-1.6
				c0.6-0.2,1.1-0.4,1.7-0.6l0.6,1.7C645.2,44.1,644.7,44.3,644.1,44.5z M659.3,43.6c-0.5-0.2-1.1-0.3-1.7-0.4l0.4-1.7
				c0.6,0.1,1.2,0.3,1.8,0.4L659.3,43.6z M647.4,43.4l-0.4-1.7c0.6-0.1,1.2-0.3,1.8-0.4l0.3,1.8C648.5,43.2,647.9,43.3,647.4,43.4z
				 M655.9,42.9c-0.6-0.1-1.1-0.1-1.7-0.2l0.1-1.8c0.6,0,1.2,0.1,1.8,0.2L655.9,42.9z M650.8,42.8l-0.2-1.8c0.6-0.1,1.2-0.1,1.8-0.1
				l0,1.8C651.9,42.7,651.3,42.8,650.8,42.8z"/>
		</g>
		<g>
			<g>
				<g>
					<path class="st0" d="M637.6,51.7c5.1-5.5,12.7-7.8,20-6.2c3.6,0.8,6.9,2.6,9.6,5L653,66L637.6,51.7z"/>
					<path class="st0" d="M653,67.2l-16.7-15.4l0.6-0.7c5.3-5.7,13.3-8.2,20.8-6.4c3.7,0.8,7.2,2.7,10,5.3l0.7,0.6L653,67.2z
						 M638.9,51.7l14,13l13-14c-2.4-2.1-5.4-3.5-8.5-4.2C650.7,44.9,643.7,46.9,638.9,51.7z"/>
				</g>
				<g>
					<path class="st0" d="M670.8,46.7c3.3,3.1,5.8,7,7.2,11.5c1.9,6,1.5,12.3-0.9,17.9L653,66L670.8,46.7z"/>
					<path class="st0" d="M677.6,77.3l-26.2-11l19.3-20.8l0.7,0.6c3.5,3.2,6.1,7.3,7.5,11.9c1.9,6.1,1.6,12.7-0.9,18.5L677.6,77.3z
						 M654.5,65.6l22.2,9.3c2-5.3,2.2-11.1,0.5-16.5c-1.2-4-3.4-7.6-6.3-10.5L654.5,65.6z"/>
				</g>
				<g>
					<path class="st0" d="M672.2,74.1c-0.9,2.2-2.3,4.3-3.9,6.1c-5.1,5.5-12.7,7.8-20,6.2c-7.3-1.7-13.1-7.1-15.3-14.2
						c-2.2-7.1-0.4-14.9,4.6-20.4L653,66L672.2,74.1z"/>
					<path class="st0" d="M652.9,87.7c-1.6,0-3.2-0.2-4.8-0.5c-7.6-1.7-13.7-7.4-16-14.8c-2.3-7.4-0.4-15.6,4.8-21.3
						c0.2-0.2,0.4-0.3,0.6-0.3c0.2,0,0.5,0.1,0.6,0.2l15.2,14.1l19.1,8c0.5,0.2,0.7,0.7,0.5,1.2c-1,2.4-2.4,4.5-4.1,6.4
						C664.8,85.3,658.9,87.7,652.9,87.7z M637.7,53c-4.4,5.2-5.9,12.3-3.8,18.9c2.1,6.8,7.7,12,14.7,13.6c7,1.6,14.3-0.7,19.1-5.9
						c1.4-1.5,2.5-3.2,3.4-5l-18.4-7.7c-0.1,0-0.2-0.1-0.3-0.2L637.7,53z"/>
				</g>
			</g>
		</g>
	</g>
	<g>
		<path class="st0" d="M616.9,66h-1.8c0-0.6,0-1.2,0-1.8l1.8,0.1C616.9,64.8,616.9,65.4,616.9,66z M689.1,65.4c0-0.6,0-1.2-0.1-1.7
			l1.8-0.1c0,0.6,0.1,1.2,0.1,1.8L689.1,65.4z M617,62.5l-1.8-0.2c0.1-0.6,0.1-1.2,0.2-1.8l1.8,0.3C617.2,61.3,617.1,61.9,617,62.5z
			 M688.8,62c-0.1-0.6-0.1-1.2-0.2-1.7l1.8-0.3c0.1,0.6,0.2,1.2,0.2,1.8L688.8,62z M617.5,59l-1.7-0.3c0.1-0.6,0.2-1.2,0.4-1.8
			l1.7,0.4C617.8,57.9,617.6,58.5,617.5,59z M688.3,58.5c-0.1-0.6-0.3-1.1-0.4-1.7l1.7-0.4c0.2,0.6,0.3,1.2,0.4,1.8L688.3,58.5z
			 M618.4,55.7l-1.7-0.5c0.2-0.6,0.4-1.2,0.6-1.7l1.7,0.6C618.7,54.6,618.5,55.1,618.4,55.7z M687.4,55.2c-0.2-0.6-0.4-1.1-0.6-1.6
			l1.7-0.6c0.2,0.6,0.4,1.1,0.6,1.7L687.4,55.2z M619.5,52.4l-1.6-0.7c0.2-0.6,0.5-1.1,0.7-1.7l1.6,0.8
			C620,51.3,619.7,51.9,619.5,52.4z M686.2,51.9c-0.2-0.5-0.5-1.1-0.7-1.6l1.6-0.8c0.3,0.5,0.5,1.1,0.7,1.7L686.2,51.9z M621,49.2
			l-1.6-0.8c0.3-0.5,0.6-1.1,0.9-1.6l1.5,0.9C621.5,48.2,621.2,48.7,621,49.2z M684.7,48.8c-0.3-0.5-0.6-1-0.9-1.5l1.5-0.9
			c0.3,0.5,0.6,1,0.9,1.6L684.7,48.8z M622.7,46.2l-1.5-1c0.3-0.5,0.7-1,1-1.5l1.4,1C623.4,45.3,623,45.8,622.7,46.2z M682.9,45.8
			c-0.3-0.5-0.7-1-1-1.4l1.4-1.1c0.4,0.5,0.7,1,1.1,1.5L682.9,45.8z M624.8,43.4l-1.4-1.1c0.4-0.5,0.8-0.9,1.2-1.4l1.3,1.2
			C625.5,42.5,625.1,43,624.8,43.4z M680.9,43.1c-0.4-0.4-0.7-0.9-1.1-1.3l1.3-1.2c0.4,0.4,0.8,0.9,1.2,1.4L680.9,43.1z M627.1,40.8
			l-1.3-1.2c0.4-0.4,0.9-0.9,1.3-1.3l1.2,1.3C627.9,40,627.5,40.4,627.1,40.8z M678.5,40.5c-0.4-0.4-0.8-0.8-1.3-1.2l1.2-1.3
			c0.4,0.4,0.9,0.8,1.3,1.3L678.5,40.5z M629.6,38.4l-1.2-1.4c0.5-0.4,0.9-0.8,1.4-1.1l1.1,1.4C630.5,37.7,630,38.1,629.6,38.4z
			 M676,38.1c-0.4-0.4-0.9-0.7-1.4-1.1l1.1-1.4c0.5,0.4,1,0.7,1.4,1.1L676,38.1z M632.3,36.3l-1-1.5c0.5-0.3,1-0.7,1.5-1l0.9,1.5
			C633.3,35.7,632.8,36,632.3,36.3z M673.2,36.1c-0.5-0.3-1-0.6-1.5-0.9l0.9-1.5c0.5,0.3,1,0.6,1.5,1L673.2,36.1z M635.3,34.5
			l-0.9-1.6c0.5-0.3,1.1-0.6,1.6-0.9l0.8,1.6C636.3,33.9,635.8,34.2,635.3,34.5z M670.2,34.2c-0.5-0.3-1-0.5-1.5-0.8l0.8-1.6
			c0.5,0.3,1.1,0.5,1.6,0.8L670.2,34.2z M638.4,32.9l-0.7-1.6c0.6-0.2,1.1-0.5,1.7-0.7l0.6,1.7C639.4,32.5,638.9,32.7,638.4,32.9z
			 M667.1,32.7c-0.5-0.2-1.1-0.4-1.6-0.6l0.6-1.7c0.6,0.2,1.1,0.4,1.7,0.7L667.1,32.7z M641.6,31.7l-0.6-1.7
			c0.6-0.2,1.2-0.4,1.7-0.5l0.5,1.7C642.7,31.3,642.2,31.5,641.6,31.7z M663.8,31.5c-0.6-0.2-1.1-0.3-1.7-0.5l0.5-1.7
			c0.6,0.2,1.2,0.3,1.8,0.5L663.8,31.5z M645,30.8l-0.4-1.7c0.6-0.1,1.2-0.3,1.8-0.4l0.3,1.8C646.1,30.5,645.5,30.6,645,30.8z
			 M660.5,30.6c-0.6-0.1-1.1-0.2-1.7-0.3l0.3-1.8c0.6,0.1,1.2,0.2,1.8,0.3L660.5,30.6z M648.4,30.1l-0.2-1.8
			c0.6-0.1,1.2-0.1,1.8-0.2l0.1,1.8C649.5,30,649,30.1,648.4,30.1z M657,30.1c-0.6-0.1-1.2-0.1-1.7-0.2l0.1-1.8
			c0.6,0,1.2,0.1,1.8,0.2L657,30.1z M651.8,29.9l-0.1-1.8c0.4,0,0.8,0,1.2,0l0.6,0l0,1.8l-0.6,0C652.6,29.9,652.2,29.9,651.8,29.9z"
			/>
	</g>
</g>
</svg>
