<?xml version="1.0" encoding="utf-8"?>
<!-- Generator: Adobe Illustrator 23.0.4, SVG Export Plug-In . SVG Version: 6.00 Build 0)  -->
<svg version="1.1" id="Capa_1" xmlns="http://www.w3.org/2000/svg" xmlns:xlink="http://www.w3.org/1999/xlink" x="0px" y="0px"
	 viewBox="0 0 823.4 352" style="enable-background:new 0 0 823.4 352;" xml:space="preserve">
<style type="text/css">
	.st0{fill:#FF6600;stroke:#000000;stroke-miterlimit:10;}
</style>
<g>
	<g>
		<g>
			<polygon class="st0" points="606.1,16.5 606.1,201.1 718.2,201.1 718.2,75.9 			"/>
			<path class="st0" d="M719,202H605.3V15.2L719,75.4V202z M606.9,200.3h110.4v-124L606.9,17.9V200.3z"/>
		</g>
		<g>
			<g>
				<path class="st0" d="M654.1,153c-19.6,10.7-35.6,13.7-41.9,14.5V27.4L712,80.3v61.9C690.7,138.8,673,142.7,654.1,153z"/>
				<path class="st0" d="M611.4,168.4V26.1l101.5,53.7v63.3l-1-0.2c-4.9-0.8-9.8-1.2-14.4-1.2c-14.4,0-28.1,3.8-43,11.9
					c-19.8,10.8-36.1,13.8-42.2,14.6L611.4,168.4z M613,28.8v137.8c6.6-1,22-4.2,40.7-14.3c15.1-8.3,29.1-12.1,43.8-12.1
					c4.4,0,9,0.4,13.8,1.1V80.8L613,28.8z"/>
			</g>
			<g>
				<path class="st0" d="M675.7,148.4l-3.7-6.6h3.3l-3.3-3.3h3.3l-6.7-6.6l-3.3,3.3l-3.3,3.3l-3.3-3.3l-2.9,3.3c0,0-5.3-9.9-5.4-9.9
					c-0.1,0-5,6.6-5,6.6l0,0l-3.3-3.3l-3.3,3.3l-3.3-3.3l-6.7,6.6l-3.3-2.5l-3.3,2.5l-6.7-6.6l-3.1,4.9v31.8h63.1L675.7,148.4z"/>
				<path class="st0" d="M676.1,169.5h-64.7v-32.9l3.8-6l6.9,6.8l3.3-2.4l3.3,2.4l6.7-6.7l3.3,3.3l3.3-3.3l3.2,3.2
					c4.6-6.2,4.6-6.2,5.1-6.2c0.6,0,0.6,0,5.6,9.3l2.7-3.1l3.4,3.3l6.7-6.6l8.7,8.6H674l3.3,3.3h-3.9l3.2,5.6L676.1,169.5z
					 M613,167.9h61.5l0.4-19.3l-4.3-7.6h2.7l-3.3-3.3h3.3l-4.7-4.6l-6.7,6.6l-3.3-3.3l-3.1,3.5l-0.6-1c-1.5-2.8-3.8-6.9-4.8-8.8
					c-1,1.3-2.9,3.9-4.2,5.6l-0.6,0.8l-3.4-3.4l-3.3,3.3l-3.3-3.3l-6.6,6.5l-3.4-2.5l-3.4,2.5l-6.4-6.4l-2.5,3.9V167.9z"/>
			</g>
			<g>
				<g>
					<path class="st0" d="M635.2,161.6c3.9,0.6,8.5,1.1,13.6,1.4c-0.3,0.4-0.5,0.7-0.5,1.1c0,3.2,13.2,5.8,29.5,5.8
						s29.5-2.6,29.5-5.8c0-2.1-5.9-4-14.6-5c2.3-1,3.7-2,3.7-3.2c0-3.8-14.6-6.9-33.3-7.3c15.7-7,31.2-9.3,49.2-6.5v52.2h-99.8
						v-26.8C616.3,167,624.5,165.5,635.2,161.6z"/>
					<path class="st0" d="M712.9,195.2H611.4v-28.4l0.7-0.1c3.9-0.5,12.1-2,22.8-5.9l0.2-0.1l0.2,0c4,0.6,8.5,1.1,13.5,1.4l1.8,0.1
						l-1.3,1.3c-0.2,0.2-0.3,0.4-0.3,0.5c0,1.7,9.8,4.9,28.7,4.9s28.7-3.2,28.7-4.9c0-1-3.8-3-13.9-4.2l-3.2-0.4l3-1.2
						c2.9-1.2,3.1-2.1,3.1-2.4c0-2.4-11.3-6-32.5-6.4l-3.7-0.1l3.4-1.5c11.7-5.2,23.2-7.7,35-7.7c4.7,0,9.7,0.4,14.7,1.2l0.7,0.1
						V195.2z M613,193.5h98.2v-50.6c-4.7-0.7-9.3-1.1-13.7-1.1c-10.4,0-20.5,2-30.8,6.1c15.3,0.6,30.4,3.3,30.4,8
						c0,1-0.6,1.9-1.8,2.7c6.3,0.9,12.7,2.5,12.7,5.5c0,4.8-18.1,6.6-30.3,6.6s-30.3-1.8-30.3-6.6c0-0.1,0-0.2,0-0.3
						c-4.4-0.3-8.5-0.7-12.1-1.3c-10.1,3.7-18,5.2-22.2,5.8V193.5z"/>
				</g>
				<g>
					<path class="st0" d="M696.2,155.9c0,1.1-1.3,2.2-3.7,3.2c8.7,1,14.6,2.9,14.6,5c0,3.2-13.2,5.8-29.5,5.8s-29.5-2.6-29.5-5.8
						c0-0.4,0.2-0.7,0.5-1.1c-5-0.3-9.6-0.8-13.6-1.4c5.7-2.1,12.1-4.9,18.9-8.6c2.9-1.6,5.9-3,8.8-4.3
						C681.6,149,696.2,152.1,696.2,155.9z"/>
					<path class="st0" d="M677.7,170.6c-12.2,0-30.3-1.8-30.3-6.6c0-0.1,0-0.2,0-0.3c-4.5-0.3-8.7-0.7-12.4-1.3l-3.1-0.5l3-1.1
						c6.3-2.3,12.7-5.2,18.8-8.6c2.9-1.6,5.8-3,8.8-4.4l0.2-0.1l0.2,0c16.4,0.3,34.1,3,34.1,8.1c0,1-0.6,1.9-1.8,2.7
						c6.3,0.9,12.7,2.5,12.7,5.5C708,168.9,689.9,170.6,677.7,170.6z M638.4,161.2c3.2,0.4,6.6,0.7,10.3,0.9l1.8,0.1l-1.3,1.3
						c-0.2,0.2-0.3,0.4-0.3,0.5c0,1.7,9.8,4.9,28.7,4.9s28.7-3.2,28.7-4.9c0-1-3.8-3-13.9-4.2l-3.2-0.4l3-1.2
						c2.9-1.2,3.1-2.1,3.1-2.4c0-2.4-11.2-6-32.3-6.4c-2.9,1.3-5.8,2.7-8.6,4.2C649.2,156.6,643.9,159.1,638.4,161.2z"/>
				</g>
			</g>
		</g>
		<g>
			<g>
				<polygon class="st0" points="712,80.3 712,85.9 612.2,33 612.2,27.4 				"/>
				<path class="st0" d="M712.9,87.2L611.4,33.5v-7.4l101.5,53.7V87.2z M613,32.5l98.2,52v-3.7l-98.2-52V32.5z"/>
			</g>
			<g>
				<polygon class="st0" points="712,102.2 612.2,102.2 612.2,33 712,85.9 				"/>
				<path class="st0" d="M712.9,103.1H611.4V31.6l101.5,53.7V103.1z M613,101.4h98.2V86.4l-98.2-52V101.4z"/>
			</g>
			<g>
				<rect x="612.2" y="102.2" class="st0" width="99.8" height="3.3"/>
				<path class="st0" d="M712.9,106.4H611.4v-4.9h101.5V106.4z M613,104.7h98.2v-1.6H613V104.7z"/>
			</g>
		</g>
		<g>
			<rect x="609.4" y="115.4" class="st0" width="23.1" height="6.6"/>
			<path class="st0" d="M633.3,122.8h-24.7v-8.2h24.7V122.8z M610.2,121.2h21.4v-4.9h-21.4V121.2z"/>
		</g>
		<g>
			<circle class="st0" cx="665.2" cy="122.1" r="6.7"/>
			<path class="st0" d="M665.2,129.6c-4.1,0-7.5-3.4-7.5-7.5s3.4-7.5,7.5-7.5c4.1,0,7.5,3.4,7.5,7.5S669.3,129.6,665.2,129.6z
				 M665.2,116.2c-3.2,0-5.9,2.6-5.9,5.9s2.6,5.9,5.9,5.9s5.9-2.6,5.9-5.9S668.4,116.2,665.2,116.2z"/>
		</g>
	</g>
	<g>
		<rect x="308.8" y="175.6" class="st0" width="283.5" height="92.3"/>
		<path class="st0" d="M593.1,268.7H308v-94h285.2V268.7z M309.6,267.1h281.9v-90.7H309.6V267.1z"/>
	</g>
	<g>
		<rect x="308.8" y="267.9" class="st0" width="283.5" height="19.8"/>
		<path class="st0" d="M593.1,288.5H308v-21.4h285.2V288.5z M309.6,286.9h281.9v-18.1H309.6V286.9z"/>
	</g>
	<g>
		<rect x="308.8" y="254.7" class="st0" width="283.5" height="13.2"/>
		<path class="st0" d="M593.1,268.7H308v-14.8h285.2V268.7z M309.6,267.1h281.9v-11.5H309.6V267.1z"/>
	</g>
	<g>
		<rect x="289" y="215.1" class="st0" width="19.8" height="72.5"/>
		<path class="st0" d="M309.6,288.5h-21.4v-74.2h21.4V288.5z M289.8,286.9H308V216h-18.1V286.9z"/>
	</g>
	<g>
		<rect x="592.3" y="215.1" class="st0" width="19.8" height="72.5"/>
		<path class="st0" d="M612.9,288.5h-21.4v-74.2h21.4V288.5z M593.1,286.9h18.1V216h-18.1V286.9z"/>
	</g>
	<g>
		<rect x="315.4" y="287.7" class="st0" width="9.8" height="26.4"/>
		<path class="st0" d="M326,314.9h-11.4v-28H326V314.9z M316.2,313.2h8.1v-24.7h-8.1V313.2z"/>
	</g>
	<g>
		<rect x="572.6" y="287.7" class="st0" width="9.8" height="26.4"/>
		<path class="st0" d="M583.2,314.9h-11.4v-28h11.4V314.9z M573.5,313.2h8.1v-24.7h-8.1V313.2z"/>
	</g>
	<g>
		<circle class="st0" cx="322" cy="241.5" r="13.2"/>
		<path class="st0" d="M322,255.5c-7.7,0-14-6.3-14-14c0-7.7,6.3-14,14-14c7.7,0,14,6.3,14,14C336,249.2,329.7,255.5,322,255.5z
			 M322,229.2c-6.8,0-12.4,5.5-12.4,12.4s5.5,12.4,12.4,12.4c6.8,0,12.4-5.5,12.4-12.4S328.8,229.2,322,229.2z"/>
	</g>
	<g>
		<circle class="st0" cx="579.1" cy="241.5" r="13.2"/>
		<path class="st0" d="M579.1,255.5c-7.7,0-14-6.3-14-14c0-7.7,6.3-14,14-14c7.7,0,14,6.3,14,14
			C593.1,249.2,586.8,255.5,579.1,255.5z M579.1,229.2c-6.8,0-12.4,5.5-12.4,12.4s5.5,12.4,12.4,12.4c6.8,0,12.4-5.5,12.4-12.4
			S585.9,229.2,579.1,229.2z"/>
	</g>
	<g>
		<g>
			<rect x="449.7" y="182.2" class="st0" width="1.6" height="3.3"/>
		</g>
		<g>
			<rect x="449.7" y="188.8" class="st0" width="1.6" height="3.3"/>
		</g>
		<g>
			<rect x="452.2" y="186.3" class="st0" width="3.3" height="1.6"/>
		</g>
		<g>
			<rect x="445.6" y="186.3" class="st0" width="3.3" height="1.6"/>
		</g>
	</g>
	<g>
		<g>
			<rect x="416.7" y="182.2" class="st0" width="1.6" height="3.3"/>
		</g>
		<g>
			<rect x="416.7" y="188.8" class="st0" width="1.6" height="3.3"/>
		</g>
		<g>
			<rect x="419.2" y="186.3" class="st0" width="3.3" height="1.6"/>
		</g>
		<g>
			<rect x="412.6" y="186.3" class="st0" width="3.3" height="1.6"/>
		</g>
	</g>
	<g>
		<g>
			<rect x="383.8" y="182.2" class="st0" width="1.6" height="3.3"/>
		</g>
		<g>
			<rect x="383.8" y="188.8" class="st0" width="1.6" height="3.3"/>
		</g>
		<g>
			<rect x="386.3" y="186.3" class="st0" width="3.3" height="1.6"/>
		</g>
		<g>
			<rect x="379.7" y="186.3" class="st0" width="3.3" height="1.6"/>
		</g>
	</g>
	<g>
		<g>
			<rect x="350.8" y="182.2" class="st0" width="1.6" height="3.3"/>
		</g>
		<g>
			<rect x="350.8" y="188.8" class="st0" width="1.6" height="3.3"/>
		</g>
		<g>
			<rect x="353.3" y="186.3" class="st0" width="3.3" height="1.6"/>
		</g>
		<g>
			<rect x="346.7" y="186.3" class="st0" width="3.3" height="1.6"/>
		</g>
	</g>
	<g>
		<g>
			<rect x="545.3" y="182.2" class="st0" width="1.6" height="3.3"/>
		</g>
		<g>
			<rect x="545.3" y="188.8" class="st0" width="1.6" height="3.3"/>
		</g>
		<g>
			<rect x="547.8" y="186.3" class="st0" width="3.3" height="1.6"/>
		</g>
		<g>
			<rect x="541.2" y="186.3" class="st0" width="3.3" height="1.6"/>
		</g>
	</g>
	<g>
		<g>
			<rect x="512.4" y="182.2" class="st0" width="1.6" height="3.3"/>
		</g>
		<g>
			<rect x="512.4" y="188.8" class="st0" width="1.6" height="3.3"/>
		</g>
		<g>
			<rect x="514.8" y="186.3" class="st0" width="3.3" height="1.6"/>
		</g>
		<g>
			<rect x="508.2" y="186.3" class="st0" width="3.3" height="1.6"/>
		</g>
	</g>
	<g>
		<g>
			<rect x="479.4" y="182.2" class="st0" width="1.6" height="3.3"/>
		</g>
		<g>
			<rect x="479.4" y="188.8" class="st0" width="1.6" height="3.3"/>
		</g>
		<g>
			<rect x="481.9" y="186.3" class="st0" width="3.3" height="1.6"/>
		</g>
		<g>
			<rect x="475.3" y="186.3" class="st0" width="3.3" height="1.6"/>
		</g>
	</g>
	<g>
		<g>
			<rect x="449.7" y="200.3" class="st0" width="1.6" height="3.3"/>
		</g>
		<g>
			<rect x="449.7" y="206.9" class="st0" width="1.6" height="3.3"/>
		</g>
		<g>
			<rect x="452.2" y="204.4" class="st0" width="3.3" height="1.6"/>
		</g>
		<g>
			<rect x="445.6" y="204.4" class="st0" width="3.3" height="1.6"/>
		</g>
	</g>
	<g>
		<g>
			<rect x="416.7" y="200.3" class="st0" width="1.6" height="3.3"/>
		</g>
		<g>
			<rect x="416.7" y="206.9" class="st0" width="1.6" height="3.3"/>
		</g>
		<g>
			<rect x="419.2" y="204.4" class="st0" width="3.3" height="1.6"/>
		</g>
		<g>
			<rect x="412.6" y="204.4" class="st0" width="3.3" height="1.6"/>
		</g>
	</g>
	<g>
		<g>
			<rect x="383.8" y="200.3" class="st0" width="1.6" height="3.3"/>
		</g>
		<g>
			<rect x="383.8" y="206.9" class="st0" width="1.6" height="3.3"/>
		</g>
		<g>
			<rect x="386.3" y="204.4" class="st0" width="3.3" height="1.6"/>
		</g>
		<g>
			<rect x="379.7" y="204.4" class="st0" width="3.3" height="1.6"/>
		</g>
	</g>
	<g>
		<g>
			<rect x="350.8" y="200.3" class="st0" width="1.6" height="3.3"/>
		</g>
		<g>
			<rect x="350.8" y="206.9" class="st0" width="1.6" height="3.3"/>
		</g>
		<g>
			<rect x="353.3" y="204.4" class="st0" width="3.3" height="1.6"/>
		</g>
		<g>
			<rect x="346.7" y="204.4" class="st0" width="3.3" height="1.6"/>
		</g>
	</g>
	<g>
		<g>
			<rect x="322.7" y="182.2" class="st0" width="1.6" height="3.3"/>
		</g>
		<g>
			<rect x="322.7" y="188.8" class="st0" width="1.6" height="3.3"/>
		</g>
		<g>
			<rect x="325.1" y="186.3" class="st0" width="3.3" height="1.6"/>
		</g>
		<g>
			<rect x="318.6" y="186.3" class="st0" width="3.3" height="1.6"/>
		</g>
	</g>
	<g>
		<g>
			<rect x="322.7" y="200.3" class="st0" width="1.6" height="3.3"/>
		</g>
		<g>
			<rect x="322.7" y="206.9" class="st0" width="1.6" height="3.3"/>
		</g>
		<g>
			<rect x="325.1" y="204.4" class="st0" width="3.3" height="1.6"/>
		</g>
		<g>
			<rect x="318.6" y="204.4" class="st0" width="3.3" height="1.6"/>
		</g>
	</g>
	<g>
		<g>
			<rect x="573.3" y="182.2" class="st0" width="1.6" height="3.3"/>
		</g>
		<g>
			<rect x="573.3" y="188.8" class="st0" width="1.6" height="3.3"/>
		</g>
		<g>
			<rect x="575.8" y="186.3" class="st0" width="3.3" height="1.6"/>
		</g>
		<g>
			<rect x="569.2" y="186.3" class="st0" width="3.3" height="1.6"/>
		</g>
	</g>
	<g>
		<g>
			<rect x="573.3" y="200.3" class="st0" width="1.6" height="3.3"/>
		</g>
		<g>
			<rect x="573.3" y="206.9" class="st0" width="1.6" height="3.3"/>
		</g>
		<g>
			<rect x="575.8" y="204.4" class="st0" width="3.3" height="1.6"/>
		</g>
		<g>
			<rect x="569.2" y="204.4" class="st0" width="3.3" height="1.6"/>
		</g>
	</g>
	<g>
		<g>
			<rect x="545.3" y="200.3" class="st0" width="1.6" height="3.3"/>
		</g>
		<g>
			<rect x="545.3" y="206.9" class="st0" width="1.6" height="3.3"/>
		</g>
		<g>
			<rect x="547.8" y="204.4" class="st0" width="3.3" height="1.6"/>
		</g>
		<g>
			<rect x="541.2" y="204.4" class="st0" width="3.3" height="1.6"/>
		</g>
	</g>
	<g>
		<g>
			<rect x="512.4" y="200.3" class="st0" width="1.6" height="3.3"/>
		</g>
		<g>
			<rect x="512.4" y="206.9" class="st0" width="1.6" height="3.3"/>
		</g>
		<g>
			<rect x="514.8" y="204.4" class="st0" width="3.3" height="1.6"/>
		</g>
		<g>
			<rect x="508.2" y="204.4" class="st0" width="3.3" height="1.6"/>
		</g>
	</g>
	<g>
		<g>
			<rect x="479.4" y="200.3" class="st0" width="1.6" height="3.3"/>
		</g>
		<g>
			<rect x="479.4" y="206.9" class="st0" width="1.6" height="3.3"/>
		</g>
		<g>
			<rect x="481.9" y="204.4" class="st0" width="3.3" height="1.6"/>
		</g>
		<g>
			<rect x="475.3" y="204.4" class="st0" width="3.3" height="1.6"/>
		</g>
	</g>
	<g>
		<g>
			<rect x="449.7" y="218.4" class="st0" width="1.6" height="3.3"/>
		</g>
		<g>
			<rect x="449.7" y="225" class="st0" width="1.6" height="3.3"/>
		</g>
		<g>
			<rect x="452.2" y="222.6" class="st0" width="3.3" height="1.6"/>
		</g>
		<g>
			<rect x="445.6" y="222.6" class="st0" width="3.3" height="1.6"/>
		</g>
	</g>
	<g>
		<g>
			<rect x="416.7" y="218.4" class="st0" width="1.6" height="3.3"/>
		</g>
		<g>
			<rect x="416.7" y="225" class="st0" width="1.6" height="3.3"/>
		</g>
		<g>
			<rect x="419.2" y="222.6" class="st0" width="3.3" height="1.6"/>
		</g>
		<g>
			<rect x="412.6" y="222.6" class="st0" width="3.3" height="1.6"/>
		</g>
	</g>
	<g>
		<g>
			<rect x="383.8" y="218.4" class="st0" width="1.6" height="3.3"/>
		</g>
		<g>
			<rect x="383.8" y="225" class="st0" width="1.6" height="3.3"/>
		</g>
		<g>
			<rect x="386.3" y="222.6" class="st0" width="3.3" height="1.6"/>
		</g>
		<g>
			<rect x="379.7" y="222.6" class="st0" width="3.3" height="1.6"/>
		</g>
	</g>
	<g>
		<g>
			<rect x="350.8" y="218.4" class="st0" width="1.6" height="3.3"/>
		</g>
		<g>
			<rect x="350.8" y="225" class="st0" width="1.6" height="3.3"/>
		</g>
		<g>
			<rect x="353.3" y="222.6" class="st0" width="3.3" height="1.6"/>
		</g>
		<g>
			<rect x="346.7" y="222.6" class="st0" width="3.3" height="1.6"/>
		</g>
	</g>
	<g>
		<g>
			<rect x="545.3" y="218.4" class="st0" width="1.6" height="3.3"/>
		</g>
		<g>
			<rect x="545.3" y="225" class="st0" width="1.6" height="3.3"/>
		</g>
		<g>
			<rect x="547.8" y="222.6" class="st0" width="3.3" height="1.6"/>
		</g>
		<g>
			<rect x="541.2" y="222.6" class="st0" width="3.3" height="1.6"/>
		</g>
	</g>
	<g>
		<g>
			<rect x="512.4" y="218.4" class="st0" width="1.6" height="3.3"/>
		</g>
		<g>
			<rect x="512.4" y="225" class="st0" width="1.6" height="3.3"/>
		</g>
		<g>
			<rect x="514.8" y="222.6" class="st0" width="3.3" height="1.6"/>
		</g>
		<g>
			<rect x="508.2" y="222.6" class="st0" width="3.3" height="1.6"/>
		</g>
	</g>
	<g>
		<g>
			<rect x="479.4" y="218.4" class="st0" width="1.6" height="3.3"/>
		</g>
		<g>
			<rect x="479.4" y="225" class="st0" width="1.6" height="3.3"/>
		</g>
		<g>
			<rect x="481.9" y="222.6" class="st0" width="3.3" height="1.6"/>
		</g>
		<g>
			<rect x="475.3" y="222.6" class="st0" width="3.3" height="1.6"/>
		</g>
	</g>
	<g>
		<g>
			<rect x="449.7" y="238.2" class="st0" width="1.6" height="3.3"/>
		</g>
		<g>
			<rect x="449.7" y="244.8" class="st0" width="1.6" height="3.3"/>
		</g>
		<g>
			<rect x="452.2" y="242.3" class="st0" width="3.3" height="1.6"/>
		</g>
		<g>
			<rect x="445.6" y="242.3" class="st0" width="3.3" height="1.6"/>
		</g>
	</g>
	<g>
		<g>
			<rect x="416.7" y="238.2" class="st0" width="1.6" height="3.3"/>
		</g>
		<g>
			<rect x="416.7" y="244.8" class="st0" width="1.6" height="3.3"/>
		</g>
		<g>
			<rect x="419.2" y="242.3" class="st0" width="3.3" height="1.6"/>
		</g>
		<g>
			<rect x="412.6" y="242.3" class="st0" width="3.3" height="1.6"/>
		</g>
	</g>
	<g>
		<g>
			<rect x="383.8" y="238.2" class="st0" width="1.6" height="3.3"/>
		</g>
		<g>
			<rect x="383.8" y="244.8" class="st0" width="1.6" height="3.3"/>
		</g>
		<g>
			<rect x="386.3" y="242.3" class="st0" width="3.3" height="1.6"/>
		</g>
		<g>
			<rect x="379.7" y="242.3" class="st0" width="3.3" height="1.6"/>
		</g>
	</g>
	<g>
		<g>
			<rect x="350.8" y="238.2" class="st0" width="1.6" height="3.3"/>
		</g>
		<g>
			<rect x="350.8" y="244.8" class="st0" width="1.6" height="3.3"/>
		</g>
		<g>
			<rect x="353.3" y="242.3" class="st0" width="3.3" height="1.6"/>
		</g>
		<g>
			<rect x="346.7" y="242.3" class="st0" width="3.3" height="1.6"/>
		</g>
	</g>
	<g>
		<g>
			<rect x="545.3" y="238.2" class="st0" width="1.6" height="3.3"/>
		</g>
		<g>
			<rect x="545.3" y="244.8" class="st0" width="1.6" height="3.3"/>
		</g>
		<g>
			<rect x="547.8" y="242.3" class="st0" width="3.3" height="1.6"/>
		</g>
		<g>
			<rect x="541.2" y="242.3" class="st0" width="3.3" height="1.6"/>
		</g>
	</g>
	<g>
		<g>
			<rect x="512.4" y="238.2" class="st0" width="1.6" height="3.3"/>
		</g>
		<g>
			<rect x="512.4" y="244.8" class="st0" width="1.6" height="3.3"/>
		</g>
		<g>
			<rect x="514.8" y="242.3" class="st0" width="3.3" height="1.6"/>
		</g>
		<g>
			<rect x="508.2" y="242.3" class="st0" width="3.3" height="1.6"/>
		</g>
	</g>
	<g>
		<g>
			<rect x="479.4" y="238.2" class="st0" width="1.6" height="3.3"/>
		</g>
		<g>
			<rect x="479.4" y="244.8" class="st0" width="1.6" height="3.3"/>
		</g>
		<g>
			<rect x="481.9" y="242.3" class="st0" width="3.3" height="1.6"/>
		</g>
		<g>
			<rect x="475.3" y="242.3" class="st0" width="3.3" height="1.6"/>
		</g>
	</g>
	<g>
		<rect x="328.6" y="17.3" class="st0" width="244" height="6.6"/>
		<path class="st0" d="M573.3,24.8H327.7v-8.2h245.6V24.8z M329.4,23.1h242.3v-4.9H329.4V23.1z"/>
	</g>
	<g>
		<rect x="347.5" y="10.8" class="st0" width="1.6" height="6.6"/>
	</g>
	<g>
		<rect x="551.9" y="10.8" class="st0" width="1.6" height="6.6"/>
	</g>
	<g>
		<g>
			<polygon class="st0" points="384.6,50.3 378,50.3 368.1,76.7 394.5,76.7 			"/>
			<path class="st0" d="M395.7,77.5h-28.8l10.5-28h7.7L395.7,77.5z M369.3,75.9h24L384,51.1h-5.5L369.3,75.9z"/>
		</g>
		<g>
			<rect x="378" y="47" class="st0" width="6.6" height="3.3"/>
			<path class="st0" d="M385.4,51.1h-8.2v-4.9h8.2V51.1z M378.8,49.5h4.9v-1.6h-4.9V49.5z"/>
		</g>
		<g>
			<rect x="380.5" y="23.9" class="st0" width="1.6" height="23.1"/>
		</g>
	</g>
	<g>
		<g>
			<polygon class="st0" points="523.1,50.3 516.5,50.3 506.6,76.7 533,76.7 			"/>
			<path class="st0" d="M534.1,77.5h-28.8l10.5-28h7.7L534.1,77.5z M507.8,75.9h24l-9.3-24.7H517L507.8,75.9z"/>
		</g>
		<g>
			<rect x="516.5" y="47" class="st0" width="6.6" height="3.3"/>
			<path class="st0" d="M523.9,51.1h-8.2v-4.9h8.2V51.1z M517.3,49.5h4.9v-1.6h-4.9V49.5z"/>
		</g>
		<g>
			<rect x="518.9" y="23.9" class="st0" width="1.6" height="23.1"/>
		</g>
	</g>
	<g>
		<g>
			<polygon class="st0" points="453.8,50.3 447.2,50.3 437.4,76.7 463.7,76.7 			"/>
			<path class="st0" d="M464.9,77.5h-28.8l10.5-28h7.7L464.9,77.5z M438.5,75.9h24l-9.3-24.7h-5.5L438.5,75.9z"/>
		</g>
		<g>
			<rect x="447.2" y="47" class="st0" width="6.6" height="3.3"/>
			<path class="st0" d="M454.7,51.1h-8.2v-4.9h8.2V51.1z M448.1,49.5h4.9v-1.6h-4.9V49.5z"/>
		</g>
		<g>
			<rect x="449.7" y="23.9" class="st0" width="1.6" height="23.1"/>
		</g>
	</g>
	<g>
		<rect x="351.6" y="96.5" class="st0" width="59.3" height="59.3"/>
		<path class="st0" d="M411.8,156.6h-61v-61h61V156.6z M352.5,155h57.7V97.3h-57.7V155z"/>
	</g>
	<g>
		<rect x="420.9" y="96.5" class="st0" width="59.3" height="59.3"/>
		<path class="st0" d="M481,156.6h-61v-61h61V156.6z M421.7,155h57.7V97.3h-57.7V155z"/>
	</g>
	<g>
		<rect x="490.1" y="96.5" class="st0" width="59.3" height="59.3"/>
		<path class="st0" d="M550.3,156.6h-61v-61h61V156.6z M490.9,155h57.7V97.3h-57.7V155z"/>
	</g>
	<g>
		<circle class="st0" cx="381.3" cy="126.1" r="9.9"/>
		<path class="st0" d="M381.3,136.9c-5.9,0-10.7-4.8-10.7-10.7c0-5.9,4.8-10.7,10.7-10.7c5.9,0,10.7,4.8,10.7,10.7
			C392,132,387.2,136.9,381.3,136.9z M381.3,117.1c-5,0-9.1,4.1-9.1,9.1c0,5,4.1,9.1,9.1,9.1c5,0,9.1-4.1,9.1-9.1
			C390.4,121.1,386.3,117.1,381.3,117.1z"/>
	</g>
	<g>
		<rect x="440.7" y="116.2" class="st0" width="19.8" height="19.8"/>
		<path class="st0" d="M461.3,136.9h-21.4v-21.4h21.4V136.9z M441.5,135.2h18.1v-18.1h-18.1V135.2z"/>
	</g>
	<g>
		<polygon class="st0" points="529.7,136 509.9,136 519.8,116.2 519.8,116.2 		"/>
		<path class="st0" d="M531,136.9h-22.4l11.2-22.4L531,136.9z M511.2,135.2h17.1l-8.6-17.1L511.2,135.2z"/>
	</g>
	<g>
		<path class="st0" d="M307.3,106.7c0-11.9-9.7-21.6-21.6-21.6c-11.9,0-21.6,9.7-21.6,21.6c0,7.3,3.6,13.8,9.2,17.7h24.8
			C303.7,120.4,307.3,114,307.3,106.7z"/>
		<path class="st0" d="M298.4,125.2H273l-0.2-0.2c-6-4.2-9.5-11.1-9.5-18.4c0-12.4,10.1-22.4,22.4-22.4c12.4,0,22.4,10.1,22.4,22.4
			c0,7.3-3.6,14.1-9.5,18.4L298.4,125.2z M273.6,123.5h24.3c5.4-3.9,8.6-10.2,8.6-16.9c0-11.5-9.3-20.8-20.8-20.8
			s-20.8,9.3-20.8,20.8C264.9,113.3,268.1,119.6,273.6,123.5z"/>
	</g>
	<g>
		<rect x="275.8" y="81.8" class="st0" width="19.8" height="5.7"/>
		<path class="st0" d="M296.4,88.3H275v-7.3h21.4V88.3z M276.6,86.6h18.1v-4h-18.1V86.6z"/>
	</g>
	<g>
		<rect x="223.1" y="124.4" class="st0" width="92.3" height="6.6"/>
		<path class="st0" d="M316.2,131.8h-94v-8.2h94V131.8z M223.9,130.1h90.7v-4.9h-90.7V130.1z"/>
	</g>
	<g>
		<rect x="223.1" y="155.8" class="st0" width="92.3" height="6.6"/>
		<path class="st0" d="M316.2,163.2h-94V155h94V163.2z M223.9,161.6h90.7v-4.9h-90.7V161.6z"/>
	</g>
	<g>
		<rect x="229.7" y="104.6" class="st0" width="19.8" height="19.8"/>
		<path class="st0" d="M250.3,125.2h-21.4v-21.4h21.4V125.2z M230.5,123.5h18.1v-18.1h-18.1V123.5z"/>
	</g>
	<g>
		<g>
			<rect x="577.5" y="58.9" class="st0" width="9.9" height="99.1"/>
			<path class="st0" d="M588.2,158.8h-11.5V58.1h11.5V158.8z M578.3,157.1h8.2V59.7h-8.2V157.1z"/>
		</g>
		<g>
			<polygon class="st0" points="578.5,58.9 582.4,43.2 586.3,58.9 			"/>
			<path class="st0" d="M587.4,59.7h-9.9l5-19.9L587.4,59.7z M579.5,58.1h5.7l-2.9-11.4L579.5,58.1z"/>
		</g>
		<g>
			<polygon class="st0" points="580.5,51 582.4,43.2 584.4,51 			"/>
			<path class="st0" d="M585.4,51.9h-6l3-12.1L585.4,51.9z M581.5,50.2h1.8l-0.9-3.6L581.5,50.2z"/>
		</g>
		<g>
			<rect x="579.1" y="158" class="st0" width="6.6" height="3.3"/>
			<path class="st0" d="M586.5,162.1h-8.2v-4.9h8.2V162.1z M579.9,160.4h4.9v-1.6h-4.9V160.4z"/>
		</g>
	</g>
	<g>
		<g>
			<path class="st0" d="M348.5,56.9c0,0-29.3,4.9-42.9,4.9c-13.7,0-42.9-2.2-42.9-4.9s29.3-4.9,42.9-4.9
				C319.2,52,348.5,56.9,348.5,56.9z"/>
			<path class="st0" d="M305.6,62.7c-7.2,0-17.9-0.6-26.7-1.5c-17.1-1.7-17.1-3.3-17.1-4.3s0-2.6,17.1-4.3
				c8.8-0.9,19.5-1.5,26.7-1.5c13.6,0,42.8,4.9,43.1,5l4.8,0.8l-4.8,0.8C348.4,57.8,319.1,62.7,305.6,62.7z M263.6,56.9
				c3.1,2,27.2,4.1,41.9,4.1c10,0,28.8-2.7,37.8-4.1c-9-1.4-27.7-4.1-37.8-4.1C290.8,52.8,266.7,55,263.6,56.9z"/>
		</g>
		<g>
			<polygon class="st0" points="249.4,55.5 249.4,58.3 269.2,61 269.2,52.8 			"/>
			<path class="st0" d="M270,62l-21.4-3v-4.2l21.4-3V62z M250.3,57.6l18.1,2.5v-6.3l-18.1,2.5V57.6z"/>
		</g>
		<g>
			<path class="st0" d="M229.7,56.9c0,0,10.9,4.9,13.2,4.9c3.6,0,6.6-1.3,6.6-4.9s-3-4.9-6.6-4.9C240.8,52,229.7,56.9,229.7,56.9z"
				/>
			<path class="st0" d="M242.8,62.7c-2.4,0-12.4-4.5-13.5-5l-1.7-0.8l1.7-0.7c1.9-0.8,11.4-5,13.5-5c4.7,0,7.4,2.1,7.4,5.8
				S247.6,62.7,242.8,62.7z M231.7,56.9c4.2,1.8,9.8,4.1,11.1,4.1c3.8,0,5.8-1.4,5.8-4.1s-1.9-4.1-5.8-4.1
				C241.6,52.8,235.9,55.1,231.7,56.9z"/>
		</g>
	</g>
	<g>
		<g>
			<g>
				<rect x="141" y="79.7" transform="matrix(0.4359 -0.9 0.9 0.4359 -33.4004 218.2945)" class="st0" width="33" height="112.1"/>
				<path class="st0" d="M201.1,176.2L98.7,126.6l15.1-31.2L216.2,145L201.1,176.2z M100.9,125.8l99.4,48.1l13.7-28.2l-99.4-48.1
					L100.9,125.8z"/>
			</g>
			<g>
				
					<rect x="109.1" y="110.3" transform="matrix(0.436 -0.9 0.9 0.436 -38.1295 173.0083)" class="st0" width="19.8" height="13.2"/>
				<path class="st0" d="M121,129.8l-13.4-6.5L117,104l13.4,6.5L121,129.8z M109.8,122.6l10.4,5l7.9-16.3l-10.4-5L109.8,122.6z"/>
			</g>
			<g>
				<rect x="126.9" y="119" transform="matrix(0.436 -0.9 0.9 0.436 -35.8498 193.8898)" class="st0" width="19.8" height="13.2"/>
				<path class="st0" d="M138.8,138.4l-13.4-6.5l9.3-19.3l13.4,6.5L138.8,138.4z M127.6,131.2l10.4,5l7.9-16.3l-10.4-5L127.6,131.2z
					"/>
			</g>
			<g>
				
					<rect x="144.7" y="127.6" transform="matrix(0.4359 -0.9 0.9 0.4359 -33.5653 214.7846)" class="st0" width="19.8" height="13.2"/>
				<path class="st0" d="M156.6,147l-13.4-6.5l9.3-19.3l13.4,6.5L156.6,147z M145.4,139.8l10.4,5l7.9-16.3l-10.4-5L145.4,139.8z"/>
			</g>
			<g>
				
					<rect x="162.5" y="136.2" transform="matrix(0.4359 -0.9 0.9 0.4359 -31.2821 235.6733)" class="st0" width="19.8" height="13.2"/>
				<path class="st0" d="M174.4,155.7l-13.4-6.5l9.3-19.3l13.4,6.5L174.4,155.7z M163.2,148.4l10.4,5l7.9-16.3l-10.4-5L163.2,148.4z
					"/>
			</g>
			<g>
				<path class="st0" d="M191.6,156c1.6,0.8,3.6,0.1,4.4-1.5c0.8-1.6,0.1-3.6-1.5-4.4c-1.6-0.8-3.6-0.1-4.4,1.5
					C189.3,153.2,190,155.2,191.6,156z"/>
				<path class="st0" d="M193,157.2L193,157.2c-0.6,0-1.2-0.1-1.8-0.4c-2-1-2.9-3.5-1.9-5.5c0.7-1.4,2.1-2.3,3.7-2.3
					c0.6,0,1.2,0.1,1.8,0.4c1,0.5,1.7,1.3,2.1,2.4c0.4,1,0.3,2.2-0.2,3.1C196.1,156.2,194.6,157.2,193,157.2z M193,150.6
					c-1,0-1.8,0.5-2.2,1.4c-0.6,1.2-0.1,2.7,1.1,3.3c0.3,0.2,0.7,0.2,1.1,0.2l0,0c1,0,1.8-0.5,2.2-1.4c0.3-0.6,0.3-1.3,0.1-1.9
					c-0.2-0.6-0.7-1.1-1.3-1.4C193.8,150.6,193.4,150.6,193,150.6z"/>
			</g>
		</g>
		<g>
			<g>
				
					<rect x="155.7" y="63.4" transform="matrix(0.8498 -0.5271 0.5271 0.8498 -37.0835 108.7053)" class="st0" width="33" height="112.1"/>
				<path class="st0" d="M187.5,176.9l-60-96.7L156.9,62l60,96.7L187.5,176.9z M129.8,80.7l58.2,93.9l26.6-16.5l-58.2-93.9
					L129.8,80.7z"/>
			</g>
			<g>
				
					<rect x="139.9" y="76.3" transform="matrix(0.8498 -0.5271 0.5271 0.8498 -21.1959 91.3956)" class="st0" width="19.8" height="13.2"/>
				<path class="st0" d="M144.6,94.8l-7.8-12.6L155,70.9l7.8,12.6L144.6,94.8z M139,82.8l6.1,9.8l15.4-9.6l-6.1-9.8L139,82.8z"/>
			</g>
			<g>
				
					<rect x="150.3" y="93.1" transform="matrix(0.8498 -0.5271 0.5271 0.8498 -28.4898 99.4161)" class="st0" width="19.8" height="13.2"/>
				<path class="st0" d="M155,111.7L147.2,99l18.2-11.3l7.8,12.6L155,111.7z M149.5,99.6l6.1,9.8l15.4-9.6l-6.1-9.8L149.5,99.6z"/>
			</g>
			<g>
				
					<rect x="160.7" y="109.9" transform="matrix(0.8498 -0.5271 0.5271 0.8498 -35.7838 107.4403)" class="st0" width="19.8" height="13.2"/>
				<path class="st0" d="M165.4,128.5l-7.8-12.6l18.2-11.3l7.8,12.6L165.4,128.5z M159.9,116.4l6.1,9.8l15.4-9.6l-6.1-9.8
					L159.9,116.4z"/>
			</g>
			<g>
				
					<rect x="171.2" y="126.7" transform="matrix(0.8498 -0.5271 0.5271 0.8498 -43.0786 115.4689)" class="st0" width="19.8" height="13.2"/>
				<path class="st0" d="M175.9,145.3l-7.8-12.6l18.2-11.3l7.8,12.6L175.9,145.3z M170.3,133.2l6.1,9.8l15.4-9.6l-6.1-9.8
					L170.3,133.2z"/>
			</g>
			<g>
				<path class="st0" d="M190.2,154.8c1,1.5,3,2,4.5,1.1c1.5-1,2-3,1.1-4.5c-1-1.5-3-2-4.5-1.1C189.8,151.2,189.3,153.2,190.2,154.8
					z"/>
				<path class="st0" d="M193,157.2L193,157.2c-1.4,0-2.7-0.7-3.5-1.9c-0.6-0.9-0.8-2-0.5-3.1c0.3-1.1,0.9-2,1.8-2.6
					c0.7-0.4,1.4-0.6,2.2-0.6c1.4,0,2.7,0.7,3.5,1.9c0.6,0.9,0.8,2,0.5,3.1c-0.3,1.1-0.9,2-1.8,2.6
					C194.6,156.9,193.8,157.2,193,157.2z M193,150.6c-0.5,0-0.9,0.1-1.3,0.4c-0.6,0.3-1,0.9-1.1,1.5c-0.2,0.6,0,1.3,0.3,1.9
					c0.5,0.7,1.2,1.2,2.1,1.2h0c0.5,0,0.9-0.1,1.3-0.4c0.6-0.3,1-0.9,1.1-1.5c0.2-0.6,0-1.3-0.3-1.9
					C194.7,151,193.9,150.6,193,150.6z"/>
			</g>
		</g>
		<g>
			<g>
				<rect x="176.6" y="57.4" class="st0" width="33" height="112.1"/>
				<path class="st0" d="M210.4,170.3h-34.6V56.6h34.6V170.3z M177.4,168.7h31.3V58.3h-31.3V168.7z"/>
			</g>
			<g>
				<rect x="183.4" y="64" class="st0" width="19.8" height="13.2"/>
				<path class="st0" d="M204,78h-21.4V63.2H204V78z M184.2,76.4h18.1V64.9h-18.1V76.4z"/>
			</g>
			<g>
				<rect x="183.4" y="83.8" class="st0" width="19.8" height="13.2"/>
				<path class="st0" d="M204,97.8h-21.4V83H204V97.8z M184.2,96.2h18.1V84.6h-18.1V96.2z"/>
			</g>
			<g>
				<rect x="183.4" y="103.6" class="st0" width="19.8" height="13.2"/>
				<path class="st0" d="M204,117.6h-21.4v-14.8H204V117.6z M184.2,115.9h18.1v-11.5h-18.1V115.9z"/>
			</g>
			<g>
				<rect x="183.4" y="123.4" class="st0" width="19.8" height="13.2"/>
				<path class="st0" d="M204,137.4h-21.4v-14.8H204V137.4z M184.2,135.7h18.1v-11.5h-18.1V135.7z"/>
			</g>
			<g>
				<circle class="st0" cx="193" cy="153" r="3.3"/>
				<path class="st0" d="M193,157.2c-2.3,0-4.1-1.8-4.1-4.1c0-2.3,1.8-4.1,4.1-4.1c2.3,0,4.1,1.8,4.1,4.1
					C197.2,155.3,195.3,157.2,193,157.2z M193,150.6c-1.4,0-2.5,1.1-2.5,2.5s1.1,2.5,2.5,2.5s2.5-1.1,2.5-2.5S194.4,150.6,193,150.6
					z"/>
			</g>
		</g>
	</g>
	<g>
		<g>
			<rect x="631.9" y="267.9" class="st0" width="9.9" height="46.2"/>
			<path class="st0" d="M642.6,314.9H631v-47.8h11.5V314.9z M632.7,313.2h8.2v-44.5h-8.2V313.2z"/>
		</g>
		<g>
			<rect x="707.8" y="267.9" class="st0" width="9.9" height="46.2"/>
			<path class="st0" d="M718.5,314.9H707v-47.8h11.5V314.9z M708.7,313.2h8.2v-44.5h-8.2V313.2z"/>
		</g>
		<g>
			<rect x="631.9" y="258" class="st0" width="85.9" height="9.9"/>
			<path class="st0" d="M718.5,268.7H631v-11.5h87.5V268.7z M632.7,267.1h84.2v-8.2h-84.2V267.1z"/>
		</g>
		<g>
			<g>
				<polygon class="st0" points="688,258 683,241.5 688.9,228.3 686.6,221.7 691.3,208.6 699.6,210.2 706,226.7 706,236.2 
					711.1,243.2 707.8,258 				"/>
				<path class="st0" d="M708.5,258.8h-21.1l-5.3-17.4l5.9-13.2l-2.3-6.6l5.1-14.1l9.4,1.9l6.6,17v9.4l5.2,7.1L708.5,258.8z
					 M688.7,257.2h18.5l3.1-13.8l-5.1-6.9v-9.6l-6.2-15.9l-7.1-1.4l-4.4,12.2l2.3,6.6l-5.9,13.2L688.7,257.2z"/>
			</g>
			<g>
				
					<rect x="693.4" y="207.9" transform="matrix(0.8942 -0.4476 0.4476 0.8942 -22.4892 333.3642)" class="st0" width="1.6" height="12.8"/>
			</g>
			<g>
				
					<rect x="693.3" y="214.3" transform="matrix(0.2489 -0.9685 0.9685 0.2489 316.1587 837.8919)" class="st0" width="10.1" height="1.6"/>
			</g>
			<g>
				
					<rect x="686.5" y="220" transform="matrix(0.9863 -0.165 0.165 0.9863 -26.9653 117.2148)" class="st0" width="10.6" height="1.6"/>
			</g>
			<g>
				
					<rect x="701.1" y="229.3" transform="matrix(0.4913 -0.871 0.871 0.4913 153.3488 730.3661)" class="st0" width="1.6" height="9.2"/>
			</g>
			<g>
				
					<rect x="681.5" y="235.8" transform="matrix(0.8334 -0.5527 0.5527 0.8334 -15.7142 421.0255)" class="st0" width="17.9" height="1.6"/>
			</g>
			<g>
				
					<rect x="692.6" y="225.2" transform="matrix(0.3417 -0.9398 0.9398 0.3417 240.3006 803.0443)" class="st0" width="1.6" height="9.6"/>
			</g>
			<g>
				
					<rect x="688.7" y="225.9" transform="matrix(0.9697 -0.2442 0.2442 0.9697 -34.3011 176.6517)" class="st0" width="13.5" height="1.6"/>
			</g>
			<g>
				
					<rect x="696.1" y="227.5" transform="matrix(0.5207 -0.8538 0.8538 0.5207 140.567 707.0378)" class="st0" width="7.7" height="1.6"/>
			</g>
			<g>
				
					<rect x="698.7" y="219" transform="matrix(0.7184 -0.6956 0.6956 0.7184 42.187 549.2457)" class="st0" width="1.6" height="7"/>
			</g>
			<g>
				
					<rect x="703.1" y="223.7" transform="matrix(0.3796 -0.9252 0.9252 0.3796 227.8085 791.4197)" class="st0" width="1.6" height="4.3"/>
			</g>
			<g>
				
					<rect x="703.1" y="224.7" transform="matrix(0.9406 -0.3396 0.3396 0.9406 -36.4747 252.8056)" class="st0" width="1.6" height="11.8"/>
			</g>
			<g>
				
					<rect x="686.4" y="239.4" transform="matrix(0.6098 -0.7926 0.7926 0.6098 74.1869 640.2084)" class="st0" width="1.6" height="10.6"/>
			</g>
			<g>
				
					<rect x="693.9" y="246.6" transform="matrix(0.7071 -0.7071 0.7071 0.7071 25.7831 564.864)" class="st0" width="1.6" height="9.3"/>
			</g>
			<g>
				
					<rect x="694.3" y="248.9" transform="matrix(0.2721 -0.9623 0.9623 0.2721 268.8472 854.785)" class="st0" width="10.2" height="1.6"/>
			</g>
			<g>
				
					<rect x="691.2" y="245.6" transform="matrix(0.945 -0.3272 0.3272 0.945 -42.3002 241.34)" class="st0" width="9.9" height="1.6"/>
			</g>
			<g>
				
					<rect x="698.6" y="231.5" transform="matrix(0.9767 -0.2145 0.2145 0.9767 -34.8147 155.5584)" class="st0" width="1.6" height="13.4"/>
			</g>
			<g>
				
					<rect x="691.1" y="234.1" transform="matrix(0.1792 -0.9838 0.9838 0.1792 328.6858 880.2712)" class="st0" width="1.6" height="18.1"/>
			</g>
			<g>
				
					<rect x="700.8" y="243.1" transform="matrix(0.9882 -0.1533 0.1533 0.9882 -29.0532 111.0958)" class="st0" width="10.4" height="1.6"/>
			</g>
			<g>
				
					<rect x="698.4" y="239.6" transform="matrix(0.5135 -0.8581 0.8581 0.5135 135.8552 720.5571)" class="st0" width="10" height="1.6"/>
			</g>
			<g>
				
					<rect x="684.5" y="252.2" transform="matrix(0.3224 -0.9466 0.9466 0.3224 227.871 824.3535)" class="st0" width="10.6" height="1.6"/>
			</g>
			<g>
				
					<rect x="702.1" y="251.1" transform="matrix(0.3281 -0.9446 0.9446 0.3281 230.1619 836.2149)" class="st0" width="1.6" height="10.4"/>
			</g>
			<g>
				
					<rect x="695.9" y="248.1" transform="matrix(0.7529 -0.6582 0.6582 0.7529 10.3137 525.2438)" class="st0" width="17.4" height="1.6"/>
			</g>
			<g>
				
					<rect x="687.8" y="255.5" transform="matrix(0.9467 -0.3222 0.3222 0.9467 -45.6229 236.9712)" class="st0" width="10.6" height="1.6"/>
			</g>
		</g>
	</g>
	<g>
		<rect x="295.6" y="314" class="st0" width="428.3" height="13.2"/>
		<path class="st0" d="M724.7,328.1H294.8v-14.8h429.9V328.1z M296.4,326.4h426.6v-11.5H296.4V326.4z"/>
	</g>
	<g>
		<rect x="235.7" y="327.2" class="st0" width="481.9" height="13.2"/>
		<path class="st0" d="M718.4,341.2H234.9v-14.8h483.5V341.2z M236.5,339.6h480.2v-11.5H236.5V339.6z"/>
	</g>
	<g>
		<g>
			<rect x="658.2" y="281.1" class="st0" width="19.8" height="19.8"/>
			<path class="st0" d="M678.8,301.7h-21.4v-21.4h21.4V301.7z M659.1,300h18.1v-18.1h-18.1V300z"/>
		</g>
		<g>
			<circle class="st0" cx="668.1" cy="291" r="6.6"/>
			<path class="st0" d="M668.1,298.4c-4.1,0-7.4-3.3-7.4-7.4c0-4.1,3.3-7.4,7.4-7.4c4.1,0,7.4,3.3,7.4,7.4
				C675.5,295.1,672.2,298.4,668.1,298.4z M668.1,285.2c-3.2,0-5.8,2.6-5.8,5.8s2.6,5.8,5.8,5.8c3.2,0,5.8-2.6,5.8-5.8
				S671.3,285.2,668.1,285.2z"/>
		</g>
		<g>
			<rect x="664.8" y="290.1" class="st0" width="1.6" height="1.6"/>
		</g>
		<g>
			<rect x="669.8" y="290.1" class="st0" width="1.6" height="1.6"/>
		</g>
	</g>
	<g>
		<g>
			<rect x="269.2" y="175.6" class="st0" width="19.8" height="19.8"/>
			<path class="st0" d="M289.8,196.2h-21.4v-21.4h21.4V196.2z M270,194.5h18.1v-18.1H270V194.5z"/>
		</g>
		<g>
			<rect x="272.5" y="178.9" class="st0" width="13.2" height="13.2"/>
			<path class="st0" d="M286.5,192.9h-14.8v-14.8h14.8V192.9z M273.3,191.2h11.5v-11.5h-11.5V191.2z"/>
		</g>
		<g>
			<rect x="278.3" y="178.9" class="st0" width="1.6" height="13.2"/>
		</g>
	</g>
	<g>
		<g>
			<path class="st0" d="M121.3,254.8c-5.2-2.4-19.5,2.4-19.5,2.4s5.6,14,10.8,16.4c9.4,4.4,16.2-4,16.2-4S130.8,259.1,121.3,254.8z"
				/>
			<path class="st0" d="M118.1,275.8C118.1,275.8,118.1,275.8,118.1,275.8c-1.9,0-3.9-0.4-5.8-1.3c-5.5-2.5-11-16.3-11.2-16.9
				l-0.3-0.8l0.8-0.3c0.4-0.1,9.4-3.2,15.8-3.2c1.8,0,3.3,0.3,4.3,0.7c9.9,4.6,7.9,15.7,7.9,15.8l0,0.2l-0.1,0.2
				C129.2,270.4,124.9,275.8,118.1,275.8z M102.9,257.7c1.8,4.3,6.3,13.4,10,15.2c1.7,0.8,3.4,1.2,5.1,1.2c5.4,0,9.2-3.9,9.9-4.8
				c0.2-1.5,1.1-10-7-13.8c-0.9-0.4-2.1-0.6-3.7-0.6C112.3,254.9,105.3,257,102.9,257.7z"/>
		</g>
		<g>
			<path class="st0" d="M156.2,194.7c0.9-3-2.8-10.3-2.8-10.3s-7.1,4.1-8,7c-1.6,5.4,3.4,8.4,3.4,8.4S154.5,200.1,156.2,194.7z"/>
			<path class="st0" d="M148.9,200.6C148.9,200.6,148.9,200.6,148.9,200.6c-0.1,0-0.2,0-0.2,0l-0.2,0l-0.2-0.1
				c-1.9-1.1-5.2-4.6-3.7-9.4c1-3.2,7.7-7.1,8.4-7.5l0.8-0.4l0.4,0.8c0.4,0.8,3.8,7.7,2.8,10.9C155.3,200.3,149.9,200.6,148.9,200.6
				z M153,185.5c-2.2,1.4-6.3,4.2-6.9,6.1c-1.3,4.2,2,6.8,2.8,7.3c1.1,0,5.2-0.4,6.4-4.5C156,192.5,154.1,187.9,153,185.5z"/>
		</g>
		<g>
			<path class="st0" d="M129.3,281.8c-2.5,1.8-10.7,0.6-10.7,0.6s1.6-8.1,4.1-9.9c4.6-3.3,9,0.5,9,0.5S133.9,278.6,129.3,281.8z"/>
			<path class="st0" d="M123.9,283.7c-2.7,0-5.3-0.4-5.4-0.4l-0.9-0.1l0.2-0.8c0.2-0.9,1.7-8.4,4.5-10.4c1.4-1,2.9-1.5,4.5-1.5
				c3.1,0,5.5,2,5.6,2.1l0.2,0.1l0.1,0.2c0.8,2.1,1.3,6.8-2.8,9.7C128.7,283.3,126.7,283.7,123.9,283.7z M119.6,281.8
				c1,0.1,2.6,0.3,4.3,0.3c3.2,0,4.4-0.5,4.9-0.9c3.6-2.5,2.6-6.6,2.3-7.5c-0.5-0.4-2.2-1.5-4.3-1.5c-1.2,0-2.4,0.4-3.5,1.2
				C121.5,274.4,120.2,279.2,119.6,281.8z"/>
		</g>
		<g>
			<path class="st0" d="M135,219.7c-2.5-1.9-10.6-1.1-10.6-1.1s1.2,8.1,3.7,10c4.5,3.5,9.1-0.2,9.1-0.2S139.5,223.2,135,219.7z"/>
			<path class="st0" d="M132.3,231L132.3,231c-1.7,0-3.3-0.6-4.7-1.7c-2.7-2.1-3.9-9.7-4-10.6l-0.1-0.9l0.9-0.1c0.1,0,1.9-0.2,4-0.2
				c3.5,0,6,0.5,7.2,1.4c3.9,3,3.3,7.7,2.4,9.8l-0.1,0.2l-0.2,0.1C137.6,229.2,135.3,231,132.3,231z M125.3,219.4
				c0.5,2.6,1.7,7.4,3.3,8.6c1.1,0.9,2.4,1.3,3.7,1.3c2,0,3.6-1,4.2-1.4c0.3-0.9,1.5-4.9-2-7.6c-0.5-0.4-2-1.1-6.2-1.1
				C127.1,219.3,126,219.3,125.3,219.4z"/>
		</g>
		<g>
			<path class="st0" d="M150.8,264.8c-2.5-1.9-10.6-1.1-10.6-1.1s1.2,8.1,3.7,10c4.5,3.5,9.1-0.2,9.1-0.2S155.3,268.2,150.8,264.8z"
				/>
			<path class="st0" d="M148.1,276L148.1,276c-1.7,0-3.3-0.6-4.7-1.7c-2.7-2.1-3.9-9.7-4-10.6l-0.1-0.9l0.9-0.1c0.1,0,1.9-0.2,4-0.2
				c3.5,0,6,0.5,7.2,1.4c3.9,3,3.3,7.7,2.4,9.8l-0.1,0.2l-0.2,0.1C153.3,274.3,151.1,276,148.1,276z M141.1,264.4
				c0.5,2.6,1.7,7.4,3.3,8.6c1.1,0.9,2.4,1.3,3.7,1.3c2,0,3.6-1,4.2-1.4c0.3-0.9,1.5-4.9-2-7.6c-0.5-0.4-2-1.1-6.2-1.1
				C142.9,264.3,141.8,264.4,141.1,264.4z"/>
		</g>
		<g>
			<polygon class="st0" points="223.1,294.3 117.6,294.3 130.8,340.4 209.9,340.4 			"/>
			<path class="st0" d="M210.5,341.2h-80.4l-13.7-47.8h107.7L210.5,341.2z M131.4,339.6h77.9l12.7-44.5H118.7L131.4,339.6z"/>
		</g>
		<g>
			<rect x="169.3" y="195.4" class="st0" width="1.6" height="98.9"/>
		</g>
		<g>
			<path class="st0" d="M170.3,242.3c-18.6,0-33.8-15.2-33.8-33.8h1.6c0,17.7,14.4,32.1,32.1,32.1V242.3z"/>
		</g>
		<g>
			<path class="st0" d="M143.9,229.2v-1.6c6.8,0,12.4-5.5,12.4-12.4h1.6C158,222.9,151.7,229.2,143.9,229.2z"/>
		</g>
		<g>
			<path class="st0" d="M170.3,235.8v-1.6c17.7,0,32.1-14.4,32.1-32.1h1.6C204.1,220.6,189,235.8,170.3,235.8z"/>
		</g>
		<g>
			<path class="st0" d="M199,218.2c-9,0-16.3-7.3-16.3-16.3h1.6c0,8.1,6.6,14.6,14.6,14.6V218.2z"/>
		</g>
		<g>
			<path class="st0" d="M170.1,288.3c-29.4,0-53.4-23.9-53.4-53.4h1.6c0,28.5,23.2,51.7,51.7,51.7V288.3z"/>
		</g>
		<g>
			<path class="st0" d="M170.1,282.1v-1.6c32.4,0,58.7-26.3,58.7-58.7h1.6C230.5,255,203.4,282.1,170.1,282.1z"/>
		</g>
		<g>
			<path class="st0" d="M127.5,265.4v-1.6c8.6,0,15.7-7,15.7-15.7h1.6C144.8,257.7,137,265.4,127.5,265.4z"/>
		</g>
		<g>
			<path class="st0" d="M215.6,261.2c-10.9,0-19.7-8.8-19.7-19.7h1.6c0,10,8.1,18.1,18.1,18.1V261.2z"/>
		</g>
		<g>
			<path class="st0" d="M200,252.2v-1.6c5,0,9.1-4.1,9.1-9.1h1.6C210.7,247.4,205.9,252.2,200,252.2z"/>
		</g>
		<g>
			<path class="st0" d="M140.7,258.8c-5.9,0-10.7-4.8-10.7-10.7h1.6c0,5,4.1,9.1,9.1,9.1V258.8z"/>
		</g>
		<g>
			<path class="st0" d="M170.1,275.1c-11.2,0-20.4-9.2-20.4-20.4h1.6c0,10.3,8.4,18.8,18.8,18.8V275.1z"/>
		</g>
		<g>
			<path class="st0" d="M153.8,265.4v-1.6c5,0,9.1-4.1,9.1-9.1h1.6C164.6,260.6,159.7,265.4,153.8,265.4z"/>
		</g>
		<g>
			<path class="st0" d="M180.5,189c0-5.7-10.4-16.7-10.4-16.7s-10.4,10.9-10.4,16.7c0,10.4,10.4,13,10.4,13S180.5,199.4,180.5,189z"
				/>
			<path class="st0" d="M170.1,202.8l-0.2,0c-0.1,0-11-2.9-11-13.8c0-6,10.2-16.8,10.6-17.2l0.6-0.6l0.6,0.6
				c0.4,0.5,10.6,11.2,10.6,17.2c0,10.9-10.9,13.8-11,13.8L170.1,202.8z M170.1,173.5c-3.1,3.4-9.6,11.3-9.6,15.5
				c0,8.9,8.2,11.7,9.6,12.1c1.4-0.4,9.6-3.2,9.6-12.1C179.7,184.8,173.3,176.9,170.1,173.5z"/>
		</g>
		<g>
			<path class="st0" d="M126.9,236.9c-2.2-5.3-15.9-11.5-15.9-11.5s-5.5,14-3.3,19.4c3.9,9.6,14.5,8.1,14.5,8.1
				S130.8,246.5,126.9,236.9z"/>
			<path class="st0" d="M120.6,253.8C120.6,253.8,120.6,253.8,120.6,253.8c-3.1,0-10.5-0.8-13.7-8.7c-2.3-5.6,3.1-19.4,3.3-20
				l0.3-0.8l0.8,0.4c0.6,0.3,14.1,6.4,16.3,12c4.1,10.1-4.9,16.9-5,16.9l-0.2,0.1l-0.2,0C122.2,253.7,121.6,253.8,120.6,253.8z
				 M111.4,226.5c-1.6,4.4-4.6,14.1-3,17.9c2.7,6.7,8.8,7.7,12.2,7.7c0,0,0,0,0,0c0.6,0,1,0,1.3-0.1c1.2-0.9,7.7-6.6,4.3-14.9
				C124.5,233.4,115.6,228.5,111.4,226.5z"/>
		</g>
		<g>
			<path class="st0" d="M160.9,244.5c-0.3-5.7-11.2-16.2-11.2-16.2s-9.9,11.4-9.6,17.1c0.5,10.4,11,12.5,11,12.5
				S161.4,254.9,160.9,244.5z"/>
			<path class="st0" d="M151.2,258.8l-0.2,0c-0.1,0-11.1-2.4-11.7-13.3c-0.3-6,9.4-17.2,9.8-17.7l0.6-0.7l0.6,0.6
				c0.5,0.4,11.1,10.7,11.4,16.7c0.5,10.9-10.3,14.3-10.4,14.3L151.2,258.8z M149.8,229.5c-3,3.6-9,11.7-8.8,15.9
				c0.4,8.9,8.7,11.3,10.1,11.7c1.4-0.5,9.4-3.6,9-12.6C159.9,240.4,153.1,232.8,149.8,229.5z"/>
		</g>
		<g>
			<path class="st0" d="M192.2,199.4c-4-4.2-19-4.9-19-4.9s0,15.1,4,19.2c7.2,7.5,16.5,2.2,16.5,2.2S199.4,206.9,192.2,199.4z"/>
			<path class="st0" d="M186.4,218.6L186.4,218.6c-3.8,0-7.1-1.4-9.8-4.3c-4.1-4.3-4.2-19.2-4.2-19.8l0-0.9l0.9,0
				c0.6,0,15.4,0.8,19.6,5.2c7.5,7.9,1.6,17.5,1.5,17.6l-0.1,0.2l-0.2,0.1C193.9,216.8,190.6,218.6,186.4,218.6z M174,195.4
				c0.1,4.7,0.9,14.8,3.7,17.8c2.4,2.5,5.3,3.8,8.6,3.8h0c3.3,0,6-1.2,6.7-1.6c0.8-1.3,4.7-8.9-1.4-15.4
				C188.7,197,178.7,195.7,174,195.4z"/>
		</g>
		<g>
			<path class="st0" d="M179.5,250.3c-4-4.2-19-4.9-19-4.9s0,15.1,4,19.2c7.2,7.5,16.5,2.2,16.5,2.2S186.6,257.9,179.5,250.3z"/>
			<path class="st0" d="M173.6,269.5C173.6,269.5,173.6,269.5,173.6,269.5c-3.8,0-7.1-1.4-9.8-4.3c-4.1-4.3-4.2-19.2-4.2-19.8l0-0.9
				l0.9,0c0.6,0,15.4,0.8,19.6,5.2c7.5,7.9,1.6,17.5,1.5,17.6l-0.1,0.2l-0.2,0.1C181.2,267.7,177.9,269.5,173.6,269.5z M161.3,246.3
				c0.1,4.7,0.9,14.8,3.7,17.8c2.4,2.5,5.3,3.8,8.6,3.8c3.3,0,6-1.2,6.7-1.6c0.8-1.3,4.7-8.9-1.4-15.4
				C176,247.9,165.9,246.6,161.3,246.3z"/>
		</g>
		<g>
			<path class="st0" d="M143.8,200.5c-1.8-5.5-15-12.7-15-12.7s-6.5,13.6-4.8,19.1c3.2,9.9,13.9,9.2,13.9,9.2S147,210.4,143.8,200.5
				z"/>
			<path class="st0" d="M137.4,216.9c-1.8,0-11.2-0.5-14.2-9.8c-1.8-5.7,4.5-19.1,4.8-19.7l0.4-0.8l0.8,0.4
				c0.6,0.3,13.6,7.4,15.4,13.1c3.4,10.4-6.1,16.5-6.2,16.5l-0.2,0.1l-0.2,0C137.9,216.9,137.7,216.9,137.4,216.9z M129.1,189
				c-1.9,4.2-5.6,13.7-4.4,17.7c2.6,8,10.3,8.6,12.6,8.6c0.1,0,0.2,0,0.2,0c1.2-0.8,8.1-6,5.4-14.5
				C141.7,196.8,133.2,191.3,129.1,189z"/>
		</g>
		<g>
			<path class="st0" d="M168.7,215.2c2.1-5.3-3.5-19.3-3.5-19.3s-13.7,6.3-15.8,11.6c-3.8,9.7,4.9,15.9,4.9,15.9
				S164.8,224.9,168.7,215.2z"/>
			<path class="st0" d="M155.7,224.3c-0.9,0-1.5-0.1-1.6-0.1l-0.2,0l-0.2-0.1c-0.1-0.1-9.2-6.8-5.1-16.9
				c2.2-5.6,15.7-11.8,16.2-12.1l0.8-0.4l0.3,0.8c0.2,0.6,5.7,14.4,3.5,19.9C166.3,223.5,158.8,224.3,155.7,224.3z M154.5,222.6
				c0.2,0,0.6,0,1.1,0c2.8,0,9.5-0.8,12.2-7.8c1.5-3.9-1.5-13.6-3.2-17.9c-4.2,2-13.1,7-14.6,10.8
				C146.8,216.1,153.4,221.7,154.5,222.6z"/>
		</g>
		<g>
			<path class="st0" d="M133.2,243.7c-1.4-2.8-9.1-5.5-9.1-5.5s-2.4,7.9-1,10.6c2.6,5.1,8.2,3.8,8.2,3.8S135.8,248.8,133.2,243.7z"
				/>
			<path class="st0" d="M129.8,253.5C129.8,253.5,129.8,253.5,129.8,253.5c-1.9,0-5.5-0.6-7.4-4.4c-1.5-3,0.7-10.4,0.9-11.3l0.2-0.8
				l0.8,0.3c0.8,0.3,8.1,3,9.6,6c2.2,4.4-0.4,8.4-2.1,9.9l-0.2,0.1l-0.2,0C131.5,253.4,130.8,253.5,129.8,253.5z M124.6,239.2
				c-0.7,2.5-1.7,7.4-0.8,9.2c1.4,2.9,4,3.5,5.9,3.5c0,0,0,0,0,0c0.5,0,1-0.1,1.2-0.1c0.7-0.7,3.5-3.8,1.5-7.7
				C131.6,242.3,127.1,240.2,124.6,239.2z"/>
		</g>
		<g>
			<path class="st0" d="M219.4,255.1c5.2-2.4,19.5,2.4,19.5,2.4s-5.6,14-10.8,16.4c-9.4,4.4-16.2-4-16.2-4S210,259.4,219.4,255.1z"
				/>
			<path class="st0" d="M222.7,276c-6.8,0-11.1-5.3-11.3-5.6l-0.1-0.2l0-0.2c0-0.1-2-11.2,7.9-15.8c1.1-0.5,2.5-0.7,4.3-0.7
				c6.4,0,15.4,3,15.8,3.2l0.8,0.3l-0.3,0.8c-0.2,0.6-5.7,14.4-11.2,16.9C226.6,275.6,224.6,276,222.7,276z M212.8,269.6
				c0.7,0.8,4.5,4.8,9.9,4.8c1.7,0,3.4-0.4,5.1-1.2c3.8-1.7,8.2-10.9,10-15.2c-2.4-0.8-9.4-2.8-14.4-2.8c-1.6,0-2.8,0.2-3.7,0.6
				C211.6,259.6,212.5,268.1,212.8,269.6z"/>
		</g>
		<g>
			<path class="st0" d="M184.6,194.9c-0.9-3,2.8-10.3,2.8-10.3s7.1,4.1,8,7c1.6,5.4-3.4,8.4-3.4,8.4S186.2,200.4,184.6,194.9z"/>
			<path class="st0" d="M191.9,200.9c-1.1,0-6.5-0.3-8.1-5.7c-1-3.2,2.4-10.2,2.8-10.9l0.4-0.8l0.8,0.4c0.8,0.4,7.5,4.3,8.4,7.5
				c1.4,4.8-1.8,8.2-3.7,9.4l-0.2,0.1l-0.2,0C192.1,200.9,192,200.9,191.9,200.9z M187.7,185.8c-1.1,2.4-2.9,7-2.4,8.9
				c1.3,4.2,5.4,4.5,6.4,4.5c0.8-0.6,4.1-3.1,2.8-7.3C194,190,190,187.1,187.7,185.8z"/>
		</g>
		<g>
			<path class="st0" d="M207.8,280.8c3.1,0.5,9.9-4.1,9.9-4.1s-5-6.5-8-7c-5.6-0.9-7.9,4.4-7.9,4.4S202.2,279.9,207.8,280.8z"/>
			<path class="st0" d="M208.3,281.7C208.3,281.7,208.3,281.7,208.3,281.7c-0.2,0-0.4,0-0.6,0c-4.9-0.8-6.6-5.2-6.8-7.5l0-0.2
				l0.1-0.2c0.1-0.2,2.2-5,7.4-5c0.5,0,0.9,0,1.4,0.1c3.3,0.5,8,6.7,8.6,7.4l0.5,0.7l-0.7,0.5C217.9,277.6,211.8,281.7,208.3,281.7z
				 M202.6,274.2c0.1,1,1,5.1,5.4,5.8c2.1,0.3,6.4-2.1,8.5-3.5c-1.7-2-5-5.7-7-6c-0.4-0.1-0.8-0.1-1.1-0.1
				C204.8,270.4,203,273.4,202.6,274.2z"/>
		</g>
		<g>
			<path class="st0" d="M189.6,287.6c2.5,1.8,10.7,0.6,10.7,0.6s-1.6-8.1-4.1-9.9c-4.6-3.3-9,0.5-9,0.5S184.9,284.3,189.6,287.6z"/>
			<path class="st0" d="M194.9,289.4C194.9,289.4,194.9,289.4,194.9,289.4c-2.8,0-4.7-0.4-5.8-1.2c-4.1-2.9-3.6-7.6-2.8-9.7l0.1-0.2
				l0.2-0.1c0.1-0.1,2.4-2.1,5.6-2.1c1.6,0,3.1,0.5,4.5,1.5c2.7,1.9,4.3,9.5,4.5,10.4l0.2,0.8l-0.9,0.1
				C200.2,289.1,197.7,289.4,194.9,289.4z M187.8,279.4c-0.3,0.9-1.3,5,2.3,7.5c0.5,0.3,1.7,0.9,4.9,0.9c0,0,0,0,0,0
				c1.7,0,3.4-0.2,4.3-0.3c-0.6-2.6-2-7.3-3.6-8.5c-1.1-0.8-2.3-1.2-3.5-1.2C190,277.9,188.3,279,187.8,279.4z"/>
		</g>
		<g>
			<path class="st0" d="M205.8,220c2.5-1.9,10.6-1.1,10.6-1.1s-1.2,8.1-3.7,10c-4.5,3.5-9.1-0.2-9.1-0.2S201.3,223.4,205.8,220z"/>
			<path class="st0" d="M208.4,231.2c-3,0-5.3-1.8-5.3-1.8l-0.2-0.1l-0.1-0.2c-0.9-2.1-1.6-6.7,2.4-9.8c1.2-0.9,3.6-1.4,7.2-1.4
				c2.2,0,4,0.2,4,0.2l0.9,0.1l-0.1,0.9c-0.1,0.9-1.4,8.5-4,10.6C211.7,230.7,210.1,231.2,208.4,231.2z M204.3,228.2
				c0.5,0.4,2.2,1.4,4.2,1.4c1.3,0,2.6-0.4,3.7-1.3c1.6-1.2,2.8-6,3.3-8.6c-0.7-0.1-1.8-0.1-3-0.1c-4.2,0-5.7,0.7-6.2,1.1
				C202.8,223.3,203.9,227.3,204.3,228.2z"/>
		</g>
		<g>
			<path class="st0" d="M190,265c2.5-1.9,10.6-1.1,10.6-1.1s-1.2,8.1-3.7,10c-4.5,3.5-9.1-0.2-9.1-0.2S185.5,268.5,190,265z"/>
			<path class="st0" d="M192.7,276.3c-3,0-5.3-1.8-5.3-1.8l-0.2-0.1l-0.1-0.2c-0.9-2.1-1.6-6.7,2.4-9.8c1.2-0.9,3.6-1.4,7.2-1.4
				c2.2,0,4,0.2,4,0.2l0.9,0.1l-0.1,0.9c-0.1,0.9-1.4,8.5-4,10.6C196,275.7,194.4,276.3,192.7,276.3z M188.5,273.3
				c0.5,0.4,2.2,1.4,4.2,1.4c1.3,0,2.6-0.4,3.7-1.3c1.6-1.2,2.8-6,3.3-8.6c-0.7-0.1-1.8-0.1-3-0.1c-4.2,0-5.7,0.7-6.2,1.1
				C187,268.4,188.2,272.4,188.5,273.3z"/>
		</g>
		<g>
			<path class="st0" d="M219.4,230c2.2-5.3,15.9-11.5,15.9-11.5s5.5,14,3.3,19.4c-3.9,9.6-14.5,8.1-14.5,8.1S215.5,239.6,219.4,230z
				"/>
			<path class="st0" d="M225.7,246.8c-1,0-1.7-0.1-1.7-0.1l-0.2,0l-0.2-0.1c-0.1-0.1-9.1-6.8-5-16.9c2.3-5.6,15.8-11.7,16.3-12
				l0.8-0.4l0.3,0.8c0.2,0.6,5.6,14.4,3.3,20C236.2,246,228.8,246.8,225.7,246.8z M224.5,245.1c0.2,0,0.7,0.1,1.3,0.1
				c3.4,0,9.5-1,12.2-7.7c1.6-3.8-1.4-13.6-3-17.9c-4.2,2-13.1,6.9-14.7,10.7C216.8,238.6,223.3,244.2,224.5,245.1z"/>
		</g>
		<g>
			<path class="st0" d="M179.8,244.8c0.3-5.7,11.2-16.2,11.2-16.2s9.9,11.4,9.6,17.1c-0.5,10.4-11,12.5-11,12.5
				S179.3,255.2,179.8,244.8z"/>
			<path class="st0" d="M189.6,259.1l-0.2-0.1c-0.1,0-10.9-3.4-10.4-14.3c0.3-6,11-16.3,11.4-16.7l0.6-0.6l0.6,0.7
				c0.4,0.5,10.1,11.7,9.8,17.7c-0.5,10.9-11.5,13.2-11.7,13.3L189.6,259.1z M190.9,229.8c-3.3,3.3-10.1,10.8-10.3,15
				c-0.4,8.9,7.6,12.1,9,12.6c1.5-0.4,9.7-2.7,10.1-11.7C200,241.6,193.9,233.4,190.9,229.8z"/>
		</g>
		<g>
			<path class="st0" d="M161.5,270.3c4-4.2,19-4.9,19-4.9s0,15.1-4,19.2c-7.2,7.5-16.5,2.2-16.5,2.2S154.3,277.8,161.5,270.3z"/>
			<path class="st0" d="M167.3,289.5c-4.2,0-7.5-1.8-7.7-1.9l-0.2-0.1l-0.1-0.2c-0.1-0.1-6-9.7,1.5-17.6c4.1-4.3,19-5.1,19.6-5.2
				l0.9,0l0,0.9c0,0.6-0.1,15.5-4.2,19.8C174.4,288.1,171.1,289.5,167.3,289.5z M160.6,286.3c0.7,0.4,3.4,1.6,6.7,1.6
				c3.3,0,6.2-1.3,8.6-3.8c2.9-3,3.6-13.1,3.7-17.8c-4.6,0.3-14.7,1.6-17.6,4.6C155.9,277.4,159.9,285,160.6,286.3z"/>
		</g>
		<g>
			<path class="st0" d="M199.6,199.7c3.6-4.5,18.6-6.4,18.6-6.4s1.2,15-2.4,19.5c-6.6,8.1-16.3,3.5-16.3,3.5
				S193.1,207.8,199.6,199.7z"/>
			<path class="st0" d="M205.8,218.4c-3.7,0-6.5-1.3-6.6-1.4L199,217l-0.1-0.2c-0.1-0.1-6.7-9.2,0.1-17.7c3.8-4.7,18.5-6.6,19.1-6.7
				l0.9-0.1l0.1,0.9c0,0.6,1.2,15.4-2.6,20.1C213.7,216.7,210,218.4,205.8,218.4z M200.1,215.7c0.7,0.3,2.9,1.1,5.7,1.1
				c3.8,0,6.9-1.5,9.4-4.5c2.6-3.2,2.6-13.4,2.3-18c-4.6,0.7-14.6,2.7-17.2,6C194.6,207.2,199.2,214.4,200.1,215.7z"/>
		</g>
		<g>
			<path class="st0" d="M175.9,214.6c4.1-4,19.2-4.3,19.2-4.3s-0.5,15.1-4.6,19.1c-7.4,7.3-16.6,1.7-16.6,1.7
				S168.5,221.9,175.9,214.6z"/>
			<path class="st0" d="M181.5,234c-4.5,0-7.9-2.1-8.1-2.2l-0.2-0.1l-0.1-0.2c-0.1-0.1-5.7-9.9,2.1-17.5c4.3-4.2,19.1-4.5,19.7-4.5
				l0.9,0l0,0.9c0,0.6-0.5,15.5-4.8,19.7C188.4,232.7,185.2,234,181.5,234z M174.5,230.5c0.7,0.4,3.6,1.8,7,1.8c3.2,0,6-1.2,8.4-3.5
				c3-2.9,4.1-13,4.3-17.7c-4.7,0.2-14.8,1.1-17.7,4C170.1,221.5,173.8,229.2,174.5,230.5z"/>
		</g>
		<g>
			<path class="st0" d="M207.5,244c1.4-2.8,9.1-5.5,9.1-5.5s2.4,7.9,1,10.6c-2.6,5.1-8.2,3.8-8.2,3.8S205,249,207.5,244z"/>
			<path class="st0" d="M211,253.8c-1,0-1.8-0.2-1.8-0.2l-0.2,0l-0.2-0.1c-1.7-1.5-4.3-5.4-2.1-9.9c1.5-3,8.8-5.7,9.6-6l0.8-0.3
				l0.2,0.8c0.3,0.8,2.4,8.3,0.9,11.3C216.4,253.2,212.9,253.8,211,253.8z M209.8,252.1c0.2,0,0.7,0.1,1.2,0.1
				c1.9,0,4.5-0.6,5.9-3.5c0.9-1.8-0.1-6.7-0.8-9.2c-2.4,1-6.9,3-7.9,4.8C206.3,248.3,209.1,251.4,209.8,252.1z"/>
		</g>
		<g>
			<path class="st0" d="M175.8,232.7c0.9-3-2.8-10.3-2.8-10.3s-7.1,4.1-8,7c-1.6,5.4,3.4,8.4,3.4,8.4S174.2,238.2,175.8,232.7z"/>
			<path class="st0" d="M168.5,238.7L168.5,238.7c-0.1,0-0.2,0-0.2,0l-0.2,0l-0.2-0.1c-1.9-1.1-5.2-4.6-3.7-9.4
				c1-3.2,7.7-7.1,8.4-7.5l0.8-0.4l0.4,0.8c0.4,0.8,3.8,7.7,2.8,10.9C175,238.4,169.6,238.7,168.5,238.7z M172.7,223.6
				c-2.2,1.4-6.3,4.2-6.9,6.1c-1.3,4.2,2,6.8,2.8,7.3c1.1,0,5.2-0.4,6.4-4.5C175.6,230.6,173.8,226,172.7,223.6z"/>
		</g>
	</g>
	<g>
		<g>
			<path class="st0" d="M273.3,274.5c-3.6,0-6.6-2.9-6.6-6.6l3.3-39.6c0,0,0-6.6-6.6-6.6s-6.6,6.6-6.6,6.6l3.3,39.6
				c0,3.6-2.9,6.6-6.6,6.6H273.3z"/>
			<path class="st0" d="M273.3,275.3c-4.1,0-7.4-3.3-7.4-7.4l3.3-39.6c0-0.2-0.1-5.7-5.8-5.7c-5.7,0-5.8,5.5-5.8,5.8l3.3,39.5
				c0,4.2-3.3,7.5-7.4,7.5v-1.6c3.2,0,5.8-2.6,5.8-5.8l-3.3-39.5c0-2.6,1.5-7.5,7.4-7.5c5.9,0,7.4,4.9,7.4,7.4l-3.3,39.6
				c0,3.1,2.6,5.7,5.8,5.7V275.3z"/>
		</g>
		<g>
			<polygon class="st0" points="276.6,281.1 250.3,281.1 250.3,307.5 263.3,307.5 264.6,300.9 266.6,307.5 276.6,307.5 			"/>
			<path class="st0" d="M277.5,308.3H266l-1.3-4l-0.8,4h-14.6v-28h28V308.3z M267.2,306.6h8.6v-24.7h-24.7v24.7h11.5l1.7-9.2
				L267.2,306.6z"/>
		</g>
		<g>
			<rect x="250.3" y="274.5" class="st0" width="26.4" height="6.6"/>
			<path class="st0" d="M277.5,281.9h-28v-8.2h28V281.9z M251.1,280.3h24.7v-4.9h-24.7V280.3z"/>
		</g>
		<g>
			<rect x="255.9" y="288.6" class="st0" width="1.6" height="18.8"/>
		</g>
		<g>
			<rect x="252.7" y="296.7" class="st0" width="1.6" height="4.1"/>
		</g>
		<g>
			<rect x="268.9" y="294.4" class="st0" width="1.6" height="13"/>
		</g>
		<g>
			<rect x="272.5" y="300.9" class="st0" width="1.6" height="6.6"/>
		</g>
		<g>
			<rect x="272.5" y="287.7" class="st0" width="1.6" height="3.3"/>
		</g>
	</g>
</g>
</svg>
