<?xml version="1.0" encoding="utf-8"?>
<!-- Generator: Adobe Illustrator 23.0.4, SVG Export Plug-In . SVG Version: 6.00 Build 0)  -->
<svg version="1.1" id="Capa_1" xmlns="http://www.w3.org/2000/svg" xmlns:xlink="http://www.w3.org/1999/xlink" x="0px" y="0px"
	 viewBox="0 0 823.4 352" style="enable-background:new 0 0 823.4 352;" xml:space="preserve">
<style type="text/css">
	.st0{fill:#000000;}
	.st1{fill:#FFFFFF;}
	.st2{fill:#C0BFBF;}
</style>
<g>
	<g>
		<g>
			<path class="st0" d="M346.9,266.1h-8.4c-0.3,0-0.5-0.1-0.6-0.4l-4.2-7.2c-0.1-0.2-0.1-0.5,0-0.7l4.2-7.2c0.1-0.2,0.4-0.4,0.6-0.4
				h8.4c0.3,0,0.5,0.1,0.6,0.4l4.2,7.2c0.1,0.2,0.1,0.5,0,0.7l-4.2,7.2C347.4,266,347.1,266.1,346.9,266.1z M338.9,264.7h7.5
				l3.8-6.5l-3.8-6.5h-7.5l-3.8,6.5L338.9,264.7z"/>
			<path class="st0" d="M342.7,262.2c-2.2,0-4.1-1.8-4.1-4.1c0-2.2,1.8-4.1,4.1-4.1s4.1,1.8,4.1,4.1
				C346.8,260.4,345,262.2,342.7,262.2z M342.7,255.5c-1.5,0-2.6,1.2-2.6,2.6c0,1.5,1.2,2.6,2.6,2.6s2.6-1.2,2.6-2.6
				C345.3,256.7,344.2,255.5,342.7,255.5z"/>
		</g>
		<path class="st0" d="M277.8,68h-8.4c-0.3,0-0.5-0.1-0.6-0.4l-4.2-7.2c-0.1-0.2-0.1-0.5,0-0.7l4.2-7.2c0.1-0.2,0.4-0.4,0.6-0.4h8.4
			c0.3,0,0.5,0.1,0.6,0.4l4.2,7.2c0.1,0.2,0.1,0.5,0,0.7l-4.2,7.2C278.3,67.8,278,68,277.8,68z M269.8,66.5h7.5l3.8-6.5l-3.8-6.5
			h-7.5l-3.8,6.5L269.8,66.5z"/>
		<path class="st0" d="M273.6,64.1c-2.2,0-4.1-1.8-4.1-4.1c0-2.2,1.8-4.1,4.1-4.1c2.2,0,4.1,1.8,4.1,4.1
			C277.7,62.2,275.8,64.1,273.6,64.1z M273.6,57.4c-1.5,0-2.6,1.2-2.6,2.6c0,1.5,1.2,2.6,2.6,2.6c1.5,0,2.6-1.2,2.6-2.6
			C276.2,58.5,275,57.4,273.6,57.4z"/>
	</g>
	<path class="st1" d="M36.4,152.9h-8.4l-4.2,7.2l4.2,7.2h8.4l4.2-7.2L36.4,152.9z M32.2,163.5c-1.9,0-3.4-1.5-3.4-3.4
		c0-1.9,1.5-3.4,3.4-3.4c1.9,0,3.4,1.5,3.4,3.4C35.6,162,34.1,163.5,32.2,163.5z"/>
	<path class="st2" d="M100.2,125.8l0-4.3c-1.5,0-5.1-0.4-5.6-2.3v0c-0.2-0.6-0.5-1.2-0.7-1.8l0,0c-1-1.7,1.3-4.6,2.3-5.6l-3-3
		c-1,1-3.9,3.3-5.6,2.3v0c-0.6-0.3-1.2-0.5-1.8-0.7h0c-1.9-0.5-2.3-4.1-2.3-5.6h-4.3c0,1.5-0.4,5.1-2.3,5.6h0
		c-0.6,0.2-1.2,0.5-1.8,0.7h0c-1.7,1-4.6-1.3-5.6-2.3l-3,3c1,1,3.3,3.9,2.3,5.6c-0.3,0.6-0.5,1.2-0.7,1.8v0
		c-0.5,1.9-4.1,2.3-5.6,2.3l0,4.3c1.5,0,5.1,0.4,5.6,2.3v0c0.2,0.6,0.5,1.2,0.7,1.8l0,0c1,1.7-1.3,4.6-2.3,5.6l3,3
		c1-1,3.9-3.3,5.6-2.3l0,0c0.6,0.3,1.2,0.5,1.8,0.7h0c1.9,0.5,2.3,4.1,2.3,5.6l4.3,0c0-1.5,0.4-5.1,2.3-5.6h0
		c0.6-0.2,1.2-0.5,1.8-0.7l0,0c1.7-1,4.6,1.3,5.6,2.3l3-3c-1-1-3.3-3.9-2.3-5.6l0,0c0.3-0.6,0.5-1.2,0.7-1.8v0
		C95.1,126.2,98.7,125.8,100.2,125.8z M81.3,128.7c-2.8,0-5.1-2.3-5.1-5.1c0-2.8,2.3-5.1,5.1-5.1c2.8,0,5.1,2.3,5.1,5.1
		C86.4,126.4,84.1,128.7,81.3,128.7z"/>
	<g>
		<path class="st0" d="M123,134.7h-8.1c-0.4,0-0.7-0.3-0.7-0.7V98.4c0-0.4,0.3-0.7,0.7-0.7c0.4,0,0.7,0.3,0.7,0.7v34.8h6.7V98.4
			c0-0.4,0.3-0.7,0.7-0.7c0.4,0,0.7,0.3,0.7,0.7v35.5C123.7,134.3,123.4,134.7,123,134.7z"/>
		<path class="st0" d="M118.9,134.7c-0.4,0-0.7-0.3-0.7-0.7V98.4c0-0.4,0.3-0.7,0.7-0.7c0.4,0,0.7,0.3,0.7,0.7v35.5
			C119.6,134.3,119.3,134.7,118.9,134.7z"/>
		<path class="st0" d="M118.9,143.6c-0.3,0-0.5-0.2-0.7-0.4l-4.1-8.9c-0.2-0.4,0-0.8,0.4-1c0.4-0.2,0.8,0,1,0.4l3.4,7.5l3.4-7.5
			c0.2-0.4,0.6-0.5,1-0.4c0.4,0.2,0.5,0.6,0.4,1l-4.1,8.9C119.4,143.4,119.2,143.6,118.9,143.6z"/>
		<path class="st0" d="M121.1,138.7h-4.5c-0.4,0-0.7-0.3-0.7-0.7c0-0.4,0.3-0.7,0.7-0.7h4.5c0.4,0,0.7,0.3,0.7,0.7
			C121.8,138.4,121.5,138.7,121.1,138.7z"/>
		<path class="st0" d="M123.7,99.2h-9.6v-5.9c0-1.3,1-2.3,2.3-2.3h4.9c1.3,0,2.3,1,2.3,2.3V99.2z M115.5,97.7h6.7v-4.4
			c0-0.5-0.4-0.9-0.9-0.9h-4.9c-0.5,0-0.9,0.4-0.9,0.9V97.7z"/>
	</g>
	<g>
		<path class="st0" d="M239,113.5h-30c-0.4,0-0.7-0.3-0.7-0.7c0-0.4,0.3-0.7,0.7-0.7h29.3V105H209c-0.4,0-0.7-0.3-0.7-0.7
			c0-0.4,0.3-0.7,0.7-0.7h30c0.4,0,0.7,0.3,0.7,0.7v8.5C239.7,113.2,239.4,113.5,239,113.5z"/>
		<path class="st0" d="M186.8,113.5h-9.1c-1.3,0-2.4-1.1-2.4-2.4v-5.3c0-1.3,1.1-2.4,2.4-2.4h9.1c0.4,0,0.7,0.3,0.7,0.7
			c0,0.4-0.3,0.7-0.7,0.7h-9.1c-0.5,0-0.9,0.4-0.9,0.9v5.3c0,0.5,0.4,0.9,0.9,0.9h9.1c0.4,0,0.7,0.3,0.7,0.7
			C187.5,113.2,187.2,113.5,186.8,113.5z"/>
		<path class="st0" d="M210.9,110.3c-0.2,0-0.4-0.1-0.5-0.2l-2-2c-0.3-0.3-0.3-0.7,0-1c0.3-0.3,0.7-0.3,1,0l2,2c0.3,0.3,0.3,0.7,0,1
			C211.3,110.2,211.1,110.3,210.9,110.3z"/>
		<path class="st0" d="M215,110.3c-0.2,0-0.4-0.1-0.5-0.2l-2-2c-0.3-0.3-0.3-0.7,0-1c0.3-0.3,0.7-0.3,1,0l2,2c0.3,0.3,0.3,0.7,0,1
			C215.4,110.2,215.2,110.3,215,110.3z"/>
		<path class="st0" d="M219.5,110.3c-0.2,0-0.4-0.1-0.5-0.2l-2-2c-0.3-0.3-0.3-0.7,0-1c0.3-0.3,0.7-0.3,1,0l2,2c0.3,0.3,0.3,0.7,0,1
			C219.9,110.2,219.7,110.3,219.5,110.3z"/>
		<path class="st0" d="M241.2,84c-1.3-0.2-2.4,0.6-2.6,1.7c-0.2,1.3,0.8,2.4,2,2.7c4.2,1.1,7.5,5.8,7.5,9c0,4-5.8,5.1-9.2,5.1
			c-0.4,0-0.7,0.3-0.7,0.7v1c0,0.4,0.3,0.7,0.7,0.7c0.4,0,0.7-0.3,0.7-0.7V104c5-0.2,9.9-2.2,9.9-6.6c0-4.2-4.1-9.2-8.6-10.4
			c-0.5-0.1-1-0.6-1-1.1c0.1-0.5,0.7-0.6,1-0.6c8.5,1.1,13.6,10.7,13.6,15.5v8.5l-2,2c-0.1,0.1-0.2,0.3-0.2,0.5v3.9
			c0,0.7,0.3,1.9,1,2.9h-4.7c0.7-1,1-2.1,1-2.9c0-1.5-1.2-2.7-2.7-2.7h-7.4v-0.3c0-0.4-0.3-0.7-0.7-0.7c-0.4,0-0.7,0.3-0.7,0.7v1
			c0,0.4,0.3,0.7,0.7,0.7h8.1c0.7,0,1.3,0.6,1.3,1.3c0,0.6-0.5,2.2-1.4,2.7c-0.1,0.1-0.2,0.1-0.2,0.2c-0.2,0.1-0.4,0.4-0.4,0.6v9.6
			c0,0.4,0.3,0.7,0.7,0.7h7.8c0.4,0,0.7-0.3,0.7-0.7v-9.6c0,0,0-0.1,0-0.1c0.1-0.3-0.1-0.6-0.3-0.7c-0.9-0.6-1.4-2.1-1.4-2.7v-3.6
			l2-2c0.1-0.1,0.2-0.3,0.2-0.5V101C256.1,95,250.2,85.2,241.2,84z M254.2,128.3h-6.4v-8.2h6.4V128.3z"/>
		<path class="st0" d="M182.6,113.5c-0.4,0-0.7-0.3-0.7-0.7v-8.5c0-0.4,0.3-0.7,0.7-0.7c0.4,0,0.7,0.3,0.7,0.7v8.5
			C183.3,113.2,183,113.5,182.6,113.5z"/>
	</g>
	<g>
		<path class="st0" d="M206,169.7c-0.4,0-0.7-0.3-0.7-0.7v-41.1h-15.6v41.1c0,0.4-0.3,0.7-0.7,0.7s-0.7-0.3-0.7-0.7v-41.8
			c0-0.4,0.3-0.7,0.7-0.7H206c0.4,0,0.7,0.3,0.7,0.7v41.8C206.7,169.3,206.4,169.7,206,169.7z"/>
		<circle class="st0" cx="203" cy="130.1" r="0.7"/>
		<path class="st0" d="M208.2,102v13.5c0,0.4,0.3,0.7,0.7,0.7c0.4,0,0.7-0.3,0.7-0.7V102c0-1.9-1.6-3.5-3.5-3.5
			c-1.1,0-2.1,0.5-2.8,1.4c-0.6-0.8-1.6-1.4-2.8-1.4c-1.1,0-2.1,0.5-2.8,1.4c-0.6-0.8-1.6-1.4-2.8-1.4c-1.1,0-2.1,0.5-2.8,1.4
			c-0.6-0.8-1.6-1.4-2.8-1.4c-1.9,0-3.5,1.6-3.5,3.5v18.6c0,1.5,1,2.5,2.1,2.8v3.7c0,0.4,0.3,0.7,0.7,0.7s0.7-0.3,0.7-0.7v-4.3
			c0-0.4-0.3-0.7-0.7-0.7c-0.5,0-1.4-0.3-1.4-1.4V102c0-1.1,0.9-2.1,2.1-2.1c1.1,0,2.1,0.9,2.1,2.1v2.2c0,0.4,0.3,0.7,0.7,0.7
			s0.7-0.3,0.7-0.7V102c0-1.1,0.9-2.1,2.1-2.1c1.1,0,2.1,0.9,2.1,2.1v2.2c0,0.4,0.3,0.7,0.7,0.7s0.7-0.3,0.7-0.7V102
			c0-1.1,0.9-2.1,2.1-2.1c1.1,0,2.1,0.9,2.1,2.1v2.2c0,0.4,0.3,0.7,0.7,0.7s0.7-0.3,0.7-0.7V102c0-1.1,0.9-2.1,2.1-2.1
			C207.3,99.9,208.2,100.9,208.2,102z M212.6,112.1c-0.4,0-0.7,0.3-0.7,0.7v6c0,3.9-4.9,5.3-5.9,5.3c-0.4,0-0.7,0.3-0.7,0.7v2.3
			c0,0.4,0.3,0.7,0.7,0.7s0.7-0.3,0.7-0.7v-1.6c2.1-0.4,6.7-2.3,6.7-6.7v-6C213.3,112.4,213,112.1,212.6,112.1z"/>
	</g>
	<path class="st0" d="M253.9,133.9h-5.8c-0.4,0-0.7,0.3-0.7,0.7c0,0.4,0.3,0.7,0.7,0.7h2.2v7.5c0,0.4,0.3,0.7,0.7,0.7
		c0.4,0,0.7-0.3,0.7-0.7v-7.5h2.2c0.4,0,0.7-0.3,0.7-0.7C254.6,134.2,254.3,133.9,253.9,133.9z"/>
	<path class="st0" d="M257.3,137.4c-0.1,0-0.1,0-0.2,0c-0.4-0.1-0.6-0.5-0.5-0.9c0.2-0.6,0.3-1.2,0.3-1.8c0-0.6-0.1-1.1-0.2-1.6
		c-0.1-0.4,0.1-0.8,0.5-0.9c0.4-0.1,0.8,0.1,0.9,0.5c0.2,0.7,0.3,1.3,0.3,2c0,0.8-0.1,1.5-0.4,2.2
		C257.9,137.2,257.6,137.4,257.3,137.4z"/>
	<path class="st0" d="M244.7,137.4c-0.3,0-0.6-0.2-0.7-0.5c-0.2-0.7-0.4-1.5-0.4-2.2c0-0.7,0.1-1.4,0.3-2c0.1-0.4,0.5-0.6,0.9-0.5
		c0.4,0.1,0.6,0.5,0.5,0.9c-0.2,0.5-0.2,1.1-0.2,1.6c0,0.6,0.1,1.2,0.3,1.8c0.1,0.4-0.1,0.8-0.5,0.9
		C244.9,137.4,244.8,137.4,244.7,137.4z"/>
	<rect x="192" y="263.2" class="st2" width="15.8" height="16.3"/>
	<g>
		<path class="st0" d="M196.8,249.1C196.8,249.1,196.8,249.1,196.8,249.1c-2,0-3.6-1.6-3.6-3.6c0,0,0,0,0,0c0-2,1.6-3.6,3.6-3.6
			c2,0,3.6,1.6,3.6,3.6c0,1-0.4,1.9-1,2.5C198.7,248.7,197.8,249.1,196.8,249.1z M194.7,245.5c0,1.2,1,2.2,2.2,2.2c0,0,0,0,0,0
			c0.6,0,1.1-0.2,1.5-0.6c0.4-0.4,0.6-0.9,0.6-1.5c0-1.2-1-2.2-2.1-2.2C195.6,243.3,194.7,244.3,194.7,245.5z"/>
		<path class="st0" d="M196.8,243.3c-0.4,0-0.7-0.3-0.7-0.7l0-22.1c0-0.4,0.3-0.7,0.7-0.7c0.4,0,0.7,0.3,0.7,0.7l0,22.1
			C197.5,243,197.2,243.3,196.8,243.3z"/>
		<rect x="184.9" y="259.5" class="st0" width="23.8" height="1.4"/>
		<path class="st0" d="M188.9,277.2c-0.4,0-0.7-0.3-0.7-0.7v-16.3c0-0.4,0.3-0.7,0.7-0.7c0.4,0,0.7,0.3,0.7,0.7v16.3
			C189.6,276.9,189.3,277.2,188.9,277.2z"/>
		<path class="st0" d="M201.4,273.3c-0.4,0-0.7-0.3-0.7-0.7v-12.4c0-0.4,0.3-0.7,0.7-0.7c0.4,0,0.7,0.3,0.7,0.7v12.4
			C202.1,273,201.8,273.3,201.4,273.3z"/>
		<path class="st0" d="M204.7,277.2c-0.4,0-0.7-0.3-0.7-0.7v-16.3c0-0.4,0.3-0.7,0.7-0.7s0.7,0.3,0.7,0.7v16.3
			C205.5,276.9,205.1,277.2,204.7,277.2z"/>
		<path class="st0" d="M211.3,245.2C211.3,245.1,211.3,245.1,211.3,245.2l-13.8-25c-0.1-0.2-0.4-0.4-0.6-0.4c-0.3,0-0.5,0.1-0.6,0.4
			l-13.8,25c0,0,0,0,0,0c-0.1,0.3-0.1,0.6,0.1,0.8c4.1,4.1,5.7,7.9,5.7,13.7c0,0.4,0.3,0.7,0.7,0.7s0.7-0.3,0.7-0.7
			c0-6-1.7-10.2-5.7-14.4l12.9-23.4l12.9,23.4c-4,4.2-5.7,8.4-5.7,14.4c0,0.4,0.3,0.7,0.7,0.7c0.4,0,0.7-0.3,0.7-0.7
			c0-5.8,1.6-9.7,5.7-13.7C211.3,245.8,211.4,245.4,211.3,245.2z"/>
	</g>
	<g>
		<path class="st0" d="M199.3,218.2h-4.9c-0.4,0-0.7-0.3-0.7-0.7v-4.9c0-0.4,0.3-0.7,0.7-0.7h4.9c0.4,0,0.7,0.3,0.7,0.7v4.9
			C200,217.9,199.7,218.2,199.3,218.2z M195.1,216.8h3.4v-3.4h-3.4V216.8z"/>
		<path class="st0" d="M163,182h-4.9c-0.4,0-0.7-0.3-0.7-0.7v-4.9c0-0.4,0.3-0.7,0.7-0.7h4.9c0.4,0,0.7,0.3,0.7,0.7v4.9
			C163.7,181.7,163.4,182,163,182z M158.9,180.6h3.4v-3.4h-3.4V180.6z"/>
		<path class="st0" d="M235.5,182h-4.9c-0.4,0-0.7-0.3-0.7-0.7v-4.9c0-0.4,0.3-0.7,0.7-0.7h4.9c0.4,0,0.7,0.3,0.7,0.7v4.9
			C236.2,181.7,235.9,182,235.5,182z M231.4,180.6h3.4v-3.4h-3.4V180.6z"/>
		<path class="st0" d="M194.4,215.7C194.4,215.7,194.4,215.7,194.4,215.7c-18.5-1.2-33.3-15.9-34.5-34.3c0-0.4,0.3-0.7,0.7-0.8
			c0.4,0,0.7,0.3,0.8,0.7c1.2,17.7,15.4,31.9,33.1,33c0.4,0,0.7,0.4,0.7,0.8C195.1,215.4,194.8,215.7,194.4,215.7z"/>
		<path class="st0" d="M199.3,215.7c-0.4,0-0.7-0.3-0.7-0.7c0-0.4,0.3-0.7,0.7-0.8c17.6-1.2,31.8-15.4,33-33c0-0.4,0.4-0.7,0.8-0.7
			c0.4,0,0.7,0.4,0.7,0.8C232.4,199.7,217.6,214.5,199.3,215.7C199.3,215.7,199.3,215.7,199.3,215.7z"/>
	</g>
	<g>
		<path class="st0" d="M169.5,218.6c-1.9,0-3.5-1.6-3.5-3.5c0-1.9,1.6-3.5,3.5-3.5c1.9,0,3.5,1.6,3.5,3.5
			C173,217,171.4,218.6,169.5,218.6z M169.5,213c-1.1,0-2.1,0.9-2.1,2.1c0,1.1,0.9,2.1,2.1,2.1c1.1,0,2.1-0.9,2.1-2.1
			C171.6,213.9,170.7,213,169.5,213z"/>
		<path class="st0" d="M194.4,215.8h-22.1c-0.4,0-0.7-0.3-0.7-0.7s0.3-0.7,0.7-0.7h22.1c0.4,0,0.7,0.3,0.7,0.7
			S194.8,215.8,194.4,215.8z"/>
		<path class="st0" d="M224.1,218.6c-1.9,0-3.5-1.6-3.5-3.5c0-1.9,1.6-3.5,3.5-3.5c1.9,0,3.5,1.6,3.5,3.5
			C227.6,217,226.1,218.6,224.1,218.6z M224.1,213c-1.1,0-2.1,0.9-2.1,2.1c0,1.1,0.9,2.1,2.1,2.1c1.1,0,2.1-0.9,2.1-2.1
			C226.2,213.9,225.3,213,224.1,213z"/>
		<path class="st0" d="M221.4,215.8h-22.1c-0.4,0-0.7-0.3-0.7-0.7s0.3-0.7,0.7-0.7h22.1c0.4,0,0.7,0.3,0.7,0.7
			S221.8,215.8,221.4,215.8z"/>
	</g>
	<g>
		<path class="st0" d="M373.7,201.2c-0.1,0-0.2,0-0.4-0.1l-3.7-2.1c-0.2-0.1-0.4-0.4-0.4-0.6v-4.2c0-0.3,0.1-0.5,0.4-0.6l3.7-2.1
			c0.2-0.1,0.5-0.1,0.7,0l3.7,2.1c0.2,0.1,0.4,0.4,0.4,0.6v4.2c0,0.3-0.1,0.5-0.4,0.6l-3.7,2.1C373.9,201.2,373.8,201.2,373.7,201.2
			z M370.7,197.9l2.9,1.7l2.9-1.7v-3.4l-2.9-1.7l-2.9,1.7V197.9z"/>
		<path class="st0" d="M320.5,202.7H314c-0.4,0-0.7-0.3-0.7-0.7c0-0.4,0.3-0.7,0.7-0.7h6.5c2.2,0,4-1.8,4-4v-14.1
			c0-0.4,0.3-0.7,0.7-0.7c0.4,0,0.7,0.3,0.7,0.7v14.1C326,200.2,323.5,202.7,320.5,202.7z"/>
		<path class="st0" d="M325.9,210.2c-5.3,0-10.3-3.1-12.6-7.9c-0.1-0.2-0.1-0.5,0-0.7c0.1-0.2,0.4-0.3,0.6-0.3h6.5c2.2,0,4-1.8,4-4
			v-14.1c0-0.4,0.3-0.7,0.7-0.7c0.2,0,0.5,0,0.7,0c5.9,0,11.1,3.7,13.1,9.2h27c1.6-2.6,4.5-4.2,7.6-4.2c4.9,0,9,4,9,9c0,4.9-4,9-9,9
			c-3.1,0-6-1.6-7.6-4.2h-27C337,206.5,331.8,210.2,325.9,210.2z M315.2,202.7c2.2,3.7,6.3,6.1,10.7,6.1c5.5,0,10.2-3.5,11.9-8.7
			c0.1-0.3,0.4-0.5,0.7-0.5h27.9c0.3,0,0.5,0.1,0.7,0.4c1.3,2.4,3.8,3.9,6.6,3.9c4.1,0,7.5-3.4,7.5-7.5c0-4.1-3.4-7.5-7.5-7.5
			c-2.7,0-5.2,1.5-6.6,3.9c-0.1,0.3-0.4,0.4-0.7,0.4h-27.9c-0.3,0-0.6-0.2-0.7-0.5c-1.7-5.2-6.4-8.7-11.8-8.7v13.4
			c0,3-2.5,5.5-5.5,5.5H315.2z"/>
		<path class="st0" d="M314,191.3c-0.2,0-0.5-0.1-0.6-0.3c-0.1-0.2-0.1-0.5,0-0.7c2.2-4.6,6.8-7.7,11.9-7.9c0.4,0,0.7,0.3,0.8,0.7
			c0,0.4-0.3,0.7-0.7,0.8c-4.2,0.2-8,2.5-10.1,6.1l10.1,0l0,0c0.4,0,0.7,0.3,0.7,0.7c0,0.4-0.3,0.7-0.7,0.7L314,191.3L314,191.3z"/>
		<path class="st0" d="M329.5,205.3c-0.1,0-0.3,0-0.4-0.1c-0.2-0.1-0.3-0.4-0.3-0.6V188c0-0.2,0.1-0.5,0.3-0.6
			c0.2-0.1,0.5-0.2,0.7-0.1c2.6,1.1,4.6,3.3,5.4,6c0,0.1,0,0.1,0,0.2v5.5c0,0.1,0,0.1,0,0.2c-0.9,2.7-2.8,4.9-5.4,6
			C329.7,205.2,329.6,205.3,329.5,205.3z M330.2,189.2v14.2c1.7-1,3-2.6,3.6-4.5v-5.3C333.2,191.8,331.9,190.2,330.2,189.2z"/>
		<path class="st0" d="M334.5,197h-5c-0.4,0-0.7-0.3-0.7-0.7c0-0.4,0.3-0.7,0.7-0.7h5c0.4,0,0.7,0.3,0.7,0.7
			C335.2,196.7,334.9,197,334.5,197z"/>
		<path class="st0" d="M333.9,201.2h-4.4c-0.4,0-0.7-0.3-0.7-0.7c0-0.4,0.3-0.7,0.7-0.7h4.4c0.4,0,0.7,0.3,0.7,0.7
			C334.6,200.9,334.3,201.2,333.9,201.2z"/>
		<path class="st0" d="M333.9,192.7h-4.4c-0.4,0-0.7-0.3-0.7-0.7c0-0.4,0.3-0.7,0.7-0.7h4.4c0.4,0,0.7,0.3,0.7,0.7
			C334.6,192.4,334.3,192.7,333.9,192.7z"/>
	</g>
	<path class="st0" d="M364.3,197h-23.1c-0.4,0-0.7-0.3-0.7-0.7c0-0.4,0.3-0.7,0.7-0.7h23.1c0.4,0,0.7,0.3,0.7,0.7
		C365,196.7,364.7,197,364.3,197z"/>
	<g>
		<path class="st0" d="M317.2,202.7h-6.6c-0.3,0-0.5-0.1-0.6-0.4l-3.3-5.7c-0.1-0.2-0.1-0.5,0-0.7l3.3-5.7c0.1-0.2,0.4-0.4,0.6-0.4
			h6.6c0.3,0,0.5,0.1,0.6,0.4l3.3,5.7c0.1,0.2,0.1,0.5,0,0.7l-3.3,5.7C317.7,202.5,317.5,202.7,317.2,202.7z M311.1,201.2h5.7l2.9-5
			l-2.9-5h-5.7l-2.9,5L311.1,201.2z"/>
		<path class="st0" d="M313.8,197.2c-0.5,0-1-0.4-1-1c0-0.5,0.4-1,1-1c0.5,0,1,0.4,1,1C314.8,196.7,314.3,197.2,313.8,197.2z"/>
	</g>
	<g>
		<rect x="266.7" y="220.8" class="st2" width="70.9" height="11.9"/>
		<path class="st0" d="M270,224.7c-0.4,0-0.7-0.3-0.7-0.7v-3.1c0-0.4,0.3-0.7,0.7-0.7c0.4,0,0.7,0.3,0.7,0.7v3.1
			C270.7,224.3,270.4,224.7,270,224.7z"/>
		<path class="st0" d="M273.4,224.7c-0.4,0-0.7-0.3-0.7-0.7v-3.1c0-0.4,0.3-0.7,0.7-0.7c0.4,0,0.7,0.3,0.7,0.7v3.1
			C274.1,224.3,273.8,224.7,273.4,224.7z"/>
		<path class="st0" d="M276.8,224.7c-0.4,0-0.7-0.3-0.7-0.7v-3.1c0-0.4,0.3-0.7,0.7-0.7c0.4,0,0.7,0.3,0.7,0.7v3.1
			C277.5,224.3,277.2,224.7,276.8,224.7z"/>
		<path class="st0" d="M280.2,224.7c-0.4,0-0.7-0.3-0.7-0.7v-3.1c0-0.4,0.3-0.7,0.7-0.7s0.7,0.3,0.7,0.7v3.1
			C280.9,224.3,280.6,224.7,280.2,224.7z"/>
		<path class="st0" d="M283.6,224.7c-0.4,0-0.7-0.3-0.7-0.7v-3.1c0-0.4,0.3-0.7,0.7-0.7s0.7,0.3,0.7,0.7v3.1
			C284.3,224.3,284,224.7,283.6,224.7z"/>
		<path class="st0" d="M287,224.7c-0.4,0-0.7-0.3-0.7-0.7v-3.1c0-0.4,0.3-0.7,0.7-0.7c0.4,0,0.7,0.3,0.7,0.7v3.1
			C287.7,224.3,287.4,224.7,287,224.7z"/>
		<path class="st0" d="M290.4,224.7c-0.4,0-0.7-0.3-0.7-0.7v-3.1c0-0.4,0.3-0.7,0.7-0.7c0.4,0,0.7,0.3,0.7,0.7v3.1
			C291.1,224.3,290.8,224.7,290.4,224.7z"/>
		<path class="st0" d="M293.8,224.7c-0.4,0-0.7-0.3-0.7-0.7v-3.1c0-0.4,0.3-0.7,0.7-0.7c0.4,0,0.7,0.3,0.7,0.7v3.1
			C294.5,224.3,294.2,224.7,293.8,224.7z"/>
		<path class="st0" d="M297.2,224.7c-0.4,0-0.7-0.3-0.7-0.7v-3.1c0-0.4,0.3-0.7,0.7-0.7c0.4,0,0.7,0.3,0.7,0.7v3.1
			C297.9,224.3,297.6,224.7,297.2,224.7z"/>
		<path class="st0" d="M300.6,224.7c-0.4,0-0.7-0.3-0.7-0.7v-3.1c0-0.4,0.3-0.7,0.7-0.7c0.4,0,0.7,0.3,0.7,0.7v3.1
			C301.3,224.3,300.9,224.7,300.6,224.7z"/>
		<path class="st0" d="M303.9,224.7c-0.4,0-0.7-0.3-0.7-0.7v-3.1c0-0.4,0.3-0.7,0.7-0.7s0.7,0.3,0.7,0.7v3.1
			C304.7,224.3,304.3,224.7,303.9,224.7z"/>
		<path class="st0" d="M307.3,224.7c-0.4,0-0.7-0.3-0.7-0.7v-3.1c0-0.4,0.3-0.7,0.7-0.7c0.4,0,0.7,0.3,0.7,0.7v3.1
			C308.1,224.3,307.7,224.7,307.3,224.7z"/>
		<path class="st0" d="M310.7,224.7c-0.4,0-0.7-0.3-0.7-0.7v-3.1c0-0.4,0.3-0.7,0.7-0.7c0.4,0,0.7,0.3,0.7,0.7v3.1
			C311.5,224.3,311.1,224.7,310.7,224.7z"/>
		<path class="st0" d="M314.1,224.7c-0.4,0-0.7-0.3-0.7-0.7v-3.1c0-0.4,0.3-0.7,0.7-0.7c0.4,0,0.7,0.3,0.7,0.7v3.1
			C314.9,224.3,314.5,224.7,314.1,224.7z"/>
		<path class="st0" d="M317.5,224.7c-0.4,0-0.7-0.3-0.7-0.7v-3.1c0-0.4,0.3-0.7,0.7-0.7c0.4,0,0.7,0.3,0.7,0.7v3.1
			C318.3,224.3,317.9,224.7,317.5,224.7z"/>
		<path class="st0" d="M320.9,224.7c-0.4,0-0.7-0.3-0.7-0.7v-3.1c0-0.4,0.3-0.7,0.7-0.7c0.4,0,0.7,0.3,0.7,0.7v3.1
			C321.7,224.3,321.3,224.7,320.9,224.7z"/>
		<path class="st0" d="M324.3,224.7c-0.4,0-0.7-0.3-0.7-0.7v-3.1c0-0.4,0.3-0.7,0.7-0.7c0.4,0,0.7,0.3,0.7,0.7v3.1
			C325,224.3,324.7,224.7,324.3,224.7z"/>
	</g>
	<rect x="237.5" y="248" class="st1" width="59.7" height="7.7"/>
	<g>
		<path class="st0" d="M294.9,254.2h-20.6c-0.4,0-0.7-0.3-0.7-0.7v-7.7c0-0.2,0.1-0.4,0.2-0.5c0.1-0.1,0.3-0.2,0.5-0.2l0,0l20.6,0
			c0.4,0,0.7,0.3,0.7,0.7v7.7C295.6,253.9,295.3,254.2,294.9,254.2z M275,252.8h19.2v-6.3l-19.2,0V252.8z"/>
		<path class="st0" d="M274.3,254.2h-36.8c-0.4,0-0.7-0.3-0.7-0.7v-7.7c0-0.4,0.3-0.7,0.7-0.7h36.8c0.4,0,0.7,0.3,0.7,0.7v7.7
			C275,253.9,274.7,254.2,274.3,254.2z M238.2,252.8h35.4v-6.3h-35.4V252.8z"/>
		<path class="st0" d="M237.5,254.2c-0.1,0-0.2,0-0.2,0l-11.5-3.9c-0.3-0.1-0.5-0.4-0.5-0.7c0-0.3,0.2-0.6,0.5-0.7l11.5-3.9
			c0.4-0.1,0.8,0.1,0.9,0.5c0.1,0.4-0.1,0.8-0.5,0.9l-9.5,3.2l9.5,3.2c0.4,0.1,0.6,0.5,0.5,0.9C238.1,254,237.8,254.2,237.5,254.2z"
			/>
		<path class="st0" d="M253.1,254.2c-0.4,0-0.7-0.3-0.7-0.7v-7.7c0-0.4,0.3-0.7,0.7-0.7c0.4,0,0.7,0.3,0.7,0.7v7.7
			C253.8,253.9,253.5,254.2,253.1,254.2z"/>
		<path class="st0" d="M291.5,246.5c-0.2,0-0.4-0.1-0.6-0.3l-2.3-3.1H272c-0.4,0-0.7-0.3-0.7-0.7c0-0.4,0.3-0.7,0.7-0.7h17.1
			c0.2,0,0.4,0.1,0.6,0.3l2.5,3.4c0.2,0.3,0.2,0.8-0.2,1C291.8,246.4,291.7,246.5,291.5,246.5z"/>
		<path class="st0" d="M240.8,254.2C240.8,254.2,240.8,254.2,240.8,254.2c-0.4,0-0.7-0.3-0.7-0.7l0-2c0-0.4,0.3-0.7,0.7-0.7
			c0,0,0,0,0,0c0.4,0,0.7,0.3,0.7,0.7l0,2C241.5,253.9,241.2,254.2,240.8,254.2z"/>
		<path class="st0" d="M245,254.2C245,254.2,245,254.2,245,254.2c-0.4,0-0.7-0.3-0.7-0.7l0-2c0-0.4,0.3-0.7,0.7-0.7c0,0,0,0,0,0
			c0.4,0,0.7,0.3,0.7,0.7l0,2C245.7,253.9,245.4,254.2,245,254.2z"/>
		<path class="st0" d="M249.1,254.2c-0.4,0-0.7-0.3-0.7-0.7v-2c0-0.4,0.3-0.7,0.7-0.7c0.4,0,0.7,0.3,0.7,0.7v2
			C249.8,253.9,249.5,254.2,249.1,254.2z"/>
		<path class="st0" d="M240.8,248.4C240.8,248.4,240.8,248.4,240.8,248.4c-0.4,0-0.7-0.3-0.7-0.7l0-2c0-0.4,0.3-0.7,0.7-0.7
			c0,0,0,0,0,0c0.4,0,0.7,0.3,0.7,0.7l0,2C241.5,248.1,241.2,248.4,240.8,248.4z"/>
		<path class="st0" d="M245,248.4c-0.4,0-0.7-0.3-0.7-0.7v-2c0-0.4,0.3-0.7,0.7-0.7c0.4,0,0.7,0.3,0.7,0.7v2
			C245.7,248.1,245.4,248.4,245,248.4z"/>
		<path class="st0" d="M249.1,248.4c-0.4,0-0.7-0.3-0.7-0.7v-2c0-0.4,0.3-0.7,0.7-0.7c0.4,0,0.7,0.3,0.7,0.7v2
			C249.8,248.1,249.5,248.4,249.1,248.4z"/>
		<path class="st0" d="M225.9,250.3h-3.4c-0.4,0-0.7-0.3-0.7-0.7c0-0.4,0.3-0.7,0.7-0.7h3.4c0.4,0,0.7,0.3,0.7,0.7
			C226.6,250,226.3,250.3,225.9,250.3z"/>
		<path class="st0" d="M294.9,253.1c-0.4,0-0.7-0.3-0.7-0.7c0-0.4,0.3-0.7,0.7-0.7l3.5,0v-4.1h-3.5c-0.4,0-0.7-0.3-0.7-0.7
			c0-0.4,0.3-0.7,0.7-0.7h4.2c0.4,0,0.7,0.3,0.7,0.7v5.5c0,0.4-0.3,0.7-0.7,0.7L294.9,253.1z"/>
	</g>
	<g>
		<path class="st0" d="M77.9,217.1H65.2c-0.4,0-0.7-0.3-0.7-0.7v-13.2c0-0.4,0.3-0.7,0.7-0.7h12.7c0.4,0,0.7,0.3,0.7,0.7v13.2
			C78.6,216.8,78.3,217.1,77.9,217.1z M65.9,215.6h11.3v-11.8H65.9V215.6z"/>
		<path class="st0" d="M65.2,215.7h-3.3c-0.4,0-0.7-0.3-0.7-0.7v-10.4c0-0.4,0.3-0.7,0.7-0.7h3.3c0.4,0,0.7,0.3,0.7,0.7V215
			C65.9,215.4,65.5,215.7,65.2,215.7z M62.5,214.2h1.9v-9h-1.9V214.2z"/>
		<path class="st0" d="M61.8,219.4h-6.7c-0.4,0-0.7-0.3-0.7-0.7v-18c0-0.4,0.3-0.7,0.7-0.7h6.7c0.4,0,0.7,0.3,0.7,0.7v18
			C62.5,219.1,62.2,219.4,61.8,219.4z M55.8,218h5.3v-16.5h-5.3V218z"/>
		<path class="st0" d="M61.8,204.7h-6.7c-0.4,0-0.7-0.3-0.7-0.7c0-0.4,0.3-0.7,0.7-0.7h6.7c0.4,0,0.7,0.3,0.7,0.7
			C62.5,204.4,62.2,204.7,61.8,204.7z"/>
		<path class="st0" d="M61.8,207.6h-6.7c-0.4,0-0.7-0.3-0.7-0.7s0.3-0.7,0.7-0.7h6.7c0.4,0,0.7,0.3,0.7,0.7S62.2,207.6,61.8,207.6z"
			/>
		<path class="st0" d="M61.8,210.5h-6.7c-0.4,0-0.7-0.3-0.7-0.7s0.3-0.7,0.7-0.7h6.7c0.4,0,0.7,0.3,0.7,0.7S62.2,210.5,61.8,210.5z"
			/>
		<path class="st0" d="M61.8,213.3h-6.7c-0.4,0-0.7-0.3-0.7-0.7s0.3-0.7,0.7-0.7h6.7c0.4,0,0.7,0.3,0.7,0.7S62.2,213.3,61.8,213.3z"
			/>
		<path class="st0" d="M61.8,216.2h-6.7c-0.4,0-0.7-0.3-0.7-0.7s0.3-0.7,0.7-0.7h6.7c0.4,0,0.7,0.3,0.7,0.7S62.2,216.2,61.8,216.2z"
			/>
		<path class="st0" d="M77.9,217.1c-0.2,0-0.4-0.1-0.5-0.2c-0.3-0.3-0.3-0.7,0-1l2.6-2.6v-7l-2.6-2.6c-0.3-0.3-0.3-0.7,0-1
			c0.3-0.3,0.7-0.3,1,0l2.8,2.8c0.1,0.1,0.2,0.3,0.2,0.5v7.6c0,0.2-0.1,0.4-0.2,0.5l-2.8,2.8C78.2,217,78.1,217.1,77.9,217.1z"/>
		<path class="st0" d="M84.1,212.6h-3.4c-0.4,0-0.7-0.3-0.7-0.7v-4.3c0-0.4,0.3-0.7,0.7-0.7h3.4c0.4,0,0.7,0.3,0.7,0.7v4.3
			C84.8,212.3,84.5,212.6,84.1,212.6z M81.4,211.2h2v-2.9h-2V211.2z"/>
		<path class="st0" d="M89.8,210.5h-5.7c-0.4,0-0.7-0.3-0.7-0.7s0.3-0.7,0.7-0.7h5.7c0.4,0,0.7,0.3,0.7,0.7S90.2,210.5,89.8,210.5z"
			/>
		<path class="st0" d="M49.9,222.1H14.1c-4.8,0-8.7-5.5-8.7-12.3c0-6.8,3.9-12.3,8.7-12.3h35.8c0.4,0,0.7,0.3,0.7,0.7
			c0,0.4-0.3,0.7-0.7,0.7H14.1c-4,0-7.3,4.9-7.3,10.9c0,6,3.3,10.9,7.3,10.9h35.8c0.4,0,0.7,0.3,0.7,0.7
			C50.7,221.7,50.3,222.1,49.9,222.1z"/>
		<path class="st0" d="M55.1,201.5c-0.1,0-0.2,0-0.3-0.1l-5.2-2.6c-0.4-0.2-0.5-0.6-0.3-1c0.2-0.4,0.6-0.5,1-0.3l5.2,2.6
			c0.4,0.2,0.5,0.6,0.3,1C55.6,201.3,55.4,201.5,55.1,201.5z"/>
		<path class="st0" d="M49.9,222.1c-0.3,0-0.5-0.1-0.6-0.4c-0.2-0.4,0-0.8,0.3-1l5.2-2.6c0.4-0.2,0.8,0,1,0.3c0.2,0.4,0,0.8-0.3,1
			l-5.2,2.6C50.2,222,50,222.1,49.9,222.1z"/>
		<path class="st0" d="M46.1,204c-1.5,0-2.8-0.9-3.5-2.2h-2.5c-0.4,0-0.7-0.3-0.7-0.7v-3c0-0.4,0.3-0.7,0.7-0.7
			c0.4,0,0.7,0.3,0.7,0.7v2.3h2.3c0.3,0,0.6,0.2,0.7,0.5c0.3,1,1.2,1.7,2.3,1.7c1.3,0,2.4-1.1,2.4-2.4v-2.1c0-0.4,0.3-0.7,0.7-0.7
			c0.4,0,0.7,0.3,0.7,0.7v2.1C50,202.3,48.3,204,46.1,204z"/>
		<path class="st0" d="M15.7,213.4c-0.9,0-1.6-0.7-1.6-1.6v-13.6c0-0.4-0.3-0.7-0.7-0.7c-0.4,0-0.7,0.3-0.7,0.7v13.6
			c0,1.7,1.4,3.1,3.1,3.1c0.9,0,1.6,0.7,1.6,1.6c0,0.9-0.7,1.6-1.6,1.6c-0.4,0-0.7,0.3-0.7,0.7v2.5c0,0.4,0.3,0.7,0.7,0.7
			s0.7-0.3,0.7-0.7v-1.9c1.3-0.3,2.3-1.5,2.3-3C18.8,214.8,17.4,213.4,15.7,213.4z"/>
		<path class="st2" d="M32.5,210.7H22.4c-0.4,0-0.7-0.3-0.7-0.7c0-0.4,0.3-0.7,0.7-0.7h10.1c0.4,0,0.7,0.3,0.7,0.7
			C33.3,210.3,32.9,210.7,32.5,210.7z"/>
		<path class="st2" d="M26.4,207.8h-4c-0.4,0-0.7-0.3-0.7-0.7c0-0.4,0.3-0.7,0.7-0.7h4c0.4,0,0.7,0.3,0.7,0.7
			C27.1,207.5,26.8,207.8,26.4,207.8z"/>
		<path class="st0" d="M47.5,249l-3.5-3.5v-24.1c0-0.4-0.3-0.7-0.7-0.7c-0.4,0-0.7,0.3-0.7,0.7v24.4c0,0.2,0.1,0.4,0.2,0.5l2.5,2.5
			H35v-17.2c0-4.3-3.5-7.9-7.9-7.9h-3.6v-2.4c0-0.4-0.3-0.7-0.7-0.7c-0.4,0-0.7,0.3-0.7,0.7v3.1c0,0.4,0.3,0.7,0.7,0.7h4.3
			c3.5,0,6.4,2.9,6.4,6.4v17.9c0,0.4,0.3,0.7,0.7,0.7h12.7c0.3,0,0.6-0.2,0.7-0.4C47.7,249.5,47.7,249.2,47.5,249z"/>
		<path class="st0" d="M46.6,228.2h-3.4c-0.4,0-0.7-0.3-0.7-0.7c0-0.4,0.3-0.7,0.7-0.7h2.7v-5.4c0-0.4,0.3-0.7,0.7-0.7
			s0.7,0.3,0.7,0.7v6.2C47.3,227.9,47,228.2,46.6,228.2z"/>
		<path class="st0" d="M43.2,246.5h-4.7c-0.4,0-0.7-0.3-0.7-0.7c0-0.4,0.3-0.7,0.7-0.7h4.7c0.4,0,0.7,0.3,0.7,0.7
			C43.9,246.1,43.6,246.5,43.2,246.5z"/>
		<path class="st0" d="M36,225.6c-0.4,0-0.7-0.3-0.7-0.7v-3.5c0-0.4,0.3-0.7,0.7-0.7s0.7,0.3,0.7,0.7v3.5
			C36.7,225.3,36.4,225.6,36,225.6z"/>
		<path class="st0" d="M52.1,262.5H36.5c-0.2,0-0.4-0.1-0.5-0.2l-2.2-2.2c-0.1-0.1-0.2-0.3-0.2-0.5v-10.1c0-0.4,0.3-0.7,0.7-0.7
			s0.7,0.3,0.7,0.7v9.8l1.8,1.8h14.6v-6.1l-5-5c-0.3-0.3-0.3-0.7,0-1c0.3-0.3,0.7-0.3,1,0l5.2,5.2c0.1,0.1,0.2,0.3,0.2,0.5v7.1
			C52.8,262.2,52.5,262.5,52.1,262.5z"/>
		<path class="st0" d="M37.4,256.4c-0.4,0-0.7-0.3-0.7-0.7v-3.6c0-0.4,0.3-0.7,0.7-0.7s0.7,0.3,0.7,0.7v3.6
			C38.2,256.1,37.8,256.4,37.4,256.4z"/>
		<path class="st0" d="M40.6,256.4c-0.4,0-0.7-0.3-0.7-0.7v-3.6c0-0.4,0.3-0.7,0.7-0.7c0.4,0,0.7,0.3,0.7,0.7v3.6
			C41.3,256.1,41,256.4,40.6,256.4z"/>
		<path class="st0" d="M43.7,254.8c-0.4,0-0.7-0.3-0.7-0.7v-2c0-0.4,0.3-0.7,0.7-0.7s0.7,0.3,0.7,0.7v2
			C44.5,254.5,44.1,254.8,43.7,254.8z"/>
	</g>
	<g>
		<path class="st0" d="M156.6,303.6H78.2c-0.4,0-0.7-0.3-0.7-0.7v-30c0-0.4,0.3-0.7,0.7-0.7h78.4c0.4,0,0.7,0.3,0.7,0.7v30
			C157.3,303.3,157,303.6,156.6,303.6z M79,302.2h76.9v-28.6H79V302.2z"/>
		<path class="st0" d="M83.5,282.2c-0.4,0-0.7-0.3-0.7-0.7v-3.7c0-0.4,0.3-0.7,0.7-0.7h3.7c0.4,0,0.7,0.3,0.7,0.7
			c0,0.4-0.3,0.7-0.7,0.7h-3v3C84.2,281.9,83.9,282.2,83.5,282.2z"/>
		<path class="st1" d="M92.6,282.2c-0.4,0-0.7-0.3-0.7-0.7v-3.7c0-0.4,0.3-0.7,0.7-0.7h3.7c0.4,0,0.7,0.3,0.7,0.7
			c0,0.4-0.3,0.7-0.7,0.7h-3v3C93.3,281.9,93,282.2,92.6,282.2z"/>
		<path class="st0" d="M101.7,282.2c-0.4,0-0.7-0.3-0.7-0.7v-3.7c0-0.4,0.3-0.7,0.7-0.7h3.7c0.4,0,0.7,0.3,0.7,0.7
			c0,0.4-0.3,0.7-0.7,0.7h-3v3C102.4,281.9,102.1,282.2,101.7,282.2z"/>
		<path class="st0" d="M110.8,282.2c-0.4,0-0.7-0.3-0.7-0.7v-3.7c0-0.4,0.3-0.7,0.7-0.7h3.7c0.4,0,0.7,0.3,0.7,0.7
			c0,0.4-0.3,0.7-0.7,0.7h-3v3C111.5,281.9,111.2,282.2,110.8,282.2z"/>
		<path class="st0" d="M119.8,282.2c-0.4,0-0.7-0.3-0.7-0.7v-3.7c0-0.4,0.3-0.7,0.7-0.7h3.7c0.4,0,0.7,0.3,0.7,0.7
			c0,0.4-0.3,0.7-0.7,0.7h-3v3C120.6,281.9,120.2,282.2,119.8,282.2z"/>
		<path class="st0" d="M128.9,282.2c-0.4,0-0.7-0.3-0.7-0.7v-3.7c0-0.4,0.3-0.7,0.7-0.7h3.7c0.4,0,0.7,0.3,0.7,0.7
			c0,0.4-0.3,0.7-0.7,0.7h-3v3C129.6,281.9,129.3,282.2,128.9,282.2z"/>
		<path class="st0" d="M138,282.2c-0.4,0-0.7-0.3-0.7-0.7v-3.7c0-0.4,0.3-0.7,0.7-0.7h3.7c0.4,0,0.7,0.3,0.7,0.7
			c0,0.4-0.3,0.7-0.7,0.7h-3v3C138.7,281.9,138.4,282.2,138,282.2z"/>
		<path class="st0" d="M147.1,282.2c-0.4,0-0.7-0.3-0.7-0.7v-3.7c0-0.4,0.3-0.7,0.7-0.7h3.7c0.4,0,0.7,0.3,0.7,0.7
			c0,0.4-0.3,0.7-0.7,0.7h-3v3C147.8,281.9,147.5,282.2,147.1,282.2z"/>
		<path class="st0" d="M83.5,290.9c-0.4,0-0.7-0.3-0.7-0.7v-3.7c0-0.4,0.3-0.7,0.7-0.7h3.7c0.4,0,0.7,0.3,0.7,0.7
			c0,0.4-0.3,0.7-0.7,0.7h-3v3C84.2,290.6,83.9,290.9,83.5,290.9z"/>
		<path class="st0" d="M92.6,290.9c-0.4,0-0.7-0.3-0.7-0.7v-3.7c0-0.4,0.3-0.7,0.7-0.7h3.7c0.4,0,0.7,0.3,0.7,0.7
			c0,0.4-0.3,0.7-0.7,0.7h-3v3C93.3,290.6,93,290.9,92.6,290.9z"/>
		<path class="st0" d="M101.7,290.9c-0.4,0-0.7-0.3-0.7-0.7v-3.7c0-0.4,0.3-0.7,0.7-0.7h3.7c0.4,0,0.7,0.3,0.7,0.7
			c0,0.4-0.3,0.7-0.7,0.7h-3v3C102.4,290.6,102.1,290.9,101.7,290.9z"/>
		<path class="st0" d="M110.8,290.9c-0.4,0-0.7-0.3-0.7-0.7v-3.7c0-0.4,0.3-0.7,0.7-0.7h3.7c0.4,0,0.7,0.3,0.7,0.7
			c0,0.4-0.3,0.7-0.7,0.7h-3v3C111.5,290.6,111.2,290.9,110.8,290.9z"/>
		<path class="st0" d="M119.8,290.9c-0.4,0-0.7-0.3-0.7-0.7v-3.7c0-0.4,0.3-0.7,0.7-0.7h3.7c0.4,0,0.7,0.3,0.7,0.7
			c0,0.4-0.3,0.7-0.7,0.7h-3v3C120.6,290.6,120.2,290.9,119.8,290.9z"/>
		<path class="st0" d="M128.9,290.9c-0.4,0-0.7-0.3-0.7-0.7v-3.7c0-0.4,0.3-0.7,0.7-0.7h3.7c0.4,0,0.7,0.3,0.7,0.7
			c0,0.4-0.3,0.7-0.7,0.7h-3v3C129.6,290.6,129.3,290.9,128.9,290.9z"/>
		<path class="st1" d="M138,290.9c-0.4,0-0.7-0.3-0.7-0.7v-3.7c0-0.4,0.3-0.7,0.7-0.7h3.7c0.4,0,0.7,0.3,0.7,0.7
			c0,0.4-0.3,0.7-0.7,0.7h-3v3C138.7,290.6,138.4,290.9,138,290.9z"/>
		<path class="st0" d="M147.1,290.9c-0.4,0-0.7-0.3-0.7-0.7v-3.7c0-0.4,0.3-0.7,0.7-0.7h3.7c0.4,0,0.7,0.3,0.7,0.7
			c0,0.4-0.3,0.7-0.7,0.7h-3v3C147.8,290.6,147.5,290.9,147.1,290.9z"/>
		<path class="st0" d="M83.5,299.6c-0.4,0-0.7-0.3-0.7-0.7v-3.7c0-0.4,0.3-0.7,0.7-0.7h3.7c0.4,0,0.7,0.3,0.7,0.7
			c0,0.4-0.3,0.7-0.7,0.7h-3v3C84.2,299.2,83.9,299.6,83.5,299.6z"/>
		<path class="st0" d="M92.6,299.6c-0.4,0-0.7-0.3-0.7-0.7v-3.7c0-0.4,0.3-0.7,0.7-0.7h3.7c0.4,0,0.7,0.3,0.7,0.7
			c0,0.4-0.3,0.7-0.7,0.7h-3v3C93.3,299.2,93,299.6,92.6,299.6z"/>
		<path class="st0" d="M101.7,299.6c-0.4,0-0.7-0.3-0.7-0.7v-3.7c0-0.4,0.3-0.7,0.7-0.7h30.9c0.4,0,0.7,0.3,0.7,0.7
			c0,0.4-0.3,0.7-0.7,0.7h-30.2v3C102.4,299.2,102.1,299.6,101.7,299.6z"/>
		<path class="st0" d="M138,299.6c-0.4,0-0.7-0.3-0.7-0.7v-3.7c0-0.4,0.3-0.7,0.7-0.7h3.7c0.4,0,0.7,0.3,0.7,0.7
			c0,0.4-0.3,0.7-0.7,0.7h-3v3C138.7,299.2,138.4,299.6,138,299.6z"/>
		<path class="st0" d="M147.1,299.6c-0.4,0-0.7-0.3-0.7-0.7v-3.7c0-0.4,0.3-0.7,0.7-0.7h3.7c0.4,0,0.7,0.3,0.7,0.7
			c0,0.4-0.3,0.7-0.7,0.7h-3v3C147.8,299.2,147.5,299.6,147.1,299.6z"/>
	</g>
	<path class="st0" d="M135.3,210.1c-0.4,0-0.7,0.3-0.7,0.7l0,28.6c0,1-0.4,1.9-1.1,2.6c-0.7,0.7-1.6,1.1-2.6,1.1
		c-2.1,0-3.7-1.7-3.7-3.7c0-2.9-2.3-5.2-5.2-5.2c-2.9,0-5.2,2.3-5.2,5.2v33.4c0,0.4,0.3,0.7,0.7,0.7c0.4,0,0.7-0.3,0.7-0.7v-33.4
		c0-2.1,1.7-3.7,3.7-3.7c2.1,0,3.7,1.7,3.7,3.7c0,2.9,2.3,5.2,5.2,5.2c1.4,0,2.7-0.5,3.7-1.5c1-1,1.5-2.3,1.5-3.7l0-28.6
		C136,210.4,135.7,210.1,135.3,210.1z"/>
	<path class="st0" d="M135.3,207.3c-2,0-3.6,1.6-3.6,3.6c0,0.4,0.3,0.7,0.7,0.7c0.4,0,0.7-0.3,0.7-0.7c0-1.2,1-2.1,2.1-2.1
		c1.2,0,2.1,1,2.1,2.1c0,0.4,0.3,0.7,0.7,0.7c0.4,0,0.7-0.3,0.7-0.7C138.8,208.9,137.2,207.3,135.3,207.3z"/>
	<g>
		<path class="st2" d="M310.1,80.6c0,4.4,3.7,10,3.7,14.7c0,2.9-0.7,4.2-0.7,5.9h7c0-1.8-0.7-3-0.7-5.9c0-4.6,3.7-10.3,3.7-14.7
			c0-3.6-2.9-6.5-6.5-6.5C313.1,74,310.1,77,310.1,80.6z"/>
		<path class="st0" d="M318.2,132.3h-3.1c-0.3,0-0.6-0.3-0.7-0.6l-1.4-7.9c0-0.2,0-0.4,0.2-0.6c0.1-0.2,0.3-0.3,0.6-0.3h5.9
			c0.2,0,0.4,0.1,0.6,0.3c0.1,0.2,0.2,0.4,0.2,0.6l-1.4,7.9C318.9,132.1,318.6,132.3,318.2,132.3z M315.7,130.9h1.9l1.1-6.4h-4.2
			L315.7,130.9z"/>
		<path class="st0" d="M316.7,124.4c-0.4,0-0.7-0.3-0.7-0.7v-22.6c0-0.4,0.3-0.7,0.7-0.7c0.4,0,0.7,0.3,0.7,0.7v22.6
			C317.4,124.1,317.1,124.4,316.7,124.4z"/>
		<path class="st0" d="M320.2,101.9h-7c-0.4,0-0.7-0.3-0.7-0.7c0-0.8,0.1-1.6,0.3-2.3c0.2-0.9,0.4-2,0.4-3.6c0-2.2-0.9-4.8-1.8-7.3
			c-0.9-2.5-1.9-5.1-1.9-7.4c0-4,3.2-7.2,7.2-7.2c4,0,7.2,3.2,7.2,7.2c0,2.3-0.9,4.9-1.9,7.4c-0.9,2.5-1.8,5.1-1.8,7.3
			c0,1.6,0.2,2.7,0.4,3.6c0.2,0.8,0.3,1.5,0.3,2.3C320.9,101.5,320.6,101.9,320.2,101.9z M313.9,100.4h5.5c0-0.4-0.1-0.9-0.2-1.3
			c-0.2-1-0.4-2.2-0.4-3.9c0-2.5,1-5.2,1.9-7.8c0.9-2.5,1.8-4.9,1.8-6.9c0-3.2-2.6-5.8-5.8-5.8c-3.2,0-5.8,2.6-5.8,5.8
			c0,2,0.9,4.4,1.8,6.9c0.9,2.6,1.9,5.3,1.9,7.8c0,1.7-0.2,2.9-0.4,3.9C314,99.6,314,100,313.9,100.4z"/>
		<path class="st0" d="M315.7,79.4c0-0.5,0.4-1,1-1c0.5,0,1,0.4,1,1c0,0.5-0.4,1-1,1C316.1,80.4,315.7,80,315.7,79.4z"/>
		<path class="st0" d="M315.7,83.2c0-0.5,0.4-1,1-1c0.5,0,1,0.4,1,1c0,0.5-0.4,1-1,1C316.1,84.2,315.7,83.7,315.7,83.2z"/>
		<path class="st0" d="M315.7,87c0-0.5,0.4-1,1-1c0.5,0,1,0.4,1,1c0,0.5-0.4,1-1,1C316.1,87.9,315.7,87.5,315.7,87z"/>
		<path class="st0" d="M319.7,98.6h-6.1c-0.4,0-0.7-0.3-0.7-0.7c0-0.4,0.3-0.7,0.7-0.7h6.1c0.4,0,0.7,0.3,0.7,0.7
			C320.4,98.3,320.1,98.6,319.7,98.6z"/>
	</g>
	<g>
		<path class="st0" d="M322.7,144h-12.1c-0.4,0-0.7-0.3-0.7-0.7v-6c0-0.4,0.3-0.7,0.7-0.7h12.1c0.4,0,0.7,0.3,0.7,0.7v6
			C323.5,143.7,323.1,144,322.7,144z M311.3,142.6H322v-4.5h-10.7V142.6z"/>
		<path class="st0" d="M316.7,144c-0.4,0-0.7-0.3-0.7-0.7v-6c0-0.4,0.3-0.7,0.7-0.7c0.4,0,0.7,0.3,0.7,0.7v6
			C317.4,143.7,317.1,144,316.7,144z"/>
		<path class="st0" d="M319.4,138.1h-5.5c-0.4,0-0.7-0.3-0.7-0.7v-2.9c0-0.4,0.3-0.7,0.7-0.7h5.5c0.4,0,0.7,0.3,0.7,0.7v2.9
			C320.1,137.8,319.8,138.1,319.4,138.1z M314.6,136.6h4.1v-1.4h-4.1V136.6z"/>
	</g>
	<g>
		<path class="st0" d="M374.9,120.2h-7.6c-0.4,0-0.7-0.3-0.7-0.7v-7.6c0-0.4,0.3-0.7,0.7-0.7h7.6c0.4,0,0.7,0.3,0.7,0.7v7.6
			C375.6,119.8,375.3,120.2,374.9,120.2z M368,118.7h6.2v-6.2H368V118.7z"/>
		<rect x="370.3" y="122.2" class="st0" width="1.4" height="1.8"/>
		<rect x="370.3" y="126.2" class="st0" width="1.4" height="1.8"/>
		<rect x="370.3" y="130.3" class="st0" width="1.4" height="1.8"/>
		<rect x="370.3" y="134.4" class="st0" width="1.4" height="1.8"/>
		<rect x="370.3" y="138.5" class="st0" width="1.4" height="1.8"/>
		<rect x="370.3" y="142.5" class="st0" width="1.4" height="1.8"/>
		<rect x="370.3" y="146.6" class="st0" width="1.4" height="1.8"/>
		<rect x="370.3" y="150.7" class="st0" width="1.4" height="1.8"/>
		<rect x="370.3" y="154.8" class="st0" width="1.4" height="1.8"/>
		<rect x="370.3" y="158.8" class="st0" width="1.4" height="1.8"/>
		<rect x="370.3" y="162.9" class="st0" width="1.4" height="1.8"/>
		<rect x="362.7" y="114.9" class="st0" width="1.8" height="1.4"/>
		<rect x="358.6" y="114.9" class="st0" width="1.8" height="1.4"/>
		<rect x="354.6" y="114.9" class="st0" width="1.8" height="1.4"/>
		<rect x="350.5" y="114.9" class="st0" width="1.8" height="1.4"/>
		<rect x="346.4" y="114.9" class="st0" width="1.8" height="1.4"/>
		<rect x="342.3" y="114.9" class="st0" width="1.8" height="1.4"/>
		<rect x="338.3" y="114.9" class="st0" width="1.8" height="1.4"/>
		<rect x="334.2" y="114.9" class="st0" width="1.8" height="1.4"/>
		<rect x="330.1" y="114.9" class="st0" width="1.8" height="1.4"/>
		<rect x="326" y="114.9" class="st0" width="1.8" height="1.4"/>
		<rect x="322" y="114.9" class="st0" width="1.8" height="1.4"/>
	</g>
	<g>
		<path class="st0" d="M385.3,130c0,0-0.1,0-0.1,0c-0.2,0-0.4-0.2-0.5-0.4l-6.6-13.6c-0.1-0.3-0.1-0.6,0.1-0.8
			c0.2-0.2,0.5-0.3,0.8-0.1l13.6,6.6c0.2,0.1,0.4,0.3,0.4,0.5c0,0.2,0,0.5-0.2,0.6l-7,7C385.7,129.9,385.5,130,385.3,130z
			 M380.2,117.2l5.3,10.8l5.6-5.6L380.2,117.2z"/>
		<path class="st0" d="M394.8,132.5c-0.2,0-0.4-0.1-0.5-0.2l-6-6c-0.3-0.3-0.3-0.7,0-1c0.3-0.3,0.7-0.3,1,0l6,6c0.3,0.3,0.3,0.7,0,1
			C395.2,132.4,395,132.5,394.8,132.5z"/>
	</g>
	<g>
		<path class="st1" d="M378.2,110.4c-0.4,0-0.7-0.3-0.7-0.7V106c0-0.4,0.3-0.7,0.7-0.7c0.4,0,0.7,0.3,0.7,0.7v3.6
			C378.9,110,378.6,110.4,378.2,110.4z"/>
		<path class="st1" d="M382.8,112.2c-0.2,0-0.4-0.1-0.5-0.2c-0.3-0.3-0.3-0.7,0-1l2.6-2.6c0.3-0.3,0.7-0.3,1,0c0.3,0.3,0.3,0.7,0,1
			l-2.6,2.6C383.1,112.2,383,112.2,382.8,112.2z"/>
		<path class="st1" d="M378.2,126.8c-0.4,0-0.7-0.3-0.7-0.7v-3.6c0-0.4,0.3-0.7,0.7-0.7c0.4,0,0.7,0.3,0.7,0.7v3.6
			C378.9,126.5,378.6,126.8,378.2,126.8z"/>
	</g>
	<g>
		<path class="st0" d="M155.9,76.2h-12.7c-0.4,0-0.7,0.3-0.7,0.7v6.4c0,0.4,0.3,0.7,0.7,0.7h12.7c0.4,0,0.7-0.3,0.7-0.7v-6.4
			C156.6,76.5,156.3,76.2,155.9,76.2z M152.1,77.7v5H147v-5H152.1z M143.9,77.7h1.6v5h-1.6V77.7z M155.2,82.6h-1.6v-5h1.6V82.6z"/>
		<path class="st0" d="M152,101h-4.9c-0.4,0-0.7-0.3-0.7-0.7v-17c0-0.4,0.3-0.7,0.7-0.7h4.9c0.4,0,0.7,0.3,0.7,0.7v17
			C152.7,100.7,152.4,101,152,101z M147.8,99.6h3.4V84.1h-3.4V99.6z"/>
		<path class="st0" d="M147.1,101c-0.2,0-0.4-0.1-0.5-0.2c-0.3-0.3-0.3-0.7,0-1l4.9-4.9c0.3-0.3,0.7-0.3,1,0c0.3,0.3,0.3,0.7,0,1
			l-4.9,4.9C147.5,101,147.3,101,147.1,101z"/>
		<path class="st0" d="M147.1,96.7c-0.2,0-0.4-0.1-0.5-0.2c-0.3-0.3-0.3-0.7,0-1l4.9-4.9c0.3-0.3,0.7-0.3,1,0c0.3,0.3,0.3,0.7,0,1
			l-4.9,4.9C147.5,96.6,147.3,96.7,147.1,96.7z"/>
		<path class="st0" d="M147.1,92.4c-0.2,0-0.4-0.1-0.5-0.2c-0.3-0.3-0.3-0.7,0-1l4.9-4.9c0.3-0.3,0.7-0.3,1,0c0.3,0.3,0.3,0.7,0,1
			l-4.9,4.9C147.5,92.3,147.3,92.4,147.1,92.4z"/>
		<path class="st0" d="M147.1,88.1c-0.2,0-0.4-0.1-0.5-0.2c-0.3-0.3-0.3-0.7,0-1l4-4c0.3-0.3,0.7-0.3,1,0c0.3,0.3,0.3,0.7,0,1l-4,4
			C147.5,88,147.3,88.1,147.1,88.1z"/>
	</g>
	<path class="st1" d="M88.4,88.1c-1.4,0-2.7-0.5-3.7-1.5c-1.5-1.5-3.9-1.5-5.4,0c-2,2-5.4,2-7.4,0c-0.3-0.3-0.3-0.7,0-1
		c0.3-0.3,0.7-0.3,1,0c1.5,1.5,3.9,1.5,5.4,0c2-2,5.4-2,7.4,0c0.7,0.7,1.7,1.1,2.7,1.1c1,0,2-0.4,2.7-1.1c1-1,2.3-1.5,3.7-1.5
		c1.4,0,2.7,0.5,3.7,1.5c0.3,0.3,0.3,0.7,0,1c-0.3,0.3-0.7,0.3-1,0c-0.7-0.7-1.7-1.1-2.7-1.1c-1,0-2,0.4-2.7,1.1
		C91.1,87.6,89.8,88.1,88.4,88.1z"/>
	<path class="st1" d="M36.4,276.2c-1.4,0-2.7-0.5-3.7-1.5c-1.5-1.5-3.9-1.5-5.4,0c-2,2-5.4,2-7.4,0c-0.3-0.3-0.3-0.7,0-1
		c0.3-0.3,0.7-0.3,1,0c1.5,1.5,3.9,1.5,5.4,0c2-2,5.4-2,7.4,0c0.7,0.7,1.7,1.1,2.7,1.1s2-0.4,2.7-1.1c2-2,5.4-2,7.4,0
		c0.3,0.3,0.3,0.7,0,1c-0.3,0.3-0.7,0.3-1,0c-1.5-1.5-3.9-1.5-5.4,0C39.1,275.6,37.8,276.2,36.4,276.2z"/>
	<path class="st2" d="M45.2,130.8h-5c-0.4,0-0.7-0.3-0.7-0.7c0-0.4,0.3-0.7,0.7-0.7h5c0.4,0,0.7,0.3,0.7,0.7
		C46,130.4,45.6,130.8,45.2,130.8z"/>
	<path class="st2" d="M30.8,130.8H14.5c-0.4,0-0.7-0.3-0.7-0.7c0-0.4,0.3-0.7,0.7-0.7h16.3c0.4,0,0.7,0.3,0.7,0.7
		C31.5,130.4,31.2,130.8,30.8,130.8z"/>
	<path class="st2" d="M419.1,215h-5c-0.4,0-0.7-0.3-0.7-0.7s0.3-0.7,0.7-0.7h5c0.4,0,0.7,0.3,0.7,0.7S419.5,215,419.1,215z"/>
	<path class="st2" d="M404.7,215h-22.1c-0.4,0-0.7-0.3-0.7-0.7s0.3-0.7,0.7-0.7h22.1c0.4,0,0.7,0.3,0.7,0.7S405.1,215,404.7,215z"/>
	<path class="st1" d="M203.9,81.3h-30.7c-0.4,0-0.7-0.3-0.7-0.7c0-0.4,0.3-0.7,0.7-0.7h30.7c0.4,0,0.7,0.3,0.7,0.7
		C204.6,81,204.3,81.3,203.9,81.3z"/>
	<path class="st2" d="M107.9,235h-5c-0.4,0-0.7-0.3-0.7-0.7s0.3-0.7,0.7-0.7h5c0.4,0,0.7,0.3,0.7,0.7S108.3,235,107.9,235z"/>
	<path class="st2" d="M93.4,235h-24c-0.4,0-0.7-0.3-0.7-0.7s0.3-0.7,0.7-0.7h24c0.4,0,0.7,0.3,0.7,0.7S93.8,235,93.4,235z"/>
	<path class="st2" d="M399.5,226.8h-33c-0.4,0-0.7-0.3-0.7-0.7c0-0.4,0.3-0.7,0.7-0.7h33c0.4,0,0.7,0.3,0.7,0.7
		C400.3,226.5,399.9,226.8,399.5,226.8z"/>
	<path class="st2" d="M251.7,226.8H234c-0.4,0-0.7-0.3-0.7-0.7c0-0.4,0.3-0.7,0.7-0.7h17.8c0.4,0,0.7,0.3,0.7,0.7
		C252.5,226.5,252.1,226.8,251.7,226.8z"/>
	<path class="st2" d="M231.9,234.1h-9.1c-0.4,0-0.7-0.3-0.7-0.7c0-0.4,0.3-0.7,0.7-0.7h9.1c0.4,0,0.7,0.3,0.7,0.7
		C232.6,233.7,232.3,234.1,231.9,234.1z"/>
	<path class="st1" d="M386.2,78.1h-5c-0.4,0-0.7-0.3-0.7-0.7c0-0.4,0.3-0.7,0.7-0.7h5c0.4,0,0.7,0.3,0.7,0.7
		C386.9,77.8,386.6,78.1,386.2,78.1z"/>
	<path class="st1" d="M371.8,78.1h-25.6c-0.4,0-0.7-0.3-0.7-0.7c0-0.4,0.3-0.7,0.7-0.7h25.6c0.4,0,0.7,0.3,0.7,0.7
		C372.5,77.8,372.2,78.1,371.8,78.1z"/>
	<path class="st2" d="M355.1,67.9h-26.4c-0.4,0-0.7-0.3-0.7-0.7c0-0.4,0.3-0.7,0.7-0.7h26.4c0.4,0,0.7,0.3,0.7,0.7
		C355.9,67.6,355.5,67.9,355.1,67.9z"/>
	<path class="st2" d="M119.1,226.8H91.9c-0.4,0-0.7-0.3-0.7-0.7c0-0.4,0.3-0.7,0.7-0.7h27.2c0.4,0,0.7,0.3,0.7,0.7
		C119.8,226.5,119.5,226.8,119.1,226.8z"/>
	<path class="st1" d="M395.9,173.4h-14.5c-0.4,0-0.7-0.3-0.7-0.7c0-0.4,0.3-0.7,0.7-0.7h14.5c0.4,0,0.7,0.3,0.7,0.7
		C396.6,173.1,396.3,173.4,395.9,173.4z"/>
	<path class="st1" d="M292.1,98.1h-19c-0.4,0-0.7-0.3-0.7-0.7c0-0.4,0.3-0.7,0.7-0.7h19c0.4,0,0.7,0.3,0.7,0.7
		C292.8,97.8,292.5,98.1,292.1,98.1z"/>
	<path class="st1" d="M178.4,133.5h-29.6c-0.4,0-0.7-0.3-0.7-0.7c0-0.4,0.3-0.7,0.7-0.7h29.6c0.4,0,0.7,0.3,0.7,0.7
		C179.2,133.2,178.8,133.5,178.4,133.5z"/>
	<path class="st1" d="M152,125.8h-17.2c-0.4,0-0.7-0.3-0.7-0.7c0-0.4,0.3-0.7,0.7-0.7H152c0.4,0,0.7,0.3,0.7,0.7
		C152.7,125.5,152.4,125.8,152,125.8z"/>
	<path class="st1" d="M323.4,270.4h-17.2c-0.4,0-0.7-0.3-0.7-0.7c0-0.4,0.3-0.7,0.7-0.7h17.2c0.4,0,0.7,0.3,0.7,0.7
		C324.1,270,323.8,270.4,323.4,270.4z"/>
	<path class="st1" d="M330.1,278.6h-7.9c-0.4,0-0.7-0.3-0.7-0.7c0-0.4,0.3-0.7,0.7-0.7h7.9c0.4,0,0.7,0.3,0.7,0.7
		C330.8,278.2,330.5,278.6,330.1,278.6z"/>
	<path class="st1" d="M61.8,284.5H44.6c-0.4,0-0.7-0.3-0.7-0.7c0-0.4,0.3-0.7,0.7-0.7h17.2c0.4,0,0.7,0.3,0.7,0.7
		C62.5,284.1,62.2,284.5,61.8,284.5z"/>
	<path class="st2" d="M109.4,78.9h-8.7c-0.4,0-0.7-0.3-0.7-0.7c0-0.4,0.3-0.7,0.7-0.7h8.7c0.4,0,0.7,0.3,0.7,0.7
		C110.1,78.6,109.8,78.9,109.4,78.9z"/>
	<path class="st1" d="M180.3,69.3h-2.7c-0.4,0-0.7-0.3-0.7-0.7c0-0.4,0.3-0.7,0.7-0.7h2.7c0.4,0,0.7,0.3,0.7,0.7
		C181,69,180.6,69.3,180.3,69.3z"/>
	<path class="st1" d="M172.4,69.3h-17.7c-0.4,0-0.7-0.3-0.7-0.7c0-0.4,0.3-0.7,0.7-0.7h17.7c0.4,0,0.7,0.3,0.7,0.7
		C173.1,69,172.8,69.3,172.4,69.3z"/>
	<path class="st2" d="M299.6,124.6c-0.4,0-0.7-0.3-0.7-0.7c0-2.8-2.2-5-5-5c-0.4,0-0.7-0.3-0.7-0.7c0-0.4,0.3-0.7,0.7-0.7
		c2.8,0,5-2.2,5-5c0-0.4,0.3-0.7,0.7-0.7c0.4,0,0.7,0.3,0.7,0.7c0,2.8,2.2,5,5,5c0.4,0,0.7,0.3,0.7,0.7c0,0.4-0.3,0.7-0.7,0.7
		c-2.8,0-5,2.2-5,5C300.3,124.3,300,124.6,299.6,124.6z M296.8,118.2c1.2,0.6,2.1,1.6,2.8,2.8c0.6-1.2,1.6-2.1,2.8-2.8
		c-1.2-0.6-2.1-1.6-2.8-2.8C299,116.6,298,117.6,296.8,118.2z"/>
	<path class="st2" d="M155.5,156.7c-0.4,0-0.7-0.3-0.7-0.7c0-2.8-2.2-5-5-5c-0.4,0-0.7-0.3-0.7-0.7s0.3-0.7,0.7-0.7c2.8,0,5-2.2,5-5
		c0-0.4,0.3-0.7,0.7-0.7c0.4,0,0.7,0.3,0.7,0.7c0,2.8,2.2,5,5,5c0.4,0,0.7,0.3,0.7,0.7s-0.3,0.7-0.7,0.7c-2.8,0-5,2.2-5,5
		C156.3,156.4,155.9,156.7,155.5,156.7z M152.8,150.3c1.2,0.6,2.1,1.6,2.8,2.8c0.6-1.2,1.6-2.1,2.8-2.8c-1.2-0.6-2.1-1.6-2.8-2.8
		C154.9,148.7,154,149.6,152.8,150.3z"/>
	<path class="st1" d="M241.1,51.5c-0.4,0-0.7-0.3-0.7-0.7v-2.1c0-0.4,0.3-0.7,0.7-0.7c0.4,0,0.7,0.3,0.7,0.7v2.1
		C241.9,51.1,241.5,51.5,241.1,51.5z"/>
	<path class="st1" d="M239.1,53.6h-2.1c-0.4,0-0.7-0.3-0.7-0.7s0.3-0.7,0.7-0.7h2.1c0.4,0,0.7,0.3,0.7,0.7S239.5,53.6,239.1,53.6z"
		/>
	<path class="st1" d="M241.1,57.8c-0.4,0-0.7-0.3-0.7-0.7v-2.1c0-0.4,0.3-0.7,0.7-0.7c0.4,0,0.7,0.3,0.7,0.7V57
		C241.9,57.4,241.5,57.8,241.1,57.8z"/>
	<path class="st1" d="M245.3,53.6h-2.1c-0.4,0-0.7-0.3-0.7-0.7s0.3-0.7,0.7-0.7h2.1c0.4,0,0.7,0.3,0.7,0.7S245.7,53.6,245.3,53.6z"
		/>
	<path class="st1" d="M52.9,112.8c-0.4,0-0.7-0.3-0.7-0.7V110c0-0.4,0.3-0.7,0.7-0.7c0.4,0,0.7,0.3,0.7,0.7v2.1
		C53.6,112.5,53.3,112.8,52.9,112.8z"/>
	<path class="st1" d="M50.8,114.9h-2.1c-0.4,0-0.7-0.3-0.7-0.7c0-0.4,0.3-0.7,0.7-0.7h2.1c0.4,0,0.7,0.3,0.7,0.7
		C51.5,114.6,51.2,114.9,50.8,114.9z"/>
	<path class="st1" d="M52.9,119.1c-0.4,0-0.7-0.3-0.7-0.7v-2.1c0-0.4,0.3-0.7,0.7-0.7c0.4,0,0.7,0.3,0.7,0.7v2.1
		C53.6,118.8,53.3,119.1,52.9,119.1z"/>
	<path class="st1" d="M57.1,114.9h-2.1c-0.4,0-0.7-0.3-0.7-0.7c0-0.4,0.3-0.7,0.7-0.7h2.1c0.4,0,0.7,0.3,0.7,0.7
		C57.8,114.6,57.5,114.9,57.1,114.9z"/>
	<path class="st1" d="M79.3,187.3c-0.4,0-0.7-0.3-0.7-0.7v-2.1c0-0.4,0.3-0.7,0.7-0.7c0.4,0,0.7,0.3,0.7,0.7v2.1
		C80,187,79.7,187.3,79.3,187.3z"/>
	<path class="st1" d="M77.2,189.4h-2.1c-0.4,0-0.7-0.3-0.7-0.7c0-0.4,0.3-0.7,0.7-0.7h2.1c0.4,0,0.7,0.3,0.7,0.7
		C77.9,189,77.6,189.4,77.2,189.4z"/>
	<path class="st1" d="M79.3,193.6c-0.4,0-0.7-0.3-0.7-0.7v-2.1c0-0.4,0.3-0.7,0.7-0.7c0.4,0,0.7,0.3,0.7,0.7v2.1
		C80,193.2,79.7,193.6,79.3,193.6z"/>
	<path class="st1" d="M83.5,189.4h-2.1c-0.4,0-0.7-0.3-0.7-0.7c0-0.4,0.3-0.7,0.7-0.7h2.1c0.4,0,0.7,0.3,0.7,0.7
		C84.2,189,83.9,189.4,83.5,189.4z"/>
	<path class="st1" d="M230.1,291c-0.4,0-0.7-0.3-0.7-0.7v-2.1c0-0.4,0.3-0.7,0.7-0.7c0.4,0,0.7,0.3,0.7,0.7v2.1
		C230.8,290.7,230.5,291,230.1,291z"/>
	<path class="st1" d="M228,293.1h-2.1c-0.4,0-0.7-0.3-0.7-0.7s0.3-0.7,0.7-0.7h2.1c0.4,0,0.7,0.3,0.7,0.7S228.4,293.1,228,293.1z"/>
	<path class="st1" d="M230.1,297.3c-0.4,0-0.7-0.3-0.7-0.7v-2.1c0-0.4,0.3-0.7,0.7-0.7c0.4,0,0.7,0.3,0.7,0.7v2.1
		C230.8,297,230.5,297.3,230.1,297.3z"/>
	<path class="st1" d="M234.3,293.1h-2.1c-0.4,0-0.7-0.3-0.7-0.7s0.3-0.7,0.7-0.7h2.1c0.4,0,0.7,0.3,0.7,0.7S234.7,293.1,234.3,293.1
		z"/>
	<path class="st1" d="M369.4,251c-0.4,0-0.7-0.3-0.7-0.7v-2.1c0-0.4,0.3-0.7,0.7-0.7s0.7,0.3,0.7,0.7v2.1
		C370.1,250.7,369.8,251,369.4,251z"/>
	<path class="st1" d="M367.3,253.1h-2.1c-0.4,0-0.7-0.3-0.7-0.7s0.3-0.7,0.7-0.7h2.1c0.4,0,0.7,0.3,0.7,0.7S367.7,253.1,367.3,253.1
		z"/>
	<path class="st1" d="M369.4,257.3c-0.4,0-0.7-0.3-0.7-0.7v-2.1c0-0.4,0.3-0.7,0.7-0.7s0.7,0.3,0.7,0.7v2.1
		C370.1,257,369.8,257.3,369.4,257.3z"/>
	<path class="st1" d="M373.6,253.1h-2.1c-0.4,0-0.7-0.3-0.7-0.7s0.3-0.7,0.7-0.7h2.1c0.4,0,0.7,0.3,0.7,0.7S374,253.1,373.6,253.1z"
		/>
	<path class="st1" d="M349.1,240.2c-1,0-1.9-0.4-2.6-1.1c-0.3-0.3-0.3-0.7,0-1c0.3-0.3,0.7-0.3,1,0c0.4,0.4,1,0.7,1.6,0.7
		c0,0,0,0,0,0c0.6,0,1.2-0.2,1.6-0.7c1.4-1.4,3.8-1.4,5.2,0c0.3,0.3,0.3,0.7,0,1c-0.3,0.3-0.7,0.3-1,0c-0.9-0.9-2.3-0.9-3.2,0
		C351,239.8,350.1,240.2,349.1,240.2L349.1,240.2z"/>
	<path class="st1" d="M83.5,262c-2.3,0-4.2-1.9-4.2-4.2c0-2.3,1.9-4.2,4.2-4.2c2.3,0,4.2,1.9,4.2,4.2C87.7,260.1,85.8,262,83.5,262z
		 M83.5,255c-1.5,0-2.8,1.2-2.8,2.8c0,1.5,1.2,2.8,2.8,2.8c1.5,0,2.8-1.2,2.8-2.8C86.3,256.3,85,255,83.5,255z"/>
	<path class="st2" d="M276.6,166.3c-0.2,0-0.4-0.1-0.5-0.2c-0.3-0.3-0.3-0.7,0-1l3.8-3.8l-3.8-3.8c-0.3-0.3-0.3-0.7,0-1l3.8-3.8
		l-3.8-3.8c-0.3-0.3-0.3-0.7,0-1l3.8-3.8l-3.8-3.8c-0.3-0.3-0.3-0.7,0-1l3.8-3.8l-3.8-3.8c-0.3-0.3-0.3-0.7,0-1l4.3-4.3
		c0.3-0.3,0.7-0.3,1,0c0.3,0.3,0.3,0.7,0,1l-3.8,3.8l3.8,3.8c0.3,0.3,0.3,0.7,0,1l-3.8,3.8l3.8,3.8c0.3,0.3,0.3,0.7,0,1l-3.8,3.8
		l3.8,3.8c0.3,0.3,0.3,0.7,0,1l-3.8,3.8l3.8,3.8c0.3,0.3,0.3,0.7,0,1l-4.3,4.3C276.9,166.2,276.8,166.3,276.6,166.3z"/>
	<path class="st1" d="M150.8,238.4c-0.2,0-0.4-0.1-0.5-0.2c-0.3-0.3-0.3-0.7,0-1l3.8-3.8l-3.8-3.8c-0.3-0.3-0.3-0.7,0-1l3.8-3.8
		l-3.8-3.8c-0.3-0.3-0.3-0.7,0-1l4.3-4.3c0.3-0.3,0.7-0.3,1,0c0.3,0.3,0.3,0.7,0,1l-3.8,3.8l3.8,3.8c0.3,0.3,0.3,0.7,0,1l-3.8,3.8
		l3.8,3.8c0.3,0.3,0.3,0.7,0,1l-4.3,4.3C151.1,238.3,151,238.4,150.8,238.4z"/>
</g>
<g>
	<g>
		<g>
			<path class="st0" d="M746.9,266h-8.4c-0.3,0-0.5-0.1-0.6-0.4l-4.2-7.2c-0.1-0.2-0.1-0.5,0-0.7l4.2-7.2c0.1-0.2,0.4-0.4,0.6-0.4
				h8.4c0.3,0,0.5,0.1,0.6,0.4l4.2,7.2c0.1,0.2,0.1,0.5,0,0.7l-4.2,7.2C747.3,265.9,747.1,266,746.9,266z M738.9,264.6h7.5l3.8-6.5
				l-3.8-6.5h-7.5l-3.8,6.5L738.9,264.6z"/>
			<path class="st0" d="M742.7,262.1c-2.2,0-4.1-1.8-4.1-4.1c0-2.2,1.8-4.1,4.1-4.1s4.1,1.8,4.1,4.1
				C746.7,260.3,744.9,262.1,742.7,262.1z M742.7,255.4c-1.5,0-2.6,1.2-2.6,2.6c0,1.5,1.2,2.6,2.6,2.6s2.6-1.2,2.6-2.6
				C745.3,256.6,744.1,255.4,742.7,255.4z"/>
		</g>
		<path class="st0" d="M677.7,67.9h-8.4c-0.3,0-0.5-0.1-0.6-0.4l-4.2-7.2c-0.1-0.2-0.1-0.5,0-0.7l4.2-7.2c0.1-0.2,0.4-0.4,0.6-0.4
			h8.4c0.3,0,0.5,0.1,0.6,0.4l4.2,7.2c0.1,0.2,0.1,0.5,0,0.7l-4.2,7.2C678.2,67.8,678,67.9,677.7,67.9z M669.8,66.5h7.5l3.8-6.5
			l-3.8-6.5h-7.5l-3.8,6.5L669.8,66.5z"/>
		<path class="st0" d="M673.6,64c-2.2,0-4.1-1.8-4.1-4.1c0-2.2,1.8-4.1,4.1-4.1s4.1,1.8,4.1,4.1C677.6,62.2,675.8,64,673.6,64z
			 M673.6,57.3c-1.5,0-2.6,1.2-2.6,2.6c0,1.5,1.2,2.6,2.6,2.6s2.6-1.2,2.6-2.6C676.2,58.5,675,57.3,673.6,57.3z"/>
	</g>
	<path class="st1" d="M436.4,152.8H428l-4.2,7.2l4.2,7.2h8.4l4.2-7.2L436.4,152.8z M432.2,163.4c-1.9,0-3.4-1.5-3.4-3.4
		c0-1.9,1.5-3.4,3.4-3.4c1.9,0,3.4,1.5,3.4,3.4C435.6,161.9,434.1,163.4,432.2,163.4z"/>
	<path class="st2" d="M500.1,125.7l0-4.3c-1.5,0-5.1-0.4-5.6-2.3v0c-0.2-0.6-0.5-1.2-0.7-1.8l0,0c-1-1.7,1.3-4.6,2.3-5.6l-3-3
		c-1,1-3.9,3.3-5.6,2.3v0c-0.6-0.3-1.2-0.5-1.8-0.7h0c-1.9-0.5-2.3-4.1-2.3-5.6h-4.3c0,1.5-0.4,5.1-2.3,5.6h0
		c-0.6,0.2-1.2,0.5-1.8,0.7h0c-1.7,1-4.6-1.3-5.6-2.3l-3,3c1,1,3.3,3.9,2.3,5.6c-0.3,0.6-0.5,1.2-0.7,1.8v0
		c-0.5,1.9-4.1,2.3-5.6,2.3l0,4.3c1.5,0,5.1,0.4,5.6,2.3v0c0.2,0.6,0.5,1.2,0.7,1.8l0,0c1,1.7-1.3,4.6-2.3,5.6l3,3
		c1-1,3.9-3.3,5.6-2.3l0,0c0.6,0.3,1.2,0.5,1.8,0.7h0c1.9,0.5,2.3,4.1,2.3,5.6l4.3,0c0-1.5,0.4-5.1,2.3-5.6h0
		c0.6-0.2,1.2-0.5,1.8-0.7l0,0c1.7-1,4.6,1.3,5.6,2.3l3-3c-1-1-3.3-3.9-2.3-5.6l0,0c0.3-0.6,0.5-1.2,0.7-1.8v0
		C495,126.1,498.7,125.7,500.1,125.7z M481.3,128.7c-2.8,0-5.1-2.3-5.1-5.1c0-2.8,2.3-5.1,5.1-5.1c2.8,0,5.1,2.3,5.1,5.1
		C486.4,126.4,484.1,128.7,481.3,128.7z"/>
	<g>
		<path class="st0" d="M522.9,134.6h-8.1c-0.4,0-0.7-0.3-0.7-0.7V98.4c0-0.4,0.3-0.7,0.7-0.7c0.4,0,0.7,0.3,0.7,0.7v34.8h6.7V98.4
			c0-0.4,0.3-0.7,0.7-0.7c0.4,0,0.7,0.3,0.7,0.7v35.5C523.6,134.3,523.3,134.6,522.9,134.6z"/>
		<path class="st0" d="M518.9,134.6c-0.4,0-0.7-0.3-0.7-0.7V98.4c0-0.4,0.3-0.7,0.7-0.7c0.4,0,0.7,0.3,0.7,0.7v35.5
			C519.6,134.3,519.3,134.6,518.9,134.6z"/>
		<path class="st0" d="M518.9,143.5c-0.3,0-0.5-0.2-0.7-0.4l-4.1-8.9c-0.2-0.4,0-0.8,0.4-1c0.4-0.2,0.8,0,1,0.4l3.4,7.5l3.4-7.5
			c0.2-0.4,0.6-0.5,1-0.4c0.4,0.2,0.5,0.6,0.4,1l-4.1,8.9C519.4,143.4,519.1,143.5,518.9,143.5z"/>
		<path class="st0" d="M521.1,138.6h-4.5c-0.4,0-0.7-0.3-0.7-0.7c0-0.4,0.3-0.7,0.7-0.7h4.5c0.4,0,0.7,0.3,0.7,0.7
			C521.8,138.3,521.5,138.6,521.1,138.6z"/>
		<path class="st0" d="M523.6,99.1h-9.6v-5.9c0-1.3,1-2.3,2.3-2.3h4.9c1.3,0,2.3,1,2.3,2.3V99.1z M515.5,97.7h6.7v-4.4
			c0-0.5-0.4-0.9-0.9-0.9h-4.9c-0.5,0-0.9,0.4-0.9,0.9V97.7z"/>
	</g>
	<g>
		<path class="st0" d="M639,113.5h-30c-0.4,0-0.7-0.3-0.7-0.7c0-0.4,0.3-0.7,0.7-0.7h29.3v-7.1h-29.3c-0.4,0-0.7-0.3-0.7-0.7
			c0-0.4,0.3-0.7,0.7-0.7h30c0.4,0,0.7,0.3,0.7,0.7v8.5C639.7,113.2,639.4,113.5,639,113.5z"/>
		<path class="st0" d="M586.7,113.5h-9.1c-1.3,0-2.4-1.1-2.4-2.4v-5.3c0-1.3,1.1-2.4,2.4-2.4h9.1c0.4,0,0.7,0.3,0.7,0.7
			c0,0.4-0.3,0.7-0.7,0.7h-9.1c-0.5,0-0.9,0.4-0.9,0.9v5.3c0,0.5,0.4,0.9,0.9,0.9h9.1c0.4,0,0.7,0.3,0.7,0.7
			C587.4,113.2,587.1,113.5,586.7,113.5z"/>
		<path class="st0" d="M610.9,110.2c-0.2,0-0.4-0.1-0.5-0.2l-2-2c-0.3-0.3-0.3-0.7,0-1c0.3-0.3,0.7-0.3,1,0l2,2c0.3,0.3,0.3,0.7,0,1
			C611.2,110.1,611.1,110.2,610.9,110.2z"/>
		<path class="st0" d="M615,110.2c-0.2,0-0.4-0.1-0.5-0.2l-2-2c-0.3-0.3-0.3-0.7,0-1c0.3-0.3,0.7-0.3,1,0l2,2c0.3,0.3,0.3,0.7,0,1
			C615.4,110.1,615.2,110.2,615,110.2z"/>
		<path class="st0" d="M619.5,110.2c-0.2,0-0.4-0.1-0.5-0.2l-2-2c-0.3-0.3-0.3-0.7,0-1c0.3-0.3,0.7-0.3,1,0l2,2c0.3,0.3,0.3,0.7,0,1
			C619.8,110.1,619.7,110.2,619.5,110.2z"/>
		<path class="st0" d="M641.2,84c-1.3-0.2-2.4,0.6-2.6,1.7c-0.2,1.3,0.8,2.4,2,2.7c4.2,1.1,7.5,5.8,7.5,9c0,4-5.8,5.1-9.2,5.1
			c-0.4,0-0.7,0.3-0.7,0.7v1c0,0.4,0.3,0.7,0.7,0.7s0.7-0.3,0.7-0.7V104c5-0.2,9.9-2.2,9.9-6.6c0-4.2-4.1-9.2-8.6-10.4
			c-0.5-0.1-1-0.6-1-1.1c0.1-0.5,0.7-0.6,1-0.6c8.5,1.1,13.6,10.7,13.6,15.5v8.5l-2,2c-0.1,0.1-0.2,0.3-0.2,0.5v3.9
			c0,0.7,0.3,1.9,1,2.9h-4.7c0.7-1,1-2.1,1-2.9c0-1.5-1.2-2.7-2.7-2.7h-7.4v-0.3c0-0.4-0.3-0.7-0.7-0.7s-0.7,0.3-0.7,0.7v1
			c0,0.4,0.3,0.7,0.7,0.7h8.1c0.7,0,1.3,0.6,1.3,1.3c0,0.6-0.5,2.2-1.4,2.7c-0.1,0.1-0.2,0.1-0.2,0.2c-0.2,0.1-0.4,0.4-0.4,0.6v9.6
			c0,0.4,0.3,0.7,0.7,0.7h7.8c0.4,0,0.7-0.3,0.7-0.7v-9.6c0,0,0-0.1,0-0.1c0.1-0.3-0.1-0.6-0.3-0.7c-0.9-0.6-1.4-2.1-1.4-2.7v-3.6
			l2-2c0.1-0.1,0.2-0.3,0.2-0.5v-8.8C656.1,95,650.1,85.2,641.2,84z M654.2,128.2h-6.4v-8.2h6.4V128.2z"/>
		<path class="st0" d="M582.5,113.5c-0.4,0-0.7-0.3-0.7-0.7v-8.5c0-0.4,0.3-0.7,0.7-0.7c0.4,0,0.7,0.3,0.7,0.7v8.5
			C583.3,113.2,582.9,113.5,582.5,113.5z"/>
	</g>
	<g>
		<path class="st0" d="M605.9,169.6c-0.4,0-0.7-0.3-0.7-0.7v-41.1h-15.6v41.1c0,0.4-0.3,0.7-0.7,0.7s-0.7-0.3-0.7-0.7v-41.8
			c0-0.4,0.3-0.7,0.7-0.7h17.1c0.4,0,0.7,0.3,0.7,0.7v41.8C606.6,169.3,606.3,169.6,605.9,169.6z"/>
		<circle class="st0" cx="602.9" cy="130" r="0.7"/>
		<path class="st0" d="M608.2,101.9v13.5c0,0.4,0.3,0.7,0.7,0.7c0.4,0,0.7-0.3,0.7-0.7v-13.5c0-1.9-1.6-3.5-3.5-3.5
			c-1.1,0-2.1,0.5-2.8,1.4c-0.6-0.8-1.6-1.4-2.8-1.4c-1.1,0-2.1,0.5-2.8,1.4c-0.6-0.8-1.6-1.4-2.8-1.4s-2.1,0.5-2.8,1.4
			c-0.6-0.8-1.6-1.4-2.8-1.4c-1.9,0-3.5,1.6-3.5,3.5v18.6c0,1.5,1,2.5,2.1,2.8v3.7c0,0.4,0.3,0.7,0.7,0.7s0.7-0.3,0.7-0.7v-4.3
			c0-0.4-0.3-0.7-0.7-0.7c-0.5,0-1.4-0.3-1.4-1.4v-18.6c0-1.1,0.9-2.1,2.1-2.1c1.1,0,2.1,0.9,2.1,2.1v2.2c0,0.4,0.3,0.7,0.7,0.7
			c0.4,0,0.7-0.3,0.7-0.7v-2.2c0-1.1,0.9-2.1,2.1-2.1c1.1,0,2.1,0.9,2.1,2.1v2.2c0,0.4,0.3,0.7,0.7,0.7s0.7-0.3,0.7-0.7v-2.2
			c0-1.1,0.9-2.1,2.1-2.1c1.1,0,2.1,0.9,2.1,2.1v2.2c0,0.4,0.3,0.7,0.7,0.7c0.4,0,0.7-0.3,0.7-0.7v-2.2c0-1.1,0.9-2.1,2.1-2.1
			C607.3,99.9,608.2,100.8,608.2,101.9z M612.6,112c-0.4,0-0.7,0.3-0.7,0.7v6c0,3.9-4.9,5.3-5.9,5.3c-0.4,0-0.7,0.3-0.7,0.7v2.3
			c0,0.4,0.3,0.7,0.7,0.7s0.7-0.3,0.7-0.7v-1.6c2.1-0.4,6.7-2.3,6.7-6.7v-6C613.3,112.4,613,112,612.6,112z"/>
	</g>
	<path class="st0" d="M653.9,133.9h-5.8c-0.4,0-0.7,0.3-0.7,0.7c0,0.4,0.3,0.7,0.7,0.7h2.2v7.5c0,0.4,0.3,0.7,0.7,0.7
		s0.7-0.3,0.7-0.7v-7.5h2.2c0.4,0,0.7-0.3,0.7-0.7C654.6,134.2,654.3,133.9,653.9,133.9z"/>
	<path class="st0" d="M657.3,137.3c-0.1,0-0.1,0-0.2,0c-0.4-0.1-0.6-0.5-0.5-0.9c0.2-0.6,0.3-1.2,0.3-1.8c0-0.6-0.1-1.1-0.2-1.6
		c-0.1-0.4,0.1-0.8,0.5-0.9c0.4-0.1,0.8,0.1,0.9,0.5c0.2,0.7,0.3,1.3,0.3,2c0,0.8-0.1,1.5-0.4,2.2
		C657.9,137.1,657.6,137.3,657.3,137.3z"/>
	<path class="st0" d="M644.7,137.3c-0.3,0-0.6-0.2-0.7-0.5c-0.2-0.7-0.4-1.5-0.4-2.2c0-0.7,0.1-1.4,0.3-2c0.1-0.4,0.5-0.6,0.9-0.5
		c0.4,0.1,0.6,0.5,0.5,0.9c-0.2,0.5-0.2,1.1-0.2,1.6c0,0.6,0.1,1.2,0.3,1.8c0.1,0.4-0.1,0.8-0.5,0.9
		C644.8,137.3,644.8,137.3,644.7,137.3z"/>
	<rect x="591.9" y="263.2" class="st2" width="15.8" height="16.3"/>
	<g>
		<path class="st0" d="M596.8,249C596.8,249,596.8,249,596.8,249c-2,0-3.6-1.6-3.6-3.6c0,0,0,0,0,0c0-2,1.6-3.6,3.6-3.6
			c2,0,3.6,1.6,3.6,3.6c0,1-0.4,1.9-1,2.5C598.7,248.6,597.8,249,596.8,249z M594.6,245.4c0,1.2,1,2.2,2.2,2.2c0,0,0,0,0,0
			c0.6,0,1.1-0.2,1.5-0.6c0.4-0.4,0.6-0.9,0.6-1.5c0-1.2-1-2.2-2.1-2.2C595.6,243.2,594.6,244.2,594.6,245.4z"/>
		<path class="st0" d="M596.8,243.2c-0.4,0-0.7-0.3-0.7-0.7l0-22.1c0-0.4,0.3-0.7,0.7-0.7c0.4,0,0.7,0.3,0.7,0.7l0,22.1
			C597.5,242.9,597.2,243.2,596.8,243.2z"/>
		<rect x="584.9" y="259.4" class="st0" width="23.8" height="1.4"/>
		<path class="st0" d="M588.9,277.1c-0.4,0-0.7-0.3-0.7-0.7v-16.3c0-0.4,0.3-0.7,0.7-0.7s0.7,0.3,0.7,0.7v16.3
			C589.6,276.8,589.3,277.1,588.9,277.1z"/>
		<path class="st0" d="M601.4,273.3c-0.4,0-0.7-0.3-0.7-0.7v-12.4c0-0.4,0.3-0.7,0.7-0.7c0.4,0,0.7,0.3,0.7,0.7v12.4
			C602.1,272.9,601.8,273.3,601.4,273.3z"/>
		<path class="st0" d="M604.7,277.1c-0.4,0-0.7-0.3-0.7-0.7v-16.3c0-0.4,0.3-0.7,0.7-0.7c0.4,0,0.7,0.3,0.7,0.7v16.3
			C605.4,276.8,605.1,277.1,604.7,277.1z"/>
		<path class="st0" d="M611.2,245.1C611.2,245.1,611.2,245.1,611.2,245.1l-13.8-25c-0.1-0.2-0.4-0.4-0.6-0.4c-0.3,0-0.5,0.1-0.6,0.4
			l-13.8,25c0,0,0,0,0,0c-0.1,0.3-0.1,0.6,0.1,0.8c4.1,4.1,5.7,7.9,5.7,13.7c0,0.4,0.3,0.7,0.7,0.7s0.7-0.3,0.7-0.7
			c0-6-1.7-10.2-5.7-14.4l12.9-23.4l12.9,23.4c-4,4.2-5.7,8.4-5.7,14.4c0,0.4,0.3,0.7,0.7,0.7c0.4,0,0.7-0.3,0.7-0.7
			c0-5.8,1.6-9.7,5.7-13.7C611.3,245.7,611.3,245.4,611.2,245.1z"/>
	</g>
	<g>
		<path class="st0" d="M599.2,218.2h-4.9c-0.4,0-0.7-0.3-0.7-0.7v-4.9c0-0.4,0.3-0.7,0.7-0.7h4.9c0.4,0,0.7,0.3,0.7,0.7v4.9
			C599.9,217.9,599.6,218.2,599.2,218.2z M595.1,216.7h3.4v-3.4h-3.4V216.7z"/>
		<path class="st0" d="M563,181.9h-4.9c-0.4,0-0.7-0.3-0.7-0.7v-4.9c0-0.4,0.3-0.7,0.7-0.7h4.9c0.4,0,0.7,0.3,0.7,0.7v4.9
			C563.7,181.6,563.4,181.9,563,181.9z M558.8,180.5h3.4v-3.4h-3.4V180.5z"/>
		<path class="st0" d="M635.5,181.9h-4.9c-0.4,0-0.7-0.3-0.7-0.7v-4.9c0-0.4,0.3-0.7,0.7-0.7h4.9c0.4,0,0.7,0.3,0.7,0.7v4.9
			C636.2,181.6,635.9,181.9,635.5,181.9z M631.3,180.5h3.4v-3.4h-3.4V180.5z"/>
		<path class="st0" d="M594.4,215.7C594.3,215.7,594.3,215.7,594.4,215.7c-18.5-1.2-33.3-15.9-34.5-34.3c0-0.4,0.3-0.7,0.7-0.8
			c0.4,0,0.7,0.3,0.8,0.7c1.2,17.7,15.4,31.9,33.1,33c0.4,0,0.7,0.4,0.7,0.8C595.1,215.4,594.7,215.7,594.4,215.7z"/>
		<path class="st0" d="M599.2,215.7c-0.4,0-0.7-0.3-0.7-0.7c0-0.4,0.3-0.7,0.7-0.8c17.6-1.2,31.8-15.4,33-33c0-0.4,0.4-0.7,0.8-0.7
			c0.4,0,0.7,0.4,0.7,0.8C632.4,199.6,617.6,214.4,599.2,215.7C599.3,215.7,599.2,215.7,599.2,215.7z"/>
	</g>
	<g>
		<path class="st0" d="M569.5,218.5c-1.9,0-3.5-1.6-3.5-3.5c0-1.9,1.6-3.5,3.5-3.5c1.9,0,3.5,1.6,3.5,3.5
			C573,217,571.4,218.5,569.5,218.5z M569.5,213c-1.1,0-2.1,0.9-2.1,2.1c0,1.1,0.9,2.1,2.1,2.1c1.1,0,2.1-0.9,2.1-2.1
			C571.5,213.9,570.6,213,569.5,213z"/>
		<path class="st0" d="M594.4,215.7h-22.1c-0.4,0-0.7-0.3-0.7-0.7c0-0.4,0.3-0.7,0.7-0.7h22.1c0.4,0,0.7,0.3,0.7,0.7
			C595.1,215.4,594.8,215.7,594.4,215.7z"/>
		<path class="st0" d="M624.1,218.5c-1.9,0-3.5-1.6-3.5-3.5c0-1.9,1.6-3.5,3.5-3.5c1.9,0,3.5,1.6,3.5,3.5
			C627.6,217,626,218.5,624.1,218.5z M624.1,213c-1.1,0-2.1,0.9-2.1,2.1c0,1.1,0.9,2.1,2.1,2.1c1.1,0,2.1-0.9,2.1-2.1
			C626.2,213.9,625.2,213,624.1,213z"/>
		<path class="st0" d="M621.3,215.7h-22.1c-0.4,0-0.7-0.3-0.7-0.7c0-0.4,0.3-0.7,0.7-0.7h22.1c0.4,0,0.7,0.3,0.7,0.7
			C622,215.4,621.7,215.7,621.3,215.7z"/>
	</g>
	<g>
		<path class="st0" d="M773.6,201.1c-0.1,0-0.2,0-0.4-0.1l-3.7-2.1c-0.2-0.1-0.4-0.4-0.4-0.6v-4.2c0-0.3,0.1-0.5,0.4-0.6l3.7-2.1
			c0.2-0.1,0.5-0.1,0.7,0l3.7,2.1c0.2,0.1,0.4,0.4,0.4,0.6v4.2c0,0.3-0.1,0.5-0.4,0.6L774,201C773.9,201.1,773.7,201.1,773.6,201.1z
			 M770.7,197.9l2.9,1.7l2.9-1.7v-3.4l-2.9-1.7l-2.9,1.7V197.9z"/>
		<path class="st0" d="M720.5,202.6H714c-0.4,0-0.7-0.3-0.7-0.7c0-0.4,0.3-0.7,0.7-0.7h6.5c2.2,0,4-1.8,4-4V183
			c0-0.4,0.3-0.7,0.7-0.7c0.4,0,0.7,0.3,0.7,0.7v14.1C725.9,200.1,723.5,202.6,720.5,202.6z"/>
		<path class="st0" d="M725.9,210.1c-5.3,0-10.3-3.1-12.6-7.9c-0.1-0.2-0.1-0.5,0-0.7c0.1-0.2,0.4-0.3,0.6-0.3h6.5c2.2,0,4-1.8,4-4
			V183c0-0.4,0.3-0.7,0.7-0.7c0.2,0,0.5,0,0.7,0c5.9,0,11.1,3.7,13.1,9.2h27c1.6-2.6,4.5-4.2,7.6-4.2c4.9,0,9,4,9,9c0,4.9-4,9-9,9
			c-3.1,0-6-1.6-7.6-4.2h-27C737,206.5,731.8,210.1,725.9,210.1z M715.2,202.6c2.2,3.7,6.3,6.1,10.7,6.1c5.5,0,10.2-3.5,11.9-8.7
			c0.1-0.3,0.4-0.5,0.7-0.5h27.9c0.3,0,0.5,0.1,0.7,0.4c1.3,2.4,3.8,3.9,6.6,3.9c4.1,0,7.5-3.4,7.5-7.5c0-4.1-3.4-7.5-7.5-7.5
			c-2.7,0-5.2,1.5-6.6,3.9c-0.1,0.3-0.4,0.4-0.7,0.4h-27.9c-0.3,0-0.6-0.2-0.7-0.5c-1.7-5.2-6.4-8.7-11.8-8.7v13.4
			c0,3-2.5,5.5-5.5,5.5H715.2z"/>
		<path class="st0" d="M714,191.2c-0.2,0-0.5-0.1-0.6-0.3c-0.1-0.2-0.1-0.5,0-0.7c2.2-4.6,6.8-7.7,11.9-7.9c0.4,0,0.7,0.3,0.8,0.7
			c0,0.4-0.3,0.7-0.7,0.8c-4.2,0.2-8,2.5-10.1,6.1l10.1,0l0,0c0.4,0,0.7,0.3,0.7,0.7c0,0.4-0.3,0.7-0.7,0.7L714,191.2L714,191.2z"/>
		<path class="st0" d="M729.4,205.2c-0.1,0-0.3,0-0.4-0.1c-0.2-0.1-0.3-0.4-0.3-0.6v-16.5c0-0.2,0.1-0.5,0.3-0.6
			c0.2-0.1,0.5-0.2,0.7-0.1c2.6,1.1,4.6,3.3,5.4,6c0,0.1,0,0.1,0,0.2v5.5c0,0.1,0,0.1,0,0.2c-0.9,2.7-2.8,4.9-5.4,6
			C729.6,205.2,729.5,205.2,729.4,205.2z M730.2,189.1v14.2c1.7-1,3-2.6,3.6-4.5v-5.3C733.1,191.7,731.8,190.1,730.2,189.1z"/>
		<path class="st0" d="M734.5,196.9h-5c-0.4,0-0.7-0.3-0.7-0.7c0-0.4,0.3-0.7,0.7-0.7h5c0.4,0,0.7,0.3,0.7,0.7
			C735.2,196.6,734.9,196.9,734.5,196.9z"/>
		<path class="st0" d="M733.8,201.2h-4.4c-0.4,0-0.7-0.3-0.7-0.7s0.3-0.7,0.7-0.7h4.4c0.4,0,0.7,0.3,0.7,0.7
			S734.2,201.2,733.8,201.2z"/>
		<path class="st0" d="M733.8,192.7h-4.4c-0.4,0-0.7-0.3-0.7-0.7s0.3-0.7,0.7-0.7h4.4c0.4,0,0.7,0.3,0.7,0.7
			S734.2,192.7,733.8,192.7z"/>
	</g>
	<path class="st0" d="M764.3,196.9h-23.1c-0.4,0-0.7-0.3-0.7-0.7c0-0.4,0.3-0.7,0.7-0.7h23.1c0.4,0,0.7,0.3,0.7,0.7
		C765,196.6,764.7,196.9,764.3,196.9z"/>
	<g>
		<path class="st0" d="M717.2,202.6h-6.6c-0.3,0-0.5-0.1-0.6-0.4l-3.3-5.7c-0.1-0.2-0.1-0.5,0-0.7l3.3-5.7c0.1-0.2,0.4-0.4,0.6-0.4
			h6.6c0.3,0,0.5,0.1,0.6,0.4l3.3,5.7c0.1,0.2,0.1,0.5,0,0.7l-3.3,5.7C717.7,202.5,717.4,202.6,717.2,202.6z M711,201.2h5.7l2.9-5
			l-2.9-5H711l-2.9,5L711,201.2z"/>
		<path class="st0" d="M713.7,197.1c-0.5,0-1-0.4-1-1c0-0.5,0.4-1,1-1c0.5,0,1,0.4,1,1C714.7,196.7,714.3,197.1,713.7,197.1z"/>
	</g>
	<g>
		<rect x="666.7" y="220.8" class="st2" width="70.9" height="11.9"/>
		<path class="st0" d="M669.9,224.6c-0.4,0-0.7-0.3-0.7-0.7v-3.1c0-0.4,0.3-0.7,0.7-0.7s0.7,0.3,0.7,0.7v3.1
			C670.7,224.3,670.3,224.6,669.9,224.6z"/>
		<path class="st0" d="M673.3,224.6c-0.4,0-0.7-0.3-0.7-0.7v-3.1c0-0.4,0.3-0.7,0.7-0.7s0.7,0.3,0.7,0.7v3.1
			C674.1,224.3,673.7,224.6,673.3,224.6z"/>
		<path class="st0" d="M676.7,224.6c-0.4,0-0.7-0.3-0.7-0.7v-3.1c0-0.4,0.3-0.7,0.7-0.7c0.4,0,0.7,0.3,0.7,0.7v3.1
			C677.5,224.3,677.1,224.6,676.7,224.6z"/>
		<path class="st0" d="M680.1,224.6c-0.4,0-0.7-0.3-0.7-0.7v-3.1c0-0.4,0.3-0.7,0.7-0.7s0.7,0.3,0.7,0.7v3.1
			C680.9,224.3,680.5,224.6,680.1,224.6z"/>
		<path class="st0" d="M683.5,224.6c-0.4,0-0.7-0.3-0.7-0.7v-3.1c0-0.4,0.3-0.7,0.7-0.7s0.7,0.3,0.7,0.7v3.1
			C684.2,224.3,683.9,224.6,683.5,224.6z"/>
		<path class="st0" d="M686.9,224.6c-0.4,0-0.7-0.3-0.7-0.7v-3.1c0-0.4,0.3-0.7,0.7-0.7s0.7,0.3,0.7,0.7v3.1
			C687.6,224.3,687.3,224.6,686.9,224.6z"/>
		<path class="st0" d="M690.3,224.6c-0.4,0-0.7-0.3-0.7-0.7v-3.1c0-0.4,0.3-0.7,0.7-0.7s0.7,0.3,0.7,0.7v3.1
			C691,224.3,690.7,224.6,690.3,224.6z"/>
		<path class="st0" d="M693.7,224.6c-0.4,0-0.7-0.3-0.7-0.7v-3.1c0-0.4,0.3-0.7,0.7-0.7c0.4,0,0.7,0.3,0.7,0.7v3.1
			C694.4,224.3,694.1,224.6,693.7,224.6z"/>
		<path class="st0" d="M697.1,224.6c-0.4,0-0.7-0.3-0.7-0.7v-3.1c0-0.4,0.3-0.7,0.7-0.7c0.4,0,0.7,0.3,0.7,0.7v3.1
			C697.8,224.3,697.5,224.6,697.1,224.6z"/>
		<path class="st0" d="M700.5,224.6c-0.4,0-0.7-0.3-0.7-0.7v-3.1c0-0.4,0.3-0.7,0.7-0.7c0.4,0,0.7,0.3,0.7,0.7v3.1
			C701.2,224.3,700.9,224.6,700.5,224.6z"/>
		<path class="st0" d="M703.9,224.6c-0.4,0-0.7-0.3-0.7-0.7v-3.1c0-0.4,0.3-0.7,0.7-0.7s0.7,0.3,0.7,0.7v3.1
			C704.6,224.3,704.3,224.6,703.9,224.6z"/>
		<path class="st0" d="M707.3,224.6c-0.4,0-0.7-0.3-0.7-0.7v-3.1c0-0.4,0.3-0.7,0.7-0.7c0.4,0,0.7,0.3,0.7,0.7v3.1
			C708,224.3,707.7,224.6,707.3,224.6z"/>
		<path class="st0" d="M710.7,224.6c-0.4,0-0.7-0.3-0.7-0.7v-3.1c0-0.4,0.3-0.7,0.7-0.7s0.7,0.3,0.7,0.7v3.1
			C711.4,224.3,711.1,224.6,710.7,224.6z"/>
		<path class="st0" d="M714.1,224.6c-0.4,0-0.7-0.3-0.7-0.7v-3.1c0-0.4,0.3-0.7,0.7-0.7c0.4,0,0.7,0.3,0.7,0.7v3.1
			C714.8,224.3,714.5,224.6,714.1,224.6z"/>
		<path class="st0" d="M717.5,224.6c-0.4,0-0.7-0.3-0.7-0.7v-3.1c0-0.4,0.3-0.7,0.7-0.7c0.4,0,0.7,0.3,0.7,0.7v3.1
			C718.2,224.3,717.9,224.6,717.5,224.6z"/>
		<path class="st0" d="M720.9,224.6c-0.4,0-0.7-0.3-0.7-0.7v-3.1c0-0.4,0.3-0.7,0.7-0.7c0.4,0,0.7,0.3,0.7,0.7v3.1
			C721.6,224.3,721.3,224.6,720.9,224.6z"/>
		<path class="st0" d="M724.3,224.6c-0.4,0-0.7-0.3-0.7-0.7v-3.1c0-0.4,0.3-0.7,0.7-0.7s0.7,0.3,0.7,0.7v3.1
			C725,224.3,724.7,224.6,724.3,224.6z"/>
	</g>
	<rect x="637.4" y="248" class="st1" width="59.7" height="7.7"/>
	<g>
		<path class="st0" d="M694.9,254.1h-20.6c-0.4,0-0.7-0.3-0.7-0.7v-7.7c0-0.2,0.1-0.4,0.2-0.5c0.1-0.1,0.3-0.2,0.5-0.2l0,0l20.6,0
			c0.4,0,0.7,0.3,0.7,0.7v7.7C695.6,253.8,695.3,254.1,694.9,254.1z M675,252.7h19.2v-6.3l-19.2,0V252.7z"/>
		<path class="st0" d="M674.3,254.1h-36.8c-0.4,0-0.7-0.3-0.7-0.7v-7.7c0-0.4,0.3-0.7,0.7-0.7h36.8c0.4,0,0.7,0.3,0.7,0.7v7.7
			C675,253.8,674.6,254.1,674.3,254.1z M638.2,252.7h35.4v-6.3h-35.4V252.7z"/>
		<path class="st0" d="M637.4,254.1c-0.1,0-0.2,0-0.2,0l-11.5-3.9c-0.3-0.1-0.5-0.4-0.5-0.7c0-0.3,0.2-0.6,0.5-0.7l11.5-3.9
			c0.4-0.1,0.8,0.1,0.9,0.5c0.1,0.4-0.1,0.8-0.5,0.9l-9.5,3.2l9.5,3.2c0.4,0.1,0.6,0.5,0.5,0.9C638,254,637.7,254.1,637.4,254.1z"/>
		<path class="st0" d="M653,254.1c-0.4,0-0.7-0.3-0.7-0.7v-7.7c0-0.4,0.3-0.7,0.7-0.7c0.4,0,0.7,0.3,0.7,0.7v7.7
			C653.8,253.8,653.4,254.1,653,254.1z"/>
		<path class="st0" d="M691.5,246.4c-0.2,0-0.4-0.1-0.6-0.3l-2.3-3.1h-16.7c-0.4,0-0.7-0.3-0.7-0.7s0.3-0.7,0.7-0.7H689
			c0.2,0,0.4,0.1,0.6,0.3l2.5,3.4c0.2,0.3,0.2,0.8-0.2,1C691.8,246.4,691.6,246.4,691.5,246.4z"/>
		<path class="st0" d="M640.8,254.1C640.8,254.1,640.8,254.1,640.8,254.1c-0.4,0-0.7-0.3-0.7-0.7l0-2c0-0.4,0.3-0.7,0.7-0.7
			c0,0,0,0,0,0c0.4,0,0.7,0.3,0.7,0.7l0,2C641.5,253.8,641.2,254.1,640.8,254.1z"/>
		<path class="st0" d="M644.9,254.1C644.9,254.1,644.9,254.1,644.9,254.1c-0.4,0-0.7-0.3-0.7-0.7l0-2c0-0.4,0.3-0.7,0.7-0.7
			c0,0,0,0,0,0c0.4,0,0.7,0.3,0.7,0.7l0,2C645.6,253.8,645.3,254.1,644.9,254.1z"/>
		<path class="st0" d="M649.1,254.1c-0.4,0-0.7-0.3-0.7-0.7v-2c0-0.4,0.3-0.7,0.7-0.7c0.4,0,0.7,0.3,0.7,0.7v2
			C649.8,253.8,649.5,254.1,649.1,254.1z"/>
		<path class="st0" d="M640.8,248.4C640.8,248.4,640.8,248.4,640.8,248.4c-0.4,0-0.7-0.3-0.7-0.7l0-2c0-0.4,0.3-0.7,0.7-0.7
			c0,0,0,0,0,0c0.4,0,0.7,0.3,0.7,0.7l0,2C641.5,248,641.2,248.4,640.8,248.4z"/>
		<path class="st0" d="M644.9,248.4c-0.4,0-0.7-0.3-0.7-0.7v-2c0-0.4,0.3-0.7,0.7-0.7c0.4,0,0.7,0.3,0.7,0.7v2
			C645.6,248,645.3,248.4,644.9,248.4z"/>
		<path class="st0" d="M649.1,248.4c-0.4,0-0.7-0.3-0.7-0.7v-2c0-0.4,0.3-0.7,0.7-0.7c0.4,0,0.7,0.3,0.7,0.7v2
			C649.8,248,649.5,248.4,649.1,248.4z"/>
		<path class="st0" d="M625.9,250.3h-3.4c-0.4,0-0.7-0.3-0.7-0.7c0-0.4,0.3-0.7,0.7-0.7h3.4c0.4,0,0.7,0.3,0.7,0.7
			C626.6,250,626.3,250.3,625.9,250.3z"/>
		<path class="st0" d="M694.9,253.1c-0.4,0-0.7-0.3-0.7-0.7c0-0.4,0.3-0.7,0.7-0.7l3.5,0v-4.1h-3.5c-0.4,0-0.7-0.3-0.7-0.7
			c0-0.4,0.3-0.7,0.7-0.7h4.2c0.4,0,0.7,0.3,0.7,0.7v5.5c0,0.4-0.3,0.7-0.7,0.7L694.9,253.1z"/>
	</g>
	<g>
		<path class="st0" d="M477.8,217h-12.7c-0.4,0-0.7-0.3-0.7-0.7v-13.2c0-0.4,0.3-0.7,0.7-0.7h12.7c0.4,0,0.7,0.3,0.7,0.7v13.2
			C478.6,216.7,478.2,217,477.8,217z M465.8,215.6h11.3v-11.8h-11.3V215.6z"/>
		<path class="st0" d="M465.1,215.6h-3.3c-0.4,0-0.7-0.3-0.7-0.7v-10.4c0-0.4,0.3-0.7,0.7-0.7h3.3c0.4,0,0.7,0.3,0.7,0.7v10.4
			C465.8,215.3,465.5,215.6,465.1,215.6z M462.5,214.2h1.9v-9h-1.9V214.2z"/>
		<path class="st0" d="M461.8,219.4h-6.7c-0.4,0-0.7-0.3-0.7-0.7v-18c0-0.4,0.3-0.7,0.7-0.7h6.7c0.4,0,0.7,0.3,0.7,0.7v18
			C462.5,219.1,462.2,219.4,461.8,219.4z M455.8,217.9h5.3v-16.5h-5.3V217.9z"/>
		<path class="st0" d="M461.8,204.7h-6.7c-0.4,0-0.7-0.3-0.7-0.7c0-0.4,0.3-0.7,0.7-0.7h6.7c0.4,0,0.7,0.3,0.7,0.7
			C462.5,204.3,462.2,204.7,461.8,204.7z"/>
		<path class="st0" d="M461.8,207.5h-6.7c-0.4,0-0.7-0.3-0.7-0.7c0-0.4,0.3-0.7,0.7-0.7h6.7c0.4,0,0.7,0.3,0.7,0.7
			C462.5,207.2,462.2,207.5,461.8,207.5z"/>
		<path class="st0" d="M461.8,210.4h-6.7c-0.4,0-0.7-0.3-0.7-0.7c0-0.4,0.3-0.7,0.7-0.7h6.7c0.4,0,0.7,0.3,0.7,0.7
			C462.5,210.1,462.2,210.4,461.8,210.4z"/>
		<path class="st0" d="M461.8,213.3h-6.7c-0.4,0-0.7-0.3-0.7-0.7c0-0.4,0.3-0.7,0.7-0.7h6.7c0.4,0,0.7,0.3,0.7,0.7
			C462.5,213,462.2,213.3,461.8,213.3z"/>
		<path class="st0" d="M461.8,216.1h-6.7c-0.4,0-0.7-0.3-0.7-0.7c0-0.4,0.3-0.7,0.7-0.7h6.7c0.4,0,0.7,0.3,0.7,0.7
			C462.5,215.8,462.2,216.1,461.8,216.1z"/>
		<path class="st0" d="M477.8,217c-0.2,0-0.4-0.1-0.5-0.2c-0.3-0.3-0.3-0.7,0-1l2.6-2.6v-7l-2.6-2.6c-0.3-0.3-0.3-0.7,0-1
			c0.3-0.3,0.7-0.3,1,0l2.8,2.8c0.1,0.1,0.2,0.3,0.2,0.5v7.6c0,0.2-0.1,0.4-0.2,0.5l-2.8,2.8C478.2,217,478,217,477.8,217z"/>
		<path class="st0" d="M484.1,212.6h-3.4c-0.4,0-0.7-0.3-0.7-0.7v-4.3c0-0.4,0.3-0.7,0.7-0.7h3.4c0.4,0,0.7,0.3,0.7,0.7v4.3
			C484.8,212.2,484.5,212.6,484.1,212.6z M481.4,211.1h2v-2.9h-2V211.1z"/>
		<path class="st0" d="M489.8,210.4h-5.7c-0.4,0-0.7-0.3-0.7-0.7c0-0.4,0.3-0.7,0.7-0.7h5.7c0.4,0,0.7,0.3,0.7,0.7
			C490.5,210.1,490.2,210.4,489.8,210.4z"/>
		<path class="st0" d="M449.9,222h-35.8c-4.8,0-8.7-5.5-8.7-12.3c0-6.8,3.9-12.3,8.7-12.3h35.8c0.4,0,0.7,0.3,0.7,0.7
			c0,0.4-0.3,0.7-0.7,0.7h-35.8c-4,0-7.3,4.9-7.3,10.9c0,6,3.3,10.9,7.3,10.9h35.8c0.4,0,0.7,0.3,0.7,0.7
			C450.6,221.7,450.3,222,449.9,222z"/>
		<path class="st0" d="M455.1,201.4c-0.1,0-0.2,0-0.3-0.1l-5.2-2.6c-0.4-0.2-0.5-0.6-0.3-1c0.2-0.4,0.6-0.5,1-0.3l5.2,2.6
			c0.4,0.2,0.5,0.6,0.3,1C455.6,201.3,455.3,201.4,455.1,201.4z"/>
		<path class="st0" d="M449.9,222c-0.3,0-0.5-0.1-0.6-0.4c-0.2-0.4,0-0.8,0.3-1l5.2-2.6c0.4-0.2,0.8,0,1,0.3c0.2,0.4,0,0.8-0.3,1
			l-5.2,2.6C450.1,222,450,222,449.9,222z"/>
		<path class="st0" d="M446.1,204c-1.5,0-2.8-0.9-3.5-2.2h-2.5c-0.4,0-0.7-0.3-0.7-0.7v-3c0-0.4,0.3-0.7,0.7-0.7s0.7,0.3,0.7,0.7
			v2.3h2.3c0.3,0,0.6,0.2,0.7,0.5c0.3,1,1.2,1.7,2.3,1.7c1.3,0,2.4-1.1,2.4-2.4v-2.1c0-0.4,0.3-0.7,0.7-0.7s0.7,0.3,0.7,0.7v2.1
			C449.9,202.3,448.2,204,446.1,204z"/>
		<path class="st0" d="M415.7,213.4c-0.9,0-1.6-0.7-1.6-1.6v-13.6c0-0.4-0.3-0.7-0.7-0.7c-0.4,0-0.7,0.3-0.7,0.7v13.6
			c0,1.7,1.4,3.1,3.1,3.1c0.9,0,1.6,0.7,1.6,1.6c0,0.9-0.7,1.6-1.6,1.6c-0.4,0-0.7,0.3-0.7,0.7v2.5c0,0.4,0.3,0.7,0.7,0.7
			c0.4,0,0.7-0.3,0.7-0.7v-1.9c1.3-0.3,2.3-1.5,2.3-3C418.7,214.7,417.4,213.4,415.7,213.4z"/>
		<path class="st2" d="M432.5,210.6h-10.1c-0.4,0-0.7-0.3-0.7-0.7c0-0.4,0.3-0.7,0.7-0.7h10.1c0.4,0,0.7,0.3,0.7,0.7
			C433.2,210.3,432.9,210.6,432.5,210.6z"/>
		<path class="st2" d="M426.4,207.7h-4c-0.4,0-0.7-0.3-0.7-0.7s0.3-0.7,0.7-0.7h4c0.4,0,0.7,0.3,0.7,0.7S426.8,207.7,426.4,207.7z"
			/>
		<path class="st0" d="M447.4,248.9l-3.5-3.5v-24.1c0-0.4-0.3-0.7-0.7-0.7c-0.4,0-0.7,0.3-0.7,0.7v24.4c0,0.2,0.1,0.4,0.2,0.5
			l2.5,2.5H435v-17.2c0-4.3-3.5-7.9-7.9-7.9h-3.6v-2.4c0-0.4-0.3-0.7-0.7-0.7s-0.7,0.3-0.7,0.7v3.1c0,0.4,0.3,0.7,0.7,0.7h4.3
			c3.5,0,6.4,2.9,6.4,6.4v17.9c0,0.4,0.3,0.7,0.7,0.7h12.7c0.3,0,0.6-0.2,0.7-0.4C447.7,249.4,447.6,249.1,447.4,248.9z"/>
		<path class="st0" d="M446.6,228.2h-3.4c-0.4,0-0.7-0.3-0.7-0.7s0.3-0.7,0.7-0.7h2.7v-5.4c0-0.4,0.3-0.7,0.7-0.7s0.7,0.3,0.7,0.7
			v6.2C447.3,227.8,447,228.2,446.6,228.2z"/>
		<path class="st0" d="M443.2,246.4h-4.7c-0.4,0-0.7-0.3-0.7-0.7c0-0.4,0.3-0.7,0.7-0.7h4.7c0.4,0,0.7,0.3,0.7,0.7
			C443.9,246.1,443.6,246.4,443.2,246.4z"/>
		<path class="st0" d="M436,225.5c-0.4,0-0.7-0.3-0.7-0.7v-3.5c0-0.4,0.3-0.7,0.7-0.7c0.4,0,0.7,0.3,0.7,0.7v3.5
			C436.7,225.2,436.4,225.5,436,225.5z"/>
		<path class="st0" d="M452.1,262.4h-15.6c-0.2,0-0.4-0.1-0.5-0.2l-2.2-2.2c-0.1-0.1-0.2-0.3-0.2-0.5v-10.1c0-0.4,0.3-0.7,0.7-0.7
			c0.4,0,0.7,0.3,0.7,0.7v9.8l1.8,1.8h14.6v-6.1l-5-5c-0.3-0.3-0.3-0.7,0-1c0.3-0.3,0.7-0.3,1,0l5.2,5.2c0.1,0.1,0.2,0.3,0.2,0.5
			v7.1C452.8,262.1,452.5,262.4,452.1,262.4z"/>
		<path class="st0" d="M437.4,256.3c-0.4,0-0.7-0.3-0.7-0.7V252c0-0.4,0.3-0.7,0.7-0.7c0.4,0,0.7,0.3,0.7,0.7v3.6
			C438.1,256,437.8,256.3,437.4,256.3z"/>
		<path class="st0" d="M440.5,256.3c-0.4,0-0.7-0.3-0.7-0.7V252c0-0.4,0.3-0.7,0.7-0.7c0.4,0,0.7,0.3,0.7,0.7v3.6
			C441.3,256,440.9,256.3,440.5,256.3z"/>
		<path class="st0" d="M443.7,254.7c-0.4,0-0.7-0.3-0.7-0.7v-2c0-0.4,0.3-0.7,0.7-0.7c0.4,0,0.7,0.3,0.7,0.7v2
			C444.4,254.4,444.1,254.7,443.7,254.7z"/>
	</g>
	<g>
		<path class="st0" d="M556.6,303.5h-78.4c-0.4,0-0.7-0.3-0.7-0.7v-30c0-0.4,0.3-0.7,0.7-0.7h78.4c0.4,0,0.7,0.3,0.7,0.7v30
			C557.3,303.2,557,303.5,556.6,303.5z M478.9,302.1h76.9v-28.6h-76.9V302.1z"/>
		<path class="st0" d="M483.5,282.2c-0.4,0-0.7-0.3-0.7-0.7v-3.7c0-0.4,0.3-0.7,0.7-0.7h3.7c0.4,0,0.7,0.3,0.7,0.7
			c0,0.4-0.3,0.7-0.7,0.7h-3v3C484.2,281.9,483.9,282.2,483.5,282.2z"/>
		<path class="st1" d="M492.6,282.2c-0.4,0-0.7-0.3-0.7-0.7v-3.7c0-0.4,0.3-0.7,0.7-0.7h3.7c0.4,0,0.7,0.3,0.7,0.7
			c0,0.4-0.3,0.7-0.7,0.7h-3v3C493.3,281.9,493,282.2,492.6,282.2z"/>
		<path class="st0" d="M501.6,282.2c-0.4,0-0.7-0.3-0.7-0.7v-3.7c0-0.4,0.3-0.7,0.7-0.7h3.7c0.4,0,0.7,0.3,0.7,0.7
			c0,0.4-0.3,0.7-0.7,0.7h-3v3C502.4,281.9,502,282.2,501.6,282.2z"/>
		<path class="st0" d="M510.7,282.2c-0.4,0-0.7-0.3-0.7-0.7v-3.7c0-0.4,0.3-0.7,0.7-0.7h3.7c0.4,0,0.7,0.3,0.7,0.7
			c0,0.4-0.3,0.7-0.7,0.7h-3v3C511.4,281.9,511.1,282.2,510.7,282.2z"/>
		<path class="st0" d="M519.8,282.2c-0.4,0-0.7-0.3-0.7-0.7v-3.7c0-0.4,0.3-0.7,0.7-0.7h3.7c0.4,0,0.7,0.3,0.7,0.7
			c0,0.4-0.3,0.7-0.7,0.7h-3v3C520.5,281.9,520.2,282.2,519.8,282.2z"/>
		<path class="st0" d="M528.9,282.2c-0.4,0-0.7-0.3-0.7-0.7v-3.7c0-0.4,0.3-0.7,0.7-0.7h3.7c0.4,0,0.7,0.3,0.7,0.7
			c0,0.4-0.3,0.7-0.7,0.7h-3v3C529.6,281.9,529.3,282.2,528.9,282.2z"/>
		<path class="st0" d="M538,282.2c-0.4,0-0.7-0.3-0.7-0.7v-3.7c0-0.4,0.3-0.7,0.7-0.7h3.7c0.4,0,0.7,0.3,0.7,0.7
			c0,0.4-0.3,0.7-0.7,0.7h-3v3C538.7,281.9,538.4,282.2,538,282.2z"/>
		<path class="st0" d="M547,282.2c-0.4,0-0.7-0.3-0.7-0.7v-3.7c0-0.4,0.3-0.7,0.7-0.7h3.7c0.4,0,0.7,0.3,0.7,0.7
			c0,0.4-0.3,0.7-0.7,0.7h-3v3C547.8,281.9,547.4,282.2,547,282.2z"/>
		<path class="st0" d="M483.5,290.8c-0.4,0-0.7-0.3-0.7-0.7v-3.7c0-0.4,0.3-0.7,0.7-0.7h3.7c0.4,0,0.7,0.3,0.7,0.7
			c0,0.4-0.3,0.7-0.7,0.7h-3v3C484.2,290.5,483.9,290.8,483.5,290.8z"/>
		<path class="st0" d="M492.6,290.8c-0.4,0-0.7-0.3-0.7-0.7v-3.7c0-0.4,0.3-0.7,0.7-0.7h3.7c0.4,0,0.7,0.3,0.7,0.7
			c0,0.4-0.3,0.7-0.7,0.7h-3v3C493.3,290.5,493,290.8,492.6,290.8z"/>
		<path class="st0" d="M501.6,290.8c-0.4,0-0.7-0.3-0.7-0.7v-3.7c0-0.4,0.3-0.7,0.7-0.7h3.7c0.4,0,0.7,0.3,0.7,0.7
			c0,0.4-0.3,0.7-0.7,0.7h-3v3C502.4,290.5,502,290.8,501.6,290.8z"/>
		<path class="st0" d="M510.7,290.8c-0.4,0-0.7-0.3-0.7-0.7v-3.7c0-0.4,0.3-0.7,0.7-0.7h3.7c0.4,0,0.7,0.3,0.7,0.7
			c0,0.4-0.3,0.7-0.7,0.7h-3v3C511.4,290.5,511.1,290.8,510.7,290.8z"/>
		<path class="st0" d="M519.8,290.8c-0.4,0-0.7-0.3-0.7-0.7v-3.7c0-0.4,0.3-0.7,0.7-0.7h3.7c0.4,0,0.7,0.3,0.7,0.7
			c0,0.4-0.3,0.7-0.7,0.7h-3v3C520.5,290.5,520.2,290.8,519.8,290.8z"/>
		<path class="st0" d="M528.9,290.8c-0.4,0-0.7-0.3-0.7-0.7v-3.7c0-0.4,0.3-0.7,0.7-0.7h3.7c0.4,0,0.7,0.3,0.7,0.7
			c0,0.4-0.3,0.7-0.7,0.7h-3v3C529.6,290.5,529.3,290.8,528.9,290.8z"/>
		<path class="st1" d="M538,290.8c-0.4,0-0.7-0.3-0.7-0.7v-3.7c0-0.4,0.3-0.7,0.7-0.7h3.7c0.4,0,0.7,0.3,0.7,0.7
			c0,0.4-0.3,0.7-0.7,0.7h-3v3C538.7,290.5,538.4,290.8,538,290.8z"/>
		<path class="st0" d="M547,290.8c-0.4,0-0.7-0.3-0.7-0.7v-3.7c0-0.4,0.3-0.7,0.7-0.7h3.7c0.4,0,0.7,0.3,0.7,0.7
			c0,0.4-0.3,0.7-0.7,0.7h-3v3C547.8,290.5,547.4,290.8,547,290.8z"/>
		<path class="st0" d="M483.5,299.5c-0.4,0-0.7-0.3-0.7-0.7v-3.7c0-0.4,0.3-0.7,0.7-0.7h3.7c0.4,0,0.7,0.3,0.7,0.7
			c0,0.4-0.3,0.7-0.7,0.7h-3v3C484.2,299.2,483.9,299.5,483.5,299.5z"/>
		<path class="st0" d="M492.6,299.5c-0.4,0-0.7-0.3-0.7-0.7v-3.7c0-0.4,0.3-0.7,0.7-0.7h3.7c0.4,0,0.7,0.3,0.7,0.7
			c0,0.4-0.3,0.7-0.7,0.7h-3v3C493.3,299.2,493,299.5,492.6,299.5z"/>
		<path class="st0" d="M501.6,299.5c-0.4,0-0.7-0.3-0.7-0.7v-3.7c0-0.4,0.3-0.7,0.7-0.7h30.9c0.4,0,0.7,0.3,0.7,0.7
			c0,0.4-0.3,0.7-0.7,0.7h-30.2v3C502.4,299.2,502,299.5,501.6,299.5z"/>
		<path class="st0" d="M538,299.5c-0.4,0-0.7-0.3-0.7-0.7v-3.7c0-0.4,0.3-0.7,0.7-0.7h3.7c0.4,0,0.7,0.3,0.7,0.7
			c0,0.4-0.3,0.7-0.7,0.7h-3v3C538.7,299.2,538.4,299.5,538,299.5z"/>
		<path class="st0" d="M547,299.5c-0.4,0-0.7-0.3-0.7-0.7v-3.7c0-0.4,0.3-0.7,0.7-0.7h3.7c0.4,0,0.7,0.3,0.7,0.7
			c0,0.4-0.3,0.7-0.7,0.7h-3v3C547.8,299.2,547.4,299.5,547,299.5z"/>
	</g>
	<path class="st0" d="M535.2,210c-0.4,0-0.7,0.3-0.7,0.7l0,28.6c0,1-0.4,1.9-1.1,2.6c-0.7,0.7-1.6,1.1-2.6,1.1
		c-2.1,0-3.7-1.7-3.7-3.7c0-2.9-2.3-5.2-5.2-5.2c-2.9,0-5.2,2.3-5.2,5.2v33.4c0,0.4,0.3,0.7,0.7,0.7c0.4,0,0.7-0.3,0.7-0.7v-33.4
		c0-2.1,1.7-3.7,3.7-3.7c2.1,0,3.7,1.7,3.7,3.7c0,2.9,2.3,5.2,5.2,5.2c1.4,0,2.7-0.5,3.7-1.5c1-1,1.5-2.3,1.5-3.7l0-28.6
		C536,210.4,535.6,210,535.2,210z"/>
	<path class="st0" d="M535.2,207.2c-2,0-3.6,1.6-3.6,3.6c0,0.4,0.3,0.7,0.7,0.7s0.7-0.3,0.7-0.7c0-1.2,1-2.1,2.1-2.1
		c1.2,0,2.1,1,2.1,2.1c0,0.4,0.3,0.7,0.7,0.7s0.7-0.3,0.7-0.7C538.8,208.8,537.2,207.2,535.2,207.2z"/>
	<g>
		<path class="st2" d="M710.1,80.5c0,4.4,3.7,10,3.7,14.7c0,2.9-0.7,4.2-0.7,5.9h7c0-1.8-0.7-3-0.7-5.9c0-4.6,3.7-10.3,3.7-14.7
			c0-3.6-2.9-6.5-6.5-6.5C713,74,710.1,76.9,710.1,80.5z"/>
		<path class="st0" d="M718.2,132.2h-3.1c-0.3,0-0.6-0.3-0.7-0.6l-1.4-7.9c0-0.2,0-0.4,0.2-0.6c0.1-0.2,0.3-0.3,0.6-0.3h5.9
			c0.2,0,0.4,0.1,0.6,0.3c0.1,0.2,0.2,0.4,0.2,0.6l-1.4,7.9C718.8,132,718.5,132.2,718.2,132.2z M715.7,130.8h1.9l1.1-6.4h-4.2
			L715.7,130.8z"/>
		<path class="st0" d="M716.6,124.4c-0.4,0-0.7-0.3-0.7-0.7v-22.6c0-0.4,0.3-0.7,0.7-0.7s0.7,0.3,0.7,0.7v22.6
			C717.3,124.1,717,124.4,716.6,124.4z"/>
		<path class="st0" d="M720.1,101.8h-7c-0.4,0-0.7-0.3-0.7-0.7c0-0.8,0.1-1.6,0.3-2.3c0.2-0.9,0.4-2,0.4-3.6c0-2.2-0.9-4.8-1.8-7.3
			c-0.9-2.5-1.9-5.1-1.9-7.4c0-4,3.2-7.2,7.2-7.2c4,0,7.2,3.2,7.2,7.2c0,2.3-0.9,4.9-1.9,7.4c-0.9,2.5-1.8,5.1-1.8,7.3
			c0,1.6,0.2,2.7,0.4,3.6c0.2,0.8,0.3,1.5,0.3,2.3C720.9,101.5,720.5,101.8,720.1,101.8z M713.9,100.4h5.5c0-0.4-0.1-0.9-0.2-1.3
			c-0.2-1-0.4-2.2-0.4-3.9c0-2.5,1-5.2,1.9-7.8c0.9-2.5,1.8-4.9,1.8-6.9c0-3.2-2.6-5.8-5.8-5.8c-3.2,0-5.8,2.6-5.8,5.8
			c0,2,0.9,4.4,1.8,6.9c0.9,2.6,1.9,5.3,1.9,7.8c0,1.7-0.2,2.9-0.4,3.9C714,99.5,713.9,99.9,713.9,100.4z"/>
		<path class="st0" d="M715.7,79.4c0-0.5,0.4-1,1-1c0.5,0,1,0.4,1,1c0,0.5-0.4,1-1,1C716.1,80.3,715.7,79.9,715.7,79.4z"/>
		<path class="st0" d="M715.7,83.1c0-0.5,0.4-1,1-1c0.5,0,1,0.4,1,1c0,0.5-0.4,1-1,1C716.1,84.1,715.7,83.7,715.7,83.1z"/>
		<path class="st0" d="M715.7,86.9c0-0.5,0.4-1,1-1c0.5,0,1,0.4,1,1c0,0.5-0.4,1-1,1C716.1,87.9,715.7,87.4,715.7,86.9z"/>
		<path class="st0" d="M719.7,98.5h-6.1c-0.4,0-0.7-0.3-0.7-0.7c0-0.4,0.3-0.7,0.7-0.7h6.1c0.4,0,0.7,0.3,0.7,0.7
			C720.4,98.2,720.1,98.5,719.7,98.5z"/>
	</g>
	<g>
		<path class="st0" d="M722.7,144h-12.1c-0.4,0-0.7-0.3-0.7-0.7v-6c0-0.4,0.3-0.7,0.7-0.7h12.1c0.4,0,0.7,0.3,0.7,0.7v6
			C723.4,143.7,723.1,144,722.7,144z M711.3,142.5H722V138h-10.7V142.5z"/>
		<path class="st0" d="M716.6,144c-0.4,0-0.7-0.3-0.7-0.7v-6c0-0.4,0.3-0.7,0.7-0.7s0.7,0.3,0.7,0.7v6
			C717.3,143.7,717,144,716.6,144z"/>
		<path class="st0" d="M719.4,138h-5.5c-0.4,0-0.7-0.3-0.7-0.7v-2.9c0-0.4,0.3-0.7,0.7-0.7h5.5c0.4,0,0.7,0.3,0.7,0.7v2.9
			C720.1,137.7,719.8,138,719.4,138z M714.6,136.6h4.1v-1.4h-4.1V136.6z"/>
	</g>
	<g>
		<path class="st0" d="M774.8,120.1h-7.6c-0.4,0-0.7-0.3-0.7-0.7v-7.6c0-0.4,0.3-0.7,0.7-0.7h7.6c0.4,0,0.7,0.3,0.7,0.7v7.6
			C775.5,119.8,775.2,120.1,774.8,120.1z M767.9,118.7h6.2v-6.2h-6.2V118.7z"/>
		<rect x="770.3" y="122.1" class="st0" width="1.4" height="1.8"/>
		<rect x="770.3" y="126.2" class="st0" width="1.4" height="1.8"/>
		<rect x="770.3" y="130.2" class="st0" width="1.4" height="1.8"/>
		<rect x="770.3" y="134.3" class="st0" width="1.4" height="1.8"/>
		<rect x="770.3" y="138.4" class="st0" width="1.4" height="1.8"/>
		<rect x="770.3" y="142.5" class="st0" width="1.4" height="1.8"/>
		<rect x="770.3" y="146.5" class="st0" width="1.4" height="1.8"/>
		<rect x="770.3" y="150.6" class="st0" width="1.4" height="1.8"/>
		<rect x="770.3" y="154.7" class="st0" width="1.4" height="1.8"/>
		<rect x="770.3" y="158.8" class="st0" width="1.4" height="1.8"/>
		<rect x="770.3" y="162.8" class="st0" width="1.4" height="1.8"/>
		<rect x="762.7" y="114.9" class="st0" width="1.8" height="1.4"/>
		<rect x="758.6" y="114.9" class="st0" width="1.8" height="1.4"/>
		<rect x="754.5" y="114.9" class="st0" width="1.8" height="1.4"/>
		<rect x="750.5" y="114.9" class="st0" width="1.8" height="1.4"/>
		<rect x="746.4" y="114.9" class="st0" width="1.8" height="1.4"/>
		<rect x="742.3" y="114.9" class="st0" width="1.8" height="1.4"/>
		<rect x="738.2" y="114.9" class="st0" width="1.8" height="1.4"/>
		<rect x="734.2" y="114.9" class="st0" width="1.8" height="1.4"/>
		<rect x="730.1" y="114.9" class="st0" width="1.8" height="1.4"/>
		<rect x="726" y="114.9" class="st0" width="1.8" height="1.4"/>
		<rect x="721.9" y="114.9" class="st0" width="1.8" height="1.4"/>
	</g>
	<g>
		<path class="st0" d="M785.3,129.9c0,0-0.1,0-0.1,0c-0.2,0-0.4-0.2-0.5-0.4l-6.6-13.6c-0.1-0.3-0.1-0.6,0.1-0.8
			c0.2-0.2,0.5-0.3,0.8-0.1l13.6,6.6c0.2,0.1,0.4,0.3,0.4,0.5c0,0.2,0,0.5-0.2,0.6l-7,7C785.6,129.9,785.4,129.9,785.3,129.9z
			 M780.2,117.1l5.3,10.8l5.6-5.6L780.2,117.1z"/>
		<path class="st0" d="M794.7,132.4c-0.2,0-0.4-0.1-0.5-0.2l-6-6c-0.3-0.3-0.3-0.7,0-1c0.3-0.3,0.7-0.3,1,0l6,6c0.3,0.3,0.3,0.7,0,1
			C795.1,132.3,794.9,132.4,794.7,132.4z"/>
	</g>
	<g>
		<path class="st1" d="M778.2,110.3c-0.4,0-0.7-0.3-0.7-0.7V106c0-0.4,0.3-0.7,0.7-0.7c0.4,0,0.7,0.3,0.7,0.7v3.6
			C778.9,110,778.6,110.3,778.2,110.3z"/>
		<path class="st1" d="M782.7,112.2c-0.2,0-0.4-0.1-0.5-0.2c-0.3-0.3-0.3-0.7,0-1l2.6-2.6c0.3-0.3,0.7-0.3,1,0c0.3,0.3,0.3,0.7,0,1
			l-2.6,2.6C783.1,112.1,782.9,112.2,782.7,112.2z"/>
		<path class="st1" d="M778.2,126.8c-0.4,0-0.7-0.3-0.7-0.7v-3.6c0-0.4,0.3-0.7,0.7-0.7c0.4,0,0.7,0.3,0.7,0.7v3.6
			C778.9,126.5,778.6,126.8,778.2,126.8z"/>
	</g>
	<g>
		<path class="st0" d="M555.9,76.2h-12.7c-0.4,0-0.7,0.3-0.7,0.7v6.4c0,0.4,0.3,0.7,0.7,0.7h12.7c0.4,0,0.7-0.3,0.7-0.7v-6.4
			C556.6,76.5,556.3,76.2,555.9,76.2z M552,77.6v5H547v-5H552z M543.9,77.6h1.6v5h-1.6V77.6z M555.1,82.6h-1.6v-5h1.6V82.6z"/>
		<path class="st0" d="M551.9,101h-4.9c-0.4,0-0.7-0.3-0.7-0.7v-17c0-0.4,0.3-0.7,0.7-0.7h4.9c0.4,0,0.7,0.3,0.7,0.7v17
			C552.7,100.6,552.3,101,551.9,101z M547.8,99.5h3.4V84h-3.4V99.5z"/>
		<path class="st0" d="M547.1,101c-0.2,0-0.4-0.1-0.5-0.2c-0.3-0.3-0.3-0.7,0-1l4.9-4.9c0.3-0.3,0.7-0.3,1,0c0.3,0.3,0.3,0.7,0,1
			l-4.9,4.9C547.5,100.9,547.3,101,547.1,101z"/>
		<path class="st0" d="M547.1,96.6c-0.2,0-0.4-0.1-0.5-0.2c-0.3-0.3-0.3-0.7,0-1l4.9-4.9c0.3-0.3,0.7-0.3,1,0c0.3,0.3,0.3,0.7,0,1
			l-4.9,4.9C547.5,96.6,547.3,96.6,547.1,96.6z"/>
		<path class="st0" d="M547.1,92.3c-0.2,0-0.4-0.1-0.5-0.2c-0.3-0.3-0.3-0.7,0-1l4.9-4.9c0.3-0.3,0.7-0.3,1,0c0.3,0.3,0.3,0.7,0,1
			l-4.9,4.9C547.5,92.3,547.3,92.3,547.1,92.3z"/>
		<path class="st0" d="M547.1,88c-0.2,0-0.4-0.1-0.5-0.2c-0.3-0.3-0.3-0.7,0-1l4-4c0.3-0.3,0.7-0.3,1,0c0.3,0.3,0.3,0.7,0,1l-4,4
			C547.5,87.9,547.3,88,547.1,88z"/>
	</g>
	<path class="st1" d="M488.4,88.1c-1.4,0-2.7-0.5-3.7-1.5c-1.5-1.5-3.9-1.5-5.4,0c-2,2-5.4,2-7.4,0c-0.3-0.3-0.3-0.7,0-1
		c0.3-0.3,0.7-0.3,1,0c1.5,1.5,3.9,1.5,5.4,0c2-2,5.4-2,7.4,0c0.7,0.7,1.7,1.1,2.7,1.1c1,0,2-0.4,2.7-1.1c1-1,2.3-1.5,3.7-1.5
		c1.4,0,2.7,0.5,3.7,1.5c0.3,0.3,0.3,0.7,0,1c-0.3,0.3-0.7,0.3-1,0c-0.7-0.7-1.7-1.1-2.7-1.1c-1,0-2,0.4-2.7,1.1
		C491.1,87.5,489.8,88.1,488.4,88.1z"/>
	<path class="st1" d="M436.4,276.1c-1.4,0-2.7-0.5-3.7-1.5c-1.5-1.5-3.9-1.5-5.4,0c-2,2-5.4,2-7.4,0c-0.3-0.3-0.3-0.7,0-1
		c0.3-0.3,0.7-0.3,1,0c1.5,1.5,3.9,1.5,5.4,0c2-2,5.4-2,7.4,0c0.7,0.7,1.7,1.1,2.7,1.1c1,0,2-0.4,2.7-1.1c2-2,5.4-2,7.4,0
		c0.3,0.3,0.3,0.7,0,1c-0.3,0.3-0.7,0.3-1,0c-1.5-1.5-3.9-1.5-5.4,0C439.1,275.6,437.8,276.1,436.4,276.1z"/>
	<path class="st2" d="M445.2,130.7h-5c-0.4,0-0.7-0.3-0.7-0.7s0.3-0.7,0.7-0.7h5c0.4,0,0.7,0.3,0.7,0.7S445.6,130.7,445.2,130.7z"/>
	<path class="st2" d="M430.8,130.7h-16.3c-0.4,0-0.7-0.3-0.7-0.7s0.3-0.7,0.7-0.7h16.3c0.4,0,0.7,0.3,0.7,0.7
		S431.2,130.7,430.8,130.7z"/>
	<path class="st2" d="M819.1,215h-5c-0.4,0-0.7-0.3-0.7-0.7c0-0.4,0.3-0.7,0.7-0.7h5c0.4,0,0.7,0.3,0.7,0.7
		C819.8,214.6,819.5,215,819.1,215z"/>
	<path class="st2" d="M804.6,215h-22.1c-0.4,0-0.7-0.3-0.7-0.7c0-0.4,0.3-0.7,0.7-0.7h22.1c0.4,0,0.7,0.3,0.7,0.7
		C805.3,214.6,805,215,804.6,215z"/>
	<path class="st1" d="M603.8,81.2h-30.7c-0.4,0-0.7-0.3-0.7-0.7c0-0.4,0.3-0.7,0.7-0.7h30.7c0.4,0,0.7,0.3,0.7,0.7
		C604.6,80.9,604.2,81.2,603.8,81.2z"/>
	<path class="st2" d="M507.9,234.9h-5c-0.4,0-0.7-0.3-0.7-0.7c0-0.4,0.3-0.7,0.7-0.7h5c0.4,0,0.7,0.3,0.7,0.7
		C508.6,234.6,508.3,234.9,507.9,234.9z"/>
	<path class="st2" d="M493.4,234.9h-24c-0.4,0-0.7-0.3-0.7-0.7c0-0.4,0.3-0.7,0.7-0.7h24c0.4,0,0.7,0.3,0.7,0.7
		C494.1,234.6,493.8,234.9,493.4,234.9z"/>
	<path class="st2" d="M799.5,226.8h-33c-0.4,0-0.7-0.3-0.7-0.7s0.3-0.7,0.7-0.7h33c0.4,0,0.7,0.3,0.7,0.7S799.9,226.8,799.5,226.8z"
		/>
	<path class="st2" d="M651.7,226.8h-17.8c-0.4,0-0.7-0.3-0.7-0.7s0.3-0.7,0.7-0.7h17.8c0.4,0,0.7,0.3,0.7,0.7
		S652.1,226.8,651.7,226.8z"/>
	<path class="st2" d="M631.9,234h-9.1c-0.4,0-0.7-0.3-0.7-0.7c0-0.4,0.3-0.7,0.7-0.7h9.1c0.4,0,0.7,0.3,0.7,0.7
		C632.6,233.7,632.3,234,631.9,234z"/>
	<path class="st1" d="M786.2,78.1h-5c-0.4,0-0.7-0.3-0.7-0.7c0-0.4,0.3-0.7,0.7-0.7h5c0.4,0,0.7,0.3,0.7,0.7
		C786.9,77.8,786.6,78.1,786.2,78.1z"/>
	<path class="st1" d="M771.7,78.1h-25.6c-0.4,0-0.7-0.3-0.7-0.7c0-0.4,0.3-0.7,0.7-0.7h25.6c0.4,0,0.7,0.3,0.7,0.7
		C772.4,77.8,772.1,78.1,771.7,78.1z"/>
	<path class="st2" d="M755.1,67.8h-26.4c-0.4,0-0.7-0.3-0.7-0.7c0-0.4,0.3-0.7,0.7-0.7h26.4c0.4,0,0.7,0.3,0.7,0.7
		C755.8,67.5,755.5,67.8,755.1,67.8z"/>
	<path class="st2" d="M519,226.8h-27.2c-0.4,0-0.7-0.3-0.7-0.7s0.3-0.7,0.7-0.7H519c0.4,0,0.7,0.3,0.7,0.7S519.4,226.8,519,226.8z"
		/>
	<path class="st1" d="M795.8,173.4h-14.5c-0.4,0-0.7-0.3-0.7-0.7c0-0.4,0.3-0.7,0.7-0.7h14.5c0.4,0,0.7,0.3,0.7,0.7
		C796.5,173.1,796.2,173.4,795.8,173.4z"/>
	<path class="st1" d="M692.1,98.1h-19c-0.4,0-0.7-0.3-0.7-0.7c0-0.4,0.3-0.7,0.7-0.7h19c0.4,0,0.7,0.3,0.7,0.7
		C692.8,97.8,692.5,98.1,692.1,98.1z"/>
	<path class="st1" d="M578.4,133.5h-29.6c-0.4,0-0.7-0.3-0.7-0.7c0-0.4,0.3-0.7,0.7-0.7h29.6c0.4,0,0.7,0.3,0.7,0.7
		C579.1,133.1,578.8,133.5,578.4,133.5z"/>
	<path class="st1" d="M551.9,125.8h-17.2c-0.4,0-0.7-0.3-0.7-0.7c0-0.4,0.3-0.7,0.7-0.7h17.2c0.4,0,0.7,0.3,0.7,0.7
		C552.7,125.5,552.3,125.8,551.9,125.8z"/>
	<path class="st1" d="M723.3,270.3h-17.2c-0.4,0-0.7-0.3-0.7-0.7c0-0.4,0.3-0.7,0.7-0.7h17.2c0.4,0,0.7,0.3,0.7,0.7
		C724.1,270,723.7,270.3,723.3,270.3z"/>
	<path class="st1" d="M730.1,278.5h-7.9c-0.4,0-0.7-0.3-0.7-0.7c0-0.4,0.3-0.7,0.7-0.7h7.9c0.4,0,0.7,0.3,0.7,0.7
		C730.8,278.2,730.5,278.5,730.1,278.5z"/>
	<path class="st1" d="M461.7,284.4h-17.2c-0.4,0-0.7-0.3-0.7-0.7c0-0.4,0.3-0.7,0.7-0.7h17.2c0.4,0,0.7,0.3,0.7,0.7
		C462.5,284.1,462.1,284.4,461.7,284.4z"/>
	<path class="st2" d="M509.4,78.8h-8.7c-0.4,0-0.7-0.3-0.7-0.7c0-0.4,0.3-0.7,0.7-0.7h8.7c0.4,0,0.7,0.3,0.7,0.7
		C510.1,78.5,509.8,78.8,509.4,78.8z"/>
	<path class="st1" d="M580.2,69.2h-2.7c-0.4,0-0.7-0.3-0.7-0.7c0-0.4,0.3-0.7,0.7-0.7h2.7c0.4,0,0.7,0.3,0.7,0.7
		C580.9,68.9,580.6,69.2,580.2,69.2z"/>
	<path class="st1" d="M572.4,69.2h-17.7c-0.4,0-0.7-0.3-0.7-0.7c0-0.4,0.3-0.7,0.7-0.7h17.7c0.4,0,0.7,0.3,0.7,0.7
		C573.1,68.9,572.8,69.2,572.4,69.2z"/>
	<path class="st2" d="M699.5,124.6c-0.4,0-0.7-0.3-0.7-0.7c0-2.8-2.2-5-5-5c-0.4,0-0.7-0.3-0.7-0.7c0-0.4,0.3-0.7,0.7-0.7
		c2.8,0,5-2.2,5-5c0-0.4,0.3-0.7,0.7-0.7c0.4,0,0.7,0.3,0.7,0.7c0,2.8,2.2,5,5,5c0.4,0,0.7,0.3,0.7,0.7c0,0.4-0.3,0.7-0.7,0.7
		c-2.8,0-5,2.2-5,5C700.3,124.2,699.9,124.6,699.5,124.6z M696.8,118.1c1.2,0.6,2.1,1.6,2.8,2.8c0.6-1.2,1.6-2.1,2.8-2.8
		c-1.2-0.6-2.1-1.6-2.8-2.8C698.9,116.5,698,117.5,696.8,118.1z"/>
	<path class="st2" d="M555.5,156.6c-0.4,0-0.7-0.3-0.7-0.7c0-2.8-2.2-5-5-5c-0.4,0-0.7-0.3-0.7-0.7c0-0.4,0.3-0.7,0.7-0.7
		c2.8,0,5-2.2,5-5c0-0.4,0.3-0.7,0.7-0.7c0.4,0,0.7,0.3,0.7,0.7c0,2.8,2.2,5,5,5c0.4,0,0.7,0.3,0.7,0.7c0,0.4-0.3,0.7-0.7,0.7
		c-2.8,0-5,2.2-5,5C556.2,156.3,555.9,156.6,555.5,156.6z M552.7,150.2c1.2,0.6,2.1,1.6,2.8,2.8c0.6-1.2,1.6-2.1,2.8-2.8
		c-1.2-0.6-2.1-1.6-2.8-2.8C554.9,148.6,553.9,149.6,552.7,150.2z"/>
	<path class="st1" d="M641.1,51.4c-0.4,0-0.7-0.3-0.7-0.7v-2.1c0-0.4,0.3-0.7,0.7-0.7c0.4,0,0.7,0.3,0.7,0.7v2.1
		C641.8,51.1,641.5,51.4,641.1,51.4z"/>
	<path class="st1" d="M639,53.5h-2.1c-0.4,0-0.7-0.3-0.7-0.7s0.3-0.7,0.7-0.7h2.1c0.4,0,0.7,0.3,0.7,0.7S639.4,53.5,639,53.5z"/>
	<path class="st1" d="M641.1,57.7c-0.4,0-0.7-0.3-0.7-0.7v-2.1c0-0.4,0.3-0.7,0.7-0.7c0.4,0,0.7,0.3,0.7,0.7V57
		C641.8,57.4,641.5,57.7,641.1,57.7z"/>
	<path class="st1" d="M645.3,53.5h-2.1c-0.4,0-0.7-0.3-0.7-0.7s0.3-0.7,0.7-0.7h2.1c0.4,0,0.7,0.3,0.7,0.7S645.7,53.5,645.3,53.5z"
		/>
	<path class="st1" d="M452.8,112.8c-0.4,0-0.7-0.3-0.7-0.7v-2.1c0-0.4,0.3-0.7,0.7-0.7c0.4,0,0.7,0.3,0.7,0.7v2.1
		C453.5,112.4,453.2,112.8,452.8,112.8z"/>
	<path class="st1" d="M450.7,114.9h-2.1c-0.4,0-0.7-0.3-0.7-0.7c0-0.4,0.3-0.7,0.7-0.7h2.1c0.4,0,0.7,0.3,0.7,0.7
		C451.5,114.5,451.1,114.9,450.7,114.9z"/>
	<path class="st1" d="M452.8,119.1c-0.4,0-0.7-0.3-0.7-0.7v-2.1c0-0.4,0.3-0.7,0.7-0.7c0.4,0,0.7,0.3,0.7,0.7v2.1
		C453.5,118.7,453.2,119.1,452.8,119.1z"/>
	<path class="st1" d="M457,114.9h-2.1c-0.4,0-0.7-0.3-0.7-0.7c0-0.4,0.3-0.7,0.7-0.7h2.1c0.4,0,0.7,0.3,0.7,0.7
		C457.7,114.5,457.4,114.9,457,114.9z"/>
	<path class="st1" d="M479.2,187.2c-0.4,0-0.7-0.3-0.7-0.7v-2.1c0-0.4,0.3-0.7,0.7-0.7c0.4,0,0.7,0.3,0.7,0.7v2.1
		C480,186.9,479.6,187.2,479.2,187.2z"/>
	<path class="st1" d="M477.2,189.3H475c-0.4,0-0.7-0.3-0.7-0.7c0-0.4,0.3-0.7,0.7-0.7h2.1c0.4,0,0.7,0.3,0.7,0.7
		C477.9,189,477.6,189.3,477.2,189.3z"/>
	<path class="st1" d="M479.2,193.5c-0.4,0-0.7-0.3-0.7-0.7v-2.1c0-0.4,0.3-0.7,0.7-0.7c0.4,0,0.7,0.3,0.7,0.7v2.1
		C480,193.2,479.6,193.5,479.2,193.5z"/>
	<path class="st1" d="M483.4,189.3h-2.1c-0.4,0-0.7-0.3-0.7-0.7c0-0.4,0.3-0.7,0.7-0.7h2.1c0.4,0,0.7,0.3,0.7,0.7
		C484.2,189,483.8,189.3,483.4,189.3z"/>
	<path class="st1" d="M630.1,291c-0.4,0-0.7-0.3-0.7-0.7v-2.1c0-0.4,0.3-0.7,0.7-0.7c0.4,0,0.7,0.3,0.7,0.7v2.1
		C630.8,290.6,630.5,291,630.1,291z"/>
	<path class="st1" d="M628,293.1h-2.1c-0.4,0-0.7-0.3-0.7-0.7c0-0.4,0.3-0.7,0.7-0.7h2.1c0.4,0,0.7,0.3,0.7,0.7
		C628.7,292.7,628.4,293.1,628,293.1z"/>
	<path class="st1" d="M630.1,297.3c-0.4,0-0.7-0.3-0.7-0.7v-2.1c0-0.4,0.3-0.7,0.7-0.7c0.4,0,0.7,0.3,0.7,0.7v2.1
		C630.8,296.9,630.5,297.3,630.1,297.3z"/>
	<path class="st1" d="M634.3,293.1h-2.1c-0.4,0-0.7-0.3-0.7-0.7c0-0.4,0.3-0.7,0.7-0.7h2.1c0.4,0,0.7,0.3,0.7,0.7
		C635,292.7,634.7,293.1,634.3,293.1z"/>
	<path class="st1" d="M769.4,250.9c-0.4,0-0.7-0.3-0.7-0.7v-2.1c0-0.4,0.3-0.7,0.7-0.7s0.7,0.3,0.7,0.7v2.1
		C770.1,250.6,769.8,250.9,769.4,250.9z"/>
	<path class="st1" d="M767.3,253h-2.1c-0.4,0-0.7-0.3-0.7-0.7c0-0.4,0.3-0.7,0.7-0.7h2.1c0.4,0,0.7,0.3,0.7,0.7
		C768,252.7,767.7,253,767.3,253z"/>
	<path class="st1" d="M769.4,257.2c-0.4,0-0.7-0.3-0.7-0.7v-2.1c0-0.4,0.3-0.7,0.7-0.7s0.7,0.3,0.7,0.7v2.1
		C770.1,256.9,769.8,257.2,769.4,257.2z"/>
	<path class="st1" d="M773.6,253h-2.1c-0.4,0-0.7-0.3-0.7-0.7c0-0.4,0.3-0.7,0.7-0.7h2.1c0.4,0,0.7,0.3,0.7,0.7
		C774.3,252.7,774,253,773.6,253z"/>
	<path class="st1" d="M749,240.2c-1,0-1.9-0.4-2.6-1.1c-0.3-0.3-0.3-0.7,0-1c0.3-0.3,0.7-0.3,1,0c0.4,0.4,1,0.7,1.6,0.7c0,0,0,0,0,0
		c0.6,0,1.2-0.2,1.6-0.7c1.4-1.4,3.8-1.4,5.2,0c0.3,0.3,0.3,0.7,0,1c-0.3,0.3-0.7,0.3-1,0c-0.9-0.9-2.3-0.9-3.2,0
		C750.9,239.8,750,240.2,749,240.2L749,240.2z"/>
	<path class="st1" d="M483.4,262c-2.3,0-4.2-1.9-4.2-4.2c0-2.3,1.9-4.2,4.2-4.2c2.3,0,4.2,1.9,4.2,4.2
		C487.7,260.1,485.8,262,483.4,262z M483.4,255c-1.5,0-2.8,1.2-2.8,2.8c0,1.5,1.2,2.8,2.8,2.8c1.5,0,2.8-1.2,2.8-2.8
		C486.2,256.2,485,255,483.4,255z"/>
	<path class="st2" d="M676.5,166.2c-0.2,0-0.4-0.1-0.5-0.2c-0.3-0.3-0.3-0.7,0-1l3.8-3.8l-3.8-3.8c-0.3-0.3-0.3-0.7,0-1l3.8-3.8
		l-3.8-3.8c-0.3-0.3-0.3-0.7,0-1l3.8-3.8l-3.8-3.8c-0.3-0.3-0.3-0.7,0-1l3.8-3.8l-3.8-3.8c-0.3-0.3-0.3-0.7,0-1l4.3-4.3
		c0.3-0.3,0.7-0.3,1,0c0.3,0.3,0.3,0.7,0,1l-3.8,3.8l3.8,3.8c0.3,0.3,0.3,0.7,0,1l-3.8,3.8l3.8,3.8c0.3,0.3,0.3,0.7,0,1l-3.8,3.8
		l3.8,3.8c0.3,0.3,0.3,0.7,0,1l-3.8,3.8l3.8,3.8c0.3,0.3,0.3,0.7,0,1L677,166C676.9,166.2,676.7,166.2,676.5,166.2z"/>
	<path class="st1" d="M550.7,238.3c-0.2,0-0.4-0.1-0.5-0.2c-0.3-0.3-0.3-0.7,0-1l3.8-3.8l-3.8-3.8c-0.3-0.3-0.3-0.7,0-1l3.8-3.8
		l-3.8-3.8c-0.3-0.3-0.3-0.7,0-1l4.3-4.3c0.3-0.3,0.7-0.3,1,0c0.3,0.3,0.3,0.7,0,1l-3.8,3.8l3.8,3.8c0.3,0.3,0.3,0.7,0,1l-3.8,3.8
		l3.8,3.8c0.3,0.3,0.3,0.7,0,1l-4.3,4.3C551.1,238.2,550.9,238.3,550.7,238.3z"/>
</g>
</svg>
