<?xml version="1.0" encoding="utf-8"?>
<!-- Generator: Adobe Illustrator 23.0.4, SVG Export Plug-In . SVG Version: 6.00 Build 0)  -->
<svg version="1.1" id="Capa_1" xmlns="http://www.w3.org/2000/svg" xmlns:xlink="http://www.w3.org/1999/xlink" x="0px" y="0px"
	 viewBox="0 0 823.4 352" style="enable-background:new 0 0 823.4 352;" xml:space="preserve">
<style type="text/css">
	.st0{fill:#ff6600;stroke:#010101;stroke-miterlimit:10;}
	.st1{fill:#ff6600;}
	.st2{fill:none;stroke:#010101;stroke-miterlimit:10;}
	.st3{clip-path:url(#SVGID_2_);fill:#ff6600;stroke:#010101;stroke-miterlimit:10;}
	.st4{clip-path:url(#SVGID_2_);}
</style>
<g>
	<line class="st0" x1="389.9" y1="281.7" x2="483.4" y2="282.4"/>
	<line class="st0" x1="387.8" y1="292.5" x2="481.3" y2="293.2"/>
	<path class="st0" d="M325.9,289.5l-0.4-0.7c-1.4-2.6-3.5-4.7-6.1-6.1l-1-0.6l0.7-0.3c2.7-1.4,5-3.5,6.4-6.2l0.5-0.8l0.6,1
		c1.4,2.5,3.4,4.5,5.9,5.8l1,0.6l-1.1,0.6c-2.4,1.3-4.4,3.2-5.7,5.6L325.9,289.5z"/>
	<path class="st0" d="M787.3,279.7l-0.4-0.7c-1.4-2.6-3.5-4.7-6.1-6.1l-1-0.6l0.7-0.3c2.7-1.4,5-3.5,6.4-6.2l0.5-0.8l0.6,1
		c1.4,2.5,3.4,4.5,5.9,5.8l1,0.6l-1.1,0.6c-2.4,1.3-4.4,3.2-5.7,5.6L787.3,279.7z"/>
	<path class="st0" d="M651.3,188.9l-0.4-0.7c-1.4-2.6-3.5-4.7-6.1-6.1l-1-0.6l0.7-0.3c2.7-1.4,5-3.5,6.4-6.2l0.5-0.8l0.6,1
		c1.4,2.5,3.4,4.5,5.9,5.8l1,0.6l-1.1,0.6c-2.4,1.3-4.4,3.2-5.7,5.6L651.3,188.9z"/>
	<polygon class="st0" points="242.3,150.4 235.5,152.1 233.1,158.5 229.4,152.7 222.4,152.4 226.9,147.1 225.1,140.5 231.5,143.1 
		237.3,139.3 236.8,146.2 	"/>
	<polygon class="st0" points="247.4,273.8 242.6,268.9 235.7,270 239,264 235.8,257.9 242.7,259.1 247.6,254.2 248.5,261 
		254.7,264.1 248.5,267.1 	"/>
	<polygon class="st0" points="557.4,283.1 550.7,284.7 548.2,291.1 544.5,285.3 537.6,285 542,279.8 540.2,273.2 546.7,275.8 
		552.5,272 552,278.8 	"/>
	<g>
		<g>
			<path class="st0" d="M804.3,233.9c0,4.6-3.8,8.4-8.5,8.4s-8.5-3.7-8.5-8.4c0-4.6,3.8-8.4,8.5-8.4S804.3,229.3,804.3,233.9z"/>
		</g>
	</g>
	<g>
		<g>
			<path class="st0" d="M593.1,146.2c0,4.6-3.8,8.4-8.5,8.4c-4.7,0-8.5-3.7-8.5-8.4c0-4.6,3.8-8.4,8.5-8.4
				C589.3,137.8,593.1,141.6,593.1,146.2z"/>
		</g>
	</g>
	<g>
		<g>
			<ellipse class="st0" cx="279.8" cy="160.1" rx="12.8" ry="12.5"/>
		</g>
	</g>
	<ellipse class="st0" cx="625.3" cy="291.4" rx="7.8" ry="7.6"/>
	<ellipse class="st0" cx="609.7" cy="172.4" rx="7.8" ry="7.6"/>
	<ellipse class="st0" cx="509.1" cy="282.4" rx="7.8" ry="7.6"/>
	<ellipse class="st0" cx="120.7" cy="257.3" rx="7.8" ry="7.6"/>
	<ellipse class="st0" cx="650.9" cy="142.3" rx="10" ry="9.8"/>
	<g>
		<line class="st0" x1="162.3" y1="149.4" x2="174.4" y2="137.5"/>
		<line class="st0" x1="174.4" y1="175.9" x2="162.3" y2="164"/>
		<g>
			<ellipse class="st0" cx="177.4" cy="134.3" rx="7.4" ry="7.3"/>
			<ellipse class="st0" cx="177.4" cy="179.6" rx="7.4" ry="7.3"/>
		</g>
		<line class="st0" x1="164.5" y1="157.3" x2="183.6" y2="157.3"/>
		<ellipse class="st0" cx="190.2" cy="157.3" rx="7.4" ry="7.3"/>
		<ellipse class="st0" cx="156.9" cy="156.6" rx="9.6" ry="9.4"/>
	</g>
	<g>
		<g>
			<rect x="747.8" y="184.5" class="st0" width="10.7" height="55.3"/>
			<line class="st0" x1="730.1" y1="240.1" x2="776.9" y2="240.1"/>
			<rect x="689.4" y="136.5" class="st0" width="129.1" height="72"/>
			<g>
				<line class="st0" x1="701.8" y1="130.8" x2="728.7" y2="130.8"/>
				<g>
					<line class="st0" x1="713.8" y1="130.8" x2="713.8" y2="144"/>
					<path class="st0" d="M725.1,150h-21.2c-1.6,0-2.9-1.3-2.9-2.9v-2.7c0-1.6,1.3-2.9,2.9-2.9h21.2c1.6,0,2.9,1.3,2.9,2.9v2.7
						C728,148.7,726.7,150,725.1,150z"/>
				</g>
			</g>
			<g>
				<line class="st0" x1="779" y1="130.8" x2="806.7" y2="130.8"/>
				<g>
					<line class="st0" x1="792.5" y1="130.8" x2="792.5" y2="144"/>
					<path class="st0" d="M803.1,150h-21.2c-1.6,0-2.9-1.3-2.9-2.9v-2.7c0-1.6,1.3-2.9,2.9-2.9h21.2c1.6,0,2.9,1.3,2.9,2.9v2.7
						C806,148.7,804.7,150,803.1,150z"/>
				</g>
			</g>
			<line class="st0" x1="689.7" y1="208.1" x2="818.7" y2="208.1"/>
			<line class="st0" x1="689.7" y1="214.4" x2="818.7" y2="214.4"/>
			<line class="st0" x1="796" y1="208.1" x2="796" y2="212.3"/>
			<line class="st0" x1="707.4" y1="208.1" x2="707.4" y2="212.3"/>
		</g>
		<g>
			<ellipse class="st0" cx="727.8" cy="177.7" rx="21.1" ry="20.7"/>
			<g>
				<path class="st0" d="M723.4,187.2l-1.4-4.7h-7.3l-1.4,4.7h-4.6l7-19.7h5.2l7.1,19.7H723.4z M720.9,179c-1.3-4.2-2.1-6.6-2.3-7.2
					c-0.2-0.6-0.3-1-0.4-1.3c-0.3,1.1-1.2,4-2.6,8.5H720.9z"/>
				<path class="st0" d="M747,177.2c0,3.2-0.9,5.7-2.8,7.4c-1.9,1.7-4.6,2.6-8.1,2.6h-5.6v-19.6h6.3c3.3,0,5.8,0.8,7.6,2.5
					C746.1,171.8,747,174.1,747,177.2z M742.6,177.3c0-4.2-1.9-6.3-5.7-6.3h-2.3v12.8h1.8C740.6,183.7,742.6,181.6,742.6,177.3z"/>
			</g>
		</g>
		<ellipse class="st0" cx="762.4" cy="162.8" rx="9.8" ry="9.6"/>
		<ellipse class="st0" cx="776.8" cy="177.9" rx="12.9" ry="12.7"/>
	</g>
	<path class="st0" d="M752.7,245.1v2.3c0,43.6-36,79-80.4,79h-16.9c-44.4,0-80.4-35.4-80.4-79v-38.3c0-24.2-20-43.9-44.7-43.9h-82.5
		"/>
	<g>
		<g>
			<g>
				<g>
					<polygon class="st0" points="684.1,215.5 632,244.6 620.9,225.4 673,196.3 670.9,210.2 					"/>
					<g>
						<path class="st0" d="M639.7,231.2c0.6,1.1,0.7,2.1,0.3,3.2c-0.4,1-1.3,1.9-2.7,2.7c-1.4,0.8-2.6,1.2-3.7,1.3l-1.1-1.8
							c0.7-0.1,1.4-0.2,2.1-0.4c0.7-0.2,1.3-0.5,1.9-0.8c0.8-0.4,1.3-0.9,1.5-1.4c0.2-0.5,0.2-1-0.1-1.5c-0.3-0.4-0.7-0.7-1.2-0.8
							c-0.5-0.1-1.4-0.1-2.8,0.1c-1.4,0.2-2.4,0.1-3.2-0.2c-0.8-0.3-1.4-0.9-1.9-1.7c-0.6-1-0.7-2-0.3-3c0.4-1,1.2-1.8,2.4-2.5
							c1.2-0.7,2.5-1,3.9-1.2l0.3,1.9c-1.3,0.2-2.4,0.5-3.3,0.9c-0.6,0.4-1.1,0.8-1.2,1.2c-0.2,0.5-0.1,0.9,0.1,1.4
							c0.2,0.3,0.4,0.5,0.7,0.7c0.3,0.1,0.6,0.2,1,0.3c0.4,0,1.1,0,2.1-0.1c1.1-0.1,2-0.2,2.6-0.1c0.6,0.1,1.1,0.3,1.5,0.6
							C639,230.2,639.4,230.7,639.7,231.2z"/>
						<path class="st0" d="M651.5,228.9l-3.1-2.6l-4.7,2.6l0.7,4l-2.1,1.2l-2.4-14.5l2.2-1.2l11.5,9.5L651.5,228.9z M646.9,224.9
							l-3-2.6c-0.2-0.2-0.5-0.5-0.9-0.8s-0.7-0.7-0.9-0.9c0.2,0.8,0.4,1.6,0.6,2.6l0.7,3.7L646.9,224.9z"/>
						<path class="st0" d="M655.2,226.8l-6.9-11.9l2-1.1l6,10.3l5.2-2.9l1,1.7L655.2,226.8z"/>
						<path class="st0" d="M671.3,217.8l-6.9,3.8l-6.9-11.9l6.9-3.8l1,1.7l-4.9,2.7l1.9,3.3l4.6-2.6l0.9,1.6l-4.6,2.6l2.2,3.8
							l4.9-2.7L671.3,217.8z"/>
					</g>
				</g>
				<line class="st0" x1="621" y1="225.5" x2="654.9" y2="284.1"/>
			</g>
			<g>
				<g>
					<path class="st0" d="M655.8,280.6l41.3,7l4.5-48.5l-33.6-5.7L655.8,280.6z M689.5,242.6c0.1-0.7,0.8-1.2,1.6-1.1
						c0.7,0.1,1.2,0.8,1.1,1.5c-0.1,0.7-0.8,1.2-1.6,1.1C689.9,244,689.4,243.3,689.5,242.6z M675.6,240.2c0.1-0.7,0.8-1.2,1.6-1.1
						c0.7,0.1,1.2,0.8,1.1,1.5c-0.1,0.7-0.8,1.2-1.6,1.1C676,241.6,675.5,240.9,675.6,240.2z"/>
					<path class="st0" d="M676.9,240.3c0.3,0.1,0.6-0.1,0.6-0.4l2.2-12.4c0.6-3.5,4-5.8,7.5-5.2c3.5,0.6,5.9,3.9,5.3,7.4l-2.2,12.4
						c-0.1,0.3,0.2,0.6,0.5,0.6c0.3,0.1,0.6-0.1,0.6-0.4l2.2-12.4c0.7-4.1-2.1-7.9-6.2-8.6s-8.1,2-8.8,6.1l-2.2,12.4
						C676.4,240,676.6,240.3,676.9,240.3z"/>
				</g>
				<path class="st0" d="M677.8,262l-0.4-3.1l-4.6-0.8l-1.4,2.8l-2.9-0.5l6.6-11.7l3.3,0.6l2.3,13.2L677.8,262z M677.1,256.6
					c-0.4-2.8-0.6-4.4-0.6-4.8c0-0.4-0.1-0.7-0.1-0.9c-0.3,0.7-1.2,2.4-2.6,5.1L677.1,256.6z"/>
				<path class="st0" d="M693.8,258.2c-0.4,2-1.2,3.5-2.6,4.4c-1.4,0.9-3.2,1.1-5.4,0.8l-3.6-0.6l2.2-12.4l3.9,0.7
					c2.1,0.3,3.6,1.1,4.5,2.4C693.8,254.7,694.1,256.3,693.8,258.2z M691,257.8c0.5-2.7-0.5-4.2-2.9-4.6l-1.4-0.2l-1.4,8l1.1,0.2
					C689,261.7,690.5,260.5,691,257.8z"/>
			</g>
			<g>
				<g>
					<g>
						<path class="st1" d="M651.3,298.7l42.8-7.8c5.6-1,9.5-7.7,10.1-13.3l1.5-13.3l-64,11.6L651.3,298.7z"/>
						<path class="st2" d="M651.3,298.7l42.8-7.8c5.6-1,9.5-7.7,10.1-13.3l1.5-13.3l-64,11.6L651.3,298.7z"/>
					</g>
					<path class="st0" d="M624.4,270.2l10.8-2c1.5-0.3,2.9,0.4,3.6,1.7l14.9,33.3c2.3,4,6.9,6.2,11.5,5.3l45.2-8.2"/>
					<path class="st0" d="M691.8,312.6c0.6,3.4,4,5.7,7.4,5c3.5-0.6,5.8-3.9,5.1-7.3c-0.6-3.4-4-5.7-7.4-5
						C693.5,306,691.2,309.2,691.8,312.6z"/>
					<ellipse class="st0" cx="666.1" cy="317.3" rx="6.4" ry="6.3"/>
					<path class="st0" d="M651.3,298.7l42.8-7.8c5.6-1,9.5-7.7,10.1-13.3l1.5-13.3l-64,11.6L651.3,298.7z"/>
					<line class="st0" x1="704.1" y1="277.3" x2="646.9" y2="287.7"/>
					<line class="st0" x1="673.2" y1="270.3" x2="677.7" y2="293.9"/>
					<line class="st0" x1="656.8" y1="273.3" x2="664.3" y2="296.4"/>
					<line class="st0" x1="689.5" y1="267.3" x2="690.9" y2="291.6"/>
				</g>
			</g>
		</g>
		<g>
			<g>
				<path class="st0" d="M697.5,235.5l1.1,5.8c0.5,1.2,1.5,2,2.7,2.3l21.7,5.6c4,1,8.6-3.2,9.7-7.2l0,0c1-3.9-0.9-9.9-4.9-10.9
					l-21.7-5.6c-1.3-0.3-2.6,0-3.6,0.8l-4,4.8C697.4,232.3,696.9,234,697.5,235.5z M701.3,235.8c-0.9-0.2-1.4-1.1-1.2-2
					c0.2-0.9,1.2-1.4,2.1-1.2c0.9,0.2,1.4,1.1,1.2,2C703.1,235.5,702.2,236,701.3,235.8z"/>
			</g>
			<g>
				<path class="st0" d="M716.9,235.3c-0.3,1.3-0.8,2.1-1.5,2.7c-0.7,0.5-1.5,0.6-2.4,0.4c-0.9-0.2-1.5-0.7-1.9-1.5
					c-0.3-0.8-0.3-1.8,0-3c0.7-2.5,2-3.5,3.9-3c0.9,0.2,1.6,0.8,1.9,1.5C717.2,233.1,717.2,234.1,716.9,235.3z M713.2,234.4
					c-0.2,0.7-0.3,1.2-0.2,1.6c0,0.4,0.2,0.6,0.5,0.7c0.5,0.1,1-0.5,1.4-1.9c0.4-1.4,0.3-2.1-0.3-2.3c-0.3-0.1-0.5,0-0.7,0.4
					C713.6,233.2,713.4,233.7,713.2,234.4z M723.6,233.2l-10,10.3l-2-0.5l10-10.3L723.6,233.2z M724.2,242.3
					c-0.3,1.3-0.8,2.1-1.5,2.6c-0.7,0.5-1.5,0.6-2.4,0.4c-0.9-0.2-1.5-0.7-1.9-1.5c-0.3-0.8-0.3-1.8,0-3c0.7-2.5,2-3.5,3.9-3
					c0.9,0.2,1.6,0.8,1.9,1.5C724.5,240.1,724.5,241.1,724.2,242.3z M720.5,241.3c-0.2,0.7-0.3,1.2-0.2,1.6c0,0.4,0.2,0.6,0.5,0.7
					c0.5,0.1,1-0.5,1.4-1.9c0.4-1.4,0.3-2.1-0.3-2.3c-0.3-0.1-0.5,0-0.7,0.4C720.9,240.2,720.7,240.7,720.5,241.3z"/>
			</g>
		</g>
		<line class="st0" x1="690.2" y1="231.9" x2="700.1" y2="233.7"/>
	</g>
	<g>
		<g>
			<path class="st0" d="M596.2,207.9c0-6.3-5.4-11.6-11.8-11.6h-6.9c-0.3,4.9-5.5,8.1-11.8,8.1c-6.3,0-11.4-3.2-11.8-8.1H547
				c-6.4,0-11.1,5.3-11.1,11.6v9.3h10.6V254h38.3v-36.9h11.3V207.9z"/>
			<g>
				<path class="st0" d="M558,220.1l-0.7-2.1H554l-0.7,2.1h-2.1l3.2-9h2.4l3.2,9H558z M556.9,216.3c-0.6-1.9-1-3-1-3.3
					c-0.1-0.3-0.1-0.5-0.2-0.6c-0.1,0.5-0.5,1.8-1.2,3.9H556.9z"/>
				<path class="st0" d="M568.8,215.5c0,1.5-0.4,2.6-1.3,3.4c-0.9,0.8-2.1,1.2-3.7,1.2h-2.6v-9h2.9c1.5,0,2.6,0.4,3.5,1.2
					C568.4,213,568.8,214.1,568.8,215.5z M566.8,215.5c0-1.9-0.9-2.9-2.6-2.9h-1v5.8h0.8C565.9,218.5,566.8,217.5,566.8,215.5z"/>
			</g>
			<path class="st0" d="M592.6,207.9c0-6.3-5.4-11.6-11.8-11.6h-6.9c-0.3,4.9-5.5,8.1-11.8,8.1c-6.3,0-11.4-3.2-11.8-8.1h-6.9
				c-6.4,0-11.1,5.3-11.1,11.6v9.3H543V254h38.3v-36.9h11.3V207.9z"/>
		</g>
		<g>
			<path class="st0" d="M610.6,270.2h-42.3c-2.5,0-4.5-2-4.5-4.5v-23.6c0-2.5,2-4.5,4.5-4.5h42.3c2.5,0,4.5,2,4.5,4.5v23.6
				C615,268.2,613,270.2,610.6,270.2z"/>
			<ellipse class="st0" cx="596.3" cy="253.4" rx="14" ry="13.8"/>
			<path class="st0" d="M606.3,237.6h-20.1l1.3-4.7c0.6-1.3,2-2.2,3.5-2.2h10.5c1.5,0,2.8,0.8,3.5,2.2L606.3,237.6z"/>
			<path class="st0" d="M578,237.6h-8.8V236c0-1,0.8-1.8,1.8-1.8h5.2c1,0,1.8,0.8,1.8,1.8V237.6z"/>
			<line class="st0" x1="569.2" y1="242.2" x2="577.7" y2="242.2"/>
			<path class="st0" d="M582.7,242.2c0,0.9-0.7,1.6-1.6,1.6s-1.6-0.7-1.6-1.6s0.7-1.6,1.6-1.6S582.7,241.3,582.7,242.2z"/>
		</g>
	</g>
	<path class="st0" d="M366.2,255.1L366,282c-0.1,21.3-17.7,38.4-39.4,38.4H101.1c-20.2,0-36.6-16.1-36.6-45.8v-52.5"/>
	<path class="st0" d="M366.2,255.1L366,282c-0.1,21.3-17.7,38.4-39.4,38.4H101.1c-20.2,0-36.6-16.1-36.6-45.8v-52.5"/>
	<g>
		<g>
			<g>
				<path class="st0" d="M140.9,325.4v-43.9c0-4.3,3.5-7.8,7.8-7.8h70.4c4.3,0,7.8,3.5,7.8,7.8v43.9c0,4.3-3.5,7.8-7.8,7.8h-70.4
					C144.4,333.2,140.9,329.8,140.9,325.4z"/>
				<path class="st0" d="M147,306.3c-1.6,0-2.9-1.3-2.9-2.9c0-1.6,1.3-2.9,2.9-2.9c1.6,0,2.9,1.3,2.9,2.9
					C149.9,305.1,148.6,306.3,147,306.3z"/>
			</g>
			<path class="st0" d="M220.2,323.5h-65.8l-0.2-90.4c0-4.7,3.9-7.9,8.6-7.9h65.2c0,0-8.1,0.1-8.1,4.7
				C220,234.4,220.2,323.5,220.2,323.5z"/>
			<path class="st0" d="M227.5,226l-66.4,0c-4,0-7.9,3-7.9,6.9v91.4h67.3v-92.8c0-3,2.7-5.6,5.8-5.6l0,0c3.1,0,5.6,2.5,5.6,5.6v12.2
				l-11.2,0.4"/>
			<g>
				<line class="st0" x1="160.5" y1="272.3" x2="214.9" y2="272.4"/>
				<path class="st0" d="M174.7,272.3c0,1.7-1.4,3.1-3.1,3.1c-1.7,0-3.1-1.4-3.1-3.1c0-1.7,1.4-3.1,3.1-3.1
					C173.3,269.2,174.7,270.6,174.7,272.3z"/>
				<g>
					<rect x="160.1" y="232.6" class="st0" width="54.5" height="34.3"/>
					<line class="st0" x1="164.5" y1="235.2" x2="164.5" y2="264.5"/>
					<line class="st0" x1="207" y1="235.2" x2="207" y2="264.5"/>
					<polygon class="st0" points="178,239.1 178,261.4 197.3,249.6 					"/>
				</g>
			</g>
			<rect x="158.1" y="278" class="st0" width="56.9" height="11.4"/>
			<line class="st0" x1="158.1" y1="292.3" x2="214.8" y2="292.3"/>
			<line class="st0" x1="158.1" y1="298.6" x2="214.8" y2="298.6"/>
			<line class="st0" x1="158.1" y1="304.9" x2="214.8" y2="304.9"/>
			<line class="st0" x1="184.3" y1="311.1" x2="214.8" y2="311.1"/>
			<line class="st0" x1="184.3" y1="317.4" x2="214.8" y2="317.4"/>
			<rect x="157.9" y="308.8" class="st0" width="23.3" height="11.2"/>
		</g>
	</g>
	<g>
		<g>
			<polygon class="st0" points="328.3,28.3 343.3,28.3 343.3,19.4 328.3,19.4 332.3,23.8 			"/>
			<path class="st0" d="M382.3,31.3h6.7c8.1,0,14.6,6.5,14.6,14.6v26.4h-35.9V45.9C367.7,37.8,374.2,31.3,382.3,31.3z"/>
			<rect x="365.9" y="46.6" class="st0" width="32" height="19.9"/>
			<polygon class="st0" points="374.5,57 397.9,46.6 351.8,46.6 			"/>
			<path class="st0" d="M383.8,31.2h-40.9c-8.9,0-16.1,7.1-16.1,15.9v25.2h41.1V46.4C367.9,38.1,375.3,31.2,383.8,31.2z"/>
			<path class="st0" d="M345.4,55.3c0,1.3-1.1,2.3-2.4,2.3c-1.3,0-2.4-1-2.4-2.3c0-1.3,1.1-2.3,2.4-2.3
				C344.4,53,345.4,54,345.4,55.3z"/>
			<line class="st0" x1="343.1" y1="19.4" x2="343.1" y2="52.8"/>
			<rect x="349.7" y="72.3" class="st0" width="5.7" height="66.5"/>
		</g>
		<g>
			<g>
				<path class="st0" d="M498.5,189.2H378.1c-6.3,0-11.4-5.1-11.4-11.4v-71.8c0-6.3,5.1-11.4,11.4-11.4h120.5
					c6.3,0,11.4,5.1,11.4,11.4v71.8C510,184.1,504.9,189.2,498.5,189.2z"/>
				<path class="st0" d="M477.7,182.4h-93.9c-5.9,0-10.6-4.7-10.6-10.6v-60c0-5.9,4.7-10.6,10.6-10.6h93.9c5.9,0,10.6,4.7,10.6,10.6
					v60C488.3,177.7,483.5,182.4,477.7,182.4z"/>
			</g>
			<line class="st0" x1="447.1" y1="85.6" x2="485.4" y2="42.5"/>
			<line class="st0" x1="437.1" y1="87.5" x2="439.4" y2="30.4"/>
			<path class="st0" d="M494.1,35.4c1.1,3-0.5,6.2-3.6,7.3c-3,1-6.4-0.5-7.4-3.5c-1.1-3,0.5-6.2,3.6-7.3
				C489.7,30.8,493,32.4,494.1,35.4z"/>
			<path class="st0" d="M442.5,30.1c-2.9,1.4-6.4,0.3-7.8-2.5c-1.5-2.8-0.4-6.3,2.5-7.7c2.9-1.4,6.4-0.3,7.8,2.5
				C446.5,25.2,445.3,28.7,442.5,30.1z"/>
			<ellipse class="st0" cx="498.3" cy="146.9" rx="8.2" ry="8"/>
			<path class="st0" d="M503.3,127.9c0,2.7-2.2,4.9-5,4.9c-2.7,0-5-2.2-5-4.9s2.2-4.9,5-4.9C501.1,123.1,503.3,125.2,503.3,127.9z"
				/>
			<path class="st0" d="M452.3,92.9h-27.9l0,0c0-5.9,4.9-10.7,10.9-10.7h6.1C447.4,82.2,452.3,87,452.3,92.9L452.3,92.9z"/>
		</g>
		<g>
			<g>
				<path class="st0" d="M520,203.4h-21.9c-1.7,0-3.1-1.4-3.1-3.1v-36.9c0-1.7,1.4-3.1,3.1-3.1H520c1.7,0,3.1,1.4,3.1,3.1v36.9
					C523.1,202.1,521.7,203.4,520,203.4z"/>
				<path class="st0" d="M518.7,177.8h-19.1c-0.8,0-1.4-0.6-1.4-1.4v-11.1c0-0.8,0.6-1.4,1.4-1.4h19.1c0.8,0,1.4,0.6,1.4,1.4v11.1
					C520.1,177.2,519.5,177.8,518.7,177.8z"/>
				<rect x="493.1" y="167.3" class="st0" width="2" height="4.2"/>
				<rect x="493.1" y="174.3" class="st0" width="2" height="4.2"/>
				<rect x="493.1" y="181.2" class="st0" width="2" height="4.2"/>
				<g>
					<defs>
						<ellipse id="SVGID_1_" cx="509.3" cy="190.9" rx="9.2" ry="9.1"/>
					</defs>
					<use xlink:href="#SVGID_1_"  style="overflow:visible;fill:#ff6600;"/>
					<clipPath id="SVGID_2_">
						<use xlink:href="#SVGID_1_"  style="overflow:visible;"/>
					</clipPath>
					<ellipse class="st3" cx="509.3" cy="190.9" rx="9.2" ry="9.1"/>
					<g class="st4">
						<g>
							<line class="st0" x1="498.3" y1="183.7" x2="498.3" y2="183.7"/>
							<line class="st0" x1="501.9" y1="183.7" x2="517.5" y2="183.7"/>
							<line class="st0" x1="519.6" y1="183.7" x2="519.6" y2="183.7"/>
						</g>
					</g>
					<g class="st4">
						<g>
							<line class="st0" x1="500.5" y1="185.8" x2="500.5" y2="185.8"/>
							<line class="st0" x1="504" y1="185.8" x2="519.6" y2="185.8"/>
							<line class="st0" x1="521.7" y1="185.8" x2="521.7" y2="185.8"/>
						</g>
					</g>
					<g class="st4">
						<g>
							<line class="st0" x1="499" y1="187.9" x2="499" y2="187.9"/>
							<line class="st0" x1="501.9" y1="187.9" x2="518.2" y2="187.9"/>
							<line class="st0" x1="519.6" y1="187.9" x2="520.3" y2="187.9"/>
						</g>
					</g>
					<g class="st4">
						<g>
							<line class="st0" x1="501.2" y1="190" x2="501.2" y2="190"/>
							<line class="st0" x1="504" y1="190" x2="520.3" y2="190"/>
							<line class="st0" x1="521.7" y1="190" x2="522.4" y2="190"/>
						</g>
					</g>
					<g class="st4">
						<g>
							<line class="st0" x1="499" y1="192.1" x2="499" y2="192.1"/>
							<line class="st0" x1="501.9" y1="192.1" x2="518.2" y2="192.1"/>
							<line class="st0" x1="519.6" y1="192.1" x2="520.3" y2="192.1"/>
						</g>
					</g>
					<g class="st4">
						<g>
							<line class="st0" x1="501.2" y1="194.2" x2="501.2" y2="194.2"/>
							<line class="st0" x1="504" y1="194.2" x2="520.3" y2="194.2"/>
							<line class="st0" x1="521.7" y1="194.2" x2="522.4" y2="194.2"/>
						</g>
					</g>
					<g class="st4">
						<g>
							<line class="st0" x1="499" y1="196.3" x2="499.8" y2="196.3"/>
							<line class="st0" x1="502.6" y1="196.3" x2="518.9" y2="196.3"/>
							<line class="st0" x1="520.3" y1="196.3" x2="520.3" y2="196.3"/>
						</g>
					</g>
					<g class="st4">
						<g>
							<line class="st0" x1="501.2" y1="198.3" x2="501.9" y2="198.3"/>
							<line class="st0" x1="504.7" y1="198.3" x2="521" y2="198.3"/>
							<line class="st0" x1="522.4" y1="198.3" x2="522.4" y2="198.3"/>
						</g>
					</g>
					<use xlink:href="#SVGID_1_"  style="overflow:visible;fill:none;stroke:#010101;stroke-miterlimit:10;"/>
				</g>
			</g>
			<ellipse class="st0" cx="509.3" cy="190.9" rx="9.7" ry="9.6"/>
		</g>
		<g>
			<g>
				<path class="st0" d="M366.4,204.1l-52.4,0l0-88c0-4.6,3.7-8.3,8.3-8.3l56.2,0l0,84.2C378.5,198.7,373.1,204.1,366.4,204.1z"/>
				<path class="st0" d="M391.2,124.7l-12.6,0l0-16.9l5.3,0c4,0,7.3,3.3,7.3,7.3L391.2,124.7z"/>
				<path class="st0" d="M367.8,204.1l-52.5,0c-6.6,0-11.9-5.2-11.9-11.7l0-4.9l51.4,0C354.5,204.1,367.8,204.1,367.8,204.1z"/>
			</g>
			<g>
				<path class="st0" d="M334.5,130.1h-3.3l-5.3-9h-0.1c0.1,1.6,0.2,2.7,0.2,3.4v5.6h-2.3v-11.9h3.2l5.3,8.9h0.1
					c-0.1-1.5-0.1-2.6-0.1-3.3v-5.6h2.3V130.1z"/>
				<path class="st0" d="M344.5,130.1h-7v-11.9h7v2.1h-4.4v2.6h4.1v2.1h-4.1v3.1h4.4V130.1z"/>
				<path class="st0" d="M358.9,130.1h-2.9l-1.6-6.3c-0.1-0.2-0.2-0.7-0.3-1.4c-0.1-0.7-0.2-1.2-0.3-1.4c0,0.3-0.1,0.8-0.2,1.4
					c-0.1,0.6-0.2,1.1-0.3,1.4l-1.6,6.2h-2.9l-3.1-11.9h2.5l1.6,6.5c0.3,1.2,0.5,2.2,0.6,3.1c0-0.3,0.1-0.8,0.2-1.4
					c0.1-0.6,0.2-1.2,0.3-1.5l1.8-6.7h2.4l1.8,6.7c0.1,0.3,0.2,0.8,0.3,1.4c0.1,0.6,0.2,1.1,0.3,1.6c0.1-0.4,0.1-1,0.3-1.6
					c0.1-0.6,0.2-1.1,0.3-1.5l1.5-6.5h2.5L358.9,130.1z"/>
				<path class="st0" d="M370.6,126.8c0,1.1-0.4,1.9-1.2,2.5c-0.8,0.6-1.9,0.9-3.3,0.9c-1.3,0-2.4-0.2-3.4-0.7v-2.3
					c0.8,0.4,1.5,0.6,2.1,0.8c0.6,0.1,1.1,0.2,1.6,0.2c0.6,0,1-0.1,1.3-0.3c0.3-0.2,0.5-0.5,0.5-0.9c0-0.2-0.1-0.4-0.2-0.6
					c-0.1-0.2-0.3-0.4-0.6-0.5c-0.3-0.2-0.8-0.4-1.6-0.8c-0.7-0.3-1.3-0.7-1.7-1c-0.4-0.3-0.7-0.7-0.9-1.1c-0.2-0.4-0.3-0.9-0.3-1.5
					c0-1.1,0.4-1.9,1.1-2.5c0.7-0.6,1.7-0.9,3-0.9c0.6,0,1.2,0.1,1.8,0.2c0.6,0.1,1.2,0.4,1.8,0.6l-0.8,2c-0.6-0.3-1.2-0.4-1.6-0.5
					c-0.4-0.1-0.8-0.2-1.2-0.2c-0.5,0-0.9,0.1-1.1,0.3c-0.3,0.2-0.4,0.5-0.4,0.9c0,0.2,0.1,0.4,0.2,0.6c0.1,0.2,0.3,0.3,0.5,0.5
					c0.2,0.2,0.8,0.4,1.6,0.8c1.1,0.5,1.9,1.1,2.3,1.6C370.4,125.4,370.6,126,370.6,126.8z"/>
			</g>
			<rect x="307.4" y="132.9" class="st0" width="62.5" height="7.7"/>
			<line class="st0" x1="321.8" y1="143.3" x2="338.1" y2="143.3"/>
			<line class="st0" x1="321.8" y1="148.9" x2="338.1" y2="148.9"/>
			<line class="st0" x1="321.8" y1="154.5" x2="338.1" y2="154.5"/>
			<line class="st0" x1="321.8" y1="160" x2="352.3" y2="160"/>
			<line class="st0" x1="339.6" y1="165.6" x2="369.3" y2="165.6"/>
			<line class="st0" x1="353.7" y1="160" x2="369.3" y2="160"/>
			<line class="st0" x1="321.8" y1="165.6" x2="338.1" y2="165.6"/>
			<line class="st0" x1="321.8" y1="171.2" x2="338.1" y2="171.2"/>
			<line class="st0" x1="339.6" y1="171.2" x2="355.9" y2="171.2"/>
			<line class="st0" x1="358" y1="171.2" x2="369.3" y2="171.2"/>
			<line class="st0" x1="321.8" y1="176.8" x2="338.1" y2="176.8"/>
			<line class="st0" x1="339.6" y1="176.8" x2="363" y2="176.8"/>
			<line class="st0" x1="321.8" y1="182.3" x2="338.1" y2="182.3"/>
			<rect x="341.7" y="141.9" class="st0" width="28.2" height="15.3"/>
		</g>
		<g>
			<line class="st0" x1="388.6" y1="164.4" x2="433.1" y2="178.7"/>
			<path class="st0" d="M434.4,226.8h-56.7c-5.5,0-10-4.5-10-10v-29.2c0-5.5,4.5-10,10-10h56.7c5.5,0,10,4.5,10,10v29.2
				C444.3,222.3,439.9,226.8,434.4,226.8z"/>
			<g>
				<line class="st0" x1="380.7" y1="192.8" x2="400.5" y2="192.8"/>
				<line class="st0" x1="377.8" y1="197.6" x2="403.4" y2="197.6"/>
				<line class="st0" x1="375.7" y1="202.5" x2="405.5" y2="202.5"/>
				<line class="st0" x1="377.8" y1="207.4" x2="402.6" y2="207.4"/>
				<line class="st0" x1="380.7" y1="212.3" x2="400.5" y2="212.3"/>
			</g>
			<ellipse class="st0" cx="427.4" cy="201.9" rx="7.1" ry="7"/>
			<g>
				<path class="st0" d="M435,206.9c-2.7,3.4-7.8,4-11.3,1.3c-3.5-2.7-4.1-7.7-1.3-11.1c2.7-3.4,7.8-4,11.3-1.3
					C437.2,198.5,437.8,203.4,435,206.9z"/>
				<polyline class="st0" points="432.3,194.1 436.1,192.8 435.8,196.8 				"/>
			</g>
			<path class="st0" d="M412.7,218.8c0,1.5-1.2,2.6-2.7,2.6c-1.5,0-2.7-1.2-2.7-2.6c0-1.5,1.2-2.6,2.7-2.6
				C411.5,216.1,412.7,217.3,412.7,218.8z"/>
			<path class="st0" d="M421.3,218.8c0,1.5-1.2,2.6-2.7,2.6c-1.5,0-2.7-1.2-2.7-2.6c0-1.5,1.2-2.6,2.7-2.6
				C420.1,216.1,421.3,217.3,421.3,218.8z"/>
			<path class="st0" d="M429.9,218.8c0,1.5-1.2,2.6-2.7,2.6c-1.5,0-2.7-1.2-2.7-2.6c0-1.5,1.2-2.6,2.7-2.6
				C428.7,216.1,429.9,217.3,429.9,218.8z"/>
			<path class="st0" d="M438.5,218.8c0,1.5-1.2,2.6-2.7,2.6c-1.5,0-2.7-1.2-2.7-2.6c0-1.5,1.2-2.6,2.7-2.6
				C437.3,216.1,438.5,217.3,438.5,218.8z"/>
			<path class="st0" d="M388.3,163c0,1.4-1.2,2.5-2.6,2.5c-1.4,0-2.6-1.1-2.6-2.5c0-1.4,1.2-2.5,2.6-2.5
				C387.1,160.4,388.3,161.6,388.3,163z"/>
		</g>
		<g>
			<g>
				<path class="st0" d="M437.3,171.7l-4.1,2.3c-0.8,0.5-1.9,0.2-2.3-0.6l-12.7-22.6c-0.5-0.8-0.2-1.8,0.6-2.3l4.1-2.3
					c0.8-0.5,1.9-0.2,2.3,0.6l12.7,22.6C438.4,170.2,438.2,171.2,437.3,171.7z"/>
				<path class="st0" d="M406.3,148.9l15.2,0l-6.4-28.6l-13.8,6.2c-1.8,1.2-2.7,3.3-2.2,5.4l2.9,13
					C402.4,147,404.2,148.6,406.3,148.9z"/>
				<path class="st0" d="M408,121.1l6.6,29.7c0,0,12.8-3.7,26.3-4l-7.5-33.7C420.3,119.6,408,121.1,408,121.1z"/>
				<path class="st0" d="M433.4,113.1l7.5,33.7c2.4-0.1,4.9,0,7.3,0.2l-8.3-37.5C437.7,110.9,435.5,112,433.4,113.1z"/>
				<path class="st0" d="M439.8,109.5l8.3,37.5c6.1,0.5,11.9,2,16.3,5.2l-11.9-53.3C448.8,103.2,444.3,106.7,439.8,109.5z"/>
				<line class="st0" x1="453.3" y1="98.4" x2="465.6" y2="153.5"/>
				<path class="st0" d="M464.7,132.1l-3.6,1.3l-3.3-14.8l3.9-0.3c2.2-0.2,4.3,1.3,4.7,3.4l1.2,5.4
					C468.1,129.2,466.9,131.3,464.7,132.1z"/>
				<path class="st0" d="M423.7,151.3l-4.6,1c-1.7,0.4-3.3-0.7-3.7-2.3l-6.3-28.5c-0.4-1.6,0.7-3.3,2.4-3.6l4.6-1
					c1.7-0.4,3.3,0.7,3.7,2.3l6.3,28.5C426.4,149.3,425.3,150.9,423.7,151.3z"/>
				<line class="st0" x1="397.7" y1="129.4" x2="401.8" y2="147.8"/>
			</g>
			<g>
				<line class="st0" x1="468.9" y1="114.2" x2="489.3" y2="93.2"/>
				<line class="st0" x1="471.8" y1="118.2" x2="497" y2="102.9"/>
				<line class="st0" x1="473.6" y1="122.7" x2="501.9" y2="114.3"/>
				<line class="st0" x1="474.2" y1="127.6" x2="503.7" y2="126.5"/>
				<line class="st0" x1="473.4" y1="132.4" x2="502.3" y2="138.8"/>
			</g>
		</g>
		<g>
			<ellipse class="st0" cx="466" cy="175.2" rx="15.5" ry="15.3"/>
			<path class="st0" d="M466,241.2L466,241.2c-2.6,0-4.7-2-4.8-4.6l-1.6-45.5h12.8l-1.6,45.5C470.7,239.1,468.6,241.2,466,241.2z"/>
			<path class="st0" d="M482,178.8h-31.6c-1.4,0-2.4-1.1-2.4-2.4v-0.4c0-1.4,1.1-2.4,2.4-2.4H482c1.4,0,2.4,1.1,2.4,2.4v0.4
				C484.4,177.7,483.3,178.8,482,178.8z"/>
			<line class="st0" x1="452.3" y1="170.1" x2="481.3" y2="170.1"/>
			<line class="st0" x1="453.7" y1="166.7" x2="477.1" y2="166.7"/>
			<line class="st0" x1="458.6" y1="163.2" x2="474.9" y2="163.2"/>
			<line class="st0" x1="479.2" y1="181.3" x2="450.1" y2="181.3"/>
			<line class="st0" x1="477.8" y1="184.8" x2="454.4" y2="184.8"/>
			<line class="st0" x1="472.8" y1="188.2" x2="456.5" y2="188.2"/>
			<path class="st0" d="M476.4,199.5h-20.8c-1.7,0-3.2-1.4-3.2-3.2v-7.1c0-1.7,1.4-3.2,3.2-3.2h20.8c1.7,0,3.2,1.4,3.2,3.2v7.1
				C479.6,198.1,478.2,199.5,476.4,199.5z"/>
		</g>
	</g>
	<g>
		<path class="st0" d="M79.7,211l-1.2-4.9H53.4l-1.2,4.9c-1.1,4.4-7.5,7.6-12.1,7.6H40v4.5h51.8v-4.5l0,0
			C87.2,218.5,80.8,215.4,79.7,211z"/>
		<path class="st0" d="M119.7,207.1H12.1c-2.3,0-4.1-1.8-4.1-4.1v-65.3c0-2.3,1.8-4.1,4.1-4.1h107.6c2.3,0,4.1,1.8,4.1,4.1V203
			C123.8,205.2,121.9,207.1,119.7,207.1z"/>
		<g>
			<path class="st0" d="M117.1,201.5H14.7c-0.5,0-0.9-0.4-0.9-0.9v-60.8c0-0.5,0.4-0.9,0.9-0.9h102.5c0.5,0,0.9,0.4,0.9,0.9v60.8
				C118,201.1,117.6,201.5,117.1,201.5z"/>
			<rect x="13.8" y="138.6" class="st0" width="104.2" height="6.9"/>
			<ellipse class="st0" cx="19.7" cy="142.1" rx="1.8" ry="1.8"/>
			<path class="st0" d="M27.7,142.1c0,1-0.8,1.8-1.8,1.8c-1,0-1.8-0.8-1.8-1.8s0.8-1.8,1.8-1.8C26.9,140.3,27.7,141.1,27.7,142.1z"
				/>
			<path class="st0" d="M33.9,142.1c0,1-0.8,1.8-1.8,1.8c-1,0-1.8-0.8-1.8-1.8s0.8-1.8,1.8-1.8C33.1,140.3,33.9,141.1,33.9,142.1z"
				/>
			<rect x="28.9" y="151.1" class="st0" width="20.5" height="17.8"/>
			<rect x="56" y="151.1" class="st0" width="20.5" height="17.8"/>
			<rect x="82.9" y="151.1" class="st0" width="20.5" height="17.8"/>
			<rect x="27.9" y="173.9" class="st0" width="21.5" height="5.6"/>
			<rect x="55.5" y="173.9" class="st0" width="21.5" height="5.6"/>
			<rect x="82.4" y="173.9" class="st0" width="21.5" height="5.6"/>
			<line class="st0" x1="27.7" y1="182.3" x2="49.7" y2="182.3"/>
			<line class="st0" x1="27.7" y1="185.8" x2="49.7" y2="185.8"/>
			<line class="st0" x1="55.3" y1="182.3" x2="76.6" y2="182.3"/>
			<line class="st0" x1="55.3" y1="185.8" x2="76.6" y2="185.8"/>
			<line class="st0" x1="82.3" y1="182.3" x2="104.2" y2="182.3"/>
			<line class="st0" x1="82.3" y1="185.8" x2="104.2" y2="185.8"/>
			<rect x="13.8" y="190.9" class="st0" width="104.3" height="10.5"/>
		</g>
	</g>
	<g>
		<rect x="87.9" y="196.6" class="st0" width="51.7" height="34.4"/>
		<g>
			<g>
				<polygon class="st0" points="107,212 108.6,213.7 89.5,231.1 137.6,231.1 117.5,213.4 119.3,211.7 139.7,229.5 139.7,196.6 
					113.7,216.6 87.9,196.6 87.9,229.6 				"/>
				<path class="st0" d="M139.2,196.6L139.2,196.6l-23-18.6c-2.1-1.7-5-1.6-7,0.1l-21.4,18.5l0,0l21.4,18.6c2,1.7,5,1.8,7,0.1
					L139.2,196.6L139.2,196.6z"/>
			</g>
			<g>
				<ellipse class="st0" cx="118.9" cy="183.2" rx="14.3" ry="14"/>
				<g>
					<path class="st0" d="M128,182.3c0,1.1-0.2,2-0.5,2.9s-0.8,1.5-1.4,2c-0.6,0.5-1.3,0.7-2.1,0.7c-0.6,0-1.1-0.2-1.5-0.5
						c-0.4-0.3-0.7-0.7-0.9-1.3h-0.1c-0.4,0.6-0.8,1-1.4,1.3c-0.5,0.3-1.1,0.4-1.8,0.4c-1.2,0-2.2-0.4-2.9-1.2c-0.7-0.8-1-1.8-1-3.1
						c0-1.5,0.5-2.7,1.4-3.7c0.9-0.9,2.2-1.4,3.7-1.4c0.6,0,1.2,0,1.9,0.1c0.7,0.1,1.3,0.2,1.8,0.4l-0.2,5.1v0.3
						c0,1.2,0.4,1.8,1.2,1.8c0.6,0,1.1-0.4,1.4-1.1c0.3-0.7,0.5-1.7,0.5-2.9c0-1.3-0.3-2.4-0.8-3.3c-0.5-1-1.3-1.7-2.2-2.2
						c-1-0.5-2.1-0.8-3.3-0.8c-1.6,0-3,0.3-4.2,1c-1.2,0.6-2.1,1.6-2.7,2.8c-0.6,1.2-0.9,2.6-0.9,4.2c0,2.1,0.6,3.8,1.7,4.9
						c1.2,1.1,2.8,1.7,5,1.7c1.7,0,3.4-0.3,5.2-1v1.8c-1.6,0.6-3.3,0.9-5.1,0.9c-2.8,0-4.9-0.7-6.5-2.2c-1.5-1.5-2.3-3.5-2.3-6.1
						c0-1.9,0.4-3.6,1.3-5.1c0.8-1.5,2-2.6,3.5-3.4c1.5-0.8,3.2-1.2,5-1.2c1.6,0,3.1,0.3,4.3,1s2.3,1.6,3,2.8
						C127.6,179.2,128,180.6,128,182.3z M116.4,183.7c0,1.7,0.7,2.6,2.1,2.6c1.4,0,2.2-1.1,2.4-3.2l0.1-2.6c-0.5-0.1-1-0.2-1.5-0.2
						c-1,0-1.7,0.3-2.2,0.9C116.7,181.7,116.4,182.6,116.4,183.7z"/>
				</g>
			</g>
		</g>
	</g>
	<g>
		<g>
			<path class="st0" d="M104.1,296c0.3-2.3-1.6-3.4-3.5-3.4c1.9,0,4.9-0.7,5.1-3.4c0.1-1.9-1.5-3.4-3.5-3.4h-9.9
				c-1.6,0-3.1-0.5-2.4-3l1.5-11.4c0.5-2.2,0.2-4.8-2.4-5.2l0,0c-2.5-0.1-3.9,1.2-4.6,5.2c-1.8,9.6-8.4,15.6-11.7,17.4
				c-2,1.1-3.5,2.6-3.6,4.6c-0.1,3.3-0.1,8.1-0.1,11.9c0,3.4,2.9,6.2,6.4,6.2l0,0c7,1.7,14.3,1.8,21.4,0.2l1.1-0.2
				c1.7,0,3.1-1.3,3.1-2.9c0-1.1-0.6-2-1.5-2.5c1.7-0.3,3.3-0.4,3.8-2.9c0.4-1.9-1-3.4-2.5-3.8C102.5,299,103.8,298.1,104.1,296z"/>
			<polygon class="st0" points="104.1,296 104.1,296 104.1,296 			"/>
		</g>
		<rect x="60.4" y="284.5" class="st0" width="13.6" height="30.5"/>
	</g>
	<g>
		<rect x="343.6" y="233" class="st0" width="133.5" height="24"/>
		<rect x="479.7" y="233.2" class="st0" width="24.6" height="23.7"/>
		<g>
			<path class="st0" d="M493.9,244.1c0,2.2-1.9,4.1-4.1,4.1c-2.3,0-4.1-1.8-4.1-4.1c0-2.2,1.9-4.1,4.1-4.1
				C492,240,493.9,241.9,493.9,244.1z"/>
			<line class="st0" x1="492.8" y1="247.7" x2="496.9" y2="251.8"/>
		</g>
		<path class="st0" d="M463.1,250.1H357.5c-2.9,0-5.2-2.3-5.2-5.1l0,0c0-2.8,2.3-5.1,5.2-5.1h105.6c2.9,0,5.2,2.3,5.2,5.1l0,0
			C468.3,247.8,466,250.1,463.1,250.1z"/>
	</g>
	<g>
		<g>
			<path class="st0" d="M292.5,298.5H273c-3.2,0-5.7-2.6-5.7-5.7V252c0-3.2,2.6-5.7,5.7-5.7h19.4c3.2,0,5.7,2.6,5.7,5.7v40.8
				C298.2,295.9,295.6,298.5,292.5,298.5z"/>
			<rect x="271.6" y="252.7" class="st0" width="22.5" height="34.4"/>
			<path class="st0" d="M285.5,291.7c0,1.4-1.2,2.5-2.7,2.5c-1.5,0-2.7-1.1-2.7-2.5c0-1.4,1.2-2.5,2.7-2.5
				C284.3,289.1,285.5,290.3,285.5,291.7z"/>
		</g>
		<path class="st0" d="M333.8,254h-41.7l-4.1,7.4v-35.1c0-2.3,1.9-4.1,4.2-4.1h41.6c2.3,0,4.2,1.8,4.2,4.1v23.6
			C338,252.2,336.1,254,333.8,254z"/>
		<g>
			<g>
				<path class="st0" d="M303,220.6v-3.5c1.3-0.6,3.1-1.6,5.4-2.9c4.8-2.7,7.6-4.1,8.5-4.1c0.6,0,1.2,0.3,1.9,0.9
					c0.6,0.6,0.9,1.6,0.9,3.1c0,0.8-0.1,1.8-0.4,2.9c-0.3,1.1-0.6,2.3-1.1,3.7c-0.5,1.4-1,2.9-1.7,4.6c-0.6,1.7-1.2,3.2-1.8,4.6
					c-0.4,1-0.8,2.5-1.3,4.3c-0.5,1.8-0.7,3.1-0.7,3.7c0,0.4,0.2,0.8,0.5,1.2c0.3,0.4,0.7,0.5,1,0.5c1.5,0,4.4-2.1,8.8-6.4v3.7
					c-1.4,0.9-3.5,2.4-6.2,4.5c-1.8,1.4-3.2,2.3-4.2,2.9c-1,0.6-2,0.8-2.9,0.8c-2.9,0-4.4-2-4.4-5.9c0-2.8,1.4-7.6,4.1-14.3
					c1.2-3.2,1.9-5.5,1.9-7.1c0-0.3-0.1-0.6-0.4-1c-0.3-0.3-0.6-0.5-0.9-0.5c-0.5,0-0.9,0.1-1.3,0.3c-0.4,0.2-1.4,0.9-3.2,2.2
					C304.6,219.4,303.7,220,303,220.6z M313.9,201.2c0-1.3,0.3-2.5,0.9-3.5c0.6-1,1.4-1.8,2.3-2.4c0.9-0.6,1.9-0.8,2.8-0.8
					c0.9,0,1.6,0.4,2.2,1.1c0.6,0.7,0.9,1.7,0.9,2.9c0,1.6-0.6,3.1-1.7,4.3c-1.1,1.3-2.4,1.9-3.8,1.9c-1.1,0-2-0.3-2.6-1
					C314.2,203.2,313.9,202.3,313.9,201.2z"/>
			</g>
		</g>
		<g>
			<path class="st0" d="M305.8,219.2v-3.5c1.3-0.6,3.1-1.6,5.4-2.9c4.8-2.7,7.6-4.1,8.5-4.1c0.6,0,1.2,0.3,1.9,0.9
				c0.6,0.6,0.9,1.6,0.9,3.1c0,0.8-0.1,1.8-0.4,2.9c-0.3,1.1-0.6,2.3-1.1,3.7c-0.5,1.4-1,2.9-1.7,4.6c-0.6,1.7-1.2,3.2-1.8,4.6
				c-0.4,1-0.8,2.5-1.3,4.3c-0.5,1.8-0.7,3.1-0.7,3.7c0,0.4,0.2,0.8,0.5,1.2c0.3,0.4,0.7,0.5,1,0.5c1.5,0,4.4-2.1,8.8-6.4v3.7
				c-1.4,0.9-3.5,2.4-6.2,4.5c-1.8,1.4-3.2,2.3-4.2,2.9c-1,0.6-2,0.8-2.9,0.8c-2.9,0-4.4-2-4.4-5.9c0-2.8,1.4-7.6,4.1-14.3
				c1.2-3.2,1.9-5.5,1.9-7.1c0-0.3-0.1-0.6-0.4-1c-0.3-0.3-0.6-0.5-0.9-0.5c-0.5,0-0.9,0.1-1.3,0.3c-0.4,0.2-1.4,0.9-3.2,2.2
				C307.4,218,306.6,218.6,305.8,219.2z M316.7,199.8c0-1.3,0.3-2.5,0.9-3.5c0.6-1,1.4-1.8,2.3-2.4c0.9-0.6,1.9-0.8,2.8-0.8
				c0.9,0,1.6,0.4,2.2,1.1c0.6,0.7,0.9,1.7,0.9,2.9c0,1.6-0.6,3.1-1.7,4.3c-1.1,1.3-2.4,1.9-3.8,1.9c-1.1,0-2-0.3-2.6-1
				C317.1,201.8,316.7,200.9,316.7,199.8z"/>
		</g>
	</g>
	<g>
		<path class="st0" d="M245.8,198.3c1.9-4.5,1.5-11.8-1.6-16.1l-9.5,9c-0.9-0.8-1.8-1.6-2.8-2.5c-12.6-12.4-23.6-0.6-24,5.3
			l-3.5,1.9c0,0,2.8,1.2,3.1,1.5c2.1,2.4,7.5,18.4,23.7,20.8c10.1,1.5,25.2-7.3,29.3-15.8C261,201.1,254.8,202.2,245.8,198.3z"/>
		<path class="st0" d="M219.7,192.4c0,1.1-0.9,2.1-2.1,2.1c-1.2,0-2.1-0.9-2.1-2.1s0.9-2.1,2.1-2.1
			C218.8,190.4,219.7,191.3,219.7,192.4z"/>
	</g>
</g>
</svg>
